G04 #@! TF.GenerationSoftware,KiCad,Pcbnew,6.0.9-8da3e8f707~116~ubuntu20.04.1*
G04 #@! TF.CreationDate,2023-05-05T17:12:55+00:00*
G04 #@! TF.ProjectId,LEC009202,4c454330-3039-4323-9032-2e6b69636164,rev?*
G04 #@! TF.SameCoordinates,Original*
G04 #@! TF.FileFunction,Soldermask,Top*
G04 #@! TF.FilePolarity,Negative*
%FSLAX46Y46*%
G04 Gerber Fmt 4.6, Leading zero omitted, Abs format (unit mm)*
G04 Created by KiCad (PCBNEW 6.0.9-8da3e8f707~116~ubuntu20.04.1) date 2023-05-05 17:12:55*
%MOMM*%
%LPD*%
G01*
G04 APERTURE LIST*
G04 Aperture macros list*
%AMRoundRect*
0 Rectangle with rounded corners*
0 $1 Rounding radius*
0 $2 $3 $4 $5 $6 $7 $8 $9 X,Y pos of 4 corners*
0 Add a 4 corners polygon primitive as box body*
4,1,4,$2,$3,$4,$5,$6,$7,$8,$9,$2,$3,0*
0 Add four circle primitives for the rounded corners*
1,1,$1+$1,$2,$3*
1,1,$1+$1,$4,$5*
1,1,$1+$1,$6,$7*
1,1,$1+$1,$8,$9*
0 Add four rect primitives between the rounded corners*
20,1,$1+$1,$2,$3,$4,$5,0*
20,1,$1+$1,$4,$5,$6,$7,0*
20,1,$1+$1,$6,$7,$8,$9,0*
20,1,$1+$1,$8,$9,$2,$3,0*%
G04 Aperture macros list end*
%ADD10C,0.010000*%
%ADD11C,3.300000*%
%ADD12RoundRect,0.050000X-0.863600X0.863600X-0.863600X-0.863600X0.863600X-0.863600X0.863600X0.863600X0*%
%ADD13O,1.827200X1.827200*%
%ADD14RoundRect,0.050000X-0.600000X-0.800000X0.600000X-0.800000X0.600000X0.800000X-0.600000X0.800000X0*%
%ADD15RoundRect,0.050000X-0.600000X-1.000000X0.600000X-1.000000X0.600000X1.000000X-0.600000X1.000000X0*%
G04 APERTURE END LIST*
G04 #@! TO.C,LOGO1*
G36*
X83440001Y-31829871D02*
G01*
X83446439Y-31833923D01*
X83455779Y-31840183D01*
X83467461Y-31848245D01*
X83480928Y-31857707D01*
X83495622Y-31868162D01*
X83510984Y-31879207D01*
X83526457Y-31890438D01*
X83541483Y-31901449D01*
X83555504Y-31911838D01*
X83567962Y-31921199D01*
X83578298Y-31929128D01*
X83585955Y-31935221D01*
X83590375Y-31939073D01*
X83591247Y-31940190D01*
X83589223Y-31941929D01*
X83583295Y-31946496D01*
X83573671Y-31953736D01*
X83560561Y-31963498D01*
X83544174Y-31975627D01*
X83524719Y-31989971D01*
X83502405Y-32006375D01*
X83477442Y-32024687D01*
X83450037Y-32044753D01*
X83420402Y-32066421D01*
X83388743Y-32089535D01*
X83355272Y-32113944D01*
X83320196Y-32139494D01*
X83283724Y-32166032D01*
X83246067Y-32193404D01*
X83234493Y-32201810D01*
X83196445Y-32229442D01*
X83159468Y-32256293D01*
X83123772Y-32282211D01*
X83089572Y-32307040D01*
X83057081Y-32330626D01*
X83026511Y-32352814D01*
X82998075Y-32373451D01*
X82971985Y-32392382D01*
X82948456Y-32409452D01*
X82927699Y-32424507D01*
X82909927Y-32437392D01*
X82895354Y-32447953D01*
X82884192Y-32456036D01*
X82876654Y-32461486D01*
X82872952Y-32464149D01*
X82872630Y-32464375D01*
X82871417Y-32465123D01*
X82870412Y-32465285D01*
X82869595Y-32464437D01*
X82868947Y-32462156D01*
X82868449Y-32458019D01*
X82868081Y-32451601D01*
X82867823Y-32442478D01*
X82867655Y-32430228D01*
X82867559Y-32414427D01*
X82867514Y-32394651D01*
X82867500Y-32370475D01*
X82867499Y-32353446D01*
X82867500Y-32239032D01*
X83150044Y-32033731D01*
X83183835Y-32009201D01*
X83216537Y-31985507D01*
X83247909Y-31962820D01*
X83277714Y-31941311D01*
X83305711Y-31921152D01*
X83331663Y-31902513D01*
X83355329Y-31885565D01*
X83376470Y-31870480D01*
X83394848Y-31857429D01*
X83410223Y-31846582D01*
X83422356Y-31838111D01*
X83431009Y-31832186D01*
X83435942Y-31828979D01*
X83437021Y-31828430D01*
X83440001Y-31829871D01*
G37*
D10*
X83440001Y-31829871D02*
X83446439Y-31833923D01*
X83455779Y-31840183D01*
X83467461Y-31848245D01*
X83480928Y-31857707D01*
X83495622Y-31868162D01*
X83510984Y-31879207D01*
X83526457Y-31890438D01*
X83541483Y-31901449D01*
X83555504Y-31911838D01*
X83567962Y-31921199D01*
X83578298Y-31929128D01*
X83585955Y-31935221D01*
X83590375Y-31939073D01*
X83591247Y-31940190D01*
X83589223Y-31941929D01*
X83583295Y-31946496D01*
X83573671Y-31953736D01*
X83560561Y-31963498D01*
X83544174Y-31975627D01*
X83524719Y-31989971D01*
X83502405Y-32006375D01*
X83477442Y-32024687D01*
X83450037Y-32044753D01*
X83420402Y-32066421D01*
X83388743Y-32089535D01*
X83355272Y-32113944D01*
X83320196Y-32139494D01*
X83283724Y-32166032D01*
X83246067Y-32193404D01*
X83234493Y-32201810D01*
X83196445Y-32229442D01*
X83159468Y-32256293D01*
X83123772Y-32282211D01*
X83089572Y-32307040D01*
X83057081Y-32330626D01*
X83026511Y-32352814D01*
X82998075Y-32373451D01*
X82971985Y-32392382D01*
X82948456Y-32409452D01*
X82927699Y-32424507D01*
X82909927Y-32437392D01*
X82895354Y-32447953D01*
X82884192Y-32456036D01*
X82876654Y-32461486D01*
X82872952Y-32464149D01*
X82872630Y-32464375D01*
X82871417Y-32465123D01*
X82870412Y-32465285D01*
X82869595Y-32464437D01*
X82868947Y-32462156D01*
X82868449Y-32458019D01*
X82868081Y-32451601D01*
X82867823Y-32442478D01*
X82867655Y-32430228D01*
X82867559Y-32414427D01*
X82867514Y-32394651D01*
X82867500Y-32370475D01*
X82867499Y-32353446D01*
X82867500Y-32239032D01*
X83150044Y-32033731D01*
X83183835Y-32009201D01*
X83216537Y-31985507D01*
X83247909Y-31962820D01*
X83277714Y-31941311D01*
X83305711Y-31921152D01*
X83331663Y-31902513D01*
X83355329Y-31885565D01*
X83376470Y-31870480D01*
X83394848Y-31857429D01*
X83410223Y-31846582D01*
X83422356Y-31838111D01*
X83431009Y-31832186D01*
X83435942Y-31828979D01*
X83437021Y-31828430D01*
X83440001Y-31829871D01*
G36*
X84145120Y-39759580D02*
G01*
X82870040Y-39759580D01*
X82870040Y-39538600D01*
X84145120Y-39538600D01*
X84145120Y-39759580D01*
G37*
X84145120Y-39759580D02*
X82870040Y-39759580D01*
X82870040Y-39538600D01*
X84145120Y-39538600D01*
X84145120Y-39759580D01*
G36*
X83080860Y-37940940D02*
G01*
X83393280Y-37940940D01*
X83393280Y-38164460D01*
X82859880Y-38164460D01*
X82859880Y-37067180D01*
X83080860Y-37067180D01*
X83080860Y-37940940D01*
G37*
X83080860Y-37940940D02*
X83393280Y-37940940D01*
X83393280Y-38164460D01*
X82859880Y-38164460D01*
X82859880Y-37067180D01*
X83080860Y-37067180D01*
X83080860Y-37940940D01*
G36*
X84538820Y-34349380D02*
G01*
X83256120Y-34349380D01*
X83256120Y-34128400D01*
X84538820Y-34128400D01*
X84538820Y-34349380D01*
G37*
X84538820Y-34349380D02*
X83256120Y-34349380D01*
X83256120Y-34128400D01*
X84538820Y-34128400D01*
X84538820Y-34349380D01*
G36*
X84155864Y-35224350D02*
G01*
X84161246Y-35226764D01*
X84169130Y-35231171D01*
X84180022Y-35237839D01*
X84194432Y-35247037D01*
X84199730Y-35250468D01*
X84250247Y-35286255D01*
X84297456Y-35325767D01*
X84341181Y-35368747D01*
X84381245Y-35414939D01*
X84417473Y-35464085D01*
X84449690Y-35515929D01*
X84477719Y-35570214D01*
X84501386Y-35626683D01*
X84520513Y-35685078D01*
X84533608Y-35738614D01*
X84537715Y-35759549D01*
X84540937Y-35778693D01*
X84543387Y-35797214D01*
X84545177Y-35816279D01*
X84546419Y-35837056D01*
X84547226Y-35860714D01*
X84547665Y-35884810D01*
X84547860Y-35903035D01*
X84547960Y-35919929D01*
X84547966Y-35934719D01*
X84547880Y-35946633D01*
X84547704Y-35954897D01*
X84547485Y-35958470D01*
X84546741Y-35964358D01*
X84545630Y-35973690D01*
X84544341Y-35984862D01*
X84543735Y-35990220D01*
X84535047Y-36045997D01*
X84521574Y-36101993D01*
X84503545Y-36157599D01*
X84481188Y-36212206D01*
X84454731Y-36265203D01*
X84424401Y-36315981D01*
X84418955Y-36324230D01*
X84398098Y-36354202D01*
X84377653Y-36380956D01*
X84356317Y-36406058D01*
X84332790Y-36431073D01*
X84317501Y-36446282D01*
X84270656Y-36488480D01*
X84221179Y-36526384D01*
X84169236Y-36559914D01*
X84114994Y-36588986D01*
X84058618Y-36613518D01*
X84000274Y-36633426D01*
X83940129Y-36648629D01*
X83894477Y-36656813D01*
X83885261Y-36658020D01*
X83872810Y-36659423D01*
X83858307Y-36660913D01*
X83842937Y-36662382D01*
X83827885Y-36663719D01*
X83814334Y-36664815D01*
X83803470Y-36665562D01*
X83796505Y-36665850D01*
X83796107Y-36663398D01*
X83795738Y-36656379D01*
X83795405Y-36645308D01*
X83795119Y-36630696D01*
X83794886Y-36613059D01*
X83794717Y-36592909D01*
X83794620Y-36570759D01*
X83794600Y-36554481D01*
X83794600Y-36443101D01*
X83828255Y-36441598D01*
X83877642Y-36436880D01*
X83926391Y-36427286D01*
X83974126Y-36413012D01*
X84020472Y-36394257D01*
X84065055Y-36371216D01*
X84107500Y-36344087D01*
X84147432Y-36313067D01*
X84184476Y-36278352D01*
X84218258Y-36240140D01*
X84223066Y-36234060D01*
X84251193Y-36193962D01*
X84275754Y-36150655D01*
X84296491Y-36104786D01*
X84313147Y-36057001D01*
X84325466Y-36007946D01*
X84333191Y-35958267D01*
X84333331Y-35956939D01*
X84334812Y-35935583D01*
X84335277Y-35910988D01*
X84334784Y-35884830D01*
X84333393Y-35858784D01*
X84331161Y-35834525D01*
X84328369Y-35814960D01*
X84316968Y-35764580D01*
X84301011Y-35715829D01*
X84280722Y-35669027D01*
X84256326Y-35624494D01*
X84228050Y-35582553D01*
X84196119Y-35543523D01*
X84160757Y-35507725D01*
X84122189Y-35475479D01*
X84080642Y-35447107D01*
X84062570Y-35436541D01*
X84054866Y-35432236D01*
X84049162Y-35429023D01*
X84046660Y-35427581D01*
X84046648Y-35427572D01*
X84047589Y-35425282D01*
X84050586Y-35419034D01*
X84055356Y-35409378D01*
X84061617Y-35396866D01*
X84069087Y-35382050D01*
X84077484Y-35365482D01*
X84086526Y-35347712D01*
X84095930Y-35329291D01*
X84105414Y-35310773D01*
X84114697Y-35292708D01*
X84123496Y-35275647D01*
X84131530Y-35260143D01*
X84138515Y-35246746D01*
X84144170Y-35236008D01*
X84148212Y-35228481D01*
X84150360Y-35224716D01*
X84150574Y-35224421D01*
X84152476Y-35223658D01*
X84155864Y-35224350D01*
G37*
X84155864Y-35224350D02*
X84161246Y-35226764D01*
X84169130Y-35231171D01*
X84180022Y-35237839D01*
X84194432Y-35247037D01*
X84199730Y-35250468D01*
X84250247Y-35286255D01*
X84297456Y-35325767D01*
X84341181Y-35368747D01*
X84381245Y-35414939D01*
X84417473Y-35464085D01*
X84449690Y-35515929D01*
X84477719Y-35570214D01*
X84501386Y-35626683D01*
X84520513Y-35685078D01*
X84533608Y-35738614D01*
X84537715Y-35759549D01*
X84540937Y-35778693D01*
X84543387Y-35797214D01*
X84545177Y-35816279D01*
X84546419Y-35837056D01*
X84547226Y-35860714D01*
X84547665Y-35884810D01*
X84547860Y-35903035D01*
X84547960Y-35919929D01*
X84547966Y-35934719D01*
X84547880Y-35946633D01*
X84547704Y-35954897D01*
X84547485Y-35958470D01*
X84546741Y-35964358D01*
X84545630Y-35973690D01*
X84544341Y-35984862D01*
X84543735Y-35990220D01*
X84535047Y-36045997D01*
X84521574Y-36101993D01*
X84503545Y-36157599D01*
X84481188Y-36212206D01*
X84454731Y-36265203D01*
X84424401Y-36315981D01*
X84418955Y-36324230D01*
X84398098Y-36354202D01*
X84377653Y-36380956D01*
X84356317Y-36406058D01*
X84332790Y-36431073D01*
X84317501Y-36446282D01*
X84270656Y-36488480D01*
X84221179Y-36526384D01*
X84169236Y-36559914D01*
X84114994Y-36588986D01*
X84058618Y-36613518D01*
X84000274Y-36633426D01*
X83940129Y-36648629D01*
X83894477Y-36656813D01*
X83885261Y-36658020D01*
X83872810Y-36659423D01*
X83858307Y-36660913D01*
X83842937Y-36662382D01*
X83827885Y-36663719D01*
X83814334Y-36664815D01*
X83803470Y-36665562D01*
X83796505Y-36665850D01*
X83796107Y-36663398D01*
X83795738Y-36656379D01*
X83795405Y-36645308D01*
X83795119Y-36630696D01*
X83794886Y-36613059D01*
X83794717Y-36592909D01*
X83794620Y-36570759D01*
X83794600Y-36554481D01*
X83794600Y-36443101D01*
X83828255Y-36441598D01*
X83877642Y-36436880D01*
X83926391Y-36427286D01*
X83974126Y-36413012D01*
X84020472Y-36394257D01*
X84065055Y-36371216D01*
X84107500Y-36344087D01*
X84147432Y-36313067D01*
X84184476Y-36278352D01*
X84218258Y-36240140D01*
X84223066Y-36234060D01*
X84251193Y-36193962D01*
X84275754Y-36150655D01*
X84296491Y-36104786D01*
X84313147Y-36057001D01*
X84325466Y-36007946D01*
X84333191Y-35958267D01*
X84333331Y-35956939D01*
X84334812Y-35935583D01*
X84335277Y-35910988D01*
X84334784Y-35884830D01*
X84333393Y-35858784D01*
X84331161Y-35834525D01*
X84328369Y-35814960D01*
X84316968Y-35764580D01*
X84301011Y-35715829D01*
X84280722Y-35669027D01*
X84256326Y-35624494D01*
X84228050Y-35582553D01*
X84196119Y-35543523D01*
X84160757Y-35507725D01*
X84122189Y-35475479D01*
X84080642Y-35447107D01*
X84062570Y-35436541D01*
X84054866Y-35432236D01*
X84049162Y-35429023D01*
X84046660Y-35427581D01*
X84046648Y-35427572D01*
X84047589Y-35425282D01*
X84050586Y-35419034D01*
X84055356Y-35409378D01*
X84061617Y-35396866D01*
X84069087Y-35382050D01*
X84077484Y-35365482D01*
X84086526Y-35347712D01*
X84095930Y-35329291D01*
X84105414Y-35310773D01*
X84114697Y-35292708D01*
X84123496Y-35275647D01*
X84131530Y-35260143D01*
X84138515Y-35246746D01*
X84144170Y-35236008D01*
X84148212Y-35228481D01*
X84150360Y-35224716D01*
X84150574Y-35224421D01*
X84152476Y-35223658D01*
X84155864Y-35224350D01*
G36*
X83088480Y-34918340D02*
G01*
X82867500Y-34918340D01*
X82867500Y-33549280D01*
X83088480Y-33549280D01*
X83088480Y-34918340D01*
G37*
X83088480Y-34918340D02*
X82867500Y-34918340D01*
X82867500Y-33549280D01*
X83088480Y-33549280D01*
X83088480Y-34918340D01*
G36*
X84546440Y-38159380D02*
G01*
X84322920Y-38159380D01*
X84322920Y-37067180D01*
X84546440Y-37067180D01*
X84546440Y-38159380D01*
G37*
X84546440Y-38159380D02*
X84322920Y-38159380D01*
X84322920Y-37067180D01*
X84546440Y-37067180D01*
X84546440Y-38159380D01*
G36*
X83802220Y-37940940D02*
G01*
X84145120Y-37940940D01*
X84145120Y-38161920D01*
X83578700Y-38161920D01*
X83578700Y-37181480D01*
X83802220Y-37181480D01*
X83802220Y-37940940D01*
G37*
X83802220Y-37940940D02*
X84145120Y-37940940D01*
X84145120Y-38161920D01*
X83578700Y-38161920D01*
X83578700Y-37181480D01*
X83802220Y-37181480D01*
X83802220Y-37940940D01*
G36*
X84546440Y-39759580D02*
G01*
X84322920Y-39759580D01*
X84322920Y-38611500D01*
X84546440Y-38611500D01*
X84546440Y-39759580D01*
G37*
X84546440Y-39759580D02*
X84322920Y-39759580D01*
X84322920Y-38611500D01*
X84546440Y-38611500D01*
X84546440Y-39759580D01*
G36*
X83241046Y-35260073D02*
G01*
X83242794Y-35262384D01*
X83246936Y-35268416D01*
X83253116Y-35277624D01*
X83260976Y-35289459D01*
X83270159Y-35303373D01*
X83280308Y-35318819D01*
X83291066Y-35335250D01*
X83302075Y-35352117D01*
X83312979Y-35368873D01*
X83323419Y-35384971D01*
X83333039Y-35399862D01*
X83341482Y-35413000D01*
X83348390Y-35423835D01*
X83353407Y-35431822D01*
X83356174Y-35436412D01*
X83356584Y-35437206D01*
X83355718Y-35440032D01*
X83351095Y-35444095D01*
X83342339Y-35449695D01*
X83336914Y-35452816D01*
X83309428Y-35469911D01*
X83281002Y-35490573D01*
X83252852Y-35513771D01*
X83226197Y-35538472D01*
X83202254Y-35563644D01*
X83192140Y-35575520D01*
X83162172Y-35616154D01*
X83136127Y-35659753D01*
X83114226Y-35705804D01*
X83096690Y-35753792D01*
X83083740Y-35803203D01*
X83076813Y-35843548D01*
X83074768Y-35865054D01*
X83073722Y-35889779D01*
X83073637Y-35916240D01*
X83074480Y-35942955D01*
X83076214Y-35968443D01*
X83078804Y-35991221D01*
X83080603Y-36002174D01*
X83092608Y-36052714D01*
X83109099Y-36101225D01*
X83129857Y-36147466D01*
X83154666Y-36191196D01*
X83183308Y-36232174D01*
X83215566Y-36270159D01*
X83251223Y-36304910D01*
X83290062Y-36336186D01*
X83331864Y-36363748D01*
X83376413Y-36387352D01*
X83423492Y-36406760D01*
X83454621Y-36416801D01*
X83499052Y-36427444D01*
X83545105Y-36434072D01*
X83583145Y-36436568D01*
X83624420Y-36437972D01*
X83624420Y-36658969D01*
X83579335Y-36657493D01*
X83519765Y-36653049D01*
X83461219Y-36643761D01*
X83403945Y-36629804D01*
X83348192Y-36611357D01*
X83294206Y-36588595D01*
X83242239Y-36561694D01*
X83192537Y-36530832D01*
X83145349Y-36496184D01*
X83100923Y-36457927D01*
X83059510Y-36416238D01*
X83021355Y-36371292D01*
X82986709Y-36323267D01*
X82955820Y-36272339D01*
X82928936Y-36218684D01*
X82915046Y-36185800D01*
X82896465Y-36132923D01*
X82881763Y-36078211D01*
X82870716Y-36020795D01*
X82868434Y-36005460D01*
X82866688Y-35989281D01*
X82865339Y-35969218D01*
X82864399Y-35946456D01*
X82863875Y-35922175D01*
X82863777Y-35897559D01*
X82864115Y-35873791D01*
X82864898Y-35852051D01*
X82866135Y-35833524D01*
X82867013Y-35825120D01*
X82877111Y-35763464D01*
X82891858Y-35703518D01*
X82911120Y-35645498D01*
X82934760Y-35589620D01*
X82962642Y-35536099D01*
X82994632Y-35485150D01*
X83030592Y-35436988D01*
X83070388Y-35391829D01*
X83113884Y-35349889D01*
X83160944Y-35311383D01*
X83211433Y-35276525D01*
X83213462Y-35275247D01*
X83223604Y-35269050D01*
X83232176Y-35264127D01*
X83238284Y-35260968D01*
X83241034Y-35260067D01*
X83241046Y-35260073D01*
G37*
X83241046Y-35260073D02*
X83242794Y-35262384D01*
X83246936Y-35268416D01*
X83253116Y-35277624D01*
X83260976Y-35289459D01*
X83270159Y-35303373D01*
X83280308Y-35318819D01*
X83291066Y-35335250D01*
X83302075Y-35352117D01*
X83312979Y-35368873D01*
X83323419Y-35384971D01*
X83333039Y-35399862D01*
X83341482Y-35413000D01*
X83348390Y-35423835D01*
X83353407Y-35431822D01*
X83356174Y-35436412D01*
X83356584Y-35437206D01*
X83355718Y-35440032D01*
X83351095Y-35444095D01*
X83342339Y-35449695D01*
X83336914Y-35452816D01*
X83309428Y-35469911D01*
X83281002Y-35490573D01*
X83252852Y-35513771D01*
X83226197Y-35538472D01*
X83202254Y-35563644D01*
X83192140Y-35575520D01*
X83162172Y-35616154D01*
X83136127Y-35659753D01*
X83114226Y-35705804D01*
X83096690Y-35753792D01*
X83083740Y-35803203D01*
X83076813Y-35843548D01*
X83074768Y-35865054D01*
X83073722Y-35889779D01*
X83073637Y-35916240D01*
X83074480Y-35942955D01*
X83076214Y-35968443D01*
X83078804Y-35991221D01*
X83080603Y-36002174D01*
X83092608Y-36052714D01*
X83109099Y-36101225D01*
X83129857Y-36147466D01*
X83154666Y-36191196D01*
X83183308Y-36232174D01*
X83215566Y-36270159D01*
X83251223Y-36304910D01*
X83290062Y-36336186D01*
X83331864Y-36363748D01*
X83376413Y-36387352D01*
X83423492Y-36406760D01*
X83454621Y-36416801D01*
X83499052Y-36427444D01*
X83545105Y-36434072D01*
X83583145Y-36436568D01*
X83624420Y-36437972D01*
X83624420Y-36658969D01*
X83579335Y-36657493D01*
X83519765Y-36653049D01*
X83461219Y-36643761D01*
X83403945Y-36629804D01*
X83348192Y-36611357D01*
X83294206Y-36588595D01*
X83242239Y-36561694D01*
X83192537Y-36530832D01*
X83145349Y-36496184D01*
X83100923Y-36457927D01*
X83059510Y-36416238D01*
X83021355Y-36371292D01*
X82986709Y-36323267D01*
X82955820Y-36272339D01*
X82928936Y-36218684D01*
X82915046Y-36185800D01*
X82896465Y-36132923D01*
X82881763Y-36078211D01*
X82870716Y-36020795D01*
X82868434Y-36005460D01*
X82866688Y-35989281D01*
X82865339Y-35969218D01*
X82864399Y-35946456D01*
X82863875Y-35922175D01*
X82863777Y-35897559D01*
X82864115Y-35873791D01*
X82864898Y-35852051D01*
X82866135Y-35833524D01*
X82867013Y-35825120D01*
X82877111Y-35763464D01*
X82891858Y-35703518D01*
X82911120Y-35645498D01*
X82934760Y-35589620D01*
X82962642Y-35536099D01*
X82994632Y-35485150D01*
X83030592Y-35436988D01*
X83070388Y-35391829D01*
X83113884Y-35349889D01*
X83160944Y-35311383D01*
X83211433Y-35276525D01*
X83213462Y-35275247D01*
X83223604Y-35269050D01*
X83232176Y-35264127D01*
X83238284Y-35260968D01*
X83241034Y-35260067D01*
X83241046Y-35260073D01*
G36*
X84538820Y-33102240D02*
G01*
X82867500Y-33102240D01*
X82867500Y-32881260D01*
X84538820Y-32881260D01*
X84538820Y-33102240D01*
G37*
X84538820Y-33102240D02*
X82867500Y-33102240D01*
X82867500Y-32881260D01*
X84538820Y-32881260D01*
X84538820Y-33102240D01*
G36*
X83292183Y-31297852D02*
G01*
X83333298Y-31327936D01*
X83373325Y-31357213D01*
X83412069Y-31385542D01*
X83449338Y-31412783D01*
X83484940Y-31438794D01*
X83518680Y-31463434D01*
X83550366Y-31486564D01*
X83579806Y-31508043D01*
X83606806Y-31527729D01*
X83631172Y-31545482D01*
X83652713Y-31561161D01*
X83671236Y-31574626D01*
X83686546Y-31585735D01*
X83698452Y-31594349D01*
X83706760Y-31600326D01*
X83711277Y-31603526D01*
X83712087Y-31604054D01*
X83714269Y-31602593D01*
X83720370Y-31598293D01*
X83730192Y-31591297D01*
X83743541Y-31581744D01*
X83760220Y-31569776D01*
X83780032Y-31555535D01*
X83802783Y-31539162D01*
X83828275Y-31520798D01*
X83856314Y-31500584D01*
X83886701Y-31478663D01*
X83919243Y-31455175D01*
X83953742Y-31430261D01*
X83990003Y-31404062D01*
X84027829Y-31376721D01*
X84067025Y-31348378D01*
X84107395Y-31319175D01*
X84123766Y-31307329D01*
X84164564Y-31277810D01*
X84204274Y-31249087D01*
X84242701Y-31221301D01*
X84279647Y-31194595D01*
X84314916Y-31169111D01*
X84348310Y-31144990D01*
X84379635Y-31122374D01*
X84408692Y-31101405D01*
X84435285Y-31082225D01*
X84459218Y-31064975D01*
X84480293Y-31049798D01*
X84498315Y-31036836D01*
X84513086Y-31026230D01*
X84524411Y-31018122D01*
X84532091Y-31012654D01*
X84535932Y-31009967D01*
X84536347Y-31009704D01*
X84536981Y-31011984D01*
X84537522Y-31019178D01*
X84537969Y-31031122D01*
X84538317Y-31047651D01*
X84538563Y-31068600D01*
X84538703Y-31093804D01*
X84538734Y-31122734D01*
X84538649Y-31236610D01*
X84204780Y-31477910D01*
X84168037Y-31504474D01*
X84132426Y-31530235D01*
X84098163Y-31555035D01*
X84065466Y-31578717D01*
X84034550Y-31601124D01*
X84005632Y-31622098D01*
X83978929Y-31641483D01*
X83954658Y-31659120D01*
X83933034Y-31674853D01*
X83914274Y-31688525D01*
X83898596Y-31699977D01*
X83886215Y-31709052D01*
X83877347Y-31715594D01*
X83872211Y-31719444D01*
X83870933Y-31720480D01*
X83872950Y-31722094D01*
X83878854Y-31726545D01*
X83888427Y-31733676D01*
X83901455Y-31743326D01*
X83917722Y-31755339D01*
X83937010Y-31769553D01*
X83959106Y-31785812D01*
X83983791Y-31803956D01*
X84010851Y-31823827D01*
X84040070Y-31845266D01*
X84071231Y-31868113D01*
X84104119Y-31892211D01*
X84138518Y-31917400D01*
X84174211Y-31943523D01*
X84202644Y-31964320D01*
X84239214Y-31991075D01*
X84274667Y-32017035D01*
X84308786Y-32042039D01*
X84341355Y-32065928D01*
X84372156Y-32088542D01*
X84400973Y-32109721D01*
X84427589Y-32129307D01*
X84451787Y-32147137D01*
X84473350Y-32163054D01*
X84492061Y-32176898D01*
X84507704Y-32188507D01*
X84520061Y-32197724D01*
X84528916Y-32204387D01*
X84534051Y-32208338D01*
X84535335Y-32209430D01*
X84535529Y-32212426D01*
X84535680Y-32219975D01*
X84535789Y-32231550D01*
X84535853Y-32246625D01*
X84535870Y-32264673D01*
X84535839Y-32285167D01*
X84535759Y-32307581D01*
X84535672Y-32324352D01*
X84535010Y-32436733D01*
X83706970Y-31830775D01*
X83648907Y-31788283D01*
X83591878Y-31746543D01*
X83536019Y-31705657D01*
X83481469Y-31665724D01*
X83428363Y-31626846D01*
X83376839Y-31589122D01*
X83327036Y-31552653D01*
X83279089Y-31517541D01*
X83233136Y-31483885D01*
X83189314Y-31451786D01*
X83147761Y-31421345D01*
X83108614Y-31392662D01*
X83072011Y-31365838D01*
X83038087Y-31340973D01*
X83006981Y-31318168D01*
X82978831Y-31297523D01*
X82953772Y-31279140D01*
X82931943Y-31263118D01*
X82913481Y-31249559D01*
X82898522Y-31238563D01*
X82887205Y-31230229D01*
X82879667Y-31224660D01*
X82876044Y-31221955D01*
X82875728Y-31221706D01*
X82874936Y-31219871D01*
X82874292Y-31215807D01*
X82873789Y-31209140D01*
X82873418Y-31199496D01*
X82873171Y-31186503D01*
X82873039Y-31169788D01*
X82873016Y-31148976D01*
X82873092Y-31123696D01*
X82873188Y-31105150D01*
X82873850Y-30991704D01*
X83292183Y-31297852D01*
G37*
X83292183Y-31297852D02*
X83333298Y-31327936D01*
X83373325Y-31357213D01*
X83412069Y-31385542D01*
X83449338Y-31412783D01*
X83484940Y-31438794D01*
X83518680Y-31463434D01*
X83550366Y-31486564D01*
X83579806Y-31508043D01*
X83606806Y-31527729D01*
X83631172Y-31545482D01*
X83652713Y-31561161D01*
X83671236Y-31574626D01*
X83686546Y-31585735D01*
X83698452Y-31594349D01*
X83706760Y-31600326D01*
X83711277Y-31603526D01*
X83712087Y-31604054D01*
X83714269Y-31602593D01*
X83720370Y-31598293D01*
X83730192Y-31591297D01*
X83743541Y-31581744D01*
X83760220Y-31569776D01*
X83780032Y-31555535D01*
X83802783Y-31539162D01*
X83828275Y-31520798D01*
X83856314Y-31500584D01*
X83886701Y-31478663D01*
X83919243Y-31455175D01*
X83953742Y-31430261D01*
X83990003Y-31404062D01*
X84027829Y-31376721D01*
X84067025Y-31348378D01*
X84107395Y-31319175D01*
X84123766Y-31307329D01*
X84164564Y-31277810D01*
X84204274Y-31249087D01*
X84242701Y-31221301D01*
X84279647Y-31194595D01*
X84314916Y-31169111D01*
X84348310Y-31144990D01*
X84379635Y-31122374D01*
X84408692Y-31101405D01*
X84435285Y-31082225D01*
X84459218Y-31064975D01*
X84480293Y-31049798D01*
X84498315Y-31036836D01*
X84513086Y-31026230D01*
X84524411Y-31018122D01*
X84532091Y-31012654D01*
X84535932Y-31009967D01*
X84536347Y-31009704D01*
X84536981Y-31011984D01*
X84537522Y-31019178D01*
X84537969Y-31031122D01*
X84538317Y-31047651D01*
X84538563Y-31068600D01*
X84538703Y-31093804D01*
X84538734Y-31122734D01*
X84538649Y-31236610D01*
X84204780Y-31477910D01*
X84168037Y-31504474D01*
X84132426Y-31530235D01*
X84098163Y-31555035D01*
X84065466Y-31578717D01*
X84034550Y-31601124D01*
X84005632Y-31622098D01*
X83978929Y-31641483D01*
X83954658Y-31659120D01*
X83933034Y-31674853D01*
X83914274Y-31688525D01*
X83898596Y-31699977D01*
X83886215Y-31709052D01*
X83877347Y-31715594D01*
X83872211Y-31719444D01*
X83870933Y-31720480D01*
X83872950Y-31722094D01*
X83878854Y-31726545D01*
X83888427Y-31733676D01*
X83901455Y-31743326D01*
X83917722Y-31755339D01*
X83937010Y-31769553D01*
X83959106Y-31785812D01*
X83983791Y-31803956D01*
X84010851Y-31823827D01*
X84040070Y-31845266D01*
X84071231Y-31868113D01*
X84104119Y-31892211D01*
X84138518Y-31917400D01*
X84174211Y-31943523D01*
X84202644Y-31964320D01*
X84239214Y-31991075D01*
X84274667Y-32017035D01*
X84308786Y-32042039D01*
X84341355Y-32065928D01*
X84372156Y-32088542D01*
X84400973Y-32109721D01*
X84427589Y-32129307D01*
X84451787Y-32147137D01*
X84473350Y-32163054D01*
X84492061Y-32176898D01*
X84507704Y-32188507D01*
X84520061Y-32197724D01*
X84528916Y-32204387D01*
X84534051Y-32208338D01*
X84535335Y-32209430D01*
X84535529Y-32212426D01*
X84535680Y-32219975D01*
X84535789Y-32231550D01*
X84535853Y-32246625D01*
X84535870Y-32264673D01*
X84535839Y-32285167D01*
X84535759Y-32307581D01*
X84535672Y-32324352D01*
X84535010Y-32436733D01*
X83706970Y-31830775D01*
X83648907Y-31788283D01*
X83591878Y-31746543D01*
X83536019Y-31705657D01*
X83481469Y-31665724D01*
X83428363Y-31626846D01*
X83376839Y-31589122D01*
X83327036Y-31552653D01*
X83279089Y-31517541D01*
X83233136Y-31483885D01*
X83189314Y-31451786D01*
X83147761Y-31421345D01*
X83108614Y-31392662D01*
X83072011Y-31365838D01*
X83038087Y-31340973D01*
X83006981Y-31318168D01*
X82978831Y-31297523D01*
X82953772Y-31279140D01*
X82931943Y-31263118D01*
X82913481Y-31249559D01*
X82898522Y-31238563D01*
X82887205Y-31230229D01*
X82879667Y-31224660D01*
X82876044Y-31221955D01*
X82875728Y-31221706D01*
X82874936Y-31219871D01*
X82874292Y-31215807D01*
X82873789Y-31209140D01*
X82873418Y-31199496D01*
X82873171Y-31186503D01*
X82873039Y-31169788D01*
X82873016Y-31148976D01*
X82873092Y-31123696D01*
X82873188Y-31105150D01*
X82873850Y-30991704D01*
X83292183Y-31297852D01*
G04 #@! TD*
D11*
G04 #@! TO.C,H1*
X70000000Y-49000000D03*
G04 #@! TD*
G04 #@! TO.C,H2*
X100000000Y-49000000D03*
G04 #@! TD*
D12*
G04 #@! TO.C,J1*
X87500000Y-47500000D03*
D13*
X87500000Y-50040000D03*
X84960000Y-47500000D03*
X84960000Y-50040000D03*
X82420000Y-47500000D03*
X82420000Y-50040000D03*
G04 #@! TD*
D14*
G04 #@! TO.C,U1*
X86400000Y-21590000D03*
D15*
X83600000Y-21590000D03*
G04 #@! TD*
M02*
