G04 #@! TF.GenerationSoftware,KiCad,Pcbnew,6.0.9-8da3e8f707~116~ubuntu20.04.1*
G04 #@! TF.CreationDate,2023-05-05T17:12:55+00:00*
G04 #@! TF.ProjectId,LEC009202,4c454330-3039-4323-9032-2e6b69636164,rev?*
G04 #@! TF.SameCoordinates,Original*
G04 #@! TF.FileFunction,Legend,Top*
G04 #@! TF.FilePolarity,Positive*
%FSLAX46Y46*%
G04 Gerber Fmt 4.6, Leading zero omitted, Abs format (unit mm)*
G04 Created by KiCad (PCBNEW 6.0.9-8da3e8f707~116~ubuntu20.04.1) date 2023-05-05 17:12:55*
%MOMM*%
%LPD*%
G01*
G04 APERTURE LIST*
%ADD10C,0.120000*%
%ADD11C,0.150000*%
%ADD12C,0.010000*%
%ADD13C,0.400000*%
G04 APERTURE END LIST*
D10*
X87000000Y-30800000D02*
X82250000Y-30800000D01*
X87000000Y-40200000D02*
X87250000Y-40200000D01*
X82250000Y-30800000D02*
X82250000Y-40200000D01*
X87250000Y-30800000D02*
X87000000Y-30800000D01*
X87250000Y-40200000D02*
X87250000Y-30800000D01*
X82250000Y-40200000D02*
X87000000Y-40200000D01*
D11*
G04 #@! TO.C,J1*
X93556380Y-49103333D02*
X94270666Y-49103333D01*
X94413523Y-49150952D01*
X94508761Y-49246190D01*
X94556380Y-49389047D01*
X94556380Y-49484285D01*
X94556380Y-48103333D02*
X94556380Y-48674761D01*
X94556380Y-48389047D02*
X93556380Y-48389047D01*
X93699238Y-48484285D01*
X93794476Y-48579523D01*
X93842095Y-48674761D01*
G04 #@! TO.C,U1*
X84438095Y-23372380D02*
X84438095Y-24181904D01*
X84485714Y-24277142D01*
X84533333Y-24324761D01*
X84628571Y-24372380D01*
X84819047Y-24372380D01*
X84914285Y-24324761D01*
X84961904Y-24277142D01*
X85009523Y-24181904D01*
X85009523Y-23372380D01*
X86009523Y-24372380D02*
X85438095Y-24372380D01*
X85723809Y-24372380D02*
X85723809Y-23372380D01*
X85628571Y-23515238D01*
X85533333Y-23610476D01*
X85438095Y-23658095D01*
D10*
G04 #@! TO.C,H1*
X73224903Y-49000000D02*
G75*
G03*
X73224903Y-49000000I-3224903J0D01*
G01*
G36*
X70500000Y-45800000D02*
G01*
X71500000Y-46100000D01*
X72300000Y-46700000D01*
X72800000Y-47400000D01*
X73100000Y-48100000D01*
X73200000Y-48500000D01*
X73200000Y-49000000D01*
X71600000Y-49000000D01*
X71600000Y-48900000D01*
X71500000Y-48500000D01*
X71300000Y-48100000D01*
X70900000Y-47700000D01*
X70500000Y-47500000D01*
X70100000Y-47400000D01*
X70000000Y-47400000D01*
X70000000Y-45775097D01*
X70500000Y-45800000D01*
G37*
D12*
X70500000Y-45800000D02*
X71500000Y-46100000D01*
X72300000Y-46700000D01*
X72800000Y-47400000D01*
X73100000Y-48100000D01*
X73200000Y-48500000D01*
X73200000Y-49000000D01*
X71600000Y-49000000D01*
X71600000Y-48900000D01*
X71500000Y-48500000D01*
X71300000Y-48100000D01*
X70900000Y-47700000D01*
X70500000Y-47500000D01*
X70100000Y-47400000D01*
X70000000Y-47400000D01*
X70000000Y-45775097D01*
X70500000Y-45800000D01*
G36*
X68400000Y-49100000D02*
G01*
X68500000Y-49500000D01*
X68700000Y-49900000D01*
X69100000Y-50300000D01*
X69500000Y-50500000D01*
X69900000Y-50600000D01*
X70000000Y-50600000D01*
X70000000Y-52224903D01*
X69500000Y-52200000D01*
X68500000Y-51900000D01*
X67700000Y-51300000D01*
X67200000Y-50600000D01*
X66900000Y-49900000D01*
X66800000Y-49500000D01*
X66800000Y-49000000D01*
X68400000Y-49000000D01*
X68400000Y-49100000D01*
G37*
X68400000Y-49100000D02*
X68500000Y-49500000D01*
X68700000Y-49900000D01*
X69100000Y-50300000D01*
X69500000Y-50500000D01*
X69900000Y-50600000D01*
X70000000Y-50600000D01*
X70000000Y-52224903D01*
X69500000Y-52200000D01*
X68500000Y-51900000D01*
X67700000Y-51300000D01*
X67200000Y-50600000D01*
X66900000Y-49900000D01*
X66800000Y-49500000D01*
X66800000Y-49000000D01*
X68400000Y-49000000D01*
X68400000Y-49100000D01*
D10*
G04 #@! TO.C,H2*
X103224903Y-49000000D02*
G75*
G03*
X103224903Y-49000000I-3224903J0D01*
G01*
G36*
X98400000Y-49100000D02*
G01*
X98500000Y-49500000D01*
X98700000Y-49900000D01*
X99100000Y-50300000D01*
X99500000Y-50500000D01*
X99900000Y-50600000D01*
X100000000Y-50600000D01*
X100000000Y-52224903D01*
X99500000Y-52200000D01*
X98500000Y-51900000D01*
X97700000Y-51300000D01*
X97200000Y-50600000D01*
X96900000Y-49900000D01*
X96800000Y-49500000D01*
X96800000Y-49000000D01*
X98400000Y-49000000D01*
X98400000Y-49100000D01*
G37*
D12*
X98400000Y-49100000D02*
X98500000Y-49500000D01*
X98700000Y-49900000D01*
X99100000Y-50300000D01*
X99500000Y-50500000D01*
X99900000Y-50600000D01*
X100000000Y-50600000D01*
X100000000Y-52224903D01*
X99500000Y-52200000D01*
X98500000Y-51900000D01*
X97700000Y-51300000D01*
X97200000Y-50600000D01*
X96900000Y-49900000D01*
X96800000Y-49500000D01*
X96800000Y-49000000D01*
X98400000Y-49000000D01*
X98400000Y-49100000D01*
G36*
X100500000Y-45800000D02*
G01*
X101500000Y-46100000D01*
X102300000Y-46700000D01*
X102800000Y-47400000D01*
X103100000Y-48100000D01*
X103200000Y-48500000D01*
X103200000Y-49000000D01*
X101600000Y-49000000D01*
X101600000Y-48900000D01*
X101500000Y-48500000D01*
X101300000Y-48100000D01*
X100900000Y-47700000D01*
X100500000Y-47500000D01*
X100100000Y-47400000D01*
X100000000Y-47400000D01*
X100000000Y-45775097D01*
X100500000Y-45800000D01*
G37*
X100500000Y-45800000D02*
X101500000Y-46100000D01*
X102300000Y-46700000D01*
X102800000Y-47400000D01*
X103100000Y-48100000D01*
X103200000Y-48500000D01*
X103200000Y-49000000D01*
X101600000Y-49000000D01*
X101600000Y-48900000D01*
X101500000Y-48500000D01*
X101300000Y-48100000D01*
X100900000Y-47700000D01*
X100500000Y-47500000D01*
X100100000Y-47400000D01*
X100000000Y-47400000D01*
X100000000Y-45775097D01*
X100500000Y-45800000D01*
D10*
G04 #@! TO.C,J1*
X92850000Y-44095000D02*
X92850000Y-53445000D01*
X93100000Y-43845000D02*
X93100000Y-46385000D01*
X77070000Y-44095000D02*
X92850000Y-44095000D01*
X77070000Y-53445000D02*
X77070000Y-44095000D01*
X92850000Y-53445000D02*
X77070000Y-53445000D01*
X93100000Y-43845000D02*
X90560000Y-43845000D01*
G04 #@! TO.C,U1*
X81800000Y-22220000D02*
X82400000Y-22820000D01*
X81800000Y-22220000D02*
X81800000Y-20320000D01*
X88200000Y-22820000D02*
X82400000Y-22820000D01*
X81800000Y-20320000D02*
X88200000Y-20320000D01*
X88200000Y-20320000D02*
X88200000Y-22820000D01*
D13*
X82300000Y-23520000D02*
G75*
G03*
X82300000Y-23520000I-200000J0D01*
G01*
G04 #@! TO.C,kibuzzard-6239F921*
G36*
X86428177Y-35355749D02*
G01*
X86509563Y-35383795D01*
X86588858Y-35445946D01*
X86615290Y-35531433D01*
X86588858Y-35615729D01*
X86509563Y-35678118D01*
X86428177Y-35706693D01*
X86324989Y-35723838D01*
X86200000Y-35729553D01*
X86076069Y-35723838D01*
X85973517Y-35706693D01*
X85892342Y-35678118D01*
X85813047Y-35615729D01*
X85786615Y-35531433D01*
X85787204Y-35529528D01*
X86053315Y-35529528D01*
X86091415Y-35607633D01*
X86180950Y-35636208D01*
X86269533Y-35607633D01*
X86306680Y-35529528D01*
X86269533Y-35454280D01*
X86180950Y-35424752D01*
X86091415Y-35454280D01*
X86053315Y-35529528D01*
X85787204Y-35529528D01*
X85813047Y-35445946D01*
X85892342Y-35383795D01*
X85973517Y-35355749D01*
X86076069Y-35338922D01*
X86200000Y-35333312D01*
X86324989Y-35338922D01*
X86428177Y-35355749D01*
G37*
G36*
X86428177Y-36308249D02*
G01*
X86509563Y-36336295D01*
X86588858Y-36398446D01*
X86615290Y-36483933D01*
X86588858Y-36568229D01*
X86509563Y-36630618D01*
X86428177Y-36659193D01*
X86324989Y-36676338D01*
X86200000Y-36682053D01*
X86076069Y-36676338D01*
X85973517Y-36659193D01*
X85892342Y-36630618D01*
X85813047Y-36568229D01*
X85786615Y-36483933D01*
X85787204Y-36482028D01*
X86053315Y-36482028D01*
X86091415Y-36560133D01*
X86180950Y-36588708D01*
X86269533Y-36560133D01*
X86306680Y-36482028D01*
X86269533Y-36406780D01*
X86180950Y-36377253D01*
X86091415Y-36406780D01*
X86053315Y-36482028D01*
X85787204Y-36482028D01*
X85813047Y-36398446D01*
X85892342Y-36336295D01*
X85973517Y-36308249D01*
X86076069Y-36291422D01*
X86200000Y-36285813D01*
X86324989Y-36291422D01*
X86428177Y-36308249D01*
G37*
G36*
X86099987Y-34414150D02*
G01*
X86137135Y-34417007D01*
X86158090Y-34481777D01*
X86165710Y-34557977D01*
X86153804Y-34642750D01*
X86118085Y-34698947D01*
X85980925Y-34740857D01*
X85904725Y-34732285D01*
X85841860Y-34705615D01*
X85798997Y-34657990D01*
X85782805Y-34586552D01*
X85807570Y-34503685D01*
X85872340Y-34450345D01*
X85960922Y-34421770D01*
X86057125Y-34413197D01*
X86099987Y-34414150D01*
G37*
G36*
X87214095Y-30783802D02*
G01*
X87214095Y-40216198D01*
X85185905Y-40216198D01*
X85185905Y-39682428D01*
X85613260Y-39682428D01*
X86792455Y-39682428D01*
X86792455Y-38941383D01*
X86598145Y-38941383D01*
X86598145Y-39446208D01*
X85613260Y-39446208D01*
X85613260Y-39682428D01*
X85185905Y-39682428D01*
X85185905Y-38745168D01*
X85613260Y-38745168D01*
X86792455Y-38745168D01*
X86792455Y-37988883D01*
X86598145Y-37988883D01*
X86598145Y-38510853D01*
X86266675Y-38510853D01*
X86266675Y-38093658D01*
X86072365Y-38093658D01*
X86072365Y-38510853D01*
X85807570Y-38510853D01*
X85807570Y-38030793D01*
X85613260Y-38030793D01*
X85613260Y-38745168D01*
X85185905Y-38745168D01*
X85185905Y-37325943D01*
X85586590Y-37325943D01*
X85596829Y-37437623D01*
X85627547Y-37540255D01*
X85678030Y-37631695D01*
X85747562Y-37709800D01*
X85835431Y-37773379D01*
X85940920Y-37821243D01*
X86063316Y-37851246D01*
X86201905Y-37861248D01*
X86341089Y-37853032D01*
X86463366Y-37828386D01*
X86568737Y-37787310D01*
X86657200Y-37729803D01*
X86746100Y-37629049D01*
X86799440Y-37502049D01*
X86817220Y-37348803D01*
X86810791Y-37244742D01*
X86791503Y-37153540D01*
X86735305Y-37019238D01*
X86550520Y-37078293D01*
X86592430Y-37174495D01*
X86613385Y-37325943D01*
X86586477Y-37461912D01*
X86505753Y-37553590D01*
X86423520Y-37592219D01*
X86320333Y-37615397D01*
X86196190Y-37623123D01*
X86089510Y-37616693D01*
X86001880Y-37597405D01*
X85877102Y-37530730D01*
X85810427Y-37437385D01*
X85790425Y-37329753D01*
X85810427Y-37187830D01*
X85859005Y-37082103D01*
X85672315Y-37021143D01*
X85649455Y-37060195D01*
X85620880Y-37124013D01*
X85597067Y-37212595D01*
X85586590Y-37325943D01*
X85185905Y-37325943D01*
X85185905Y-36483933D01*
X85586590Y-36483933D01*
X85603523Y-36604794D01*
X85654323Y-36705759D01*
X85738990Y-36786828D01*
X85824953Y-36833500D01*
X85930442Y-36866838D01*
X86055458Y-36886840D01*
X86200000Y-36893508D01*
X86346209Y-36886959D01*
X86472415Y-36867314D01*
X86578619Y-36834572D01*
X86664820Y-36788733D01*
X86749487Y-36708299D01*
X86800287Y-36606699D01*
X86817220Y-36483933D01*
X86800287Y-36361166D01*
X86749487Y-36259566D01*
X86664820Y-36179133D01*
X86578619Y-36133293D01*
X86472415Y-36100551D01*
X86346209Y-36080906D01*
X86200000Y-36074358D01*
X86054684Y-36080906D01*
X85929252Y-36100551D01*
X85823703Y-36133293D01*
X85738037Y-36179133D01*
X85653900Y-36259566D01*
X85603417Y-36361166D01*
X85586590Y-36483933D01*
X85185905Y-36483933D01*
X85185905Y-35531433D01*
X85586590Y-35531433D01*
X85603523Y-35652294D01*
X85654323Y-35753259D01*
X85738990Y-35834328D01*
X85824953Y-35881000D01*
X85930442Y-35914338D01*
X86055458Y-35934340D01*
X86200000Y-35941008D01*
X86346209Y-35934459D01*
X86472415Y-35914814D01*
X86578619Y-35882072D01*
X86664820Y-35836233D01*
X86749487Y-35755799D01*
X86800287Y-35654199D01*
X86817220Y-35531433D01*
X86800287Y-35408666D01*
X86749487Y-35307066D01*
X86664820Y-35226632D01*
X86578619Y-35180793D01*
X86472415Y-35148051D01*
X86346209Y-35128406D01*
X86200000Y-35121857D01*
X86054684Y-35128406D01*
X85929252Y-35148051D01*
X85823703Y-35180793D01*
X85738037Y-35226632D01*
X85653900Y-35307066D01*
X85603417Y-35408666D01*
X85586590Y-35531433D01*
X85185905Y-35531433D01*
X85185905Y-34592267D01*
X85582780Y-34592267D01*
X85592067Y-34681326D01*
X85619927Y-34758002D01*
X85715177Y-34875160D01*
X85844717Y-34945645D01*
X85984735Y-34969457D01*
X86130467Y-34948502D01*
X86249530Y-34881827D01*
X86330493Y-34763717D01*
X86352638Y-34683707D01*
X86360020Y-34588457D01*
X86327635Y-34455107D01*
X86446459Y-34522259D01*
X86528613Y-34624652D01*
X86576952Y-34752764D01*
X86594335Y-34897067D01*
X86796265Y-34889447D01*
X86784597Y-34736809D01*
X86749593Y-34598935D01*
X86692204Y-34477968D01*
X86613385Y-34376050D01*
X86513134Y-34294373D01*
X86391453Y-34234127D01*
X86249292Y-34196980D01*
X86087605Y-34184597D01*
X85940497Y-34196239D01*
X85816672Y-34231164D01*
X85716130Y-34289372D01*
X85642047Y-34369594D01*
X85597597Y-34470559D01*
X85582780Y-34592267D01*
X85185905Y-34592267D01*
X85185905Y-33645482D01*
X85586590Y-33645482D01*
X85596115Y-33744781D01*
X85624690Y-33844555D01*
X85673267Y-33938614D01*
X85742800Y-34020767D01*
X85906630Y-33904562D01*
X85817095Y-33784547D01*
X85790425Y-33668342D01*
X85829477Y-33557852D01*
X85940920Y-33514037D01*
X86041885Y-33549280D01*
X86144755Y-33638815D01*
X86199286Y-33695012D01*
X86256198Y-33755020D01*
X86316681Y-33815027D01*
X86381928Y-33871225D01*
X86452651Y-33920755D01*
X86529565Y-33960760D01*
X86613385Y-33987192D01*
X86704825Y-33996002D01*
X86744830Y-33996955D01*
X86792455Y-33992192D01*
X86792455Y-33222572D01*
X86598145Y-33222572D01*
X86598145Y-33729302D01*
X86535280Y-33709300D01*
X86467653Y-33660722D01*
X86402883Y-33599762D01*
X86348590Y-33542612D01*
X86253340Y-33445457D01*
X86150470Y-33359732D01*
X86040932Y-33298772D01*
X85923775Y-33275912D01*
X85776137Y-33306392D01*
X85670410Y-33388307D01*
X85607545Y-33506417D01*
X85586590Y-33645482D01*
X85185905Y-33645482D01*
X85185905Y-32673932D01*
X85586590Y-32673932D01*
X85603523Y-32794794D01*
X85654323Y-32895759D01*
X85738990Y-32976827D01*
X85824953Y-33023500D01*
X85930442Y-33056837D01*
X86055458Y-33076840D01*
X86200000Y-33083507D01*
X86346209Y-33076959D01*
X86472415Y-33057314D01*
X86578619Y-33024572D01*
X86664820Y-32978732D01*
X86749487Y-32898299D01*
X86800287Y-32796699D01*
X86817220Y-32673932D01*
X86800287Y-32551166D01*
X86749487Y-32449566D01*
X86664820Y-32369132D01*
X86578619Y-32323293D01*
X86472415Y-32290551D01*
X86346209Y-32270906D01*
X86200000Y-32264357D01*
X86054684Y-32270906D01*
X85929252Y-32290551D01*
X85823703Y-32323293D01*
X85738037Y-32369132D01*
X85653900Y-32449566D01*
X85603417Y-32551166D01*
X85586590Y-32673932D01*
X85185905Y-32673932D01*
X85185905Y-31740482D01*
X85586590Y-31740482D01*
X85596115Y-31839781D01*
X85624690Y-31939555D01*
X85673267Y-32033614D01*
X85742800Y-32115767D01*
X85906630Y-31999562D01*
X85817095Y-31879547D01*
X85790425Y-31763342D01*
X85829477Y-31652852D01*
X85940920Y-31609037D01*
X86041885Y-31644280D01*
X86144755Y-31733815D01*
X86199286Y-31790012D01*
X86256198Y-31850020D01*
X86316681Y-31910027D01*
X86381928Y-31966225D01*
X86452651Y-32015755D01*
X86529565Y-32055760D01*
X86613385Y-32082192D01*
X86704825Y-32091002D01*
X86744830Y-32091955D01*
X86792455Y-32087192D01*
X86792455Y-31317572D01*
X86598145Y-31317572D01*
X86598145Y-31824302D01*
X86535280Y-31804300D01*
X86467653Y-31755722D01*
X86402883Y-31694762D01*
X86348590Y-31637612D01*
X86253340Y-31540457D01*
X86150470Y-31454733D01*
X86040932Y-31393772D01*
X85923775Y-31370912D01*
X85776137Y-31401392D01*
X85670410Y-31483307D01*
X85607545Y-31601417D01*
X85586590Y-31740482D01*
X85185905Y-31740482D01*
X85185905Y-30783802D01*
X87214095Y-30783802D01*
G37*
G36*
X86428177Y-32498249D02*
G01*
X86509563Y-32526295D01*
X86588858Y-32588446D01*
X86615290Y-32673932D01*
X86588858Y-32758229D01*
X86509563Y-32820617D01*
X86428177Y-32849192D01*
X86324989Y-32866337D01*
X86200000Y-32872052D01*
X86076069Y-32866337D01*
X85973517Y-32849192D01*
X85892342Y-32820617D01*
X85813047Y-32758229D01*
X85786615Y-32673932D01*
X85787204Y-32672027D01*
X86053315Y-32672027D01*
X86091415Y-32750132D01*
X86180950Y-32778707D01*
X86269533Y-32750132D01*
X86306680Y-32672027D01*
X86269533Y-32596780D01*
X86180950Y-32567252D01*
X86091415Y-32596780D01*
X86053315Y-32672027D01*
X85787204Y-32672027D01*
X85813047Y-32588446D01*
X85892342Y-32526295D01*
X85973517Y-32498249D01*
X86076069Y-32481422D01*
X86200000Y-32475812D01*
X86324989Y-32481422D01*
X86428177Y-32498249D01*
G37*
G04 #@! TD*
M02*
