G04 #@! TF.GenerationSoftware,KiCad,Pcbnew,6.0.9-8da3e8f707~116~ubuntu20.04.1*
G04 #@! TF.CreationDate,2023-05-05T17:12:55+00:00*
G04 #@! TF.ProjectId,LEC009202,4c454330-3039-4323-9032-2e6b69636164,rev?*
G04 #@! TF.SameCoordinates,Original*
G04 #@! TF.FileFunction,Legend,Bot*
G04 #@! TF.FilePolarity,Positive*
%FSLAX46Y46*%
G04 Gerber Fmt 4.6, Leading zero omitted, Abs format (unit mm)*
G04 Created by KiCad (PCBNEW 6.0.9-8da3e8f707~116~ubuntu20.04.1) date 2023-05-05 17:12:55*
%MOMM*%
%LPD*%
G01*
G04 APERTURE LIST*
%ADD10C,0.120000*%
%ADD11C,0.010000*%
G04 APERTURE END LIST*
D10*
G04 #@! TO.C,H1*
X73224903Y-49000000D02*
G75*
G03*
X73224903Y-49000000I-3224903J0D01*
G01*
G36*
X70500000Y-45800000D02*
G01*
X71500000Y-46100000D01*
X72300000Y-46700000D01*
X72800000Y-47400000D01*
X73100000Y-48100000D01*
X73200000Y-48500000D01*
X73200000Y-49000000D01*
X71600000Y-49000000D01*
X71600000Y-48900000D01*
X71500000Y-48500000D01*
X71300000Y-48100000D01*
X70900000Y-47700000D01*
X70500000Y-47500000D01*
X70100000Y-47400000D01*
X70000000Y-47400000D01*
X70000000Y-45775097D01*
X70500000Y-45800000D01*
G37*
D11*
X70500000Y-45800000D02*
X71500000Y-46100000D01*
X72300000Y-46700000D01*
X72800000Y-47400000D01*
X73100000Y-48100000D01*
X73200000Y-48500000D01*
X73200000Y-49000000D01*
X71600000Y-49000000D01*
X71600000Y-48900000D01*
X71500000Y-48500000D01*
X71300000Y-48100000D01*
X70900000Y-47700000D01*
X70500000Y-47500000D01*
X70100000Y-47400000D01*
X70000000Y-47400000D01*
X70000000Y-45775097D01*
X70500000Y-45800000D01*
G36*
X68400000Y-49100000D02*
G01*
X68500000Y-49500000D01*
X68700000Y-49900000D01*
X69100000Y-50300000D01*
X69500000Y-50500000D01*
X69900000Y-50600000D01*
X70000000Y-50600000D01*
X70000000Y-52224903D01*
X69500000Y-52200000D01*
X68500000Y-51900000D01*
X67700000Y-51300000D01*
X67200000Y-50600000D01*
X66900000Y-49900000D01*
X66800000Y-49500000D01*
X66800000Y-49000000D01*
X68400000Y-49000000D01*
X68400000Y-49100000D01*
G37*
X68400000Y-49100000D02*
X68500000Y-49500000D01*
X68700000Y-49900000D01*
X69100000Y-50300000D01*
X69500000Y-50500000D01*
X69900000Y-50600000D01*
X70000000Y-50600000D01*
X70000000Y-52224903D01*
X69500000Y-52200000D01*
X68500000Y-51900000D01*
X67700000Y-51300000D01*
X67200000Y-50600000D01*
X66900000Y-49900000D01*
X66800000Y-49500000D01*
X66800000Y-49000000D01*
X68400000Y-49000000D01*
X68400000Y-49100000D01*
D10*
G04 #@! TO.C,H2*
X103224903Y-49000000D02*
G75*
G03*
X103224903Y-49000000I-3224903J0D01*
G01*
G36*
X98400000Y-49100000D02*
G01*
X98500000Y-49500000D01*
X98700000Y-49900000D01*
X99100000Y-50300000D01*
X99500000Y-50500000D01*
X99900000Y-50600000D01*
X100000000Y-50600000D01*
X100000000Y-52224903D01*
X99500000Y-52200000D01*
X98500000Y-51900000D01*
X97700000Y-51300000D01*
X97200000Y-50600000D01*
X96900000Y-49900000D01*
X96800000Y-49500000D01*
X96800000Y-49000000D01*
X98400000Y-49000000D01*
X98400000Y-49100000D01*
G37*
D11*
X98400000Y-49100000D02*
X98500000Y-49500000D01*
X98700000Y-49900000D01*
X99100000Y-50300000D01*
X99500000Y-50500000D01*
X99900000Y-50600000D01*
X100000000Y-50600000D01*
X100000000Y-52224903D01*
X99500000Y-52200000D01*
X98500000Y-51900000D01*
X97700000Y-51300000D01*
X97200000Y-50600000D01*
X96900000Y-49900000D01*
X96800000Y-49500000D01*
X96800000Y-49000000D01*
X98400000Y-49000000D01*
X98400000Y-49100000D01*
G36*
X100500000Y-45800000D02*
G01*
X101500000Y-46100000D01*
X102300000Y-46700000D01*
X102800000Y-47400000D01*
X103100000Y-48100000D01*
X103200000Y-48500000D01*
X103200000Y-49000000D01*
X101600000Y-49000000D01*
X101600000Y-48900000D01*
X101500000Y-48500000D01*
X101300000Y-48100000D01*
X100900000Y-47700000D01*
X100500000Y-47500000D01*
X100100000Y-47400000D01*
X100000000Y-47400000D01*
X100000000Y-45775097D01*
X100500000Y-45800000D01*
G37*
X100500000Y-45800000D02*
X101500000Y-46100000D01*
X102300000Y-46700000D01*
X102800000Y-47400000D01*
X103100000Y-48100000D01*
X103200000Y-48500000D01*
X103200000Y-49000000D01*
X101600000Y-49000000D01*
X101600000Y-48900000D01*
X101500000Y-48500000D01*
X101300000Y-48100000D01*
X100900000Y-47700000D01*
X100500000Y-47500000D01*
X100100000Y-47400000D01*
X100000000Y-47400000D01*
X100000000Y-45775097D01*
X100500000Y-45800000D01*
D10*
G04 #@! TO.C,U1*
X88200000Y-22820000D02*
X81800000Y-22820000D01*
X81800000Y-22820000D02*
X81800000Y-20320000D01*
X88200000Y-20320000D02*
X88200000Y-22820000D01*
X81800000Y-20320000D02*
X88200000Y-20320000D01*
G04 #@! TO.C,REF\u002A\u002A*
G36*
X86011662Y-33320696D02*
G01*
X86051314Y-33321782D01*
X86119109Y-33321782D01*
X86119109Y-33434951D01*
X85959577Y-33434951D01*
X85944682Y-33612732D01*
X85942682Y-33637037D01*
X85938023Y-33697880D01*
X85934731Y-33747389D01*
X85933092Y-33780992D01*
X85933390Y-33794116D01*
X85937724Y-33790343D01*
X85957496Y-33770676D01*
X85991679Y-33735818D01*
X86038541Y-33687576D01*
X86096354Y-33627757D01*
X86163387Y-33558167D01*
X86237912Y-33480615D01*
X86318197Y-33396907D01*
X86402513Y-33308849D01*
X86489130Y-33218250D01*
X86576319Y-33126915D01*
X86662349Y-33036653D01*
X86745492Y-32949269D01*
X86824016Y-32866572D01*
X86896192Y-32790368D01*
X86960291Y-32722463D01*
X87014583Y-32664666D01*
X87111592Y-32561040D01*
X87112034Y-32649315D01*
X87112475Y-32737589D01*
X86511938Y-33369158D01*
X85911401Y-34000726D01*
X85899396Y-34144674D01*
X85851365Y-34720635D01*
X85842876Y-34822791D01*
X85832343Y-34950612D01*
X85822621Y-35069767D01*
X85813898Y-35177914D01*
X85806358Y-35272713D01*
X85800187Y-35351819D01*
X85795573Y-35412892D01*
X85792700Y-35453590D01*
X85791754Y-35471570D01*
X85794251Y-35479808D01*
X85805471Y-35497599D01*
X85826751Y-35524411D01*
X85837021Y-35536129D01*
X85859225Y-35561466D01*
X85904023Y-35609986D01*
X85962281Y-35671192D01*
X86035129Y-35746307D01*
X86123703Y-35836550D01*
X86229134Y-35943145D01*
X86298492Y-36013093D01*
X86395179Y-36110658D01*
X86491526Y-36207941D01*
X86584638Y-36302014D01*
X86671618Y-36389950D01*
X86749569Y-36468820D01*
X86815596Y-36535699D01*
X86866802Y-36587658D01*
X87067514Y-36791620D01*
X87031058Y-36829671D01*
X87022460Y-36838245D01*
X86997095Y-36859297D01*
X86979695Y-36867723D01*
X86966071Y-36860530D01*
X86940743Y-36838944D01*
X86910379Y-36807995D01*
X86891896Y-36788448D01*
X86857427Y-36752752D01*
X86808712Y-36702684D01*
X86747469Y-36640001D01*
X86675420Y-36566457D01*
X86594285Y-36483810D01*
X86505784Y-36393815D01*
X86411637Y-36298228D01*
X86313565Y-36198805D01*
X85771161Y-35649343D01*
X85749066Y-35934746D01*
X85744250Y-35995662D01*
X85737216Y-36077548D01*
X85730872Y-36139569D01*
X85724748Y-36184987D01*
X85718373Y-36217062D01*
X85711277Y-36239052D01*
X85702991Y-36254219D01*
X85691393Y-36275416D01*
X85681850Y-36314386D01*
X85679010Y-36370531D01*
X85679010Y-36452773D01*
X85452674Y-36452773D01*
X85452674Y-36276733D01*
X84607082Y-36276733D01*
X84558203Y-36332262D01*
X84544836Y-36346722D01*
X84472388Y-36404813D01*
X84390532Y-36440576D01*
X84301900Y-36452773D01*
X84223692Y-36446306D01*
X84135233Y-36419047D01*
X84059507Y-36370328D01*
X84044748Y-36356403D01*
X84007864Y-36311328D01*
X83975503Y-36258819D01*
X83952297Y-36207061D01*
X83942879Y-36164239D01*
X83942697Y-36158023D01*
X83941342Y-36135246D01*
X83937800Y-36119513D01*
X83930390Y-36112068D01*
X83917431Y-36114156D01*
X83897243Y-36127020D01*
X83868145Y-36151905D01*
X83828456Y-36190053D01*
X83776496Y-36242710D01*
X83710584Y-36311119D01*
X83629040Y-36396524D01*
X83585604Y-36442112D01*
X83513000Y-36518441D01*
X83444309Y-36590808D01*
X83382223Y-36656366D01*
X83329434Y-36712274D01*
X83288634Y-36755686D01*
X83262515Y-36783758D01*
X83191119Y-36861436D01*
X83102863Y-36773416D01*
X83648690Y-36201287D01*
X83683105Y-36165188D01*
X83805546Y-36036272D01*
X83910651Y-35924754D01*
X83998736Y-35830288D01*
X84070116Y-35752529D01*
X84120588Y-35696174D01*
X84327247Y-35696174D01*
X84328872Y-35709434D01*
X84329156Y-35710819D01*
X84342698Y-35742228D01*
X84369748Y-35756863D01*
X84453129Y-35788063D01*
X84527418Y-35840038D01*
X84585846Y-35908791D01*
X84625890Y-35991315D01*
X84645026Y-36084606D01*
X84651364Y-36163565D01*
X85600838Y-36163565D01*
X85607458Y-36135273D01*
X85608629Y-36128329D01*
X85612268Y-36097281D01*
X85617234Y-36047081D01*
X85623157Y-35981727D01*
X85629669Y-35905219D01*
X85636401Y-35821555D01*
X85658724Y-35536129D01*
X85357826Y-35230565D01*
X85302636Y-35174704D01*
X85235109Y-35106888D01*
X85174529Y-35046643D01*
X85123021Y-34996052D01*
X85082710Y-34957200D01*
X85055722Y-34932170D01*
X85044182Y-34923046D01*
X85036444Y-34927405D01*
X85013395Y-34947241D01*
X84978709Y-34980375D01*
X84935487Y-35023820D01*
X84886832Y-35074587D01*
X84874140Y-35088051D01*
X84817229Y-35148275D01*
X84749414Y-35219864D01*
X84675800Y-35297437D01*
X84601493Y-35375611D01*
X84531599Y-35449005D01*
X84527401Y-35453409D01*
X84462420Y-35521785D01*
X84412836Y-35574732D01*
X84376688Y-35614767D01*
X84352016Y-35644411D01*
X84336858Y-35666181D01*
X84329256Y-35682595D01*
X84327247Y-35696174D01*
X84120588Y-35696174D01*
X84125105Y-35691131D01*
X84164019Y-35645748D01*
X84187173Y-35616035D01*
X84194882Y-35601644D01*
X84194883Y-35601559D01*
X84193825Y-35583624D01*
X84190737Y-35543421D01*
X84185858Y-35483687D01*
X84179432Y-35407158D01*
X84171700Y-35316569D01*
X84162905Y-35214657D01*
X84153287Y-35104159D01*
X84143091Y-34987811D01*
X84132556Y-34868348D01*
X84121926Y-34748507D01*
X84111442Y-34631025D01*
X84101346Y-34518637D01*
X84091881Y-34414081D01*
X84083288Y-34320091D01*
X84075809Y-34239405D01*
X84069687Y-34174759D01*
X84065162Y-34128888D01*
X84062478Y-34104530D01*
X84057067Y-34063732D01*
X84186253Y-34063732D01*
X84187908Y-34094653D01*
X84191549Y-34146653D01*
X84196995Y-34217487D01*
X84204063Y-34304911D01*
X84212570Y-34406681D01*
X84222335Y-34520552D01*
X84233174Y-34644279D01*
X84244907Y-34775618D01*
X84254079Y-34876908D01*
X84265566Y-35002526D01*
X84276322Y-35118762D01*
X84286131Y-35223380D01*
X84294781Y-35314140D01*
X84302057Y-35388804D01*
X84307746Y-35445134D01*
X84311634Y-35480891D01*
X84313506Y-35493837D01*
X84319188Y-35489826D01*
X84340020Y-35470138D01*
X84373872Y-35436322D01*
X84418412Y-35390837D01*
X84471310Y-35336146D01*
X84530236Y-35274710D01*
X84592858Y-35208990D01*
X84656848Y-35141449D01*
X84719874Y-35074547D01*
X84779606Y-35010746D01*
X84833713Y-34952507D01*
X84879865Y-34902292D01*
X84915733Y-34862563D01*
X84938984Y-34835780D01*
X84945778Y-34826477D01*
X85127601Y-34826477D01*
X85403305Y-35101968D01*
X85470726Y-35169224D01*
X85534267Y-35232162D01*
X85583490Y-35280100D01*
X85620196Y-35314594D01*
X85646190Y-35337199D01*
X85663276Y-35349471D01*
X85673256Y-35352966D01*
X85677935Y-35349238D01*
X85679116Y-35339844D01*
X85679873Y-35324749D01*
X85682601Y-35285883D01*
X85687108Y-35226895D01*
X85693179Y-35150473D01*
X85700596Y-35059305D01*
X85709142Y-34956080D01*
X85718602Y-34843483D01*
X85728758Y-34724205D01*
X85737723Y-34619077D01*
X85747066Y-34508351D01*
X85755443Y-34407814D01*
X85762653Y-34319943D01*
X85768496Y-34247215D01*
X85772769Y-34192110D01*
X85775273Y-34157104D01*
X85775805Y-34144674D01*
X85775384Y-34144908D01*
X85763509Y-34156350D01*
X85737130Y-34183198D01*
X85698570Y-34223018D01*
X85650153Y-34273372D01*
X85594203Y-34331828D01*
X85533042Y-34395948D01*
X85468995Y-34463298D01*
X85404385Y-34531443D01*
X85341535Y-34597948D01*
X85282768Y-34660377D01*
X85230409Y-34716295D01*
X85129533Y-34824406D01*
X85127601Y-34826477D01*
X84945778Y-34826477D01*
X84947290Y-34824406D01*
X84939148Y-34813383D01*
X84915478Y-34786999D01*
X84878478Y-34747527D01*
X84830350Y-34697191D01*
X84773296Y-34638217D01*
X84709520Y-34572830D01*
X84641222Y-34503255D01*
X84570605Y-34431716D01*
X84499871Y-34360438D01*
X84431222Y-34291647D01*
X84366861Y-34227566D01*
X84308989Y-34170422D01*
X84259810Y-34122439D01*
X84221524Y-34085841D01*
X84196334Y-34062854D01*
X84186442Y-34055703D01*
X84186253Y-34063732D01*
X84057067Y-34063732D01*
X84055390Y-34051089D01*
X83780297Y-34051089D01*
X83780140Y-33950495D01*
X83880891Y-33950495D01*
X83962624Y-33950495D01*
X83969895Y-33950489D01*
X84010950Y-33949613D01*
X84033277Y-33945867D01*
X84042529Y-33937270D01*
X84044357Y-33921840D01*
X84036306Y-33899159D01*
X84008730Y-33861428D01*
X83962624Y-33812179D01*
X83880891Y-33731172D01*
X83880891Y-33950495D01*
X83780140Y-33950495D01*
X83779968Y-33840471D01*
X83779639Y-33629852D01*
X83327914Y-33170891D01*
X82876189Y-32711931D01*
X82875570Y-32624848D01*
X82874951Y-32537767D01*
X83416769Y-33086952D01*
X83469137Y-33139998D01*
X83577803Y-33249772D01*
X83670709Y-33343114D01*
X83749055Y-33421173D01*
X83814043Y-33485097D01*
X83866872Y-33536035D01*
X83908743Y-33575135D01*
X83940855Y-33603548D01*
X83964410Y-33622420D01*
X83980608Y-33632901D01*
X83990649Y-33636139D01*
X84007579Y-33635158D01*
X84017084Y-33627996D01*
X84018723Y-33608401D01*
X84014782Y-33570124D01*
X84012065Y-33546025D01*
X84008284Y-33505744D01*
X84006760Y-33478961D01*
X84006015Y-33469728D01*
X83998746Y-33459839D01*
X83978668Y-33456562D01*
X83939689Y-33457992D01*
X83929737Y-33458553D01*
X83889898Y-33457921D01*
X83861560Y-33449167D01*
X83841586Y-33434951D01*
X84124852Y-33434951D01*
X84129013Y-33482104D01*
X84130935Y-33503498D01*
X84136924Y-33561909D01*
X84142826Y-33600381D01*
X84149727Y-33622912D01*
X84158712Y-33633498D01*
X84170870Y-33636139D01*
X84181801Y-33637937D01*
X84189050Y-33646530D01*
X84193100Y-33666505D01*
X84194863Y-33702450D01*
X84195248Y-33758952D01*
X84195248Y-33881766D01*
X84235447Y-33921840D01*
X84333565Y-34019654D01*
X84471881Y-34157542D01*
X84471881Y-34051089D01*
X85226337Y-34051089D01*
X85226337Y-34290000D01*
X84607831Y-34290000D01*
X84817592Y-34506906D01*
X84857770Y-34548334D01*
X84913328Y-34605200D01*
X84961570Y-34654082D01*
X84999971Y-34692441D01*
X85026003Y-34717741D01*
X85037140Y-34727442D01*
X85041373Y-34724767D01*
X85061224Y-34706782D01*
X85095451Y-34673481D01*
X85142227Y-34626712D01*
X85199724Y-34568325D01*
X85266112Y-34500169D01*
X85339564Y-34424094D01*
X85418251Y-34341950D01*
X85497341Y-34258943D01*
X85574871Y-34177136D01*
X85637746Y-34110083D01*
X85687502Y-34056007D01*
X85725678Y-34013129D01*
X85753811Y-33979673D01*
X85773440Y-33953861D01*
X85786101Y-33933914D01*
X85793334Y-33918056D01*
X85796675Y-33904509D01*
X85797561Y-33897910D01*
X85801488Y-33861548D01*
X85806459Y-33808018D01*
X85811927Y-33743421D01*
X85817344Y-33673862D01*
X85819181Y-33649635D01*
X85824488Y-33584178D01*
X85829548Y-33527717D01*
X85833863Y-33485618D01*
X85836934Y-33463243D01*
X85842955Y-33434951D01*
X84124852Y-33434951D01*
X83841586Y-33434951D01*
X83833630Y-33429289D01*
X83828820Y-33425104D01*
X83789482Y-33374427D01*
X83773903Y-33321782D01*
X84114698Y-33321782D01*
X85529221Y-33321782D01*
X85741881Y-33321782D01*
X85798908Y-33321782D01*
X85815993Y-33321662D01*
X85841308Y-33319462D01*
X85848616Y-33312334D01*
X85842943Y-33297508D01*
X85841267Y-33294682D01*
X85822448Y-33272944D01*
X85795183Y-33248820D01*
X85767987Y-33229254D01*
X85749371Y-33221188D01*
X85747697Y-33222463D01*
X85743544Y-33239976D01*
X85741881Y-33271485D01*
X85741881Y-33321782D01*
X85529221Y-33321782D01*
X85525526Y-33231095D01*
X85521832Y-33140407D01*
X85446386Y-33125252D01*
X85408551Y-33118379D01*
X85345368Y-33108756D01*
X85286065Y-33101496D01*
X85201188Y-33092893D01*
X85201188Y-33196040D01*
X84622773Y-33196040D01*
X84622773Y-33105122D01*
X84550471Y-33113753D01*
X84439998Y-33132249D01*
X84328816Y-33165691D01*
X84236850Y-33212324D01*
X84162542Y-33272786D01*
X84114698Y-33321782D01*
X83773903Y-33321782D01*
X83772172Y-33315934D01*
X83777474Y-33254575D01*
X83805975Y-33195297D01*
X83808733Y-33191606D01*
X83846822Y-33159851D01*
X83896476Y-33141067D01*
X83950002Y-33136071D01*
X83999707Y-33145678D01*
X84037900Y-33170704D01*
X84050831Y-33183480D01*
X84063428Y-33186576D01*
X84081467Y-33176998D01*
X84111928Y-33153082D01*
X84121274Y-33145731D01*
X84193430Y-33099339D01*
X84278915Y-33058084D01*
X84348830Y-33032575D01*
X84723367Y-33032575D01*
X84723367Y-33095446D01*
X85100594Y-33095446D01*
X85100594Y-33032575D01*
X84723367Y-33032575D01*
X84348830Y-33032575D01*
X84369767Y-33024936D01*
X84458027Y-33002868D01*
X84535736Y-32994852D01*
X84543991Y-32994788D01*
X84589879Y-32990321D01*
X84615079Y-32977795D01*
X84622773Y-32955784D01*
X84623676Y-32948849D01*
X84628615Y-32942885D01*
X84640611Y-32938519D01*
X84662680Y-32935503D01*
X84697836Y-32933590D01*
X84749094Y-32932530D01*
X84819471Y-32932077D01*
X84911980Y-32931980D01*
X84998660Y-32932150D01*
X85072332Y-32932834D01*
X85126265Y-32934215D01*
X85163288Y-32936470D01*
X85186230Y-32939778D01*
X85197920Y-32944320D01*
X85201188Y-32950272D01*
X85211937Y-32964888D01*
X85242055Y-32974215D01*
X85253582Y-32975847D01*
X85292886Y-32981591D01*
X85345188Y-32989378D01*
X85402376Y-32998003D01*
X85433916Y-33002393D01*
X85480074Y-33007148D01*
X85512641Y-33008295D01*
X85526023Y-33005495D01*
X85528308Y-33003671D01*
X85549405Y-32999165D01*
X85587355Y-32996029D01*
X85636048Y-32994852D01*
X85741881Y-32994852D01*
X85741894Y-33032575D01*
X85741894Y-33035718D01*
X85742388Y-33048668D01*
X85748819Y-33070411D01*
X85767123Y-33088851D01*
X85802830Y-33110801D01*
X85834174Y-33130854D01*
X85881893Y-33169356D01*
X85925138Y-33212579D01*
X85958219Y-33254627D01*
X85975442Y-33289604D01*
X85979662Y-33303081D01*
X85987480Y-33312334D01*
X85990116Y-33315454D01*
X86011662Y-33320696D01*
G37*
D11*
X86011662Y-33320696D02*
X86051314Y-33321782D01*
X86119109Y-33321782D01*
X86119109Y-33434951D01*
X85959577Y-33434951D01*
X85944682Y-33612732D01*
X85942682Y-33637037D01*
X85938023Y-33697880D01*
X85934731Y-33747389D01*
X85933092Y-33780992D01*
X85933390Y-33794116D01*
X85937724Y-33790343D01*
X85957496Y-33770676D01*
X85991679Y-33735818D01*
X86038541Y-33687576D01*
X86096354Y-33627757D01*
X86163387Y-33558167D01*
X86237912Y-33480615D01*
X86318197Y-33396907D01*
X86402513Y-33308849D01*
X86489130Y-33218250D01*
X86576319Y-33126915D01*
X86662349Y-33036653D01*
X86745492Y-32949269D01*
X86824016Y-32866572D01*
X86896192Y-32790368D01*
X86960291Y-32722463D01*
X87014583Y-32664666D01*
X87111592Y-32561040D01*
X87112034Y-32649315D01*
X87112475Y-32737589D01*
X86511938Y-33369158D01*
X85911401Y-34000726D01*
X85899396Y-34144674D01*
X85851365Y-34720635D01*
X85842876Y-34822791D01*
X85832343Y-34950612D01*
X85822621Y-35069767D01*
X85813898Y-35177914D01*
X85806358Y-35272713D01*
X85800187Y-35351819D01*
X85795573Y-35412892D01*
X85792700Y-35453590D01*
X85791754Y-35471570D01*
X85794251Y-35479808D01*
X85805471Y-35497599D01*
X85826751Y-35524411D01*
X85837021Y-35536129D01*
X85859225Y-35561466D01*
X85904023Y-35609986D01*
X85962281Y-35671192D01*
X86035129Y-35746307D01*
X86123703Y-35836550D01*
X86229134Y-35943145D01*
X86298492Y-36013093D01*
X86395179Y-36110658D01*
X86491526Y-36207941D01*
X86584638Y-36302014D01*
X86671618Y-36389950D01*
X86749569Y-36468820D01*
X86815596Y-36535699D01*
X86866802Y-36587658D01*
X87067514Y-36791620D01*
X87031058Y-36829671D01*
X87022460Y-36838245D01*
X86997095Y-36859297D01*
X86979695Y-36867723D01*
X86966071Y-36860530D01*
X86940743Y-36838944D01*
X86910379Y-36807995D01*
X86891896Y-36788448D01*
X86857427Y-36752752D01*
X86808712Y-36702684D01*
X86747469Y-36640001D01*
X86675420Y-36566457D01*
X86594285Y-36483810D01*
X86505784Y-36393815D01*
X86411637Y-36298228D01*
X86313565Y-36198805D01*
X85771161Y-35649343D01*
X85749066Y-35934746D01*
X85744250Y-35995662D01*
X85737216Y-36077548D01*
X85730872Y-36139569D01*
X85724748Y-36184987D01*
X85718373Y-36217062D01*
X85711277Y-36239052D01*
X85702991Y-36254219D01*
X85691393Y-36275416D01*
X85681850Y-36314386D01*
X85679010Y-36370531D01*
X85679010Y-36452773D01*
X85452674Y-36452773D01*
X85452674Y-36276733D01*
X84607082Y-36276733D01*
X84558203Y-36332262D01*
X84544836Y-36346722D01*
X84472388Y-36404813D01*
X84390532Y-36440576D01*
X84301900Y-36452773D01*
X84223692Y-36446306D01*
X84135233Y-36419047D01*
X84059507Y-36370328D01*
X84044748Y-36356403D01*
X84007864Y-36311328D01*
X83975503Y-36258819D01*
X83952297Y-36207061D01*
X83942879Y-36164239D01*
X83942697Y-36158023D01*
X83941342Y-36135246D01*
X83937800Y-36119513D01*
X83930390Y-36112068D01*
X83917431Y-36114156D01*
X83897243Y-36127020D01*
X83868145Y-36151905D01*
X83828456Y-36190053D01*
X83776496Y-36242710D01*
X83710584Y-36311119D01*
X83629040Y-36396524D01*
X83585604Y-36442112D01*
X83513000Y-36518441D01*
X83444309Y-36590808D01*
X83382223Y-36656366D01*
X83329434Y-36712274D01*
X83288634Y-36755686D01*
X83262515Y-36783758D01*
X83191119Y-36861436D01*
X83102863Y-36773416D01*
X83648690Y-36201287D01*
X83683105Y-36165188D01*
X83805546Y-36036272D01*
X83910651Y-35924754D01*
X83998736Y-35830288D01*
X84070116Y-35752529D01*
X84120588Y-35696174D01*
X84327247Y-35696174D01*
X84328872Y-35709434D01*
X84329156Y-35710819D01*
X84342698Y-35742228D01*
X84369748Y-35756863D01*
X84453129Y-35788063D01*
X84527418Y-35840038D01*
X84585846Y-35908791D01*
X84625890Y-35991315D01*
X84645026Y-36084606D01*
X84651364Y-36163565D01*
X85600838Y-36163565D01*
X85607458Y-36135273D01*
X85608629Y-36128329D01*
X85612268Y-36097281D01*
X85617234Y-36047081D01*
X85623157Y-35981727D01*
X85629669Y-35905219D01*
X85636401Y-35821555D01*
X85658724Y-35536129D01*
X85357826Y-35230565D01*
X85302636Y-35174704D01*
X85235109Y-35106888D01*
X85174529Y-35046643D01*
X85123021Y-34996052D01*
X85082710Y-34957200D01*
X85055722Y-34932170D01*
X85044182Y-34923046D01*
X85036444Y-34927405D01*
X85013395Y-34947241D01*
X84978709Y-34980375D01*
X84935487Y-35023820D01*
X84886832Y-35074587D01*
X84874140Y-35088051D01*
X84817229Y-35148275D01*
X84749414Y-35219864D01*
X84675800Y-35297437D01*
X84601493Y-35375611D01*
X84531599Y-35449005D01*
X84527401Y-35453409D01*
X84462420Y-35521785D01*
X84412836Y-35574732D01*
X84376688Y-35614767D01*
X84352016Y-35644411D01*
X84336858Y-35666181D01*
X84329256Y-35682595D01*
X84327247Y-35696174D01*
X84120588Y-35696174D01*
X84125105Y-35691131D01*
X84164019Y-35645748D01*
X84187173Y-35616035D01*
X84194882Y-35601644D01*
X84194883Y-35601559D01*
X84193825Y-35583624D01*
X84190737Y-35543421D01*
X84185858Y-35483687D01*
X84179432Y-35407158D01*
X84171700Y-35316569D01*
X84162905Y-35214657D01*
X84153287Y-35104159D01*
X84143091Y-34987811D01*
X84132556Y-34868348D01*
X84121926Y-34748507D01*
X84111442Y-34631025D01*
X84101346Y-34518637D01*
X84091881Y-34414081D01*
X84083288Y-34320091D01*
X84075809Y-34239405D01*
X84069687Y-34174759D01*
X84065162Y-34128888D01*
X84062478Y-34104530D01*
X84057067Y-34063732D01*
X84186253Y-34063732D01*
X84187908Y-34094653D01*
X84191549Y-34146653D01*
X84196995Y-34217487D01*
X84204063Y-34304911D01*
X84212570Y-34406681D01*
X84222335Y-34520552D01*
X84233174Y-34644279D01*
X84244907Y-34775618D01*
X84254079Y-34876908D01*
X84265566Y-35002526D01*
X84276322Y-35118762D01*
X84286131Y-35223380D01*
X84294781Y-35314140D01*
X84302057Y-35388804D01*
X84307746Y-35445134D01*
X84311634Y-35480891D01*
X84313506Y-35493837D01*
X84319188Y-35489826D01*
X84340020Y-35470138D01*
X84373872Y-35436322D01*
X84418412Y-35390837D01*
X84471310Y-35336146D01*
X84530236Y-35274710D01*
X84592858Y-35208990D01*
X84656848Y-35141449D01*
X84719874Y-35074547D01*
X84779606Y-35010746D01*
X84833713Y-34952507D01*
X84879865Y-34902292D01*
X84915733Y-34862563D01*
X84938984Y-34835780D01*
X84945778Y-34826477D01*
X85127601Y-34826477D01*
X85403305Y-35101968D01*
X85470726Y-35169224D01*
X85534267Y-35232162D01*
X85583490Y-35280100D01*
X85620196Y-35314594D01*
X85646190Y-35337199D01*
X85663276Y-35349471D01*
X85673256Y-35352966D01*
X85677935Y-35349238D01*
X85679116Y-35339844D01*
X85679873Y-35324749D01*
X85682601Y-35285883D01*
X85687108Y-35226895D01*
X85693179Y-35150473D01*
X85700596Y-35059305D01*
X85709142Y-34956080D01*
X85718602Y-34843483D01*
X85728758Y-34724205D01*
X85737723Y-34619077D01*
X85747066Y-34508351D01*
X85755443Y-34407814D01*
X85762653Y-34319943D01*
X85768496Y-34247215D01*
X85772769Y-34192110D01*
X85775273Y-34157104D01*
X85775805Y-34144674D01*
X85775384Y-34144908D01*
X85763509Y-34156350D01*
X85737130Y-34183198D01*
X85698570Y-34223018D01*
X85650153Y-34273372D01*
X85594203Y-34331828D01*
X85533042Y-34395948D01*
X85468995Y-34463298D01*
X85404385Y-34531443D01*
X85341535Y-34597948D01*
X85282768Y-34660377D01*
X85230409Y-34716295D01*
X85129533Y-34824406D01*
X85127601Y-34826477D01*
X84945778Y-34826477D01*
X84947290Y-34824406D01*
X84939148Y-34813383D01*
X84915478Y-34786999D01*
X84878478Y-34747527D01*
X84830350Y-34697191D01*
X84773296Y-34638217D01*
X84709520Y-34572830D01*
X84641222Y-34503255D01*
X84570605Y-34431716D01*
X84499871Y-34360438D01*
X84431222Y-34291647D01*
X84366861Y-34227566D01*
X84308989Y-34170422D01*
X84259810Y-34122439D01*
X84221524Y-34085841D01*
X84196334Y-34062854D01*
X84186442Y-34055703D01*
X84186253Y-34063732D01*
X84057067Y-34063732D01*
X84055390Y-34051089D01*
X83780297Y-34051089D01*
X83780140Y-33950495D01*
X83880891Y-33950495D01*
X83962624Y-33950495D01*
X83969895Y-33950489D01*
X84010950Y-33949613D01*
X84033277Y-33945867D01*
X84042529Y-33937270D01*
X84044357Y-33921840D01*
X84036306Y-33899159D01*
X84008730Y-33861428D01*
X83962624Y-33812179D01*
X83880891Y-33731172D01*
X83880891Y-33950495D01*
X83780140Y-33950495D01*
X83779968Y-33840471D01*
X83779639Y-33629852D01*
X83327914Y-33170891D01*
X82876189Y-32711931D01*
X82875570Y-32624848D01*
X82874951Y-32537767D01*
X83416769Y-33086952D01*
X83469137Y-33139998D01*
X83577803Y-33249772D01*
X83670709Y-33343114D01*
X83749055Y-33421173D01*
X83814043Y-33485097D01*
X83866872Y-33536035D01*
X83908743Y-33575135D01*
X83940855Y-33603548D01*
X83964410Y-33622420D01*
X83980608Y-33632901D01*
X83990649Y-33636139D01*
X84007579Y-33635158D01*
X84017084Y-33627996D01*
X84018723Y-33608401D01*
X84014782Y-33570124D01*
X84012065Y-33546025D01*
X84008284Y-33505744D01*
X84006760Y-33478961D01*
X84006015Y-33469728D01*
X83998746Y-33459839D01*
X83978668Y-33456562D01*
X83939689Y-33457992D01*
X83929737Y-33458553D01*
X83889898Y-33457921D01*
X83861560Y-33449167D01*
X83841586Y-33434951D01*
X84124852Y-33434951D01*
X84129013Y-33482104D01*
X84130935Y-33503498D01*
X84136924Y-33561909D01*
X84142826Y-33600381D01*
X84149727Y-33622912D01*
X84158712Y-33633498D01*
X84170870Y-33636139D01*
X84181801Y-33637937D01*
X84189050Y-33646530D01*
X84193100Y-33666505D01*
X84194863Y-33702450D01*
X84195248Y-33758952D01*
X84195248Y-33881766D01*
X84235447Y-33921840D01*
X84333565Y-34019654D01*
X84471881Y-34157542D01*
X84471881Y-34051089D01*
X85226337Y-34051089D01*
X85226337Y-34290000D01*
X84607831Y-34290000D01*
X84817592Y-34506906D01*
X84857770Y-34548334D01*
X84913328Y-34605200D01*
X84961570Y-34654082D01*
X84999971Y-34692441D01*
X85026003Y-34717741D01*
X85037140Y-34727442D01*
X85041373Y-34724767D01*
X85061224Y-34706782D01*
X85095451Y-34673481D01*
X85142227Y-34626712D01*
X85199724Y-34568325D01*
X85266112Y-34500169D01*
X85339564Y-34424094D01*
X85418251Y-34341950D01*
X85497341Y-34258943D01*
X85574871Y-34177136D01*
X85637746Y-34110083D01*
X85687502Y-34056007D01*
X85725678Y-34013129D01*
X85753811Y-33979673D01*
X85773440Y-33953861D01*
X85786101Y-33933914D01*
X85793334Y-33918056D01*
X85796675Y-33904509D01*
X85797561Y-33897910D01*
X85801488Y-33861548D01*
X85806459Y-33808018D01*
X85811927Y-33743421D01*
X85817344Y-33673862D01*
X85819181Y-33649635D01*
X85824488Y-33584178D01*
X85829548Y-33527717D01*
X85833863Y-33485618D01*
X85836934Y-33463243D01*
X85842955Y-33434951D01*
X84124852Y-33434951D01*
X83841586Y-33434951D01*
X83833630Y-33429289D01*
X83828820Y-33425104D01*
X83789482Y-33374427D01*
X83773903Y-33321782D01*
X84114698Y-33321782D01*
X85529221Y-33321782D01*
X85741881Y-33321782D01*
X85798908Y-33321782D01*
X85815993Y-33321662D01*
X85841308Y-33319462D01*
X85848616Y-33312334D01*
X85842943Y-33297508D01*
X85841267Y-33294682D01*
X85822448Y-33272944D01*
X85795183Y-33248820D01*
X85767987Y-33229254D01*
X85749371Y-33221188D01*
X85747697Y-33222463D01*
X85743544Y-33239976D01*
X85741881Y-33271485D01*
X85741881Y-33321782D01*
X85529221Y-33321782D01*
X85525526Y-33231095D01*
X85521832Y-33140407D01*
X85446386Y-33125252D01*
X85408551Y-33118379D01*
X85345368Y-33108756D01*
X85286065Y-33101496D01*
X85201188Y-33092893D01*
X85201188Y-33196040D01*
X84622773Y-33196040D01*
X84622773Y-33105122D01*
X84550471Y-33113753D01*
X84439998Y-33132249D01*
X84328816Y-33165691D01*
X84236850Y-33212324D01*
X84162542Y-33272786D01*
X84114698Y-33321782D01*
X83773903Y-33321782D01*
X83772172Y-33315934D01*
X83777474Y-33254575D01*
X83805975Y-33195297D01*
X83808733Y-33191606D01*
X83846822Y-33159851D01*
X83896476Y-33141067D01*
X83950002Y-33136071D01*
X83999707Y-33145678D01*
X84037900Y-33170704D01*
X84050831Y-33183480D01*
X84063428Y-33186576D01*
X84081467Y-33176998D01*
X84111928Y-33153082D01*
X84121274Y-33145731D01*
X84193430Y-33099339D01*
X84278915Y-33058084D01*
X84348830Y-33032575D01*
X84723367Y-33032575D01*
X84723367Y-33095446D01*
X85100594Y-33095446D01*
X85100594Y-33032575D01*
X84723367Y-33032575D01*
X84348830Y-33032575D01*
X84369767Y-33024936D01*
X84458027Y-33002868D01*
X84535736Y-32994852D01*
X84543991Y-32994788D01*
X84589879Y-32990321D01*
X84615079Y-32977795D01*
X84622773Y-32955784D01*
X84623676Y-32948849D01*
X84628615Y-32942885D01*
X84640611Y-32938519D01*
X84662680Y-32935503D01*
X84697836Y-32933590D01*
X84749094Y-32932530D01*
X84819471Y-32932077D01*
X84911980Y-32931980D01*
X84998660Y-32932150D01*
X85072332Y-32932834D01*
X85126265Y-32934215D01*
X85163288Y-32936470D01*
X85186230Y-32939778D01*
X85197920Y-32944320D01*
X85201188Y-32950272D01*
X85211937Y-32964888D01*
X85242055Y-32974215D01*
X85253582Y-32975847D01*
X85292886Y-32981591D01*
X85345188Y-32989378D01*
X85402376Y-32998003D01*
X85433916Y-33002393D01*
X85480074Y-33007148D01*
X85512641Y-33008295D01*
X85526023Y-33005495D01*
X85528308Y-33003671D01*
X85549405Y-32999165D01*
X85587355Y-32996029D01*
X85636048Y-32994852D01*
X85741881Y-32994852D01*
X85741894Y-33032575D01*
X85741894Y-33035718D01*
X85742388Y-33048668D01*
X85748819Y-33070411D01*
X85767123Y-33088851D01*
X85802830Y-33110801D01*
X85834174Y-33130854D01*
X85881893Y-33169356D01*
X85925138Y-33212579D01*
X85958219Y-33254627D01*
X85975442Y-33289604D01*
X85979662Y-33303081D01*
X85987480Y-33312334D01*
X85990116Y-33315454D01*
X86011662Y-33320696D01*
G36*
X86772971Y-38577822D02*
G01*
X83252178Y-38577822D01*
X83252178Y-37710198D01*
X86772971Y-37710198D01*
X86772971Y-38577822D01*
G37*
X86772971Y-38577822D02*
X83252178Y-38577822D01*
X83252178Y-37710198D01*
X86772971Y-37710198D01*
X86772971Y-38577822D01*
D10*
G04 #@! TO.C,JP1*
X80300000Y-47350000D02*
X79700000Y-47350000D01*
X81000000Y-49450000D02*
X81000000Y-48050000D01*
X79700000Y-50150000D02*
X80300000Y-50150000D01*
X79000000Y-48050000D02*
X79000000Y-49450000D01*
X79000000Y-49450000D02*
G75*
G03*
X79700000Y-50150000I700000J0D01*
G01*
X79700000Y-47350000D02*
G75*
G03*
X79000000Y-48050000I-1J-699999D01*
G01*
X80300000Y-50150000D02*
G75*
G03*
X81000000Y-49450000I0J700000D01*
G01*
X81000000Y-48050000D02*
G75*
G03*
X80300000Y-47350000I-699999J1D01*
G01*
G04 #@! TO.C,kibuzzard-620CD483*
G36*
X79166017Y-48750000D02*
G01*
X78426330Y-49859530D01*
X73333983Y-49859530D01*
X74073670Y-48750000D01*
X73759345Y-48278512D01*
X74586300Y-48278512D01*
X74594237Y-48344394D01*
X74621225Y-48378525D01*
X74702187Y-48392812D01*
X75005400Y-48392812D01*
X75005400Y-49191325D01*
X75007781Y-49245300D01*
X75022069Y-49285781D01*
X75064137Y-49318325D01*
X75143512Y-49327850D01*
X75222094Y-49318325D01*
X75263369Y-49285781D01*
X75277656Y-49244506D01*
X75280037Y-49189738D01*
X75280037Y-48784925D01*
X75786450Y-48784925D01*
X75794586Y-48887319D01*
X75818994Y-48984950D01*
X75859673Y-49077819D01*
X75916625Y-49165925D01*
X75989253Y-49239148D01*
X76080137Y-49296894D01*
X76185508Y-49334398D01*
X76301594Y-49346900D01*
X76417481Y-49334200D01*
X76522256Y-49296100D01*
X76612148Y-49237363D01*
X76683388Y-49162750D01*
X76739645Y-49075834D01*
X76779828Y-48983363D01*
X76803938Y-48885334D01*
X76811975Y-48781750D01*
X76811975Y-48349156D01*
X76915163Y-48349156D01*
X76948500Y-48437262D01*
X77007238Y-48501556D01*
X77059625Y-48522987D01*
X77140588Y-48488062D01*
X77218375Y-48447581D01*
X77318388Y-48434087D01*
X77420781Y-48451947D01*
X77521588Y-48505525D01*
X77600963Y-48603950D01*
X77624775Y-48671617D01*
X77632713Y-48747619D01*
X77624775Y-48823620D01*
X77600963Y-48891288D01*
X77520000Y-48991300D01*
X77421178Y-49043688D01*
X77318388Y-49061150D01*
X77225519Y-49048450D01*
X77162813Y-49023050D01*
X77134238Y-49002412D01*
X77058038Y-48970663D01*
X77006841Y-48992888D01*
X76951675Y-49059563D01*
X76916750Y-49148463D01*
X76938181Y-49204025D01*
X76988188Y-49243713D01*
X77042956Y-49277050D01*
X77150113Y-49318325D01*
X77229686Y-49337375D01*
X77306481Y-49343725D01*
X77382284Y-49338764D01*
X77458881Y-49323881D01*
X77537066Y-49297291D01*
X77617631Y-49257206D01*
X77695220Y-49205216D01*
X77764475Y-49142906D01*
X77823808Y-49065913D01*
X77871631Y-48969869D01*
X77903183Y-48859736D01*
X77913700Y-48740475D01*
X77903381Y-48622405D01*
X77872425Y-48515844D01*
X77825395Y-48423769D01*
X77766856Y-48349156D01*
X77697998Y-48288633D01*
X77620013Y-48238825D01*
X77516119Y-48191200D01*
X77411874Y-48162625D01*
X77307275Y-48153100D01*
X77232067Y-48158855D01*
X77155669Y-48176119D01*
X77038988Y-48222950D01*
X77000888Y-48245175D01*
X76956438Y-48273750D01*
X76915163Y-48349156D01*
X76811975Y-48349156D01*
X76811975Y-48303912D01*
X76809594Y-48247556D01*
X76794513Y-48205487D01*
X76751650Y-48172150D01*
X76670688Y-48162625D01*
X76589725Y-48172150D01*
X76548450Y-48205487D01*
X76529400Y-48305500D01*
X76529400Y-48781750D01*
X76517494Y-48876206D01*
X76481775Y-48965900D01*
X76410338Y-49037338D01*
X76297625Y-49064325D01*
X76196422Y-49042894D01*
X76124587Y-48978600D01*
X76081725Y-48886128D01*
X76067437Y-48780163D01*
X76067437Y-48294387D01*
X76051562Y-48207075D01*
X76005525Y-48172150D01*
X75930119Y-48162625D01*
X75857887Y-48170562D01*
X75816612Y-48189612D01*
X75795975Y-48222950D01*
X75786450Y-48305500D01*
X75786450Y-48784925D01*
X75280037Y-48784925D01*
X75280037Y-48392812D01*
X75584837Y-48392812D01*
X75659450Y-48380906D01*
X75691200Y-48343600D01*
X75699137Y-48276925D01*
X75691200Y-48211044D01*
X75664212Y-48176912D01*
X75583250Y-48162625D01*
X74700600Y-48162625D01*
X74625987Y-48174531D01*
X74594237Y-48211837D01*
X74586300Y-48278512D01*
X73759345Y-48278512D01*
X73333983Y-47640470D01*
X78426330Y-47640470D01*
X79166017Y-48750000D01*
G37*
G04 #@! TD*
M02*
