G04 #@! TF.GenerationSoftware,KiCad,Pcbnew,6.0.9-8da3e8f707~116~ubuntu20.04.1*
G04 #@! TF.CreationDate,2023-05-05T17:23:47+00:00*
G04 #@! TF.ProjectId,LEC009212,4c454330-3039-4323-9132-2e6b69636164,rev?*
G04 #@! TF.SameCoordinates,Original*
G04 #@! TF.FileFunction,Legend,Bot*
G04 #@! TF.FilePolarity,Positive*
%FSLAX46Y46*%
G04 Gerber Fmt 4.6, Leading zero omitted, Abs format (unit mm)*
G04 Created by KiCad (PCBNEW 6.0.9-8da3e8f707~116~ubuntu20.04.1) date 2023-05-05 17:23:47*
%MOMM*%
%LPD*%
G01*
G04 APERTURE LIST*
%ADD10C,0.120000*%
%ADD11C,0.010000*%
G04 APERTURE END LIST*
D10*
G04 #@! TO.C,H1*
X73224903Y-49000000D02*
G75*
G03*
X73224903Y-49000000I-3224903J0D01*
G01*
G36*
X70500000Y-45800000D02*
G01*
X71500000Y-46100000D01*
X72300000Y-46700000D01*
X72800000Y-47400000D01*
X73100000Y-48100000D01*
X73200000Y-48500000D01*
X73200000Y-49000000D01*
X71600000Y-49000000D01*
X71600000Y-48900000D01*
X71500000Y-48500000D01*
X71300000Y-48100000D01*
X70900000Y-47700000D01*
X70500000Y-47500000D01*
X70100000Y-47400000D01*
X70000000Y-47400000D01*
X70000000Y-45775097D01*
X70500000Y-45800000D01*
G37*
D11*
X70500000Y-45800000D02*
X71500000Y-46100000D01*
X72300000Y-46700000D01*
X72800000Y-47400000D01*
X73100000Y-48100000D01*
X73200000Y-48500000D01*
X73200000Y-49000000D01*
X71600000Y-49000000D01*
X71600000Y-48900000D01*
X71500000Y-48500000D01*
X71300000Y-48100000D01*
X70900000Y-47700000D01*
X70500000Y-47500000D01*
X70100000Y-47400000D01*
X70000000Y-47400000D01*
X70000000Y-45775097D01*
X70500000Y-45800000D01*
G36*
X68400000Y-49100000D02*
G01*
X68500000Y-49500000D01*
X68700000Y-49900000D01*
X69100000Y-50300000D01*
X69500000Y-50500000D01*
X69900000Y-50600000D01*
X70000000Y-50600000D01*
X70000000Y-52224903D01*
X69500000Y-52200000D01*
X68500000Y-51900000D01*
X67700000Y-51300000D01*
X67200000Y-50600000D01*
X66900000Y-49900000D01*
X66800000Y-49500000D01*
X66800000Y-49000000D01*
X68400000Y-49000000D01*
X68400000Y-49100000D01*
G37*
X68400000Y-49100000D02*
X68500000Y-49500000D01*
X68700000Y-49900000D01*
X69100000Y-50300000D01*
X69500000Y-50500000D01*
X69900000Y-50600000D01*
X70000000Y-50600000D01*
X70000000Y-52224903D01*
X69500000Y-52200000D01*
X68500000Y-51900000D01*
X67700000Y-51300000D01*
X67200000Y-50600000D01*
X66900000Y-49900000D01*
X66800000Y-49500000D01*
X66800000Y-49000000D01*
X68400000Y-49000000D01*
X68400000Y-49100000D01*
D10*
G04 #@! TO.C,H2*
X103224903Y-49000000D02*
G75*
G03*
X103224903Y-49000000I-3224903J0D01*
G01*
G36*
X98400000Y-49100000D02*
G01*
X98500000Y-49500000D01*
X98700000Y-49900000D01*
X99100000Y-50300000D01*
X99500000Y-50500000D01*
X99900000Y-50600000D01*
X100000000Y-50600000D01*
X100000000Y-52224903D01*
X99500000Y-52200000D01*
X98500000Y-51900000D01*
X97700000Y-51300000D01*
X97200000Y-50600000D01*
X96900000Y-49900000D01*
X96800000Y-49500000D01*
X96800000Y-49000000D01*
X98400000Y-49000000D01*
X98400000Y-49100000D01*
G37*
D11*
X98400000Y-49100000D02*
X98500000Y-49500000D01*
X98700000Y-49900000D01*
X99100000Y-50300000D01*
X99500000Y-50500000D01*
X99900000Y-50600000D01*
X100000000Y-50600000D01*
X100000000Y-52224903D01*
X99500000Y-52200000D01*
X98500000Y-51900000D01*
X97700000Y-51300000D01*
X97200000Y-50600000D01*
X96900000Y-49900000D01*
X96800000Y-49500000D01*
X96800000Y-49000000D01*
X98400000Y-49000000D01*
X98400000Y-49100000D01*
G36*
X100500000Y-45800000D02*
G01*
X101500000Y-46100000D01*
X102300000Y-46700000D01*
X102800000Y-47400000D01*
X103100000Y-48100000D01*
X103200000Y-48500000D01*
X103200000Y-49000000D01*
X101600000Y-49000000D01*
X101600000Y-48900000D01*
X101500000Y-48500000D01*
X101300000Y-48100000D01*
X100900000Y-47700000D01*
X100500000Y-47500000D01*
X100100000Y-47400000D01*
X100000000Y-47400000D01*
X100000000Y-45775097D01*
X100500000Y-45800000D01*
G37*
X100500000Y-45800000D02*
X101500000Y-46100000D01*
X102300000Y-46700000D01*
X102800000Y-47400000D01*
X103100000Y-48100000D01*
X103200000Y-48500000D01*
X103200000Y-49000000D01*
X101600000Y-49000000D01*
X101600000Y-48900000D01*
X101500000Y-48500000D01*
X101300000Y-48100000D01*
X100900000Y-47700000D01*
X100500000Y-47500000D01*
X100100000Y-47400000D01*
X100000000Y-47400000D01*
X100000000Y-45775097D01*
X100500000Y-45800000D01*
G04 #@! TO.C,REF\u002A\u002A*
G36*
X83052732Y-28055318D02*
G01*
X83077037Y-28057318D01*
X83137880Y-28061977D01*
X83187389Y-28065269D01*
X83220992Y-28066908D01*
X83234116Y-28066610D01*
X83230343Y-28062276D01*
X83210676Y-28042504D01*
X83175818Y-28008321D01*
X83127576Y-27961459D01*
X83067757Y-27903646D01*
X82998167Y-27836613D01*
X82920615Y-27762088D01*
X82836907Y-27681803D01*
X82748849Y-27597487D01*
X82658250Y-27510870D01*
X82566915Y-27423681D01*
X82476653Y-27337651D01*
X82389269Y-27254508D01*
X82306572Y-27175984D01*
X82230368Y-27103808D01*
X82162463Y-27039709D01*
X82104666Y-26985417D01*
X82001040Y-26888408D01*
X82089315Y-26887966D01*
X82177589Y-26887525D01*
X82809158Y-27488062D01*
X83440726Y-28088599D01*
X83584674Y-28100604D01*
X84160635Y-28148635D01*
X84262791Y-28157124D01*
X84390612Y-28167657D01*
X84509767Y-28177379D01*
X84617914Y-28186102D01*
X84712713Y-28193642D01*
X84791819Y-28199813D01*
X84852892Y-28204427D01*
X84893590Y-28207300D01*
X84911570Y-28208246D01*
X84919808Y-28205749D01*
X84937599Y-28194529D01*
X84964411Y-28173249D01*
X84976129Y-28162979D01*
X85001466Y-28140775D01*
X85049986Y-28095977D01*
X85111192Y-28037719D01*
X85186307Y-27964871D01*
X85276550Y-27876297D01*
X85383145Y-27770866D01*
X85453093Y-27701508D01*
X85550658Y-27604821D01*
X85647941Y-27508474D01*
X85742014Y-27415362D01*
X85829950Y-27328382D01*
X85908820Y-27250431D01*
X85975699Y-27184404D01*
X86027658Y-27133198D01*
X86231620Y-26932486D01*
X86269671Y-26968942D01*
X86278245Y-26977540D01*
X86299297Y-27002905D01*
X86307723Y-27020305D01*
X86300530Y-27033929D01*
X86278944Y-27059257D01*
X86247995Y-27089621D01*
X86228448Y-27108104D01*
X86192752Y-27142573D01*
X86142684Y-27191288D01*
X86080001Y-27252531D01*
X86006457Y-27324580D01*
X85923810Y-27405715D01*
X85833815Y-27494216D01*
X85738228Y-27588363D01*
X85638805Y-27686435D01*
X85089343Y-28228839D01*
X85374746Y-28250934D01*
X85435662Y-28255750D01*
X85517548Y-28262784D01*
X85579569Y-28269128D01*
X85624987Y-28275252D01*
X85657062Y-28281627D01*
X85679052Y-28288723D01*
X85694219Y-28297009D01*
X85715416Y-28308607D01*
X85754386Y-28318150D01*
X85810531Y-28320990D01*
X85892773Y-28320990D01*
X85892773Y-28547326D01*
X85716733Y-28547326D01*
X85716733Y-29392918D01*
X85772262Y-29441797D01*
X85786722Y-29455164D01*
X85844813Y-29527612D01*
X85880576Y-29609468D01*
X85892773Y-29698100D01*
X85886306Y-29776308D01*
X85859047Y-29864767D01*
X85810328Y-29940493D01*
X85796403Y-29955252D01*
X85751328Y-29992136D01*
X85698819Y-30024497D01*
X85647061Y-30047703D01*
X85604239Y-30057121D01*
X85598023Y-30057303D01*
X85575246Y-30058658D01*
X85559513Y-30062200D01*
X85552068Y-30069610D01*
X85554156Y-30082569D01*
X85567020Y-30102757D01*
X85591905Y-30131855D01*
X85630053Y-30171544D01*
X85682710Y-30223504D01*
X85751119Y-30289416D01*
X85836524Y-30370960D01*
X85882112Y-30414396D01*
X85958441Y-30487000D01*
X86030808Y-30555691D01*
X86096366Y-30617777D01*
X86152274Y-30670566D01*
X86195686Y-30711366D01*
X86223758Y-30737485D01*
X86301436Y-30808881D01*
X86213416Y-30897137D01*
X85641287Y-30351310D01*
X85605188Y-30316895D01*
X85476272Y-30194454D01*
X85364754Y-30089349D01*
X85270288Y-30001264D01*
X85192529Y-29929884D01*
X85131131Y-29874895D01*
X85085748Y-29835981D01*
X85056035Y-29812827D01*
X85041644Y-29805118D01*
X85041559Y-29805117D01*
X85023624Y-29806175D01*
X84983421Y-29809263D01*
X84923687Y-29814142D01*
X84847158Y-29820568D01*
X84756569Y-29828300D01*
X84654657Y-29837095D01*
X84544159Y-29846713D01*
X84427811Y-29856909D01*
X84308348Y-29867444D01*
X84188507Y-29878074D01*
X84071025Y-29888558D01*
X83958637Y-29898654D01*
X83854081Y-29908119D01*
X83760091Y-29916712D01*
X83679405Y-29924191D01*
X83614759Y-29930313D01*
X83568888Y-29934838D01*
X83544530Y-29937522D01*
X83491089Y-29944610D01*
X83491089Y-30219703D01*
X83280471Y-30220032D01*
X83069852Y-30220361D01*
X82610891Y-30672086D01*
X82151931Y-31123811D01*
X82064848Y-31124430D01*
X81977767Y-31125049D01*
X82526952Y-30583231D01*
X82579998Y-30530863D01*
X82689772Y-30422197D01*
X82783114Y-30329291D01*
X82861173Y-30250945D01*
X82925097Y-30185957D01*
X82976035Y-30133128D01*
X82989126Y-30119109D01*
X83171172Y-30119109D01*
X83390495Y-30119109D01*
X83390495Y-30037376D01*
X83390489Y-30030105D01*
X83389613Y-29989050D01*
X83385867Y-29966723D01*
X83377270Y-29957471D01*
X83361840Y-29955643D01*
X83339159Y-29963694D01*
X83301428Y-29991270D01*
X83252179Y-30037376D01*
X83171172Y-30119109D01*
X82989126Y-30119109D01*
X83015135Y-30091257D01*
X83043548Y-30059145D01*
X83062420Y-30035590D01*
X83072901Y-30019392D01*
X83076139Y-30009351D01*
X83075158Y-29992421D01*
X83067996Y-29982916D01*
X83048401Y-29981277D01*
X83010124Y-29985218D01*
X82986025Y-29987935D01*
X82945744Y-29991716D01*
X82918961Y-29993240D01*
X82909728Y-29993985D01*
X82899839Y-30001254D01*
X82896562Y-30021332D01*
X82897992Y-30060311D01*
X82898553Y-30070263D01*
X82897921Y-30110102D01*
X82889167Y-30138440D01*
X82869289Y-30166370D01*
X82865104Y-30171180D01*
X82814427Y-30210518D01*
X82755934Y-30227828D01*
X82694575Y-30222526D01*
X82635297Y-30194025D01*
X82631606Y-30191267D01*
X82599851Y-30153178D01*
X82581067Y-30103524D01*
X82576071Y-30049998D01*
X82585678Y-30000293D01*
X82610704Y-29962100D01*
X82623480Y-29949169D01*
X82626576Y-29936572D01*
X82616998Y-29918533D01*
X82593082Y-29888072D01*
X82585731Y-29878726D01*
X82539339Y-29806570D01*
X82498084Y-29721085D01*
X82464936Y-29630233D01*
X82442868Y-29541973D01*
X82434852Y-29464264D01*
X82434788Y-29456009D01*
X82430321Y-29410121D01*
X82417795Y-29384921D01*
X82395784Y-29377227D01*
X82388849Y-29376324D01*
X82382885Y-29371385D01*
X82378519Y-29359389D01*
X82375503Y-29337320D01*
X82373590Y-29302164D01*
X82373062Y-29276633D01*
X82472575Y-29276633D01*
X82535446Y-29276633D01*
X82535446Y-28899406D01*
X82472575Y-28899406D01*
X82472575Y-29276633D01*
X82373062Y-29276633D01*
X82372530Y-29250906D01*
X82372077Y-29180529D01*
X82371980Y-29088020D01*
X82372150Y-29001340D01*
X82372834Y-28927668D01*
X82374215Y-28873735D01*
X82376470Y-28836712D01*
X82379778Y-28813770D01*
X82384320Y-28802080D01*
X82390272Y-28798812D01*
X82532893Y-28798812D01*
X82636040Y-28798812D01*
X82636040Y-29377227D01*
X82545122Y-29377227D01*
X82553753Y-29449529D01*
X82572249Y-29560002D01*
X82605691Y-29671184D01*
X82652324Y-29763150D01*
X82712786Y-29837458D01*
X82761782Y-29885302D01*
X82761782Y-29875148D01*
X82874951Y-29875148D01*
X82922104Y-29870987D01*
X82943498Y-29869065D01*
X83001909Y-29863076D01*
X83040381Y-29857174D01*
X83062912Y-29850273D01*
X83073498Y-29841288D01*
X83076139Y-29829130D01*
X83077937Y-29818199D01*
X83083438Y-29813558D01*
X83495703Y-29813558D01*
X83503732Y-29813747D01*
X83534653Y-29812092D01*
X83586653Y-29808451D01*
X83657487Y-29803005D01*
X83744911Y-29795937D01*
X83846681Y-29787430D01*
X83960552Y-29777665D01*
X84084279Y-29766826D01*
X84215618Y-29755093D01*
X84316908Y-29745921D01*
X84442526Y-29734434D01*
X84558762Y-29723678D01*
X84663380Y-29713869D01*
X84754140Y-29705219D01*
X84828804Y-29697943D01*
X84885134Y-29692254D01*
X84920891Y-29688366D01*
X84933837Y-29686494D01*
X84929826Y-29680812D01*
X84910138Y-29659980D01*
X84876322Y-29626128D01*
X84830837Y-29581588D01*
X84776146Y-29528690D01*
X84714710Y-29469764D01*
X84648990Y-29407142D01*
X84581449Y-29343152D01*
X84514547Y-29280126D01*
X84450746Y-29220394D01*
X84392507Y-29166287D01*
X84342292Y-29120135D01*
X84302563Y-29084267D01*
X84275780Y-29061016D01*
X84264406Y-29052710D01*
X84253383Y-29060852D01*
X84226999Y-29084522D01*
X84187527Y-29121522D01*
X84137191Y-29169650D01*
X84078217Y-29226704D01*
X84012830Y-29290480D01*
X83943255Y-29358778D01*
X83871716Y-29429395D01*
X83800438Y-29500129D01*
X83731647Y-29568778D01*
X83667566Y-29633139D01*
X83610422Y-29691011D01*
X83562439Y-29740190D01*
X83525841Y-29778476D01*
X83502854Y-29803666D01*
X83495703Y-29813558D01*
X83083438Y-29813558D01*
X83086530Y-29810950D01*
X83106505Y-29806900D01*
X83142450Y-29805137D01*
X83198952Y-29804752D01*
X83321766Y-29804752D01*
X83361840Y-29764553D01*
X83459654Y-29666435D01*
X83597542Y-29528119D01*
X83491089Y-29528119D01*
X83491089Y-28773663D01*
X83730000Y-28773663D01*
X83730000Y-29392169D01*
X83946906Y-29182408D01*
X83988334Y-29142230D01*
X84045200Y-29086672D01*
X84094082Y-29038430D01*
X84132441Y-29000029D01*
X84157741Y-28973997D01*
X84167442Y-28962860D01*
X84164767Y-28958627D01*
X84162222Y-28955818D01*
X84363046Y-28955818D01*
X84367405Y-28963556D01*
X84387241Y-28986605D01*
X84420375Y-29021291D01*
X84463820Y-29064513D01*
X84514587Y-29113168D01*
X84528051Y-29125860D01*
X84588275Y-29182771D01*
X84659864Y-29250586D01*
X84737437Y-29324200D01*
X84815611Y-29398507D01*
X84889005Y-29468401D01*
X84893409Y-29472599D01*
X84961785Y-29537580D01*
X85014732Y-29587164D01*
X85054767Y-29623312D01*
X85084411Y-29647984D01*
X85106181Y-29663142D01*
X85122595Y-29670744D01*
X85136174Y-29672753D01*
X85149434Y-29671128D01*
X85150819Y-29670844D01*
X85182228Y-29657302D01*
X85196863Y-29630252D01*
X85228063Y-29546871D01*
X85280038Y-29472582D01*
X85348791Y-29414154D01*
X85431315Y-29374110D01*
X85524606Y-29354974D01*
X85603565Y-29348636D01*
X85603565Y-28399162D01*
X85575273Y-28392542D01*
X85568329Y-28391371D01*
X85537281Y-28387732D01*
X85487081Y-28382766D01*
X85421727Y-28376843D01*
X85345219Y-28370331D01*
X85261555Y-28363599D01*
X84976129Y-28341276D01*
X84670565Y-28642174D01*
X84614704Y-28697364D01*
X84546888Y-28764891D01*
X84486643Y-28825471D01*
X84436052Y-28876979D01*
X84397200Y-28917290D01*
X84372170Y-28944278D01*
X84363046Y-28955818D01*
X84162222Y-28955818D01*
X84146782Y-28938776D01*
X84113481Y-28904549D01*
X84066712Y-28857773D01*
X84008325Y-28800276D01*
X83940169Y-28733888D01*
X83864094Y-28660436D01*
X83781950Y-28581749D01*
X83698943Y-28502659D01*
X83617136Y-28425129D01*
X83550083Y-28362254D01*
X83496007Y-28312498D01*
X83453129Y-28274322D01*
X83419673Y-28246189D01*
X83393861Y-28226560D01*
X83390135Y-28224195D01*
X83584674Y-28224195D01*
X83584908Y-28224616D01*
X83596350Y-28236491D01*
X83623198Y-28262870D01*
X83663018Y-28301430D01*
X83713372Y-28349847D01*
X83771828Y-28405797D01*
X83835948Y-28466958D01*
X83903298Y-28531005D01*
X83971443Y-28595615D01*
X84037948Y-28658465D01*
X84100377Y-28717232D01*
X84156295Y-28769591D01*
X84264406Y-28870467D01*
X84266477Y-28872399D01*
X84541968Y-28596695D01*
X84609224Y-28529274D01*
X84672162Y-28465733D01*
X84720100Y-28416510D01*
X84754594Y-28379804D01*
X84777199Y-28353810D01*
X84789471Y-28336724D01*
X84792966Y-28326744D01*
X84789238Y-28322065D01*
X84779844Y-28320884D01*
X84764749Y-28320127D01*
X84725883Y-28317399D01*
X84666895Y-28312892D01*
X84590473Y-28306821D01*
X84499305Y-28299404D01*
X84396080Y-28290858D01*
X84283483Y-28281398D01*
X84164205Y-28271242D01*
X84059077Y-28262277D01*
X83948351Y-28252934D01*
X83847814Y-28244557D01*
X83759943Y-28237347D01*
X83687215Y-28231504D01*
X83632110Y-28227231D01*
X83597104Y-28224727D01*
X83584674Y-28224195D01*
X83390135Y-28224195D01*
X83373914Y-28213899D01*
X83358056Y-28206666D01*
X83344509Y-28203325D01*
X83337910Y-28202439D01*
X83301548Y-28198512D01*
X83248018Y-28193541D01*
X83183421Y-28188073D01*
X83113862Y-28182656D01*
X83089635Y-28180819D01*
X83024178Y-28175512D01*
X82967717Y-28170452D01*
X82925618Y-28166137D01*
X82903243Y-28163066D01*
X82874951Y-28157045D01*
X82874951Y-29875148D01*
X82761782Y-29875148D01*
X82761782Y-28470779D01*
X82671095Y-28474474D01*
X82580407Y-28478168D01*
X82565252Y-28553614D01*
X82558379Y-28591449D01*
X82548756Y-28654632D01*
X82541496Y-28713935D01*
X82532893Y-28798812D01*
X82390272Y-28798812D01*
X82404888Y-28788063D01*
X82414215Y-28757945D01*
X82415847Y-28746418D01*
X82421591Y-28707114D01*
X82429378Y-28654812D01*
X82438003Y-28597624D01*
X82442393Y-28566084D01*
X82447148Y-28519926D01*
X82448295Y-28487359D01*
X82445495Y-28473977D01*
X82443671Y-28471692D01*
X82439165Y-28450595D01*
X82436029Y-28412645D01*
X82434852Y-28363952D01*
X82434852Y-28258119D01*
X82472575Y-28258106D01*
X82475718Y-28258106D01*
X82488668Y-28257612D01*
X82510411Y-28251181D01*
X82510967Y-28250629D01*
X82661188Y-28250629D01*
X82662463Y-28252303D01*
X82679976Y-28256456D01*
X82711485Y-28258119D01*
X82761782Y-28258119D01*
X82761782Y-28201092D01*
X82761662Y-28184007D01*
X82759462Y-28158692D01*
X82752334Y-28151384D01*
X82737508Y-28157057D01*
X82734682Y-28158733D01*
X82712944Y-28177552D01*
X82688820Y-28204817D01*
X82669254Y-28232013D01*
X82661188Y-28250629D01*
X82510967Y-28250629D01*
X82528851Y-28232877D01*
X82550801Y-28197170D01*
X82570854Y-28165826D01*
X82609356Y-28118107D01*
X82652579Y-28074862D01*
X82694627Y-28041781D01*
X82729604Y-28024558D01*
X82743081Y-28020338D01*
X82752334Y-28012520D01*
X82755454Y-28009884D01*
X82760696Y-27988338D01*
X82761782Y-27948686D01*
X82761782Y-27880891D01*
X82874951Y-27880891D01*
X82874951Y-28040423D01*
X83052732Y-28055318D01*
G37*
X83052732Y-28055318D02*
X83077037Y-28057318D01*
X83137880Y-28061977D01*
X83187389Y-28065269D01*
X83220992Y-28066908D01*
X83234116Y-28066610D01*
X83230343Y-28062276D01*
X83210676Y-28042504D01*
X83175818Y-28008321D01*
X83127576Y-27961459D01*
X83067757Y-27903646D01*
X82998167Y-27836613D01*
X82920615Y-27762088D01*
X82836907Y-27681803D01*
X82748849Y-27597487D01*
X82658250Y-27510870D01*
X82566915Y-27423681D01*
X82476653Y-27337651D01*
X82389269Y-27254508D01*
X82306572Y-27175984D01*
X82230368Y-27103808D01*
X82162463Y-27039709D01*
X82104666Y-26985417D01*
X82001040Y-26888408D01*
X82089315Y-26887966D01*
X82177589Y-26887525D01*
X82809158Y-27488062D01*
X83440726Y-28088599D01*
X83584674Y-28100604D01*
X84160635Y-28148635D01*
X84262791Y-28157124D01*
X84390612Y-28167657D01*
X84509767Y-28177379D01*
X84617914Y-28186102D01*
X84712713Y-28193642D01*
X84791819Y-28199813D01*
X84852892Y-28204427D01*
X84893590Y-28207300D01*
X84911570Y-28208246D01*
X84919808Y-28205749D01*
X84937599Y-28194529D01*
X84964411Y-28173249D01*
X84976129Y-28162979D01*
X85001466Y-28140775D01*
X85049986Y-28095977D01*
X85111192Y-28037719D01*
X85186307Y-27964871D01*
X85276550Y-27876297D01*
X85383145Y-27770866D01*
X85453093Y-27701508D01*
X85550658Y-27604821D01*
X85647941Y-27508474D01*
X85742014Y-27415362D01*
X85829950Y-27328382D01*
X85908820Y-27250431D01*
X85975699Y-27184404D01*
X86027658Y-27133198D01*
X86231620Y-26932486D01*
X86269671Y-26968942D01*
X86278245Y-26977540D01*
X86299297Y-27002905D01*
X86307723Y-27020305D01*
X86300530Y-27033929D01*
X86278944Y-27059257D01*
X86247995Y-27089621D01*
X86228448Y-27108104D01*
X86192752Y-27142573D01*
X86142684Y-27191288D01*
X86080001Y-27252531D01*
X86006457Y-27324580D01*
X85923810Y-27405715D01*
X85833815Y-27494216D01*
X85738228Y-27588363D01*
X85638805Y-27686435D01*
X85089343Y-28228839D01*
X85374746Y-28250934D01*
X85435662Y-28255750D01*
X85517548Y-28262784D01*
X85579569Y-28269128D01*
X85624987Y-28275252D01*
X85657062Y-28281627D01*
X85679052Y-28288723D01*
X85694219Y-28297009D01*
X85715416Y-28308607D01*
X85754386Y-28318150D01*
X85810531Y-28320990D01*
X85892773Y-28320990D01*
X85892773Y-28547326D01*
X85716733Y-28547326D01*
X85716733Y-29392918D01*
X85772262Y-29441797D01*
X85786722Y-29455164D01*
X85844813Y-29527612D01*
X85880576Y-29609468D01*
X85892773Y-29698100D01*
X85886306Y-29776308D01*
X85859047Y-29864767D01*
X85810328Y-29940493D01*
X85796403Y-29955252D01*
X85751328Y-29992136D01*
X85698819Y-30024497D01*
X85647061Y-30047703D01*
X85604239Y-30057121D01*
X85598023Y-30057303D01*
X85575246Y-30058658D01*
X85559513Y-30062200D01*
X85552068Y-30069610D01*
X85554156Y-30082569D01*
X85567020Y-30102757D01*
X85591905Y-30131855D01*
X85630053Y-30171544D01*
X85682710Y-30223504D01*
X85751119Y-30289416D01*
X85836524Y-30370960D01*
X85882112Y-30414396D01*
X85958441Y-30487000D01*
X86030808Y-30555691D01*
X86096366Y-30617777D01*
X86152274Y-30670566D01*
X86195686Y-30711366D01*
X86223758Y-30737485D01*
X86301436Y-30808881D01*
X86213416Y-30897137D01*
X85641287Y-30351310D01*
X85605188Y-30316895D01*
X85476272Y-30194454D01*
X85364754Y-30089349D01*
X85270288Y-30001264D01*
X85192529Y-29929884D01*
X85131131Y-29874895D01*
X85085748Y-29835981D01*
X85056035Y-29812827D01*
X85041644Y-29805118D01*
X85041559Y-29805117D01*
X85023624Y-29806175D01*
X84983421Y-29809263D01*
X84923687Y-29814142D01*
X84847158Y-29820568D01*
X84756569Y-29828300D01*
X84654657Y-29837095D01*
X84544159Y-29846713D01*
X84427811Y-29856909D01*
X84308348Y-29867444D01*
X84188507Y-29878074D01*
X84071025Y-29888558D01*
X83958637Y-29898654D01*
X83854081Y-29908119D01*
X83760091Y-29916712D01*
X83679405Y-29924191D01*
X83614759Y-29930313D01*
X83568888Y-29934838D01*
X83544530Y-29937522D01*
X83491089Y-29944610D01*
X83491089Y-30219703D01*
X83280471Y-30220032D01*
X83069852Y-30220361D01*
X82610891Y-30672086D01*
X82151931Y-31123811D01*
X82064848Y-31124430D01*
X81977767Y-31125049D01*
X82526952Y-30583231D01*
X82579998Y-30530863D01*
X82689772Y-30422197D01*
X82783114Y-30329291D01*
X82861173Y-30250945D01*
X82925097Y-30185957D01*
X82976035Y-30133128D01*
X82989126Y-30119109D01*
X83171172Y-30119109D01*
X83390495Y-30119109D01*
X83390495Y-30037376D01*
X83390489Y-30030105D01*
X83389613Y-29989050D01*
X83385867Y-29966723D01*
X83377270Y-29957471D01*
X83361840Y-29955643D01*
X83339159Y-29963694D01*
X83301428Y-29991270D01*
X83252179Y-30037376D01*
X83171172Y-30119109D01*
X82989126Y-30119109D01*
X83015135Y-30091257D01*
X83043548Y-30059145D01*
X83062420Y-30035590D01*
X83072901Y-30019392D01*
X83076139Y-30009351D01*
X83075158Y-29992421D01*
X83067996Y-29982916D01*
X83048401Y-29981277D01*
X83010124Y-29985218D01*
X82986025Y-29987935D01*
X82945744Y-29991716D01*
X82918961Y-29993240D01*
X82909728Y-29993985D01*
X82899839Y-30001254D01*
X82896562Y-30021332D01*
X82897992Y-30060311D01*
X82898553Y-30070263D01*
X82897921Y-30110102D01*
X82889167Y-30138440D01*
X82869289Y-30166370D01*
X82865104Y-30171180D01*
X82814427Y-30210518D01*
X82755934Y-30227828D01*
X82694575Y-30222526D01*
X82635297Y-30194025D01*
X82631606Y-30191267D01*
X82599851Y-30153178D01*
X82581067Y-30103524D01*
X82576071Y-30049998D01*
X82585678Y-30000293D01*
X82610704Y-29962100D01*
X82623480Y-29949169D01*
X82626576Y-29936572D01*
X82616998Y-29918533D01*
X82593082Y-29888072D01*
X82585731Y-29878726D01*
X82539339Y-29806570D01*
X82498084Y-29721085D01*
X82464936Y-29630233D01*
X82442868Y-29541973D01*
X82434852Y-29464264D01*
X82434788Y-29456009D01*
X82430321Y-29410121D01*
X82417795Y-29384921D01*
X82395784Y-29377227D01*
X82388849Y-29376324D01*
X82382885Y-29371385D01*
X82378519Y-29359389D01*
X82375503Y-29337320D01*
X82373590Y-29302164D01*
X82373062Y-29276633D01*
X82472575Y-29276633D01*
X82535446Y-29276633D01*
X82535446Y-28899406D01*
X82472575Y-28899406D01*
X82472575Y-29276633D01*
X82373062Y-29276633D01*
X82372530Y-29250906D01*
X82372077Y-29180529D01*
X82371980Y-29088020D01*
X82372150Y-29001340D01*
X82372834Y-28927668D01*
X82374215Y-28873735D01*
X82376470Y-28836712D01*
X82379778Y-28813770D01*
X82384320Y-28802080D01*
X82390272Y-28798812D01*
X82532893Y-28798812D01*
X82636040Y-28798812D01*
X82636040Y-29377227D01*
X82545122Y-29377227D01*
X82553753Y-29449529D01*
X82572249Y-29560002D01*
X82605691Y-29671184D01*
X82652324Y-29763150D01*
X82712786Y-29837458D01*
X82761782Y-29885302D01*
X82761782Y-29875148D01*
X82874951Y-29875148D01*
X82922104Y-29870987D01*
X82943498Y-29869065D01*
X83001909Y-29863076D01*
X83040381Y-29857174D01*
X83062912Y-29850273D01*
X83073498Y-29841288D01*
X83076139Y-29829130D01*
X83077937Y-29818199D01*
X83083438Y-29813558D01*
X83495703Y-29813558D01*
X83503732Y-29813747D01*
X83534653Y-29812092D01*
X83586653Y-29808451D01*
X83657487Y-29803005D01*
X83744911Y-29795937D01*
X83846681Y-29787430D01*
X83960552Y-29777665D01*
X84084279Y-29766826D01*
X84215618Y-29755093D01*
X84316908Y-29745921D01*
X84442526Y-29734434D01*
X84558762Y-29723678D01*
X84663380Y-29713869D01*
X84754140Y-29705219D01*
X84828804Y-29697943D01*
X84885134Y-29692254D01*
X84920891Y-29688366D01*
X84933837Y-29686494D01*
X84929826Y-29680812D01*
X84910138Y-29659980D01*
X84876322Y-29626128D01*
X84830837Y-29581588D01*
X84776146Y-29528690D01*
X84714710Y-29469764D01*
X84648990Y-29407142D01*
X84581449Y-29343152D01*
X84514547Y-29280126D01*
X84450746Y-29220394D01*
X84392507Y-29166287D01*
X84342292Y-29120135D01*
X84302563Y-29084267D01*
X84275780Y-29061016D01*
X84264406Y-29052710D01*
X84253383Y-29060852D01*
X84226999Y-29084522D01*
X84187527Y-29121522D01*
X84137191Y-29169650D01*
X84078217Y-29226704D01*
X84012830Y-29290480D01*
X83943255Y-29358778D01*
X83871716Y-29429395D01*
X83800438Y-29500129D01*
X83731647Y-29568778D01*
X83667566Y-29633139D01*
X83610422Y-29691011D01*
X83562439Y-29740190D01*
X83525841Y-29778476D01*
X83502854Y-29803666D01*
X83495703Y-29813558D01*
X83083438Y-29813558D01*
X83086530Y-29810950D01*
X83106505Y-29806900D01*
X83142450Y-29805137D01*
X83198952Y-29804752D01*
X83321766Y-29804752D01*
X83361840Y-29764553D01*
X83459654Y-29666435D01*
X83597542Y-29528119D01*
X83491089Y-29528119D01*
X83491089Y-28773663D01*
X83730000Y-28773663D01*
X83730000Y-29392169D01*
X83946906Y-29182408D01*
X83988334Y-29142230D01*
X84045200Y-29086672D01*
X84094082Y-29038430D01*
X84132441Y-29000029D01*
X84157741Y-28973997D01*
X84167442Y-28962860D01*
X84164767Y-28958627D01*
X84162222Y-28955818D01*
X84363046Y-28955818D01*
X84367405Y-28963556D01*
X84387241Y-28986605D01*
X84420375Y-29021291D01*
X84463820Y-29064513D01*
X84514587Y-29113168D01*
X84528051Y-29125860D01*
X84588275Y-29182771D01*
X84659864Y-29250586D01*
X84737437Y-29324200D01*
X84815611Y-29398507D01*
X84889005Y-29468401D01*
X84893409Y-29472599D01*
X84961785Y-29537580D01*
X85014732Y-29587164D01*
X85054767Y-29623312D01*
X85084411Y-29647984D01*
X85106181Y-29663142D01*
X85122595Y-29670744D01*
X85136174Y-29672753D01*
X85149434Y-29671128D01*
X85150819Y-29670844D01*
X85182228Y-29657302D01*
X85196863Y-29630252D01*
X85228063Y-29546871D01*
X85280038Y-29472582D01*
X85348791Y-29414154D01*
X85431315Y-29374110D01*
X85524606Y-29354974D01*
X85603565Y-29348636D01*
X85603565Y-28399162D01*
X85575273Y-28392542D01*
X85568329Y-28391371D01*
X85537281Y-28387732D01*
X85487081Y-28382766D01*
X85421727Y-28376843D01*
X85345219Y-28370331D01*
X85261555Y-28363599D01*
X84976129Y-28341276D01*
X84670565Y-28642174D01*
X84614704Y-28697364D01*
X84546888Y-28764891D01*
X84486643Y-28825471D01*
X84436052Y-28876979D01*
X84397200Y-28917290D01*
X84372170Y-28944278D01*
X84363046Y-28955818D01*
X84162222Y-28955818D01*
X84146782Y-28938776D01*
X84113481Y-28904549D01*
X84066712Y-28857773D01*
X84008325Y-28800276D01*
X83940169Y-28733888D01*
X83864094Y-28660436D01*
X83781950Y-28581749D01*
X83698943Y-28502659D01*
X83617136Y-28425129D01*
X83550083Y-28362254D01*
X83496007Y-28312498D01*
X83453129Y-28274322D01*
X83419673Y-28246189D01*
X83393861Y-28226560D01*
X83390135Y-28224195D01*
X83584674Y-28224195D01*
X83584908Y-28224616D01*
X83596350Y-28236491D01*
X83623198Y-28262870D01*
X83663018Y-28301430D01*
X83713372Y-28349847D01*
X83771828Y-28405797D01*
X83835948Y-28466958D01*
X83903298Y-28531005D01*
X83971443Y-28595615D01*
X84037948Y-28658465D01*
X84100377Y-28717232D01*
X84156295Y-28769591D01*
X84264406Y-28870467D01*
X84266477Y-28872399D01*
X84541968Y-28596695D01*
X84609224Y-28529274D01*
X84672162Y-28465733D01*
X84720100Y-28416510D01*
X84754594Y-28379804D01*
X84777199Y-28353810D01*
X84789471Y-28336724D01*
X84792966Y-28326744D01*
X84789238Y-28322065D01*
X84779844Y-28320884D01*
X84764749Y-28320127D01*
X84725883Y-28317399D01*
X84666895Y-28312892D01*
X84590473Y-28306821D01*
X84499305Y-28299404D01*
X84396080Y-28290858D01*
X84283483Y-28281398D01*
X84164205Y-28271242D01*
X84059077Y-28262277D01*
X83948351Y-28252934D01*
X83847814Y-28244557D01*
X83759943Y-28237347D01*
X83687215Y-28231504D01*
X83632110Y-28227231D01*
X83597104Y-28224727D01*
X83584674Y-28224195D01*
X83390135Y-28224195D01*
X83373914Y-28213899D01*
X83358056Y-28206666D01*
X83344509Y-28203325D01*
X83337910Y-28202439D01*
X83301548Y-28198512D01*
X83248018Y-28193541D01*
X83183421Y-28188073D01*
X83113862Y-28182656D01*
X83089635Y-28180819D01*
X83024178Y-28175512D01*
X82967717Y-28170452D01*
X82925618Y-28166137D01*
X82903243Y-28163066D01*
X82874951Y-28157045D01*
X82874951Y-29875148D01*
X82761782Y-29875148D01*
X82761782Y-28470779D01*
X82671095Y-28474474D01*
X82580407Y-28478168D01*
X82565252Y-28553614D01*
X82558379Y-28591449D01*
X82548756Y-28654632D01*
X82541496Y-28713935D01*
X82532893Y-28798812D01*
X82390272Y-28798812D01*
X82404888Y-28788063D01*
X82414215Y-28757945D01*
X82415847Y-28746418D01*
X82421591Y-28707114D01*
X82429378Y-28654812D01*
X82438003Y-28597624D01*
X82442393Y-28566084D01*
X82447148Y-28519926D01*
X82448295Y-28487359D01*
X82445495Y-28473977D01*
X82443671Y-28471692D01*
X82439165Y-28450595D01*
X82436029Y-28412645D01*
X82434852Y-28363952D01*
X82434852Y-28258119D01*
X82472575Y-28258106D01*
X82475718Y-28258106D01*
X82488668Y-28257612D01*
X82510411Y-28251181D01*
X82510967Y-28250629D01*
X82661188Y-28250629D01*
X82662463Y-28252303D01*
X82679976Y-28256456D01*
X82711485Y-28258119D01*
X82761782Y-28258119D01*
X82761782Y-28201092D01*
X82761662Y-28184007D01*
X82759462Y-28158692D01*
X82752334Y-28151384D01*
X82737508Y-28157057D01*
X82734682Y-28158733D01*
X82712944Y-28177552D01*
X82688820Y-28204817D01*
X82669254Y-28232013D01*
X82661188Y-28250629D01*
X82510967Y-28250629D01*
X82528851Y-28232877D01*
X82550801Y-28197170D01*
X82570854Y-28165826D01*
X82609356Y-28118107D01*
X82652579Y-28074862D01*
X82694627Y-28041781D01*
X82729604Y-28024558D01*
X82743081Y-28020338D01*
X82752334Y-28012520D01*
X82755454Y-28009884D01*
X82760696Y-27988338D01*
X82761782Y-27948686D01*
X82761782Y-27880891D01*
X82874951Y-27880891D01*
X82874951Y-28040423D01*
X83052732Y-28055318D01*
G36*
X88017822Y-30747822D02*
G01*
X87150198Y-30747822D01*
X87150198Y-27227029D01*
X88017822Y-27227029D01*
X88017822Y-30747822D01*
G37*
X88017822Y-30747822D02*
X87150198Y-30747822D01*
X87150198Y-27227029D01*
X88017822Y-27227029D01*
X88017822Y-30747822D01*
D10*
G04 #@! TO.C,JP1*
X80300000Y-47350000D02*
X79700000Y-47350000D01*
X81000000Y-49450000D02*
X81000000Y-48050000D01*
X79700000Y-50150000D02*
X80300000Y-50150000D01*
X79000000Y-48050000D02*
X79000000Y-49450000D01*
X79000000Y-49450000D02*
G75*
G03*
X79700000Y-50150000I700000J0D01*
G01*
X79700000Y-47350000D02*
G75*
G03*
X79000000Y-48050000I-1J-699999D01*
G01*
X80300000Y-50150000D02*
G75*
G03*
X81000000Y-49450000I0J700000D01*
G01*
X81000000Y-48050000D02*
G75*
G03*
X80300000Y-47350000I-699999J1D01*
G01*
G04 #@! TO.C,kibuzzard-620CD483*
G36*
X79166017Y-48750000D02*
G01*
X78426330Y-49859530D01*
X73333983Y-49859530D01*
X74073670Y-48750000D01*
X73759345Y-48278512D01*
X74586300Y-48278512D01*
X74594237Y-48344394D01*
X74621225Y-48378525D01*
X74702187Y-48392812D01*
X75005400Y-48392812D01*
X75005400Y-49191325D01*
X75007781Y-49245300D01*
X75022069Y-49285781D01*
X75064137Y-49318325D01*
X75143512Y-49327850D01*
X75222094Y-49318325D01*
X75263369Y-49285781D01*
X75277656Y-49244506D01*
X75280037Y-49189738D01*
X75280037Y-48784925D01*
X75786450Y-48784925D01*
X75794586Y-48887319D01*
X75818994Y-48984950D01*
X75859673Y-49077819D01*
X75916625Y-49165925D01*
X75989253Y-49239148D01*
X76080137Y-49296894D01*
X76185508Y-49334398D01*
X76301594Y-49346900D01*
X76417481Y-49334200D01*
X76522256Y-49296100D01*
X76612148Y-49237363D01*
X76683388Y-49162750D01*
X76739645Y-49075834D01*
X76779828Y-48983363D01*
X76803938Y-48885334D01*
X76811975Y-48781750D01*
X76811975Y-48349156D01*
X76915163Y-48349156D01*
X76948500Y-48437262D01*
X77007238Y-48501556D01*
X77059625Y-48522987D01*
X77140588Y-48488062D01*
X77218375Y-48447581D01*
X77318388Y-48434087D01*
X77420781Y-48451947D01*
X77521588Y-48505525D01*
X77600963Y-48603950D01*
X77624775Y-48671617D01*
X77632713Y-48747619D01*
X77624775Y-48823620D01*
X77600963Y-48891288D01*
X77520000Y-48991300D01*
X77421178Y-49043688D01*
X77318388Y-49061150D01*
X77225519Y-49048450D01*
X77162813Y-49023050D01*
X77134238Y-49002412D01*
X77058038Y-48970663D01*
X77006841Y-48992888D01*
X76951675Y-49059563D01*
X76916750Y-49148463D01*
X76938181Y-49204025D01*
X76988188Y-49243713D01*
X77042956Y-49277050D01*
X77150113Y-49318325D01*
X77229686Y-49337375D01*
X77306481Y-49343725D01*
X77382284Y-49338764D01*
X77458881Y-49323881D01*
X77537066Y-49297291D01*
X77617631Y-49257206D01*
X77695220Y-49205216D01*
X77764475Y-49142906D01*
X77823808Y-49065913D01*
X77871631Y-48969869D01*
X77903183Y-48859736D01*
X77913700Y-48740475D01*
X77903381Y-48622405D01*
X77872425Y-48515844D01*
X77825395Y-48423769D01*
X77766856Y-48349156D01*
X77697998Y-48288633D01*
X77620013Y-48238825D01*
X77516119Y-48191200D01*
X77411874Y-48162625D01*
X77307275Y-48153100D01*
X77232067Y-48158855D01*
X77155669Y-48176119D01*
X77038988Y-48222950D01*
X77000888Y-48245175D01*
X76956438Y-48273750D01*
X76915163Y-48349156D01*
X76811975Y-48349156D01*
X76811975Y-48303912D01*
X76809594Y-48247556D01*
X76794513Y-48205487D01*
X76751650Y-48172150D01*
X76670688Y-48162625D01*
X76589725Y-48172150D01*
X76548450Y-48205487D01*
X76529400Y-48305500D01*
X76529400Y-48781750D01*
X76517494Y-48876206D01*
X76481775Y-48965900D01*
X76410338Y-49037338D01*
X76297625Y-49064325D01*
X76196422Y-49042894D01*
X76124587Y-48978600D01*
X76081725Y-48886128D01*
X76067437Y-48780163D01*
X76067437Y-48294387D01*
X76051562Y-48207075D01*
X76005525Y-48172150D01*
X75930119Y-48162625D01*
X75857887Y-48170562D01*
X75816612Y-48189612D01*
X75795975Y-48222950D01*
X75786450Y-48305500D01*
X75786450Y-48784925D01*
X75280037Y-48784925D01*
X75280037Y-48392812D01*
X75584837Y-48392812D01*
X75659450Y-48380906D01*
X75691200Y-48343600D01*
X75699137Y-48276925D01*
X75691200Y-48211044D01*
X75664212Y-48176912D01*
X75583250Y-48162625D01*
X74700600Y-48162625D01*
X74625987Y-48174531D01*
X74594237Y-48211837D01*
X74586300Y-48278512D01*
X73759345Y-48278512D01*
X73333983Y-47640470D01*
X78426330Y-47640470D01*
X79166017Y-48750000D01*
G37*
G04 #@! TD*
M02*
