G04 #@! TF.GenerationSoftware,KiCad,Pcbnew,6.0.9-8da3e8f707~116~ubuntu20.04.1*
G04 #@! TF.CreationDate,2023-05-05T17:23:47+00:00*
G04 #@! TF.ProjectId,LEC009212,4c454330-3039-4323-9132-2e6b69636164,rev?*
G04 #@! TF.SameCoordinates,Original*
G04 #@! TF.FileFunction,Copper,L2,Bot*
G04 #@! TF.FilePolarity,Positive*
%FSLAX46Y46*%
G04 Gerber Fmt 4.6, Leading zero omitted, Abs format (unit mm)*
G04 Created by KiCad (PCBNEW 6.0.9-8da3e8f707~116~ubuntu20.04.1) date 2023-05-05 17:23:47*
%MOMM*%
%LPD*%
G01*
G04 APERTURE LIST*
G04 Aperture macros list*
%AMFreePoly0*
4,1,22,0.500000,-0.750000,0.000000,-0.750000,0.000000,-0.745033,-0.079941,-0.743568,-0.215256,-0.701293,-0.333266,-0.622738,-0.424486,-0.514219,-0.481581,-0.384460,-0.499164,-0.250000,-0.500000,-0.250000,-0.500000,0.250000,-0.499164,0.250000,-0.499963,0.256109,-0.478152,0.396186,-0.417904,0.524511,-0.324060,0.630769,-0.204165,0.706417,-0.067858,0.745374,0.000000,0.744959,0.000000,0.750000,
0.500000,0.750000,0.500000,-0.750000,0.500000,-0.750000,$1*%
%AMFreePoly1*
4,1,20,0.000000,0.744959,0.073905,0.744508,0.209726,0.703889,0.328688,0.626782,0.421226,0.519385,0.479903,0.390333,0.500000,0.250000,0.500000,-0.250000,0.499851,-0.262216,0.476331,-0.402017,0.414519,-0.529596,0.319384,-0.634700,0.198574,-0.708877,0.061801,-0.746166,0.000000,-0.745033,0.000000,-0.750000,-0.500000,-0.750000,-0.500000,0.750000,0.000000,0.750000,0.000000,0.744959,
0.000000,0.744959,$1*%
G04 Aperture macros list end*
G04 #@! TA.AperFunction,ComponentPad*
%ADD10R,1.727200X1.727200*%
G04 #@! TD*
G04 #@! TA.AperFunction,ComponentPad*
%ADD11O,1.727200X1.727200*%
G04 #@! TD*
G04 #@! TA.AperFunction,ComponentPad*
%ADD12C,1.524000*%
G04 #@! TD*
G04 #@! TA.AperFunction,SMDPad,CuDef*
%ADD13FreePoly0,270.000000*%
G04 #@! TD*
G04 #@! TA.AperFunction,SMDPad,CuDef*
%ADD14FreePoly1,270.000000*%
G04 #@! TD*
G04 #@! TA.AperFunction,Conductor*
%ADD15C,0.250000*%
G04 #@! TD*
G04 APERTURE END LIST*
G04 #@! TO.C,JP1*
G36*
X80300000Y-49000000D02*
G01*
X79700000Y-49000000D01*
X79700000Y-48500000D01*
X80300000Y-48500000D01*
X80300000Y-49000000D01*
G37*
G04 #@! TD*
D10*
G04 #@! TO.P,J1,1,Pin_1*
G04 #@! TO.N,Net-(J1-Pad1)*
X87500000Y-47500000D03*
D11*
G04 #@! TO.P,J1,2,Pin_2*
G04 #@! TO.N,Net-(J1-Pad2)*
X87500000Y-50040000D03*
G04 #@! TO.P,J1,3,Pin_3*
G04 #@! TO.N,Net-(U1-Pad3)*
X84960000Y-47500000D03*
G04 #@! TO.P,J1,4,Pin_4*
G04 #@! TO.N,Net-(U1-Pad4)*
X84960000Y-50040000D03*
G04 #@! TO.P,J1,5,Pin_5*
G04 #@! TO.N,Net-(J1-Pad5)*
X82420000Y-47500000D03*
G04 #@! TO.P,J1,6,Pin_6*
G04 #@! TO.N,Net-(J1-Pad6)*
X82420000Y-50040000D03*
G04 #@! TD*
D12*
G04 #@! TO.P,U1,1,A*
G04 #@! TO.N,Net-(J1-Pad1)*
X86400000Y-21730000D03*
G04 #@! TO.P,U1,2,K*
G04 #@! TO.N,Net-(J1-Pad2)*
X86400000Y-24270000D03*
G04 #@! TO.P,U1,3*
G04 #@! TO.N,Net-(U1-Pad3)*
X83600000Y-24270000D03*
G04 #@! TO.P,U1,4*
G04 #@! TO.N,Net-(U1-Pad4)*
X83600000Y-21730000D03*
G04 #@! TD*
D13*
G04 #@! TO.P,JP1,1,A*
G04 #@! TO.N,Net-(J1-Pad5)*
X80000000Y-48100000D03*
D14*
G04 #@! TO.P,JP1,2,B*
G04 #@! TO.N,Net-(J1-Pad6)*
X80000000Y-49400000D03*
G04 #@! TD*
D15*
G04 #@! TO.N,Net-(J1-Pad5)*
X80000000Y-47250000D02*
X80000000Y-48100000D01*
X80250000Y-47000000D02*
X80000000Y-47250000D01*
X82420000Y-47500000D02*
X81250000Y-47500000D01*
X81250000Y-47500000D02*
X80750000Y-47000000D01*
X80750000Y-47000000D02*
X80250000Y-47000000D01*
G04 #@! TO.N,Net-(J1-Pad6)*
X82420000Y-50040000D02*
X81210000Y-50040000D01*
X80750000Y-50500000D02*
X80250000Y-50500000D01*
X81210000Y-50040000D02*
X80750000Y-50500000D01*
X80250000Y-50500000D02*
X80000000Y-50250000D01*
X80000000Y-50250000D02*
X80000000Y-49400000D01*
G04 #@! TO.N,Net-(U1-Pad4)*
X83608111Y-48688111D02*
X83608111Y-27858111D01*
X84960000Y-50040000D02*
X83608111Y-48688111D01*
X82250000Y-23080000D02*
X83600000Y-21730000D01*
X83608111Y-27858111D02*
X82250000Y-26500000D01*
X82250000Y-26500000D02*
X82250000Y-23080000D01*
G04 #@! TO.N,Net-(J1-Pad2)*
X86148111Y-48688111D02*
X86148111Y-26898111D01*
X87500000Y-50040000D02*
X86148111Y-48688111D01*
X85000000Y-24750000D02*
X85480000Y-24270000D01*
X86148111Y-26898111D02*
X85000000Y-25750000D01*
X85000000Y-25750000D02*
X85000000Y-24750000D01*
X85480000Y-24270000D02*
X86400000Y-24270000D01*
G04 #@! TO.N,Net-(J1-Pad1)*
X87500000Y-47500000D02*
X87500000Y-22830000D01*
X87500000Y-22830000D02*
X86400000Y-21730000D01*
G04 #@! TO.N,Net-(U1-Pad3)*
X83600000Y-24270000D02*
X83600000Y-26350000D01*
X83600000Y-26350000D02*
X84960000Y-27710000D01*
X84960000Y-27710000D02*
X84960000Y-47500000D01*
G04 #@! TD*
G04 #@! TA.AperFunction,NonConductor*
G36*
X82798648Y-20528002D02*
G01*
X82845141Y-20581658D01*
X82855245Y-20651932D01*
X82825751Y-20716512D01*
X82802798Y-20737213D01*
X82784730Y-20749864D01*
X82784727Y-20749866D01*
X82780219Y-20753023D01*
X82623023Y-20910219D01*
X82495512Y-21092324D01*
X82493189Y-21097306D01*
X82493186Y-21097311D01*
X82403883Y-21288822D01*
X82401560Y-21293804D01*
X82344022Y-21508537D01*
X82324647Y-21730000D01*
X82344022Y-21951463D01*
X82345446Y-21956776D01*
X82345447Y-21956783D01*
X82354485Y-21990514D01*
X82352796Y-22061490D01*
X82321874Y-22112221D01*
X82223095Y-22211000D01*
X82160783Y-22245026D01*
X82089968Y-22239961D01*
X82033132Y-22197414D01*
X82008321Y-22130894D01*
X82008000Y-22121905D01*
X82008000Y-20634000D01*
X82028002Y-20565879D01*
X82081658Y-20519386D01*
X82134000Y-20508000D01*
X82730527Y-20508000D01*
X82798648Y-20528002D01*
G37*
G04 #@! TD.AperFunction*
G04 #@! TA.AperFunction,NonConductor*
G36*
X87934121Y-20528002D02*
G01*
X87980614Y-20581658D01*
X87992000Y-20634000D01*
X87992000Y-22121906D01*
X87971998Y-22190027D01*
X87918342Y-22236520D01*
X87848068Y-22246624D01*
X87783488Y-22217130D01*
X87776905Y-22211001D01*
X87678126Y-22112222D01*
X87644100Y-22049910D01*
X87645514Y-21990516D01*
X87651643Y-21967642D01*
X87655978Y-21951463D01*
X87675353Y-21730000D01*
X87655978Y-21508537D01*
X87598440Y-21293804D01*
X87596117Y-21288822D01*
X87506814Y-21097311D01*
X87506811Y-21097306D01*
X87504488Y-21092324D01*
X87376977Y-20910219D01*
X87219781Y-20753023D01*
X87215273Y-20749866D01*
X87215270Y-20749864D01*
X87197202Y-20737213D01*
X87152874Y-20681756D01*
X87145565Y-20611137D01*
X87177596Y-20547776D01*
X87238797Y-20511791D01*
X87269473Y-20508000D01*
X87866000Y-20508000D01*
X87934121Y-20528002D01*
G37*
G04 #@! TD.AperFunction*
G04 #@! TA.AperFunction,NonConductor*
G36*
X85598648Y-20528002D02*
G01*
X85645141Y-20581658D01*
X85655245Y-20651932D01*
X85625751Y-20716512D01*
X85602798Y-20737213D01*
X85584730Y-20749864D01*
X85584727Y-20749866D01*
X85580219Y-20753023D01*
X85423023Y-20910219D01*
X85295512Y-21092324D01*
X85293189Y-21097306D01*
X85293186Y-21097311D01*
X85203883Y-21288822D01*
X85201560Y-21293804D01*
X85144022Y-21508537D01*
X85143543Y-21514016D01*
X85125521Y-21720010D01*
X85123296Y-21725699D01*
X85123530Y-21726144D01*
X85125521Y-21739990D01*
X85144022Y-21951463D01*
X85201560Y-22166196D01*
X85203882Y-22171177D01*
X85203883Y-22171178D01*
X85293186Y-22362689D01*
X85293189Y-22362694D01*
X85295512Y-22367676D01*
X85298668Y-22372183D01*
X85298669Y-22372185D01*
X85377601Y-22484911D01*
X85423023Y-22549781D01*
X85580219Y-22706977D01*
X85584727Y-22710134D01*
X85584730Y-22710136D01*
X85621951Y-22736198D01*
X85762323Y-22834488D01*
X85767305Y-22836811D01*
X85767310Y-22836814D01*
X85872373Y-22885805D01*
X85925658Y-22932722D01*
X85945119Y-23000999D01*
X85924577Y-23068959D01*
X85872373Y-23114195D01*
X85767311Y-23163186D01*
X85767306Y-23163189D01*
X85762324Y-23165512D01*
X85757817Y-23168668D01*
X85757815Y-23168669D01*
X85584730Y-23289864D01*
X85584727Y-23289866D01*
X85580219Y-23293023D01*
X85423023Y-23450219D01*
X85295512Y-23632324D01*
X85294208Y-23631411D01*
X85248131Y-23675349D01*
X85240428Y-23678997D01*
X85234024Y-23681768D01*
X85226407Y-23683981D01*
X85219582Y-23688017D01*
X85219580Y-23688018D01*
X85208966Y-23694295D01*
X85191213Y-23702992D01*
X85183568Y-23706019D01*
X85172383Y-23710448D01*
X85165968Y-23715109D01*
X85136612Y-23736437D01*
X85126695Y-23742951D01*
X85088638Y-23765458D01*
X85074317Y-23779779D01*
X85059284Y-23792619D01*
X85042893Y-23804528D01*
X85037840Y-23810636D01*
X85014708Y-23838598D01*
X85006718Y-23847378D01*
X84996234Y-23857862D01*
X84933922Y-23891888D01*
X84863107Y-23886823D01*
X84806271Y-23844276D01*
X84792944Y-23822017D01*
X84706814Y-23637311D01*
X84706811Y-23637306D01*
X84704488Y-23632324D01*
X84576977Y-23450219D01*
X84419781Y-23293023D01*
X84415273Y-23289866D01*
X84415270Y-23289864D01*
X84339505Y-23236813D01*
X84237677Y-23165512D01*
X84232695Y-23163189D01*
X84232690Y-23163186D01*
X84127627Y-23114195D01*
X84074342Y-23067278D01*
X84055166Y-23000000D01*
X84484933Y-23000000D01*
X84578892Y-23065791D01*
X84583326Y-23069043D01*
X84585084Y-23070392D01*
X84589374Y-23073834D01*
X84606198Y-23087952D01*
X84610288Y-23091538D01*
X84611922Y-23093034D01*
X84615932Y-23096872D01*
X84723056Y-23203996D01*
X84779972Y-23147080D01*
X85137766Y-23147080D01*
X85235813Y-23245127D01*
X85384068Y-23096872D01*
X85388078Y-23093034D01*
X85389712Y-23091538D01*
X85393802Y-23087952D01*
X85410626Y-23073834D01*
X85414916Y-23070392D01*
X85416674Y-23069043D01*
X85421108Y-23065791D01*
X85515067Y-23000000D01*
X85421108Y-22934209D01*
X85416674Y-22930957D01*
X85414916Y-22929608D01*
X85410626Y-22926166D01*
X85393802Y-22912048D01*
X85389712Y-22908462D01*
X85388078Y-22906966D01*
X85384068Y-22903128D01*
X85382893Y-22901953D01*
X85137766Y-23147080D01*
X84779972Y-23147080D01*
X84571957Y-22939065D01*
X84484933Y-23000000D01*
X84055166Y-23000000D01*
X84054881Y-22999001D01*
X84075423Y-22931041D01*
X84127627Y-22885805D01*
X84232690Y-22836814D01*
X84232695Y-22836811D01*
X84237677Y-22834488D01*
X84338077Y-22764187D01*
X84754873Y-22764187D01*
X84958869Y-22968183D01*
X85205588Y-22721464D01*
X85203834Y-22719374D01*
X85200392Y-22715084D01*
X85199043Y-22713326D01*
X85195791Y-22708892D01*
X85068280Y-22526787D01*
X85065234Y-22522229D01*
X85064043Y-22520360D01*
X85061183Y-22515648D01*
X85050201Y-22496627D01*
X85047559Y-22491810D01*
X85046536Y-22489845D01*
X85044102Y-22484911D01*
X85000000Y-22390334D01*
X84955898Y-22484911D01*
X84953464Y-22489845D01*
X84952441Y-22491810D01*
X84949799Y-22496627D01*
X84938817Y-22515648D01*
X84935957Y-22520360D01*
X84934766Y-22522229D01*
X84931720Y-22526787D01*
X84804209Y-22708892D01*
X84800957Y-22713326D01*
X84799608Y-22715084D01*
X84796166Y-22719374D01*
X84782048Y-22736198D01*
X84778462Y-22740288D01*
X84776966Y-22741922D01*
X84773128Y-22745932D01*
X84754873Y-22764187D01*
X84338077Y-22764187D01*
X84378049Y-22736198D01*
X84415270Y-22710136D01*
X84415273Y-22710134D01*
X84419781Y-22706977D01*
X84576977Y-22549781D01*
X84622400Y-22484911D01*
X84701331Y-22372185D01*
X84701332Y-22372183D01*
X84704488Y-22367676D01*
X84706811Y-22362694D01*
X84706814Y-22362689D01*
X84796117Y-22171178D01*
X84796118Y-22171177D01*
X84798440Y-22166196D01*
X84855978Y-21951463D01*
X84874479Y-21739990D01*
X84876704Y-21734301D01*
X84876470Y-21733856D01*
X84874479Y-21720010D01*
X84856457Y-21514016D01*
X84855978Y-21508537D01*
X84798440Y-21293804D01*
X84796117Y-21288822D01*
X84706814Y-21097311D01*
X84706811Y-21097306D01*
X84704488Y-21092324D01*
X84576977Y-20910219D01*
X84419781Y-20753023D01*
X84415273Y-20749866D01*
X84415270Y-20749864D01*
X84397202Y-20737213D01*
X84352874Y-20681756D01*
X84345565Y-20611137D01*
X84377596Y-20547776D01*
X84438797Y-20511791D01*
X84469473Y-20508000D01*
X85530527Y-20508000D01*
X85598648Y-20528002D01*
G37*
G04 #@! TD.AperFunction*
G04 #@! TA.AperFunction,NonConductor*
G36*
X85953543Y-25464526D02*
G01*
X85953649Y-25464234D01*
X85955386Y-25464866D01*
X85956632Y-25465096D01*
X85958820Y-25466116D01*
X85963804Y-25468440D01*
X85969112Y-25469862D01*
X85969114Y-25469863D01*
X86034949Y-25487503D01*
X86178537Y-25525978D01*
X86400000Y-25545353D01*
X86621463Y-25525978D01*
X86707889Y-25502820D01*
X86778865Y-25504510D01*
X86837661Y-25544304D01*
X86865609Y-25609568D01*
X86866500Y-25624527D01*
X86866500Y-26416406D01*
X86846498Y-26484527D01*
X86792842Y-26531020D01*
X86722568Y-26541124D01*
X86657988Y-26511630D01*
X86651405Y-26505501D01*
X86638332Y-26492428D01*
X86625491Y-26477394D01*
X86618242Y-26467417D01*
X86613583Y-26461004D01*
X86607479Y-26455954D01*
X86607474Y-26455949D01*
X86579513Y-26432818D01*
X86570733Y-26424828D01*
X85814295Y-25668390D01*
X85780269Y-25606078D01*
X85785334Y-25535263D01*
X85827881Y-25478427D01*
X85894401Y-25453616D01*
X85953543Y-25464526D01*
G37*
G04 #@! TD.AperFunction*
G04 #@! TA.AperFunction,NonConductor*
G36*
X81470214Y-48494905D02*
G01*
X81586984Y-48591849D01*
X81630299Y-48627810D01*
X81634751Y-48630412D01*
X81634756Y-48630415D01*
X81684069Y-48659231D01*
X81732792Y-48710870D01*
X81745863Y-48780653D01*
X81719131Y-48846425D01*
X81688595Y-48873783D01*
X81686335Y-48874960D01*
X81603096Y-48937457D01*
X81519797Y-49000000D01*
X81505905Y-49010430D01*
X81502333Y-49014168D01*
X81480823Y-49036677D01*
X81419299Y-49072107D01*
X81348387Y-49068650D01*
X81290600Y-49027404D01*
X81264286Y-48961464D01*
X81263729Y-48949626D01*
X81263729Y-48900000D01*
X81258500Y-48826889D01*
X81247833Y-48790560D01*
X81244012Y-48737131D01*
X81254186Y-48666373D01*
X81263729Y-48600000D01*
X81263729Y-48591849D01*
X81283731Y-48523728D01*
X81337387Y-48477235D01*
X81407661Y-48467131D01*
X81470214Y-48494905D01*
G37*
G04 #@! TD.AperFunction*
G04 #@! TA.AperFunction,NonConductor*
G36*
X82216512Y-27362871D02*
G01*
X82223096Y-27369000D01*
X82937707Y-28083612D01*
X82971732Y-28145924D01*
X82974611Y-28172707D01*
X82974611Y-46062445D01*
X82954609Y-46130566D01*
X82900953Y-46177059D01*
X82830679Y-46187163D01*
X82806552Y-46181218D01*
X82776571Y-46170601D01*
X82776564Y-46170599D01*
X82771698Y-46168876D01*
X82624941Y-46142734D01*
X82554657Y-46130214D01*
X82554653Y-46130214D01*
X82549569Y-46129308D01*
X82477574Y-46128429D01*
X82329129Y-46126615D01*
X82329127Y-46126615D01*
X82323959Y-46126552D01*
X82100929Y-46160680D01*
X81886468Y-46230777D01*
X81881876Y-46233167D01*
X81881877Y-46233167D01*
X81701611Y-46327008D01*
X81686335Y-46334960D01*
X81682202Y-46338063D01*
X81682199Y-46338065D01*
X81511235Y-46466428D01*
X81505905Y-46470430D01*
X81502333Y-46474168D01*
X81405660Y-46575330D01*
X81344135Y-46610760D01*
X81273223Y-46607303D01*
X81228314Y-46580130D01*
X81192350Y-46546358D01*
X81189507Y-46543602D01*
X81169770Y-46523865D01*
X81166573Y-46521385D01*
X81157551Y-46513680D01*
X81144116Y-46501064D01*
X81125321Y-46483414D01*
X81118375Y-46479595D01*
X81118372Y-46479593D01*
X81107566Y-46473652D01*
X81091047Y-46462801D01*
X81090583Y-46462441D01*
X81075041Y-46450386D01*
X81067772Y-46447241D01*
X81067768Y-46447238D01*
X81034463Y-46432826D01*
X81023813Y-46427609D01*
X80985060Y-46406305D01*
X80965437Y-46401267D01*
X80946734Y-46394863D01*
X80935420Y-46389967D01*
X80935419Y-46389967D01*
X80928145Y-46386819D01*
X80920322Y-46385580D01*
X80920312Y-46385577D01*
X80884476Y-46379901D01*
X80872856Y-46377495D01*
X80837711Y-46368472D01*
X80837710Y-46368472D01*
X80830030Y-46366500D01*
X80809776Y-46366500D01*
X80790065Y-46364949D01*
X80787534Y-46364548D01*
X80770057Y-46361780D01*
X80762165Y-46362526D01*
X80726039Y-46365941D01*
X80714181Y-46366500D01*
X80328763Y-46366500D01*
X80317579Y-46365973D01*
X80310091Y-46364299D01*
X80302168Y-46364548D01*
X80242033Y-46366438D01*
X80238075Y-46366500D01*
X80210144Y-46366500D01*
X80206229Y-46366995D01*
X80206225Y-46366995D01*
X80206167Y-46367003D01*
X80206138Y-46367006D01*
X80194296Y-46367939D01*
X80150110Y-46369327D01*
X80132744Y-46374372D01*
X80130658Y-46374978D01*
X80111306Y-46378986D01*
X80099068Y-46380532D01*
X80099066Y-46380533D01*
X80091203Y-46381526D01*
X80050086Y-46397806D01*
X80038885Y-46401641D01*
X79996406Y-46413982D01*
X79989587Y-46418015D01*
X79989582Y-46418017D01*
X79978971Y-46424293D01*
X79961221Y-46432990D01*
X79942383Y-46440448D01*
X79935967Y-46445109D01*
X79935966Y-46445110D01*
X79906625Y-46466428D01*
X79896701Y-46472947D01*
X79865460Y-46491422D01*
X79865455Y-46491426D01*
X79858637Y-46495458D01*
X79844313Y-46509782D01*
X79829281Y-46522621D01*
X79812893Y-46534528D01*
X79784712Y-46568593D01*
X79776722Y-46577373D01*
X79607747Y-46746348D01*
X79599461Y-46753888D01*
X79592982Y-46758000D01*
X79587557Y-46763777D01*
X79546357Y-46807651D01*
X79543602Y-46810493D01*
X79523865Y-46830230D01*
X79521385Y-46833427D01*
X79513682Y-46842447D01*
X79483414Y-46874679D01*
X79479595Y-46881625D01*
X79479593Y-46881628D01*
X79473652Y-46892434D01*
X79462801Y-46908953D01*
X79450386Y-46924959D01*
X79447241Y-46932228D01*
X79447238Y-46932232D01*
X79432826Y-46965537D01*
X79427609Y-46976187D01*
X79406305Y-47014940D01*
X79404334Y-47022615D01*
X79404334Y-47022616D01*
X79401267Y-47034562D01*
X79394863Y-47053266D01*
X79386819Y-47071855D01*
X79385579Y-47079684D01*
X79385578Y-47079687D01*
X79383890Y-47090341D01*
X79353476Y-47154493D01*
X79310189Y-47185955D01*
X79276159Y-47200928D01*
X79267495Y-47206321D01*
X79156306Y-47275530D01*
X79156302Y-47275533D01*
X79152504Y-47277897D01*
X79149076Y-47280779D01*
X79149074Y-47280780D01*
X79100957Y-47321226D01*
X79042869Y-47370054D01*
X78945782Y-47478639D01*
X78943297Y-47482372D01*
X78943294Y-47482376D01*
X78870761Y-47591341D01*
X78866419Y-47597864D01*
X78803711Y-47729333D01*
X78802374Y-47733612D01*
X78802373Y-47733615D01*
X78789215Y-47775732D01*
X78761001Y-47866039D01*
X78737713Y-48009821D01*
X78735088Y-48153020D01*
X78735641Y-48157465D01*
X78735878Y-48161944D01*
X78735751Y-48161951D01*
X78736271Y-48170339D01*
X78736271Y-48600000D01*
X78741500Y-48673111D01*
X78743403Y-48679591D01*
X78752167Y-48709438D01*
X78755988Y-48762868D01*
X78736271Y-48900000D01*
X78736271Y-49387322D01*
X78736250Y-49389630D01*
X78735088Y-49453020D01*
X78735796Y-49458700D01*
X78750954Y-49580391D01*
X78753093Y-49597565D01*
X78790766Y-49735745D01*
X78792548Y-49739862D01*
X78792549Y-49739866D01*
X78836038Y-49840362D01*
X78848612Y-49869420D01*
X78923552Y-49991472D01*
X78926415Y-49994920D01*
X78926416Y-49994922D01*
X79010428Y-50096115D01*
X79016592Y-50103540D01*
X79122776Y-50199654D01*
X79243536Y-50281107D01*
X79247572Y-50283062D01*
X79247573Y-50283063D01*
X79312283Y-50314414D01*
X79364867Y-50362116D01*
X79379388Y-50396474D01*
X79380532Y-50400930D01*
X79381526Y-50408797D01*
X79384445Y-50416168D01*
X79384445Y-50416170D01*
X79397804Y-50449912D01*
X79401649Y-50461142D01*
X79413982Y-50503593D01*
X79418015Y-50510412D01*
X79418017Y-50510417D01*
X79424293Y-50521028D01*
X79432988Y-50538776D01*
X79440448Y-50557617D01*
X79445110Y-50564033D01*
X79445110Y-50564034D01*
X79466436Y-50593387D01*
X79472952Y-50603307D01*
X79489772Y-50631747D01*
X79495458Y-50641362D01*
X79509779Y-50655683D01*
X79522619Y-50670716D01*
X79534528Y-50687107D01*
X79563938Y-50711437D01*
X79568605Y-50715298D01*
X79577384Y-50723288D01*
X79746343Y-50892247D01*
X79753887Y-50900537D01*
X79758000Y-50907018D01*
X79763777Y-50912443D01*
X79807667Y-50953658D01*
X79810509Y-50956413D01*
X79830230Y-50976134D01*
X79833425Y-50978612D01*
X79842447Y-50986318D01*
X79874679Y-51016586D01*
X79881628Y-51020406D01*
X79892432Y-51026346D01*
X79908956Y-51037199D01*
X79924959Y-51049613D01*
X79965543Y-51067176D01*
X79976173Y-51072383D01*
X80014940Y-51093695D01*
X80022617Y-51095666D01*
X80022622Y-51095668D01*
X80034558Y-51098732D01*
X80053266Y-51105137D01*
X80071855Y-51113181D01*
X80079680Y-51114420D01*
X80079682Y-51114421D01*
X80115519Y-51120097D01*
X80127140Y-51122504D01*
X80158959Y-51130673D01*
X80169970Y-51133500D01*
X80190231Y-51133500D01*
X80209940Y-51135051D01*
X80229943Y-51138219D01*
X80237835Y-51137473D01*
X80243062Y-51136979D01*
X80273954Y-51134059D01*
X80285811Y-51133500D01*
X80671233Y-51133500D01*
X80682416Y-51134027D01*
X80689909Y-51135702D01*
X80697835Y-51135453D01*
X80697836Y-51135453D01*
X80757986Y-51133562D01*
X80761945Y-51133500D01*
X80789856Y-51133500D01*
X80793791Y-51133003D01*
X80793856Y-51132995D01*
X80805693Y-51132062D01*
X80837951Y-51131048D01*
X80841970Y-51130922D01*
X80849889Y-51130673D01*
X80869343Y-51125021D01*
X80888700Y-51121013D01*
X80900930Y-51119468D01*
X80900931Y-51119468D01*
X80908797Y-51118474D01*
X80916168Y-51115555D01*
X80916170Y-51115555D01*
X80949912Y-51102196D01*
X80961142Y-51098351D01*
X80995983Y-51088229D01*
X80995984Y-51088229D01*
X81003593Y-51086018D01*
X81010412Y-51081985D01*
X81010417Y-51081983D01*
X81021028Y-51075707D01*
X81038776Y-51067012D01*
X81057617Y-51059552D01*
X81077987Y-51044753D01*
X81093387Y-51033564D01*
X81103307Y-51027048D01*
X81134535Y-51008580D01*
X81134538Y-51008578D01*
X81141362Y-51004542D01*
X81155683Y-50990221D01*
X81170717Y-50977380D01*
X81172432Y-50976134D01*
X81187107Y-50965472D01*
X81192156Y-50959369D01*
X81192160Y-50959365D01*
X81199299Y-50950735D01*
X81258134Y-50910998D01*
X81329112Y-50909377D01*
X81391620Y-50948554D01*
X81456702Y-51023687D01*
X81630299Y-51167810D01*
X81634751Y-51170412D01*
X81634756Y-51170415D01*
X81794375Y-51263689D01*
X81825103Y-51281645D01*
X82035884Y-51362134D01*
X82040952Y-51363165D01*
X82040955Y-51363166D01*
X82144498Y-51384232D01*
X82256981Y-51407117D01*
X82262156Y-51407307D01*
X82262158Y-51407307D01*
X82477292Y-51415196D01*
X82477296Y-51415196D01*
X82482456Y-51415385D01*
X82487576Y-51414729D01*
X82487578Y-51414729D01*
X82593148Y-51401205D01*
X82706253Y-51386716D01*
X82711202Y-51385231D01*
X82711208Y-51385230D01*
X82917413Y-51323365D01*
X82917412Y-51323365D01*
X82922363Y-51321880D01*
X83042428Y-51263061D01*
X83120331Y-51224897D01*
X83120336Y-51224894D01*
X83124982Y-51222618D01*
X83129192Y-51219615D01*
X83129197Y-51219612D01*
X83304455Y-51094601D01*
X83304459Y-51094597D01*
X83308667Y-51091596D01*
X83468487Y-50932333D01*
X83525926Y-50852398D01*
X83589370Y-50764107D01*
X83645364Y-50720459D01*
X83716068Y-50714013D01*
X83779032Y-50746816D01*
X83799125Y-50771799D01*
X83846275Y-50848743D01*
X83846283Y-50848753D01*
X83848975Y-50853147D01*
X83996702Y-51023687D01*
X84170299Y-51167810D01*
X84174751Y-51170412D01*
X84174756Y-51170415D01*
X84334375Y-51263689D01*
X84365103Y-51281645D01*
X84575884Y-51362134D01*
X84580952Y-51363165D01*
X84580955Y-51363166D01*
X84684498Y-51384232D01*
X84796981Y-51407117D01*
X84802156Y-51407307D01*
X84802158Y-51407307D01*
X85017292Y-51415196D01*
X85017296Y-51415196D01*
X85022456Y-51415385D01*
X85027576Y-51414729D01*
X85027578Y-51414729D01*
X85133148Y-51401205D01*
X85246253Y-51386716D01*
X85251202Y-51385231D01*
X85251208Y-51385230D01*
X85457413Y-51323365D01*
X85457412Y-51323365D01*
X85462363Y-51321880D01*
X85582428Y-51263061D01*
X85660331Y-51224897D01*
X85660336Y-51224894D01*
X85664982Y-51222618D01*
X85669192Y-51219615D01*
X85669197Y-51219612D01*
X85844455Y-51094601D01*
X85844459Y-51094597D01*
X85848667Y-51091596D01*
X86008487Y-50932333D01*
X86065926Y-50852398D01*
X86129370Y-50764107D01*
X86185364Y-50720459D01*
X86256068Y-50714013D01*
X86319032Y-50746816D01*
X86339125Y-50771799D01*
X86386275Y-50848743D01*
X86386283Y-50848753D01*
X86388975Y-50853147D01*
X86536702Y-51023687D01*
X86710299Y-51167810D01*
X86714751Y-51170412D01*
X86714756Y-51170415D01*
X86874375Y-51263689D01*
X86905103Y-51281645D01*
X87115884Y-51362134D01*
X87120952Y-51363165D01*
X87120955Y-51363166D01*
X87224498Y-51384232D01*
X87336981Y-51407117D01*
X87342156Y-51407307D01*
X87342158Y-51407307D01*
X87557292Y-51415196D01*
X87557296Y-51415196D01*
X87562456Y-51415385D01*
X87567576Y-51414729D01*
X87567578Y-51414729D01*
X87673148Y-51401205D01*
X87786253Y-51386716D01*
X87791202Y-51385231D01*
X87791208Y-51385230D01*
X87997413Y-51323365D01*
X87997412Y-51323365D01*
X88002363Y-51321880D01*
X88122428Y-51263061D01*
X88200331Y-51224897D01*
X88200336Y-51224894D01*
X88204982Y-51222618D01*
X88208696Y-51219969D01*
X88652836Y-51219969D01*
X88695928Y-51263061D01*
X89050896Y-50908092D01*
X89408692Y-50908092D01*
X89763660Y-51263061D01*
X90118628Y-50908093D01*
X90118627Y-50908092D01*
X90476423Y-50908092D01*
X90831391Y-51263061D01*
X91186359Y-50908093D01*
X91544154Y-50908093D01*
X91899122Y-51263061D01*
X92254089Y-50908093D01*
X92611885Y-50908093D01*
X92966853Y-51263061D01*
X93321821Y-50908092D01*
X93679617Y-50908092D01*
X94034585Y-51263061D01*
X94389553Y-50908093D01*
X94389552Y-50908092D01*
X94747348Y-50908092D01*
X95102316Y-51263061D01*
X95457284Y-50908093D01*
X95815079Y-50908093D01*
X96170047Y-51263061D01*
X96525014Y-50908093D01*
X96882810Y-50908093D01*
X97237778Y-51263061D01*
X97592746Y-50908092D01*
X97950542Y-50908092D01*
X98305510Y-51263061D01*
X98621259Y-50947312D01*
X98490977Y-50853694D01*
X98487556Y-50851148D01*
X98486188Y-50850093D01*
X98482823Y-50847404D01*
X98469616Y-50836479D01*
X98466349Y-50833682D01*
X98465055Y-50832535D01*
X98461901Y-50829642D01*
X98253363Y-50631747D01*
X98250311Y-50628750D01*
X98249098Y-50627518D01*
X98246135Y-50624404D01*
X98240432Y-50618202D01*
X97950542Y-50908092D01*
X97592746Y-50908092D01*
X97237779Y-50553125D01*
X96882810Y-50908093D01*
X96525014Y-50908093D01*
X96525015Y-50908092D01*
X96170048Y-50553125D01*
X95815079Y-50908093D01*
X95457284Y-50908093D01*
X95102315Y-50553125D01*
X94747348Y-50908092D01*
X94389552Y-50908092D01*
X94034584Y-50553125D01*
X93679617Y-50908092D01*
X93321821Y-50908092D01*
X92966854Y-50553125D01*
X92611885Y-50908093D01*
X92254089Y-50908093D01*
X92254090Y-50908092D01*
X91899123Y-50553125D01*
X91544154Y-50908093D01*
X91186359Y-50908093D01*
X90831390Y-50553125D01*
X90476423Y-50908092D01*
X90118627Y-50908092D01*
X89763659Y-50553125D01*
X89408692Y-50908092D01*
X89050896Y-50908092D01*
X88957274Y-50814470D01*
X88928835Y-50872013D01*
X88926444Y-50876610D01*
X88925445Y-50878438D01*
X88922881Y-50882910D01*
X88912246Y-50900609D01*
X88909499Y-50904976D01*
X88908354Y-50906716D01*
X88905421Y-50910979D01*
X88773758Y-51094207D01*
X88770676Y-51098318D01*
X88769393Y-51099958D01*
X88766110Y-51103980D01*
X88752728Y-51119705D01*
X88749275Y-51123597D01*
X88747860Y-51125127D01*
X88744296Y-51128827D01*
X88652836Y-51219969D01*
X88208696Y-51219969D01*
X88209192Y-51219615D01*
X88209197Y-51219612D01*
X88384455Y-51094601D01*
X88384459Y-51094597D01*
X88388667Y-51091596D01*
X88548487Y-50932333D01*
X88680150Y-50749105D01*
X88771549Y-50564173D01*
X89064771Y-50564173D01*
X89229794Y-50729196D01*
X89584763Y-50374227D01*
X89942558Y-50374227D01*
X90297526Y-50729195D01*
X90652494Y-50374227D01*
X91010288Y-50374227D01*
X91365256Y-50729195D01*
X91720224Y-50374227D01*
X92078019Y-50374227D01*
X92432987Y-50729195D01*
X92787955Y-50374227D01*
X93145752Y-50374227D01*
X93500720Y-50729195D01*
X93855688Y-50374227D01*
X94213483Y-50374227D01*
X94568451Y-50729195D01*
X94923419Y-50374227D01*
X95281213Y-50374227D01*
X95636181Y-50729195D01*
X95991149Y-50374227D01*
X96348944Y-50374227D01*
X96703912Y-50729195D01*
X97058880Y-50374227D01*
X97416677Y-50374227D01*
X97771645Y-50729195D01*
X98080614Y-50420226D01*
X98048070Y-50379604D01*
X98045438Y-50376201D01*
X98044404Y-50374816D01*
X98041904Y-50371346D01*
X98032122Y-50357271D01*
X98029751Y-50353734D01*
X98028813Y-50352282D01*
X98026534Y-50348617D01*
X97915531Y-50163145D01*
X97771645Y-50019259D01*
X97416677Y-50374227D01*
X97058880Y-50374227D01*
X96703912Y-50019259D01*
X96348944Y-50374227D01*
X95991149Y-50374227D01*
X95636181Y-50019259D01*
X95281213Y-50374227D01*
X94923419Y-50374227D01*
X94568451Y-50019259D01*
X94213483Y-50374227D01*
X93855688Y-50374227D01*
X93500720Y-50019259D01*
X93145752Y-50374227D01*
X92787955Y-50374227D01*
X92432987Y-50019259D01*
X92078019Y-50374227D01*
X91720224Y-50374227D01*
X91365256Y-50019259D01*
X91010288Y-50374227D01*
X90652494Y-50374227D01*
X90297526Y-50019259D01*
X89942558Y-50374227D01*
X89584763Y-50374227D01*
X89229795Y-50019259D01*
X89152911Y-50096142D01*
X89152474Y-50114035D01*
X89152348Y-50117392D01*
X89152279Y-50118741D01*
X89152063Y-50122079D01*
X89151023Y-50135446D01*
X89150726Y-50138717D01*
X89150586Y-50140062D01*
X89150185Y-50143463D01*
X89120735Y-50367159D01*
X89119948Y-50372310D01*
X89119591Y-50374362D01*
X89118611Y-50379389D01*
X89114248Y-50399571D01*
X89113060Y-50404572D01*
X89112537Y-50406589D01*
X89111129Y-50411592D01*
X89064771Y-50564173D01*
X88771549Y-50564173D01*
X88774789Y-50557617D01*
X88777824Y-50551477D01*
X88777825Y-50551475D01*
X88780118Y-50546835D01*
X88838921Y-50353290D01*
X88844206Y-50335896D01*
X88844206Y-50335895D01*
X88845708Y-50330952D01*
X88848972Y-50306162D01*
X88874721Y-50110578D01*
X88874722Y-50110572D01*
X88875158Y-50107256D01*
X88876802Y-50040000D01*
X88860389Y-49840362D01*
X89408692Y-49840362D01*
X89763659Y-50195329D01*
X90118627Y-49840362D01*
X90476423Y-49840362D01*
X90831390Y-50195329D01*
X91186359Y-49840361D01*
X91544154Y-49840361D01*
X91899123Y-50195329D01*
X92254090Y-49840362D01*
X92254089Y-49840361D01*
X92611885Y-49840361D01*
X92966854Y-50195329D01*
X93321821Y-49840362D01*
X93679617Y-49840362D01*
X94034584Y-50195329D01*
X94389552Y-49840362D01*
X94747348Y-49840362D01*
X95102315Y-50195329D01*
X95457284Y-49840361D01*
X95815079Y-49840361D01*
X96170048Y-50195329D01*
X96525015Y-49840362D01*
X96525014Y-49840361D01*
X96882810Y-49840361D01*
X97237779Y-50195329D01*
X97592746Y-49840362D01*
X97237778Y-49485393D01*
X96882810Y-49840361D01*
X96525014Y-49840361D01*
X96170047Y-49485393D01*
X95815079Y-49840361D01*
X95457284Y-49840361D01*
X95102316Y-49485393D01*
X94747348Y-49840362D01*
X94389552Y-49840362D01*
X94389553Y-49840361D01*
X94034585Y-49485393D01*
X93679617Y-49840362D01*
X93321821Y-49840362D01*
X92966853Y-49485393D01*
X92611885Y-49840361D01*
X92254089Y-49840361D01*
X91899122Y-49485393D01*
X91544154Y-49840361D01*
X91186359Y-49840361D01*
X90831391Y-49485393D01*
X90476423Y-49840362D01*
X90118627Y-49840362D01*
X90118628Y-49840361D01*
X89763660Y-49485393D01*
X89408692Y-49840362D01*
X88860389Y-49840362D01*
X88858315Y-49815132D01*
X88803349Y-49596304D01*
X88713380Y-49389391D01*
X88634593Y-49267604D01*
X88614457Y-49236479D01*
X88944844Y-49236479D01*
X88946290Y-49238714D01*
X88949004Y-49243103D01*
X88950063Y-49244897D01*
X88952602Y-49249407D01*
X88962359Y-49267604D01*
X88964716Y-49272228D01*
X88965624Y-49274103D01*
X88967771Y-49278777D01*
X89057740Y-49485690D01*
X89059689Y-49490434D01*
X89060274Y-49491944D01*
X89229794Y-49661464D01*
X89584761Y-49306496D01*
X89942557Y-49306496D01*
X90297525Y-49661464D01*
X90652493Y-49306495D01*
X91010289Y-49306495D01*
X91365257Y-49661464D01*
X91720225Y-49306496D01*
X91720224Y-49306495D01*
X92078020Y-49306495D01*
X92432988Y-49661464D01*
X92787956Y-49306496D01*
X93145751Y-49306496D01*
X93500719Y-49661464D01*
X93855686Y-49306496D01*
X94213482Y-49306496D01*
X94568450Y-49661464D01*
X94923418Y-49306495D01*
X95281214Y-49306495D01*
X95636182Y-49661464D01*
X95991150Y-49306496D01*
X95991149Y-49306495D01*
X96348945Y-49306495D01*
X96703913Y-49661464D01*
X97058881Y-49306496D01*
X97416676Y-49306496D01*
X97683140Y-49572960D01*
X97660700Y-49490932D01*
X97659640Y-49486783D01*
X97659241Y-49485102D01*
X97658321Y-49480909D01*
X97654933Y-49464107D01*
X97654157Y-49459892D01*
X97653873Y-49458186D01*
X97653241Y-49453941D01*
X97615716Y-49168910D01*
X97615228Y-49164640D01*
X97615061Y-49162920D01*
X97614720Y-49158654D01*
X97613644Y-49141548D01*
X97613448Y-49137282D01*
X97613398Y-49135554D01*
X97613364Y-49132703D01*
X97890743Y-49132703D01*
X97891302Y-49136947D01*
X97891302Y-49136951D01*
X97899596Y-49199951D01*
X97928268Y-49417734D01*
X98004129Y-49695036D01*
X98005813Y-49698984D01*
X98078511Y-49869420D01*
X98116923Y-49959476D01*
X98163108Y-50036646D01*
X98262168Y-50202162D01*
X98264561Y-50206161D01*
X98444313Y-50430528D01*
X98513288Y-50495983D01*
X98585146Y-50564173D01*
X98652851Y-50628423D01*
X98817612Y-50746816D01*
X98880350Y-50791898D01*
X98886317Y-50796186D01*
X98890112Y-50798195D01*
X98890113Y-50798196D01*
X98911869Y-50809715D01*
X99140392Y-50930712D01*
X99256857Y-50973332D01*
X99403643Y-51027048D01*
X99410373Y-51029511D01*
X99691264Y-51090755D01*
X99719841Y-51093004D01*
X99914282Y-51108307D01*
X99914291Y-51108307D01*
X99916739Y-51108500D01*
X100072271Y-51108500D01*
X100074407Y-51108354D01*
X100074418Y-51108354D01*
X100282548Y-51094165D01*
X100282554Y-51094164D01*
X100286825Y-51093873D01*
X100291020Y-51093004D01*
X100291022Y-51093004D01*
X100475068Y-51054890D01*
X100568342Y-51035574D01*
X100601133Y-51023962D01*
X101269604Y-51023962D01*
X101508703Y-51263061D01*
X101863671Y-50908092D01*
X102221467Y-50908092D01*
X102576435Y-51263061D01*
X102931403Y-50908093D01*
X102931402Y-50908092D01*
X103289198Y-50908092D01*
X103589004Y-51207898D01*
X103772485Y-50878488D01*
X103832839Y-50741799D01*
X103644165Y-50553125D01*
X103289198Y-50908092D01*
X102931402Y-50908092D01*
X102576434Y-50553125D01*
X102221467Y-50908092D01*
X101863671Y-50908092D01*
X101665218Y-50709639D01*
X101518855Y-50845648D01*
X101515647Y-50848529D01*
X101514342Y-50849661D01*
X101511076Y-50852398D01*
X101497756Y-50863185D01*
X101494385Y-50865822D01*
X101493005Y-50866864D01*
X101489530Y-50869396D01*
X101269604Y-51023962D01*
X100601133Y-51023962D01*
X100839343Y-50939607D01*
X101037147Y-50837513D01*
X101091005Y-50809715D01*
X101091006Y-50809715D01*
X101094812Y-50807750D01*
X101098313Y-50805289D01*
X101098317Y-50805287D01*
X101259283Y-50692158D01*
X101330023Y-50642441D01*
X101427912Y-50551477D01*
X101458377Y-50523167D01*
X101836540Y-50523167D01*
X102042568Y-50729195D01*
X102397536Y-50374227D01*
X102755333Y-50374227D01*
X103110301Y-50729195D01*
X103465269Y-50374227D01*
X103823064Y-50374227D01*
X103940138Y-50491302D01*
X104053427Y-50153295D01*
X104056328Y-50140962D01*
X103823064Y-50374227D01*
X103465269Y-50374227D01*
X103110301Y-50019259D01*
X102755333Y-50374227D01*
X102397536Y-50374227D01*
X102122728Y-50099418D01*
X102122475Y-50099922D01*
X102114535Y-50115112D01*
X102112505Y-50118841D01*
X102111652Y-50120347D01*
X102109450Y-50124084D01*
X101959236Y-50369210D01*
X101956921Y-50372846D01*
X101955968Y-50374288D01*
X101953555Y-50377808D01*
X101943626Y-50391779D01*
X101941105Y-50395202D01*
X101940057Y-50396576D01*
X101937377Y-50399968D01*
X101836540Y-50523167D01*
X101458377Y-50523167D01*
X101537479Y-50449661D01*
X101537481Y-50449658D01*
X101540622Y-50446740D01*
X101722713Y-50224268D01*
X101865371Y-49991472D01*
X101870686Y-49982799D01*
X101872927Y-49979142D01*
X101929171Y-49851015D01*
X102232120Y-49851015D01*
X102576434Y-50195329D01*
X102931402Y-49840362D01*
X103289198Y-49840362D01*
X103644165Y-50195329D01*
X103999134Y-49840361D01*
X103644166Y-49485393D01*
X103289198Y-49840362D01*
X102931402Y-49840362D01*
X102931403Y-49840361D01*
X102576435Y-49485393D01*
X102247601Y-49814227D01*
X102246304Y-49817830D01*
X102244792Y-49821816D01*
X102244152Y-49823421D01*
X102242487Y-49827398D01*
X102232120Y-49851015D01*
X101929171Y-49851015D01*
X101988483Y-49715898D01*
X102067244Y-49439406D01*
X102086160Y-49306496D01*
X102755332Y-49306496D01*
X103110300Y-49661464D01*
X103465267Y-49306496D01*
X103823063Y-49306496D01*
X104160713Y-49644146D01*
X104196325Y-49388855D01*
X104214303Y-49000000D01*
X104213711Y-48987207D01*
X104178032Y-48951528D01*
X103823063Y-49306496D01*
X103465267Y-49306496D01*
X103465268Y-49306495D01*
X103110301Y-48951528D01*
X102755332Y-49306496D01*
X102086160Y-49306496D01*
X102101868Y-49196124D01*
X102107146Y-49159036D01*
X102107146Y-49159034D01*
X102107751Y-49154784D01*
X102107821Y-49141548D01*
X102109235Y-48871583D01*
X102109235Y-48871576D01*
X102109257Y-48867297D01*
X102105841Y-48841346D01*
X102082805Y-48666373D01*
X102078748Y-48635556D01*
X102358541Y-48635556D01*
X102384284Y-48831090D01*
X102384772Y-48835360D01*
X102384939Y-48837080D01*
X102385280Y-48841346D01*
X102386356Y-48858452D01*
X102386552Y-48862718D01*
X102386602Y-48864446D01*
X102386653Y-48868750D01*
X102386293Y-48937457D01*
X102576434Y-49127598D01*
X102931402Y-48772631D01*
X103289198Y-48772631D01*
X103644165Y-49127598D01*
X103999134Y-48772630D01*
X103644166Y-48417662D01*
X103289198Y-48772631D01*
X102931402Y-48772631D01*
X102931403Y-48772630D01*
X102576435Y-48417662D01*
X102358541Y-48635556D01*
X102078748Y-48635556D01*
X102071732Y-48582266D01*
X102053761Y-48516573D01*
X102031989Y-48436990D01*
X101995871Y-48304964D01*
X101952799Y-48203984D01*
X101884763Y-48044476D01*
X101884761Y-48044472D01*
X101883077Y-48040524D01*
X101867799Y-48014996D01*
X102173768Y-48014996D01*
X102251028Y-48196129D01*
X102252635Y-48200079D01*
X102253259Y-48201691D01*
X102254746Y-48205738D01*
X102260383Y-48221925D01*
X102261717Y-48225975D01*
X102262230Y-48227626D01*
X102263439Y-48231766D01*
X102293747Y-48342555D01*
X102397537Y-48238765D01*
X102755332Y-48238765D01*
X103110300Y-48593733D01*
X103465267Y-48238765D01*
X103823063Y-48238765D01*
X104178031Y-48593733D01*
X104191954Y-48579810D01*
X104142545Y-48225614D01*
X104084216Y-47977612D01*
X103823063Y-48238765D01*
X103465267Y-48238765D01*
X103465268Y-48238764D01*
X103110301Y-47883797D01*
X102755332Y-48238765D01*
X102397537Y-48238765D01*
X102173768Y-48014996D01*
X101867799Y-48014996D01*
X101735439Y-47793839D01*
X101664184Y-47704898D01*
X102221467Y-47704898D01*
X102576435Y-48059867D01*
X102931403Y-47704899D01*
X102931402Y-47704898D01*
X103289198Y-47704898D01*
X103644166Y-48059867D01*
X103999134Y-47704899D01*
X103644165Y-47349931D01*
X103289198Y-47704898D01*
X102931402Y-47704898D01*
X102576434Y-47349931D01*
X102221467Y-47704898D01*
X101664184Y-47704898D01*
X101555687Y-47569472D01*
X101347149Y-47371577D01*
X101113683Y-47203814D01*
X101108233Y-47200928D01*
X101051772Y-47171034D01*
X101687601Y-47171034D01*
X102042568Y-47526001D01*
X102397537Y-47171033D01*
X102755332Y-47171033D01*
X103110301Y-47526001D01*
X103465268Y-47171034D01*
X103110300Y-46816065D01*
X102755332Y-47171033D01*
X102397537Y-47171033D01*
X102042569Y-46816065D01*
X101687601Y-47171034D01*
X101051772Y-47171034D01*
X100859608Y-47069288D01*
X100589627Y-46970489D01*
X100308736Y-46909245D01*
X100277685Y-46906801D01*
X100085718Y-46891693D01*
X100085709Y-46891693D01*
X100083261Y-46891500D01*
X99927729Y-46891500D01*
X99925593Y-46891646D01*
X99925582Y-46891646D01*
X99717452Y-46905835D01*
X99717446Y-46905836D01*
X99713175Y-46906127D01*
X99708980Y-46906996D01*
X99708978Y-46906996D01*
X99622238Y-46924959D01*
X99431658Y-46964426D01*
X99160657Y-47060393D01*
X99156848Y-47062359D01*
X98918929Y-47185158D01*
X98905188Y-47192250D01*
X98901687Y-47194711D01*
X98901683Y-47194713D01*
X98892840Y-47200928D01*
X98669977Y-47357559D01*
X98651717Y-47374527D01*
X98539680Y-47478639D01*
X98459378Y-47553260D01*
X98277287Y-47775732D01*
X98198109Y-47904938D01*
X98133837Y-48009821D01*
X98127073Y-48020858D01*
X98125347Y-48024791D01*
X98125346Y-48024792D01*
X98047693Y-48201691D01*
X98011517Y-48284102D01*
X97932756Y-48560594D01*
X97905051Y-48755266D01*
X97894126Y-48832030D01*
X97892249Y-48845216D01*
X97892227Y-48849505D01*
X97892226Y-48849512D01*
X97890765Y-49128417D01*
X97890743Y-49132703D01*
X97613364Y-49132703D01*
X97613347Y-49131250D01*
X97613460Y-49109713D01*
X97416676Y-49306496D01*
X97058881Y-49306496D01*
X96703912Y-48951528D01*
X96348945Y-49306495D01*
X95991149Y-49306495D01*
X95636181Y-48951528D01*
X95281214Y-49306495D01*
X94923418Y-49306495D01*
X94568451Y-48951528D01*
X94213482Y-49306496D01*
X93855686Y-49306496D01*
X93855687Y-49306495D01*
X93500720Y-48951528D01*
X93145751Y-49306496D01*
X92787956Y-49306496D01*
X92432987Y-48951528D01*
X92078020Y-49306495D01*
X91720224Y-49306495D01*
X91365256Y-48951528D01*
X91010289Y-49306495D01*
X90652493Y-49306495D01*
X90297526Y-48951528D01*
X89942557Y-49306496D01*
X89584761Y-49306496D01*
X89584762Y-49306495D01*
X89229795Y-48951528D01*
X88944844Y-49236479D01*
X88614457Y-49236479D01*
X88593634Y-49204291D01*
X88593632Y-49204288D01*
X88590826Y-49199951D01*
X88587352Y-49196133D01*
X88587345Y-49196124D01*
X88459195Y-49055289D01*
X88428143Y-48991444D01*
X88436539Y-48920945D01*
X88481716Y-48866177D01*
X88508159Y-48852508D01*
X88601897Y-48817367D01*
X88610305Y-48814215D01*
X88665790Y-48772631D01*
X89408692Y-48772631D01*
X89763659Y-49127598D01*
X90118627Y-48772631D01*
X90476423Y-48772631D01*
X90831390Y-49127598D01*
X91186359Y-48772630D01*
X91544154Y-48772630D01*
X91899123Y-49127598D01*
X92254090Y-48772631D01*
X92254089Y-48772630D01*
X92611885Y-48772630D01*
X92966854Y-49127598D01*
X93321821Y-48772631D01*
X93679617Y-48772631D01*
X94034584Y-49127598D01*
X94389552Y-48772631D01*
X94747348Y-48772631D01*
X95102315Y-49127598D01*
X95457284Y-48772630D01*
X95815079Y-48772630D01*
X96170048Y-49127598D01*
X96525015Y-48772631D01*
X96525014Y-48772630D01*
X96882810Y-48772630D01*
X97237779Y-49127598D01*
X97592746Y-48772631D01*
X97237778Y-48417662D01*
X96882810Y-48772630D01*
X96525014Y-48772630D01*
X96170047Y-48417662D01*
X95815079Y-48772630D01*
X95457284Y-48772630D01*
X95102316Y-48417662D01*
X94747348Y-48772631D01*
X94389552Y-48772631D01*
X94389553Y-48772630D01*
X94034585Y-48417662D01*
X93679617Y-48772631D01*
X93321821Y-48772631D01*
X92966853Y-48417662D01*
X92611885Y-48772630D01*
X92254089Y-48772630D01*
X91899122Y-48417662D01*
X91544154Y-48772630D01*
X91186359Y-48772630D01*
X90831391Y-48417662D01*
X90476423Y-48772631D01*
X90118627Y-48772631D01*
X90118628Y-48772630D01*
X89763660Y-48417662D01*
X89408692Y-48772631D01*
X88665790Y-48772631D01*
X88726861Y-48726861D01*
X88814215Y-48610305D01*
X88853724Y-48504915D01*
X89140976Y-48504915D01*
X89229794Y-48593733D01*
X89584761Y-48238765D01*
X89942557Y-48238765D01*
X90297525Y-48593733D01*
X90652493Y-48238764D01*
X91010289Y-48238764D01*
X91365257Y-48593733D01*
X91720225Y-48238765D01*
X91720224Y-48238764D01*
X92078020Y-48238764D01*
X92432988Y-48593733D01*
X92787956Y-48238765D01*
X93145751Y-48238765D01*
X93500719Y-48593733D01*
X93855686Y-48238765D01*
X94213482Y-48238765D01*
X94568450Y-48593733D01*
X94923418Y-48238764D01*
X95281214Y-48238764D01*
X95636182Y-48593733D01*
X95991150Y-48238765D01*
X95991149Y-48238764D01*
X96348945Y-48238764D01*
X96703913Y-48593733D01*
X97058881Y-48238765D01*
X97416676Y-48238765D01*
X97665241Y-48487330D01*
X97665970Y-48484597D01*
X97744731Y-48208105D01*
X97745981Y-48203984D01*
X97746511Y-48202339D01*
X97747890Y-48198296D01*
X97753696Y-48182170D01*
X97755208Y-48178184D01*
X97755848Y-48176579D01*
X97757513Y-48172603D01*
X97849927Y-47962079D01*
X97771645Y-47883797D01*
X97416676Y-48238765D01*
X97058881Y-48238765D01*
X96703912Y-47883797D01*
X96348945Y-48238764D01*
X95991149Y-48238764D01*
X95636181Y-47883797D01*
X95281214Y-48238764D01*
X94923418Y-48238764D01*
X94568451Y-47883797D01*
X94213482Y-48238765D01*
X93855686Y-48238765D01*
X93855687Y-48238764D01*
X93500720Y-47883797D01*
X93145751Y-48238765D01*
X92787956Y-48238765D01*
X92432987Y-47883797D01*
X92078020Y-48238764D01*
X91720224Y-48238764D01*
X91365256Y-47883797D01*
X91010289Y-48238764D01*
X90652493Y-48238764D01*
X90297526Y-47883797D01*
X89942557Y-48238765D01*
X89584761Y-48238765D01*
X89584762Y-48238764D01*
X89229794Y-47883796D01*
X89149500Y-47964090D01*
X89149500Y-48411734D01*
X89149454Y-48415126D01*
X89149417Y-48416500D01*
X89149279Y-48419922D01*
X89148542Y-48433530D01*
X89148306Y-48436990D01*
X89148194Y-48438359D01*
X89147877Y-48441693D01*
X89141122Y-48503875D01*
X89140976Y-48504915D01*
X88853724Y-48504915D01*
X88865345Y-48473916D01*
X88872100Y-48411734D01*
X88872100Y-47704898D01*
X89408692Y-47704898D01*
X89763660Y-48059867D01*
X90118628Y-47704899D01*
X90118627Y-47704898D01*
X90476423Y-47704898D01*
X90831391Y-48059867D01*
X91186359Y-47704899D01*
X91544154Y-47704899D01*
X91899122Y-48059867D01*
X92254089Y-47704899D01*
X92611885Y-47704899D01*
X92966853Y-48059867D01*
X93321821Y-47704898D01*
X93679617Y-47704898D01*
X94034585Y-48059867D01*
X94389553Y-47704899D01*
X94389552Y-47704898D01*
X94747348Y-47704898D01*
X95102316Y-48059867D01*
X95457284Y-47704899D01*
X95815079Y-47704899D01*
X96170047Y-48059867D01*
X96525014Y-47704899D01*
X96882810Y-47704899D01*
X97237778Y-48059867D01*
X97592745Y-47704899D01*
X97950541Y-47704899D01*
X97978325Y-47732683D01*
X98040765Y-47630790D01*
X98043079Y-47627154D01*
X98044032Y-47625712D01*
X98046445Y-47622192D01*
X98056374Y-47608221D01*
X98058895Y-47604798D01*
X98059943Y-47603424D01*
X98062623Y-47600032D01*
X98095158Y-47560282D01*
X97950541Y-47704899D01*
X97592745Y-47704899D01*
X97592746Y-47704898D01*
X97237779Y-47349931D01*
X96882810Y-47704899D01*
X96525014Y-47704899D01*
X96525015Y-47704898D01*
X96170048Y-47349931D01*
X95815079Y-47704899D01*
X95457284Y-47704899D01*
X95102315Y-47349931D01*
X94747348Y-47704898D01*
X94389552Y-47704898D01*
X94034584Y-47349931D01*
X93679617Y-47704898D01*
X93321821Y-47704898D01*
X92966854Y-47349931D01*
X92611885Y-47704899D01*
X92254089Y-47704899D01*
X92254090Y-47704898D01*
X91899123Y-47349931D01*
X91544154Y-47704899D01*
X91186359Y-47704899D01*
X90831390Y-47349931D01*
X90476423Y-47704898D01*
X90118627Y-47704898D01*
X89763659Y-47349931D01*
X89408692Y-47704898D01*
X88872100Y-47704898D01*
X88872100Y-47445708D01*
X89149500Y-47445708D01*
X89229794Y-47526002D01*
X89584762Y-47171034D01*
X89584761Y-47171033D01*
X89942557Y-47171033D01*
X90297526Y-47526001D01*
X90652493Y-47171034D01*
X91010289Y-47171034D01*
X91365256Y-47526001D01*
X91720224Y-47171034D01*
X92078020Y-47171034D01*
X92432987Y-47526001D01*
X92787956Y-47171033D01*
X93145751Y-47171033D01*
X93500720Y-47526001D01*
X93855687Y-47171034D01*
X93855686Y-47171033D01*
X94213482Y-47171033D01*
X94568451Y-47526001D01*
X94923418Y-47171034D01*
X95281214Y-47171034D01*
X95636181Y-47526001D01*
X95991149Y-47171034D01*
X96348945Y-47171034D01*
X96703912Y-47526001D01*
X97058881Y-47171033D01*
X97416676Y-47171033D01*
X97771645Y-47526001D01*
X98126612Y-47171034D01*
X98052208Y-47096630D01*
X98558810Y-47096630D01*
X98745681Y-46965295D01*
X98749236Y-46962887D01*
X98750683Y-46961942D01*
X98754308Y-46959661D01*
X98768969Y-46950782D01*
X98772647Y-46948638D01*
X98774155Y-46947793D01*
X98777958Y-46945747D01*
X98904001Y-46880691D01*
X98839375Y-46816065D01*
X98558810Y-47096630D01*
X98052208Y-47096630D01*
X97771644Y-46816065D01*
X97416676Y-47171033D01*
X97058881Y-47171033D01*
X96703913Y-46816065D01*
X96348945Y-47171034D01*
X95991149Y-47171034D01*
X95991150Y-47171033D01*
X95636182Y-46816065D01*
X95281214Y-47171034D01*
X94923418Y-47171034D01*
X94568450Y-46816065D01*
X94213482Y-47171033D01*
X93855686Y-47171033D01*
X93500719Y-46816065D01*
X93145751Y-47171033D01*
X92787956Y-47171033D01*
X92432988Y-46816065D01*
X92078020Y-47171034D01*
X91720224Y-47171034D01*
X91720225Y-47171033D01*
X91365257Y-46816065D01*
X91010289Y-47171034D01*
X90652493Y-47171034D01*
X90297525Y-46816065D01*
X89942557Y-47171033D01*
X89584761Y-47171033D01*
X89229794Y-46816065D01*
X89149500Y-46896359D01*
X89149500Y-47445708D01*
X88872100Y-47445708D01*
X88872100Y-46637167D01*
X89408692Y-46637167D01*
X89763660Y-46992136D01*
X90118628Y-46637168D01*
X90118627Y-46637167D01*
X90476423Y-46637167D01*
X90831391Y-46992136D01*
X91186359Y-46637168D01*
X91544154Y-46637168D01*
X91899122Y-46992136D01*
X92254089Y-46637168D01*
X92611885Y-46637168D01*
X92966853Y-46992136D01*
X93321821Y-46637167D01*
X93679617Y-46637167D01*
X94034585Y-46992136D01*
X94389553Y-46637168D01*
X94389552Y-46637167D01*
X94747348Y-46637167D01*
X95102316Y-46992136D01*
X95457284Y-46637168D01*
X95815079Y-46637168D01*
X96170047Y-46992136D01*
X96525014Y-46637168D01*
X96882810Y-46637168D01*
X97237778Y-46992136D01*
X97592746Y-46637167D01*
X97950542Y-46637167D01*
X98305510Y-46992136D01*
X98660478Y-46637168D01*
X98660477Y-46637167D01*
X99018273Y-46637167D01*
X99150733Y-46769627D01*
X99339059Y-46702937D01*
X99343159Y-46701564D01*
X99344808Y-46701043D01*
X99348887Y-46699830D01*
X99365396Y-46695221D01*
X99369525Y-46694143D01*
X99371204Y-46693735D01*
X99375405Y-46692790D01*
X99656922Y-46634491D01*
X99661121Y-46633695D01*
X99662825Y-46633402D01*
X99667078Y-46632746D01*
X99684059Y-46630420D01*
X99688325Y-46629909D01*
X99690044Y-46629733D01*
X99694306Y-46629370D01*
X99718744Y-46627704D01*
X99706227Y-46615187D01*
X100107986Y-46615187D01*
X100330501Y-46632699D01*
X100334825Y-46633115D01*
X100336543Y-46633310D01*
X100340741Y-46633858D01*
X100357697Y-46636362D01*
X100361893Y-46637054D01*
X100363593Y-46637364D01*
X100367831Y-46638212D01*
X100648722Y-46699456D01*
X100652919Y-46700447D01*
X100654595Y-46700873D01*
X100658710Y-46701993D01*
X100675169Y-46706775D01*
X100679247Y-46708035D01*
X100680889Y-46708573D01*
X100684958Y-46709984D01*
X100712900Y-46720209D01*
X100795941Y-46637168D01*
X101153735Y-46637168D01*
X101508703Y-46992136D01*
X101863671Y-46637167D01*
X102221467Y-46637167D01*
X102576435Y-46992136D01*
X102931403Y-46637168D01*
X102931402Y-46637167D01*
X103289198Y-46637167D01*
X103644166Y-46992136D01*
X103680297Y-46956005D01*
X103583079Y-46781464D01*
X103404945Y-46521420D01*
X103289198Y-46637167D01*
X102931402Y-46637167D01*
X102576434Y-46282200D01*
X102221467Y-46637167D01*
X101863671Y-46637167D01*
X101508704Y-46282200D01*
X101153735Y-46637168D01*
X100795941Y-46637168D01*
X100440973Y-46282200D01*
X100107986Y-46615187D01*
X99706227Y-46615187D01*
X99373240Y-46282200D01*
X99018273Y-46637167D01*
X98660477Y-46637167D01*
X98305509Y-46282200D01*
X97950542Y-46637167D01*
X97592746Y-46637167D01*
X97237779Y-46282200D01*
X96882810Y-46637168D01*
X96525014Y-46637168D01*
X96525015Y-46637167D01*
X96170048Y-46282200D01*
X95815079Y-46637168D01*
X95457284Y-46637168D01*
X95102315Y-46282200D01*
X94747348Y-46637167D01*
X94389552Y-46637167D01*
X94034584Y-46282200D01*
X93679617Y-46637167D01*
X93321821Y-46637167D01*
X92966854Y-46282200D01*
X92611885Y-46637168D01*
X92254089Y-46637168D01*
X92254090Y-46637167D01*
X91899123Y-46282200D01*
X91544154Y-46637168D01*
X91186359Y-46637168D01*
X90831390Y-46282200D01*
X90476423Y-46637167D01*
X90118627Y-46637167D01*
X89763659Y-46282200D01*
X89408692Y-46637167D01*
X88872100Y-46637167D01*
X88872100Y-46588266D01*
X88865345Y-46526084D01*
X88814215Y-46389695D01*
X88726861Y-46273139D01*
X88610305Y-46185785D01*
X88473916Y-46134655D01*
X88411734Y-46127900D01*
X88259500Y-46127900D01*
X88191379Y-46107898D01*
X88155899Y-46066952D01*
X88911177Y-46066952D01*
X88934743Y-46090518D01*
X88940869Y-46097097D01*
X88943233Y-46099825D01*
X88948838Y-46106776D01*
X89036192Y-46223332D01*
X89041308Y-46230689D01*
X89043262Y-46233724D01*
X89047840Y-46241422D01*
X89064996Y-46272757D01*
X89069008Y-46280747D01*
X89070513Y-46284029D01*
X89073963Y-46292320D01*
X89080032Y-46308509D01*
X89229794Y-46458271D01*
X89584762Y-46103303D01*
X89584761Y-46103302D01*
X89942557Y-46103302D01*
X90297526Y-46458270D01*
X90652493Y-46103303D01*
X91010289Y-46103303D01*
X91365256Y-46458270D01*
X91720224Y-46103303D01*
X92078020Y-46103303D01*
X92432987Y-46458270D01*
X92787956Y-46103302D01*
X93145751Y-46103302D01*
X93500720Y-46458270D01*
X93855687Y-46103303D01*
X93855686Y-46103302D01*
X94213482Y-46103302D01*
X94568451Y-46458270D01*
X94923418Y-46103303D01*
X95281214Y-46103303D01*
X95636181Y-46458270D01*
X95991149Y-46103303D01*
X96348945Y-46103303D01*
X96703912Y-46458270D01*
X97058881Y-46103302D01*
X97416676Y-46103302D01*
X97771645Y-46458270D01*
X98126612Y-46103303D01*
X98126611Y-46103302D01*
X98484407Y-46103302D01*
X98839376Y-46458270D01*
X99194343Y-46103303D01*
X99552139Y-46103303D01*
X99907106Y-46458270D01*
X100262074Y-46103303D01*
X100619870Y-46103303D01*
X100974837Y-46458270D01*
X101329805Y-46103303D01*
X101687601Y-46103303D01*
X102042568Y-46458270D01*
X102397537Y-46103302D01*
X102755332Y-46103302D01*
X103110301Y-46458270D01*
X103247478Y-46321093D01*
X103114406Y-46160839D01*
X102906101Y-45952534D01*
X102755332Y-46103302D01*
X102397537Y-46103302D01*
X102042569Y-45748334D01*
X101687601Y-46103303D01*
X101329805Y-46103303D01*
X101329806Y-46103302D01*
X100974838Y-45748334D01*
X100619870Y-46103303D01*
X100262074Y-46103303D01*
X100262075Y-46103302D01*
X99907107Y-45748334D01*
X99552139Y-46103303D01*
X99194343Y-46103303D01*
X98839375Y-45748334D01*
X98484407Y-46103302D01*
X98126611Y-46103302D01*
X97771644Y-45748334D01*
X97416676Y-46103302D01*
X97058881Y-46103302D01*
X96703913Y-45748334D01*
X96348945Y-46103303D01*
X95991149Y-46103303D01*
X95991150Y-46103302D01*
X95636182Y-45748334D01*
X95281214Y-46103303D01*
X94923418Y-46103303D01*
X94568450Y-45748334D01*
X94213482Y-46103302D01*
X93855686Y-46103302D01*
X93500719Y-45748334D01*
X93145751Y-46103302D01*
X92787956Y-46103302D01*
X92432988Y-45748334D01*
X92078020Y-46103303D01*
X91720224Y-46103303D01*
X91720225Y-46103302D01*
X91365257Y-45748334D01*
X91010289Y-46103303D01*
X90652493Y-46103303D01*
X90297525Y-45748334D01*
X89942557Y-46103302D01*
X89584761Y-46103302D01*
X89229794Y-45748334D01*
X88911177Y-46066952D01*
X88155899Y-46066952D01*
X88144886Y-46054242D01*
X88133500Y-46001900D01*
X88133500Y-45639376D01*
X88410900Y-45639376D01*
X88691493Y-45919969D01*
X88697945Y-45922388D01*
X89050896Y-45569437D01*
X89408692Y-45569437D01*
X89763659Y-45924404D01*
X90118627Y-45569437D01*
X90476423Y-45569437D01*
X90831390Y-45924404D01*
X91186359Y-45569436D01*
X91544154Y-45569436D01*
X91899123Y-45924404D01*
X92254090Y-45569437D01*
X92254089Y-45569436D01*
X92611885Y-45569436D01*
X92966854Y-45924404D01*
X93321821Y-45569437D01*
X93679617Y-45569437D01*
X94034584Y-45924404D01*
X94389552Y-45569437D01*
X94747348Y-45569437D01*
X95102315Y-45924404D01*
X95457284Y-45569436D01*
X95815079Y-45569436D01*
X96170048Y-45924404D01*
X96525015Y-45569437D01*
X96525014Y-45569436D01*
X96882810Y-45569436D01*
X97237779Y-45924404D01*
X97592746Y-45569437D01*
X97950542Y-45569437D01*
X98305509Y-45924404D01*
X98660477Y-45569437D01*
X99018273Y-45569437D01*
X99373240Y-45924404D01*
X99728209Y-45569436D01*
X100086004Y-45569436D01*
X100440973Y-45924404D01*
X100795940Y-45569437D01*
X100795939Y-45569436D01*
X101153735Y-45569436D01*
X101508704Y-45924404D01*
X101863671Y-45569437D01*
X102221467Y-45569437D01*
X102576434Y-45924404D01*
X102716828Y-45784011D01*
X102539683Y-45636912D01*
X102310788Y-45480115D01*
X102221467Y-45569437D01*
X101863671Y-45569437D01*
X101523079Y-45228844D01*
X101880875Y-45228844D01*
X102042569Y-45390539D01*
X102088575Y-45344533D01*
X101880875Y-45228844D01*
X101523079Y-45228844D01*
X101508703Y-45214468D01*
X101153735Y-45569436D01*
X100795939Y-45569436D01*
X100440972Y-45214468D01*
X100086004Y-45569436D01*
X99728209Y-45569436D01*
X99373241Y-45214468D01*
X99018273Y-45569437D01*
X98660477Y-45569437D01*
X98660478Y-45569436D01*
X98305510Y-45214468D01*
X97950542Y-45569437D01*
X97592746Y-45569437D01*
X97237778Y-45214468D01*
X96882810Y-45569436D01*
X96525014Y-45569436D01*
X96170047Y-45214468D01*
X95815079Y-45569436D01*
X95457284Y-45569436D01*
X95102316Y-45214468D01*
X94747348Y-45569437D01*
X94389552Y-45569437D01*
X94389553Y-45569436D01*
X94034585Y-45214468D01*
X93679617Y-45569437D01*
X93321821Y-45569437D01*
X92966853Y-45214468D01*
X92611885Y-45569436D01*
X92254089Y-45569436D01*
X91899122Y-45214468D01*
X91544154Y-45569436D01*
X91186359Y-45569436D01*
X90831391Y-45214468D01*
X90476423Y-45569437D01*
X90118627Y-45569437D01*
X90118628Y-45569436D01*
X89763660Y-45214468D01*
X89408692Y-45569437D01*
X89050896Y-45569437D01*
X88695928Y-45214468D01*
X88410900Y-45499496D01*
X88410900Y-45639376D01*
X88133500Y-45639376D01*
X88133500Y-45035571D01*
X88874826Y-45035571D01*
X89229794Y-45390539D01*
X89584761Y-45035571D01*
X89942557Y-45035571D01*
X90297525Y-45390539D01*
X90652493Y-45035570D01*
X91010289Y-45035570D01*
X91365257Y-45390539D01*
X91720225Y-45035571D01*
X91720224Y-45035570D01*
X92078020Y-45035570D01*
X92432988Y-45390539D01*
X92787956Y-45035571D01*
X93145751Y-45035571D01*
X93500719Y-45390539D01*
X93855686Y-45035571D01*
X94213482Y-45035571D01*
X94568450Y-45390539D01*
X94923418Y-45035570D01*
X95281214Y-45035570D01*
X95636182Y-45390539D01*
X95991150Y-45035571D01*
X95991149Y-45035570D01*
X96348945Y-45035570D01*
X96703913Y-45390539D01*
X97058881Y-45035571D01*
X97416676Y-45035571D01*
X97771644Y-45390539D01*
X98126611Y-45035571D01*
X98484407Y-45035571D01*
X98839375Y-45390539D01*
X99194343Y-45035570D01*
X99552139Y-45035570D01*
X99907107Y-45390539D01*
X100262075Y-45035571D01*
X100262074Y-45035570D01*
X100619870Y-45035570D01*
X100974838Y-45390539D01*
X101329806Y-45035571D01*
X101284927Y-44990692D01*
X101153298Y-44946573D01*
X100793491Y-44861949D01*
X100619870Y-45035570D01*
X100262074Y-45035570D01*
X100015838Y-44789334D01*
X100008221Y-44789511D01*
X99972497Y-44789075D01*
X99963565Y-44788648D01*
X99959967Y-44788348D01*
X99951051Y-44787284D01*
X99938951Y-44785400D01*
X99802309Y-44785400D01*
X99552139Y-45035570D01*
X99194343Y-45035570D01*
X98944173Y-44785400D01*
X98734578Y-44785400D01*
X98484407Y-45035571D01*
X98126611Y-45035571D01*
X98126612Y-45035570D01*
X97876442Y-44785400D01*
X97666847Y-44785400D01*
X97416676Y-45035571D01*
X97058881Y-45035571D01*
X96808710Y-44785400D01*
X96599115Y-44785400D01*
X96348945Y-45035570D01*
X95991149Y-45035570D01*
X95740979Y-44785400D01*
X95531384Y-44785400D01*
X95281214Y-45035570D01*
X94923418Y-45035570D01*
X94568451Y-44680603D01*
X94213482Y-45035571D01*
X93855686Y-45035571D01*
X93855687Y-45035570D01*
X93500720Y-44680603D01*
X93145751Y-45035571D01*
X92787956Y-45035571D01*
X92432987Y-44680603D01*
X92078020Y-45035570D01*
X91720224Y-45035570D01*
X91365256Y-44680603D01*
X91010289Y-45035570D01*
X90652493Y-45035570D01*
X90297526Y-44680603D01*
X89942557Y-45035571D01*
X89584761Y-45035571D01*
X89584762Y-45035570D01*
X89229795Y-44680603D01*
X88874826Y-45035571D01*
X88133500Y-45035571D01*
X88133500Y-44571644D01*
X88410900Y-44571644D01*
X88695929Y-44856673D01*
X89050896Y-44501706D01*
X89408692Y-44501706D01*
X89763659Y-44856673D01*
X90118627Y-44501706D01*
X90476423Y-44501706D01*
X90831390Y-44856673D01*
X91186359Y-44501705D01*
X91544154Y-44501705D01*
X91899123Y-44856673D01*
X92254090Y-44501706D01*
X92254089Y-44501705D01*
X92611885Y-44501705D01*
X92966854Y-44856673D01*
X93321821Y-44501706D01*
X93679617Y-44501706D01*
X94034584Y-44856673D01*
X94389553Y-44501705D01*
X94034585Y-44146737D01*
X93679617Y-44501706D01*
X93321821Y-44501706D01*
X92966853Y-44146737D01*
X92611885Y-44501705D01*
X92254089Y-44501705D01*
X91899122Y-44146737D01*
X91544154Y-44501705D01*
X91186359Y-44501705D01*
X90831391Y-44146737D01*
X90476423Y-44501706D01*
X90118627Y-44501706D01*
X90118628Y-44501705D01*
X89763660Y-44146737D01*
X89408692Y-44501706D01*
X89050896Y-44501706D01*
X88695928Y-44146737D01*
X88410900Y-44431765D01*
X88410900Y-44571644D01*
X88133500Y-44571644D01*
X88133500Y-43967840D01*
X88874826Y-43967840D01*
X89229794Y-44322808D01*
X89584761Y-43967840D01*
X89942557Y-43967840D01*
X90297525Y-44322808D01*
X90652493Y-43967839D01*
X91010289Y-43967839D01*
X91365257Y-44322808D01*
X91720225Y-43967840D01*
X91720224Y-43967839D01*
X92078020Y-43967839D01*
X92432988Y-44322808D01*
X92787956Y-43967840D01*
X93145751Y-43967840D01*
X93500719Y-44322808D01*
X93855687Y-43967839D01*
X93673248Y-43785400D01*
X93328191Y-43785400D01*
X93145751Y-43967840D01*
X92787956Y-43967840D01*
X92605516Y-43785400D01*
X92260459Y-43785400D01*
X92078020Y-43967839D01*
X91720224Y-43967839D01*
X91537785Y-43785400D01*
X91192728Y-43785400D01*
X91010289Y-43967839D01*
X90652493Y-43967839D01*
X90470054Y-43785400D01*
X90124997Y-43785400D01*
X89942557Y-43967840D01*
X89584761Y-43967840D01*
X89584762Y-43967839D01*
X89402323Y-43785400D01*
X89057266Y-43785400D01*
X88874826Y-43967840D01*
X88133500Y-43967840D01*
X88133500Y-43589863D01*
X88153502Y-43521742D01*
X88207158Y-43475249D01*
X88277432Y-43465145D01*
X88295600Y-43469145D01*
X88309287Y-43473238D01*
X88326736Y-43479901D01*
X88349948Y-43490799D01*
X88379130Y-43495343D01*
X88395849Y-43499126D01*
X88415536Y-43505014D01*
X88415539Y-43505015D01*
X88424141Y-43507587D01*
X88433116Y-43507642D01*
X88433117Y-43507642D01*
X88439810Y-43507683D01*
X88458556Y-43507797D01*
X88459328Y-43507830D01*
X88460423Y-43508000D01*
X88491298Y-43508000D01*
X88492068Y-43508002D01*
X88565716Y-43508452D01*
X88565717Y-43508452D01*
X88569652Y-43508476D01*
X88570996Y-43508092D01*
X88572341Y-43508000D01*
X93737389Y-43508000D01*
X93805510Y-43528002D01*
X93826485Y-43544905D01*
X94590571Y-44308992D01*
X94598180Y-44318516D01*
X94598550Y-44318202D01*
X94604372Y-44325043D01*
X94609160Y-44332631D01*
X94615887Y-44338572D01*
X94649464Y-44368226D01*
X94655152Y-44373573D01*
X94666583Y-44385004D01*
X94670174Y-44387695D01*
X94670176Y-44387697D01*
X94674942Y-44391269D01*
X94682784Y-44397653D01*
X94718228Y-44428956D01*
X94726355Y-44432772D01*
X94728883Y-44434432D01*
X94743712Y-44443342D01*
X94746353Y-44444788D01*
X94753538Y-44450173D01*
X94761946Y-44453325D01*
X94797828Y-44466777D01*
X94807146Y-44470704D01*
X94841818Y-44486982D01*
X94849948Y-44490799D01*
X94858823Y-44492181D01*
X94861706Y-44493062D01*
X94878451Y-44497455D01*
X94881386Y-44498100D01*
X94889793Y-44501252D01*
X94919226Y-44503439D01*
X94936951Y-44504757D01*
X94946991Y-44505909D01*
X94954051Y-44507008D01*
X94960423Y-44508000D01*
X94975915Y-44508000D01*
X94985253Y-44508346D01*
X95025956Y-44511371D01*
X95025957Y-44511371D01*
X95034907Y-44512036D01*
X95043689Y-44510161D01*
X95052003Y-44509594D01*
X95067110Y-44508000D01*
X99950672Y-44508000D01*
X99970056Y-44509500D01*
X99971046Y-44509654D01*
X99984858Y-44511805D01*
X99984861Y-44511805D01*
X99993730Y-44513186D01*
X100013626Y-44510584D01*
X100035784Y-44509654D01*
X100408651Y-44526893D01*
X100420240Y-44527967D01*
X100819639Y-44583681D01*
X100831079Y-44585820D01*
X101223633Y-44678147D01*
X101234809Y-44681327D01*
X101425996Y-44745407D01*
X101617174Y-44809484D01*
X101628026Y-44813688D01*
X101996932Y-44976575D01*
X102007350Y-44981763D01*
X102359638Y-45177987D01*
X102369533Y-45184113D01*
X102702229Y-45412015D01*
X102711517Y-45419029D01*
X103021766Y-45676656D01*
X103030366Y-45684497D01*
X103315503Y-45969634D01*
X103323344Y-45978234D01*
X103580971Y-46288483D01*
X103587985Y-46297771D01*
X103664947Y-46410121D01*
X103815136Y-46629370D01*
X103815887Y-46630467D01*
X103822013Y-46640362D01*
X104018237Y-46992650D01*
X104023425Y-47003068D01*
X104186312Y-47371974D01*
X104190516Y-47382826D01*
X104308090Y-47733615D01*
X104318670Y-47765182D01*
X104321853Y-47776367D01*
X104409244Y-48147936D01*
X104414180Y-48168921D01*
X104416319Y-48180361D01*
X104472033Y-48579760D01*
X104473107Y-48591349D01*
X104491731Y-48994181D01*
X104491731Y-49005818D01*
X104479111Y-49278777D01*
X104473107Y-49408651D01*
X104472033Y-49420240D01*
X104462903Y-49485690D01*
X104416319Y-49819639D01*
X104414180Y-49831079D01*
X104326903Y-50202162D01*
X104321855Y-50223624D01*
X104318673Y-50234809D01*
X104274313Y-50367159D01*
X104190516Y-50617174D01*
X104186312Y-50628026D01*
X104023425Y-50996932D01*
X104018237Y-51007350D01*
X103822013Y-51359638D01*
X103815888Y-51369532D01*
X103790141Y-51407117D01*
X103587985Y-51702229D01*
X103580971Y-51711517D01*
X103323344Y-52021766D01*
X103315503Y-52030366D01*
X103030366Y-52315503D01*
X103021766Y-52323344D01*
X102711517Y-52580971D01*
X102702229Y-52587985D01*
X102369533Y-52815887D01*
X102359638Y-52822013D01*
X102007350Y-53018237D01*
X101996932Y-53023425D01*
X101628026Y-53186312D01*
X101617174Y-53190516D01*
X101425996Y-53254593D01*
X101234809Y-53318673D01*
X101223633Y-53321853D01*
X100849384Y-53409875D01*
X100831079Y-53414180D01*
X100819639Y-53416319D01*
X100420240Y-53472033D01*
X100408651Y-53473107D01*
X100043184Y-53490003D01*
X100017985Y-53488638D01*
X100015142Y-53488195D01*
X100015140Y-53488195D01*
X100006270Y-53486814D01*
X99997368Y-53487978D01*
X99997365Y-53487978D01*
X99974749Y-53490936D01*
X99958411Y-53492000D01*
X70049328Y-53492000D01*
X70029943Y-53490500D01*
X70015142Y-53488195D01*
X70015139Y-53488195D01*
X70006270Y-53486814D01*
X69987105Y-53489320D01*
X69986374Y-53489416D01*
X69964216Y-53490346D01*
X69591349Y-53473107D01*
X69579760Y-53472033D01*
X69180361Y-53416319D01*
X69168921Y-53414180D01*
X69150616Y-53409875D01*
X68776367Y-53321853D01*
X68765191Y-53318673D01*
X68574004Y-53254593D01*
X68382826Y-53190516D01*
X68371974Y-53186312D01*
X68048658Y-53043555D01*
X69121798Y-53043555D01*
X69219304Y-53141061D01*
X69225615Y-53142545D01*
X69611145Y-53196325D01*
X69675968Y-53199322D01*
X69831734Y-53043556D01*
X69831733Y-53043555D01*
X70189529Y-53043555D01*
X70360574Y-53214600D01*
X70728421Y-53214600D01*
X70899465Y-53043556D01*
X71257261Y-53043556D01*
X71428305Y-53214600D01*
X71796152Y-53214600D01*
X71967196Y-53043556D01*
X72324992Y-53043556D01*
X72496036Y-53214600D01*
X72863883Y-53214600D01*
X73034928Y-53043555D01*
X73392723Y-53043555D01*
X73563768Y-53214600D01*
X73931615Y-53214600D01*
X74102659Y-53043556D01*
X74102658Y-53043555D01*
X74460454Y-53043555D01*
X74631499Y-53214600D01*
X74999346Y-53214600D01*
X75170390Y-53043556D01*
X75528186Y-53043556D01*
X75699230Y-53214600D01*
X76067077Y-53214600D01*
X76238121Y-53043556D01*
X76595917Y-53043556D01*
X76766961Y-53214600D01*
X77134808Y-53214600D01*
X77305853Y-53043555D01*
X77663648Y-53043555D01*
X77834693Y-53214600D01*
X78202540Y-53214600D01*
X78373584Y-53043556D01*
X78373583Y-53043555D01*
X78731379Y-53043555D01*
X78902424Y-53214600D01*
X79270271Y-53214600D01*
X79441315Y-53043556D01*
X79799111Y-53043556D01*
X79970155Y-53214600D01*
X80338002Y-53214600D01*
X80509046Y-53043556D01*
X80866842Y-53043556D01*
X81037886Y-53214600D01*
X81405733Y-53214600D01*
X81576778Y-53043555D01*
X81934573Y-53043555D01*
X82105618Y-53214600D01*
X82473465Y-53214600D01*
X82644509Y-53043556D01*
X82644508Y-53043555D01*
X83002304Y-53043555D01*
X83173349Y-53214600D01*
X83541196Y-53214600D01*
X83712240Y-53043556D01*
X84070036Y-53043556D01*
X84241080Y-53214600D01*
X84608927Y-53214600D01*
X84779971Y-53043556D01*
X85137767Y-53043556D01*
X85308811Y-53214600D01*
X85676658Y-53214600D01*
X85847702Y-53043556D01*
X86205498Y-53043556D01*
X86376542Y-53214600D01*
X86744390Y-53214600D01*
X86915434Y-53043556D01*
X86915433Y-53043555D01*
X87273229Y-53043555D01*
X87444274Y-53214600D01*
X87812121Y-53214600D01*
X87983165Y-53043556D01*
X87983164Y-53043555D01*
X88340960Y-53043555D01*
X88512005Y-53214600D01*
X88879852Y-53214600D01*
X89050896Y-53043556D01*
X89408692Y-53043556D01*
X89579736Y-53214600D01*
X89947583Y-53214600D01*
X90118627Y-53043556D01*
X90476423Y-53043556D01*
X90647467Y-53214600D01*
X91015314Y-53214600D01*
X91186359Y-53043555D01*
X91544154Y-53043555D01*
X91715199Y-53214600D01*
X92083046Y-53214600D01*
X92254090Y-53043556D01*
X92254089Y-53043555D01*
X92611885Y-53043555D01*
X92782930Y-53214600D01*
X93150777Y-53214600D01*
X93321821Y-53043556D01*
X93679617Y-53043556D01*
X93850661Y-53214600D01*
X94218508Y-53214600D01*
X94389552Y-53043556D01*
X94747348Y-53043556D01*
X94918392Y-53214600D01*
X95286239Y-53214600D01*
X95457284Y-53043555D01*
X95815079Y-53043555D01*
X95986124Y-53214600D01*
X96353971Y-53214600D01*
X96525015Y-53043556D01*
X96525014Y-53043555D01*
X96882810Y-53043555D01*
X97053855Y-53214600D01*
X97421702Y-53214600D01*
X97592746Y-53043556D01*
X97950542Y-53043556D01*
X98121586Y-53214600D01*
X98489433Y-53214600D01*
X98660477Y-53043556D01*
X99018273Y-53043556D01*
X99189317Y-53214600D01*
X99557164Y-53214600D01*
X99728209Y-53043555D01*
X100086004Y-53043555D01*
X100245406Y-53202957D01*
X100388855Y-53196325D01*
X100684398Y-53155098D01*
X100795940Y-53043556D01*
X100795939Y-53043555D01*
X101153735Y-53043555D01*
X101161019Y-53050839D01*
X101522374Y-52929723D01*
X101680167Y-52860052D01*
X101508703Y-52688587D01*
X101153735Y-53043555D01*
X100795939Y-53043555D01*
X100440972Y-52688587D01*
X100086004Y-53043555D01*
X99728209Y-53043555D01*
X99373241Y-52688587D01*
X99018273Y-53043556D01*
X98660477Y-53043556D01*
X98660478Y-53043555D01*
X98305510Y-52688587D01*
X97950542Y-53043556D01*
X97592746Y-53043556D01*
X97237778Y-52688587D01*
X96882810Y-53043555D01*
X96525014Y-53043555D01*
X96170047Y-52688587D01*
X95815079Y-53043555D01*
X95457284Y-53043555D01*
X95102316Y-52688587D01*
X94747348Y-53043556D01*
X94389552Y-53043556D01*
X94389553Y-53043555D01*
X94034585Y-52688587D01*
X93679617Y-53043556D01*
X93321821Y-53043556D01*
X92966853Y-52688587D01*
X92611885Y-53043555D01*
X92254089Y-53043555D01*
X91899122Y-52688587D01*
X91544154Y-53043555D01*
X91186359Y-53043555D01*
X90831391Y-52688587D01*
X90476423Y-53043556D01*
X90118627Y-53043556D01*
X90118628Y-53043555D01*
X89763660Y-52688587D01*
X89408692Y-53043556D01*
X89050896Y-53043556D01*
X88695928Y-52688587D01*
X88340960Y-53043555D01*
X87983164Y-53043555D01*
X87628197Y-52688587D01*
X87273229Y-53043555D01*
X86915433Y-53043555D01*
X86560466Y-52688588D01*
X86205498Y-53043556D01*
X85847702Y-53043556D01*
X85847703Y-53043555D01*
X85492735Y-52688587D01*
X85137767Y-53043556D01*
X84779971Y-53043556D01*
X84779972Y-53043555D01*
X84425004Y-52688587D01*
X84070036Y-53043556D01*
X83712240Y-53043556D01*
X83357272Y-52688587D01*
X83002304Y-53043555D01*
X82644508Y-53043555D01*
X82289541Y-52688587D01*
X81934573Y-53043555D01*
X81576778Y-53043555D01*
X81221810Y-52688587D01*
X80866842Y-53043556D01*
X80509046Y-53043556D01*
X80509047Y-53043555D01*
X80154079Y-52688587D01*
X79799111Y-53043556D01*
X79441315Y-53043556D01*
X79086347Y-52688587D01*
X78731379Y-53043555D01*
X78373583Y-53043555D01*
X78018616Y-52688587D01*
X77663648Y-53043555D01*
X77305853Y-53043555D01*
X76950885Y-52688587D01*
X76595917Y-53043556D01*
X76238121Y-53043556D01*
X76238122Y-53043555D01*
X75883154Y-52688587D01*
X75528186Y-53043556D01*
X75170390Y-53043556D01*
X74815422Y-52688587D01*
X74460454Y-53043555D01*
X74102658Y-53043555D01*
X73747691Y-52688587D01*
X73392723Y-53043555D01*
X73034928Y-53043555D01*
X72679960Y-52688587D01*
X72324992Y-53043556D01*
X71967196Y-53043556D01*
X71967197Y-53043555D01*
X71612229Y-52688587D01*
X71257261Y-53043556D01*
X70899465Y-53043556D01*
X70544497Y-52688587D01*
X70189529Y-53043555D01*
X69831733Y-53043555D01*
X69476766Y-52688587D01*
X69121798Y-53043555D01*
X68048658Y-53043555D01*
X68003068Y-53023425D01*
X67992650Y-53018237D01*
X67663418Y-52834855D01*
X68262767Y-52834855D01*
X68477626Y-52929723D01*
X68737159Y-53016711D01*
X68409035Y-52688587D01*
X68262767Y-52834855D01*
X67663418Y-52834855D01*
X67640362Y-52822013D01*
X67630467Y-52815887D01*
X67297771Y-52587985D01*
X67288483Y-52580971D01*
X67127185Y-52447031D01*
X67582859Y-52447031D01*
X67781464Y-52583079D01*
X68022495Y-52717332D01*
X68230137Y-52509690D01*
X68587933Y-52509690D01*
X68942900Y-52864657D01*
X69297868Y-52509690D01*
X69655664Y-52509690D01*
X70010631Y-52864657D01*
X70365600Y-52509689D01*
X70723395Y-52509689D01*
X71078364Y-52864657D01*
X71433331Y-52509690D01*
X71433330Y-52509689D01*
X71791126Y-52509689D01*
X72146095Y-52864657D01*
X72501062Y-52509690D01*
X72858858Y-52509690D01*
X73213825Y-52864657D01*
X73568793Y-52509690D01*
X73926589Y-52509690D01*
X74281556Y-52864657D01*
X74636524Y-52509690D01*
X74994320Y-52509690D01*
X75349288Y-52864658D01*
X75704256Y-52509690D01*
X75704255Y-52509689D01*
X76062051Y-52509689D01*
X76417020Y-52864657D01*
X76771987Y-52509690D01*
X76771986Y-52509689D01*
X77129782Y-52509689D01*
X77484751Y-52864657D01*
X77839718Y-52509690D01*
X78197514Y-52509690D01*
X78552481Y-52864657D01*
X78907449Y-52509690D01*
X79265245Y-52509690D01*
X79620212Y-52864657D01*
X79975181Y-52509689D01*
X80332976Y-52509689D01*
X80687945Y-52864657D01*
X81042912Y-52509690D01*
X81042911Y-52509689D01*
X81400707Y-52509689D01*
X81755676Y-52864657D01*
X82110643Y-52509690D01*
X82468439Y-52509690D01*
X82823406Y-52864657D01*
X83178374Y-52509690D01*
X83536170Y-52509690D01*
X83891137Y-52864657D01*
X84246106Y-52509689D01*
X84603901Y-52509689D01*
X84958870Y-52864657D01*
X85313837Y-52509690D01*
X85313836Y-52509689D01*
X85671632Y-52509689D01*
X86026601Y-52864657D01*
X86381568Y-52509690D01*
X86739364Y-52509690D01*
X87094331Y-52864657D01*
X87449299Y-52509690D01*
X87807095Y-52509690D01*
X88162062Y-52864657D01*
X88517031Y-52509689D01*
X88874826Y-52509689D01*
X89229795Y-52864657D01*
X89584762Y-52509690D01*
X89584761Y-52509689D01*
X89942557Y-52509689D01*
X90297526Y-52864657D01*
X90652493Y-52509690D01*
X91010289Y-52509690D01*
X91365256Y-52864657D01*
X91720224Y-52509690D01*
X92078020Y-52509690D01*
X92432987Y-52864657D01*
X92787956Y-52509689D01*
X93145751Y-52509689D01*
X93500720Y-52864657D01*
X93855687Y-52509690D01*
X93855686Y-52509689D01*
X94213482Y-52509689D01*
X94568451Y-52864657D01*
X94923418Y-52509690D01*
X95281214Y-52509690D01*
X95636181Y-52864657D01*
X95991149Y-52509690D01*
X96348945Y-52509690D01*
X96703912Y-52864657D01*
X97058881Y-52509689D01*
X97416676Y-52509689D01*
X97771645Y-52864657D01*
X98126612Y-52509690D01*
X98126611Y-52509689D01*
X98484407Y-52509689D01*
X98839376Y-52864657D01*
X99194343Y-52509690D01*
X99552139Y-52509690D01*
X99907106Y-52864657D01*
X100262074Y-52509690D01*
X100619870Y-52509690D01*
X100974837Y-52864657D01*
X101329805Y-52509690D01*
X101687601Y-52509690D01*
X101924672Y-52746761D01*
X102218536Y-52583079D01*
X102368321Y-52480473D01*
X102042569Y-52154721D01*
X101687601Y-52509690D01*
X101329805Y-52509690D01*
X101329806Y-52509689D01*
X100974838Y-52154721D01*
X100619870Y-52509690D01*
X100262074Y-52509690D01*
X100262075Y-52509689D01*
X99907107Y-52154721D01*
X99552139Y-52509690D01*
X99194343Y-52509690D01*
X98839375Y-52154721D01*
X98484407Y-52509689D01*
X98126611Y-52509689D01*
X97771644Y-52154721D01*
X97416676Y-52509689D01*
X97058881Y-52509689D01*
X96703913Y-52154721D01*
X96348945Y-52509690D01*
X95991149Y-52509690D01*
X95991150Y-52509689D01*
X95636182Y-52154721D01*
X95281214Y-52509690D01*
X94923418Y-52509690D01*
X94568450Y-52154721D01*
X94213482Y-52509689D01*
X93855686Y-52509689D01*
X93500719Y-52154721D01*
X93145751Y-52509689D01*
X92787956Y-52509689D01*
X92432988Y-52154721D01*
X92078020Y-52509690D01*
X91720224Y-52509690D01*
X91720225Y-52509689D01*
X91365257Y-52154721D01*
X91010289Y-52509690D01*
X90652493Y-52509690D01*
X90297525Y-52154721D01*
X89942557Y-52509689D01*
X89584761Y-52509689D01*
X89229794Y-52154721D01*
X88874826Y-52509689D01*
X88517031Y-52509689D01*
X88162063Y-52154721D01*
X87807095Y-52509690D01*
X87449299Y-52509690D01*
X87449300Y-52509689D01*
X87094332Y-52154721D01*
X86739364Y-52509690D01*
X86381568Y-52509690D01*
X86026600Y-52154721D01*
X85671632Y-52509689D01*
X85313836Y-52509689D01*
X84958869Y-52154721D01*
X84603901Y-52509689D01*
X84246106Y-52509689D01*
X83891138Y-52154721D01*
X83536170Y-52509690D01*
X83178374Y-52509690D01*
X83178375Y-52509689D01*
X82823407Y-52154721D01*
X82468439Y-52509690D01*
X82110643Y-52509690D01*
X81755675Y-52154721D01*
X81400707Y-52509689D01*
X81042911Y-52509689D01*
X80687944Y-52154721D01*
X80332976Y-52509689D01*
X79975181Y-52509689D01*
X79620213Y-52154721D01*
X79265245Y-52509690D01*
X78907449Y-52509690D01*
X78907450Y-52509689D01*
X78552482Y-52154721D01*
X78197514Y-52509690D01*
X77839718Y-52509690D01*
X77484750Y-52154721D01*
X77129782Y-52509689D01*
X76771986Y-52509689D01*
X76417019Y-52154721D01*
X76062051Y-52509689D01*
X75704255Y-52509689D01*
X75349288Y-52154722D01*
X74994320Y-52509690D01*
X74636524Y-52509690D01*
X74636525Y-52509689D01*
X74281557Y-52154721D01*
X73926589Y-52509690D01*
X73568793Y-52509690D01*
X73568794Y-52509689D01*
X73213826Y-52154721D01*
X72858858Y-52509690D01*
X72501062Y-52509690D01*
X72146094Y-52154721D01*
X71791126Y-52509689D01*
X71433330Y-52509689D01*
X71078363Y-52154721D01*
X70723395Y-52509689D01*
X70365600Y-52509689D01*
X70010632Y-52154721D01*
X69655664Y-52509690D01*
X69297868Y-52509690D01*
X69297869Y-52509689D01*
X68942901Y-52154721D01*
X68587933Y-52509690D01*
X68230137Y-52509690D01*
X67875169Y-52154721D01*
X67582859Y-52447031D01*
X67127185Y-52447031D01*
X66978234Y-52323344D01*
X66969634Y-52315503D01*
X66684497Y-52030366D01*
X66676656Y-52021766D01*
X66623592Y-51957863D01*
X67004296Y-51957863D01*
X67160834Y-52114401D01*
X67377652Y-52294444D01*
X67696272Y-51975824D01*
X67696271Y-51975823D01*
X68054067Y-51975823D01*
X68409035Y-52330792D01*
X68764003Y-51975824D01*
X69121798Y-51975824D01*
X69476766Y-52330792D01*
X69831733Y-51975824D01*
X70189529Y-51975824D01*
X70544497Y-52330792D01*
X70899465Y-51975823D01*
X71257261Y-51975823D01*
X71612229Y-52330792D01*
X71967197Y-51975824D01*
X71967196Y-51975823D01*
X72324992Y-51975823D01*
X72679960Y-52330792D01*
X73034928Y-51975824D01*
X73392723Y-51975824D01*
X73747691Y-52330792D01*
X74102658Y-51975824D01*
X74460454Y-51975824D01*
X74815422Y-52330792D01*
X75170390Y-51975823D01*
X75528186Y-51975823D01*
X75883154Y-52330792D01*
X76238122Y-51975824D01*
X76238121Y-51975823D01*
X76595917Y-51975823D01*
X76950885Y-52330792D01*
X77305853Y-51975824D01*
X77663648Y-51975824D01*
X78018616Y-52330792D01*
X78373583Y-51975824D01*
X78731379Y-51975824D01*
X79086347Y-52330792D01*
X79441315Y-51975823D01*
X79799111Y-51975823D01*
X80154079Y-52330792D01*
X80509047Y-51975824D01*
X80509046Y-51975823D01*
X80866842Y-51975823D01*
X81221810Y-52330792D01*
X81576778Y-51975824D01*
X81934573Y-51975824D01*
X82289541Y-52330792D01*
X82644508Y-51975824D01*
X83002304Y-51975824D01*
X83357272Y-52330792D01*
X83712240Y-51975823D01*
X84070036Y-51975823D01*
X84425004Y-52330792D01*
X84779972Y-51975824D01*
X84779971Y-51975823D01*
X85137767Y-51975823D01*
X85492735Y-52330792D01*
X85847703Y-51975824D01*
X85847702Y-51975823D01*
X86205498Y-51975823D01*
X86560466Y-52330791D01*
X86915433Y-51975824D01*
X87273229Y-51975824D01*
X87628197Y-52330792D01*
X87983164Y-51975824D01*
X88340960Y-51975824D01*
X88695928Y-52330792D01*
X89050896Y-51975823D01*
X89408692Y-51975823D01*
X89763660Y-52330792D01*
X90118628Y-51975824D01*
X90118627Y-51975823D01*
X90476423Y-51975823D01*
X90831391Y-52330792D01*
X91186359Y-51975824D01*
X91544154Y-51975824D01*
X91899122Y-52330792D01*
X92254089Y-51975824D01*
X92611885Y-51975824D01*
X92966853Y-52330792D01*
X93321821Y-51975823D01*
X93679617Y-51975823D01*
X94034585Y-52330792D01*
X94389553Y-51975824D01*
X94389552Y-51975823D01*
X94747348Y-51975823D01*
X95102316Y-52330792D01*
X95457284Y-51975824D01*
X95815079Y-51975824D01*
X96170047Y-52330792D01*
X96525014Y-51975824D01*
X96882810Y-51975824D01*
X97237778Y-52330792D01*
X97592746Y-51975823D01*
X97950542Y-51975823D01*
X98305510Y-52330792D01*
X98660478Y-51975824D01*
X98660477Y-51975823D01*
X99018273Y-51975823D01*
X99373241Y-52330792D01*
X99728209Y-51975824D01*
X100086004Y-51975824D01*
X100440972Y-52330792D01*
X100795939Y-51975824D01*
X101153735Y-51975824D01*
X101508703Y-52330792D01*
X101863671Y-51975823D01*
X102221467Y-51975823D01*
X102576435Y-52330792D01*
X102931403Y-51975824D01*
X102576434Y-51620856D01*
X102221467Y-51975823D01*
X101863671Y-51975823D01*
X101508704Y-51620856D01*
X101153735Y-51975824D01*
X100795939Y-51975824D01*
X100795940Y-51975823D01*
X100440973Y-51620856D01*
X100086004Y-51975824D01*
X99728209Y-51975824D01*
X99373240Y-51620856D01*
X99018273Y-51975823D01*
X98660477Y-51975823D01*
X98305509Y-51620856D01*
X97950542Y-51975823D01*
X97592746Y-51975823D01*
X97237779Y-51620856D01*
X96882810Y-51975824D01*
X96525014Y-51975824D01*
X96525015Y-51975823D01*
X96170048Y-51620856D01*
X95815079Y-51975824D01*
X95457284Y-51975824D01*
X95102315Y-51620856D01*
X94747348Y-51975823D01*
X94389552Y-51975823D01*
X94034584Y-51620856D01*
X93679617Y-51975823D01*
X93321821Y-51975823D01*
X92966854Y-51620856D01*
X92611885Y-51975824D01*
X92254089Y-51975824D01*
X92254090Y-51975823D01*
X91899123Y-51620856D01*
X91544154Y-51975824D01*
X91186359Y-51975824D01*
X90831390Y-51620856D01*
X90476423Y-51975823D01*
X90118627Y-51975823D01*
X89763659Y-51620856D01*
X89408692Y-51975823D01*
X89050896Y-51975823D01*
X88695929Y-51620856D01*
X88340960Y-51975824D01*
X87983164Y-51975824D01*
X87983165Y-51975823D01*
X87686503Y-51679161D01*
X87597703Y-51690537D01*
X87592577Y-51691087D01*
X87590501Y-51691267D01*
X87585329Y-51691608D01*
X87564702Y-51692544D01*
X87559535Y-51692673D01*
X87557453Y-51692682D01*
X87556388Y-51692665D01*
X87273229Y-51975824D01*
X86915433Y-51975824D01*
X86915434Y-51975823D01*
X86560466Y-51620855D01*
X86205498Y-51975823D01*
X85847702Y-51975823D01*
X85492734Y-51620856D01*
X85137767Y-51975823D01*
X84779971Y-51975823D01*
X84490740Y-51686593D01*
X84848537Y-51686593D01*
X84958870Y-51796926D01*
X85066369Y-51689427D01*
X85057703Y-51690537D01*
X85052577Y-51691087D01*
X85050501Y-51691267D01*
X85045329Y-51691608D01*
X85024702Y-51692544D01*
X85019535Y-51692673D01*
X85017453Y-51692682D01*
X85012291Y-51692598D01*
X84848537Y-51686593D01*
X84490740Y-51686593D01*
X84425003Y-51620856D01*
X84070036Y-51975823D01*
X83712240Y-51975823D01*
X83357273Y-51620856D01*
X83002304Y-51975824D01*
X82644508Y-51975824D01*
X82644509Y-51975823D01*
X82357059Y-51688373D01*
X82246815Y-51684330D01*
X82241635Y-51684033D01*
X82239558Y-51683871D01*
X82234437Y-51683367D01*
X82227819Y-51682578D01*
X81934573Y-51975824D01*
X81576778Y-51975824D01*
X81221809Y-51620856D01*
X80866842Y-51975823D01*
X80509046Y-51975823D01*
X80154078Y-51620856D01*
X79799111Y-51975823D01*
X79441315Y-51975823D01*
X79086348Y-51620856D01*
X78731379Y-51975824D01*
X78373583Y-51975824D01*
X78373584Y-51975823D01*
X78018617Y-51620856D01*
X77663648Y-51975824D01*
X77305853Y-51975824D01*
X76950884Y-51620856D01*
X76595917Y-51975823D01*
X76238121Y-51975823D01*
X75883153Y-51620856D01*
X75528186Y-51975823D01*
X75170390Y-51975823D01*
X74815423Y-51620856D01*
X74460454Y-51975824D01*
X74102658Y-51975824D01*
X74102659Y-51975823D01*
X73747692Y-51620856D01*
X73392723Y-51975824D01*
X73034928Y-51975824D01*
X72679959Y-51620856D01*
X72324992Y-51975823D01*
X71967196Y-51975823D01*
X71612228Y-51620856D01*
X71257261Y-51975823D01*
X70899465Y-51975823D01*
X70544498Y-51620856D01*
X70189529Y-51975824D01*
X69831733Y-51975824D01*
X69831734Y-51975823D01*
X69476767Y-51620856D01*
X69121798Y-51975824D01*
X68764003Y-51975824D01*
X68409034Y-51620856D01*
X68054067Y-51975823D01*
X67696271Y-51975823D01*
X67341303Y-51620856D01*
X67004296Y-51957863D01*
X66623592Y-51957863D01*
X66419029Y-51711517D01*
X66412015Y-51702229D01*
X66209859Y-51407117D01*
X66185958Y-51372227D01*
X66522201Y-51372227D01*
X66636912Y-51539683D01*
X66830977Y-51773388D01*
X67162406Y-51441959D01*
X67162405Y-51441958D01*
X67520201Y-51441958D01*
X67875170Y-51796926D01*
X68230137Y-51441959D01*
X68587933Y-51441959D01*
X68942900Y-51796926D01*
X69297868Y-51441959D01*
X69655664Y-51441959D01*
X70010631Y-51796926D01*
X70365600Y-51441958D01*
X70723395Y-51441958D01*
X71078364Y-51796926D01*
X71433331Y-51441959D01*
X71433330Y-51441958D01*
X71791126Y-51441958D01*
X72146095Y-51796926D01*
X72501062Y-51441959D01*
X72858858Y-51441959D01*
X73213825Y-51796926D01*
X73568793Y-51441959D01*
X73926589Y-51441959D01*
X74281556Y-51796926D01*
X74636524Y-51441959D01*
X74994320Y-51441959D01*
X75349288Y-51796927D01*
X75704256Y-51441959D01*
X75704255Y-51441958D01*
X76062051Y-51441958D01*
X76417020Y-51796926D01*
X76771987Y-51441959D01*
X76771986Y-51441958D01*
X77129782Y-51441958D01*
X77484751Y-51796926D01*
X77839718Y-51441959D01*
X78197514Y-51441959D01*
X78552481Y-51796926D01*
X78907450Y-51441958D01*
X79265244Y-51441958D01*
X79620212Y-51796926D01*
X79975181Y-51441958D01*
X80332976Y-51441958D01*
X80687945Y-51796926D01*
X81042913Y-51441958D01*
X81400707Y-51441958D01*
X81755676Y-51796926D01*
X81884698Y-51667904D01*
X82694384Y-51667904D01*
X82823406Y-51796926D01*
X83054084Y-51566248D01*
X83044401Y-51570992D01*
X83039704Y-51573175D01*
X83037799Y-51574013D01*
X83033043Y-51575990D01*
X83013818Y-51583525D01*
X83009005Y-51585299D01*
X83007035Y-51585980D01*
X83002076Y-51587581D01*
X82785966Y-51652417D01*
X82780973Y-51653804D01*
X82778955Y-51654320D01*
X82773938Y-51655494D01*
X82753741Y-51659787D01*
X82748650Y-51660760D01*
X82746596Y-51661109D01*
X82741500Y-51661868D01*
X82694384Y-51667904D01*
X81884698Y-51667904D01*
X81932868Y-51619734D01*
X81726144Y-51540794D01*
X81721372Y-51538859D01*
X81719458Y-51538037D01*
X81714737Y-51535893D01*
X81696115Y-51526971D01*
X81691467Y-51524625D01*
X81689627Y-51523648D01*
X81685146Y-51521151D01*
X81549626Y-51441959D01*
X83536170Y-51441959D01*
X83891137Y-51796926D01*
X84188183Y-51499881D01*
X85729556Y-51499881D01*
X86026601Y-51796926D01*
X86262931Y-51560596D01*
X86858001Y-51560596D01*
X87094331Y-51796926D01*
X87224037Y-51667220D01*
X87060578Y-51633964D01*
X87055567Y-51632838D01*
X87053545Y-51632340D01*
X87048527Y-51630994D01*
X87028699Y-51625234D01*
X87023750Y-51623685D01*
X87021775Y-51623022D01*
X87016925Y-51621283D01*
X87006845Y-51617434D01*
X87982570Y-51617434D01*
X88162062Y-51796926D01*
X88517031Y-51441958D01*
X88874826Y-51441958D01*
X89229795Y-51796926D01*
X89584762Y-51441959D01*
X89584761Y-51441958D01*
X89942557Y-51441958D01*
X90297526Y-51796926D01*
X90652493Y-51441959D01*
X91010289Y-51441959D01*
X91365256Y-51796926D01*
X91720224Y-51441959D01*
X92078020Y-51441959D01*
X92432987Y-51796926D01*
X92787956Y-51441958D01*
X93145751Y-51441958D01*
X93500720Y-51796926D01*
X93855687Y-51441959D01*
X93855686Y-51441958D01*
X94213482Y-51441958D01*
X94568451Y-51796926D01*
X94923418Y-51441959D01*
X95281214Y-51441959D01*
X95636181Y-51796926D01*
X95991149Y-51441959D01*
X96348945Y-51441959D01*
X96703912Y-51796926D01*
X97058881Y-51441958D01*
X97416676Y-51441958D01*
X97771645Y-51796926D01*
X98126612Y-51441959D01*
X98126611Y-51441958D01*
X98484407Y-51441958D01*
X98839376Y-51796926D01*
X99194343Y-51441959D01*
X99194342Y-51441958D01*
X99552138Y-51441958D01*
X99907106Y-51796926D01*
X100262075Y-51441958D01*
X100619869Y-51441958D01*
X100974837Y-51796926D01*
X101329805Y-51441959D01*
X101687601Y-51441959D01*
X102042568Y-51796926D01*
X102397537Y-51441958D01*
X102755332Y-51441958D01*
X103110301Y-51796926D01*
X103341273Y-51565954D01*
X103363088Y-51539683D01*
X103444356Y-51421046D01*
X103110300Y-51086990D01*
X102755332Y-51441958D01*
X102397537Y-51441958D01*
X102042569Y-51086990D01*
X101687601Y-51441959D01*
X101329805Y-51441959D01*
X101329806Y-51441958D01*
X101037401Y-51149553D01*
X100966573Y-51186110D01*
X100962728Y-51188012D01*
X100961166Y-51188752D01*
X100957262Y-51190521D01*
X100941532Y-51197328D01*
X100937556Y-51198968D01*
X100935947Y-51199600D01*
X100931941Y-51201096D01*
X100821689Y-51240138D01*
X100619869Y-51441958D01*
X100262075Y-51441958D01*
X100198083Y-51377966D01*
X100091139Y-51385257D01*
X100088985Y-51385386D01*
X100088122Y-51385430D01*
X100085997Y-51385520D01*
X100077427Y-51385812D01*
X100075321Y-51385866D01*
X100074456Y-51385881D01*
X100072271Y-51385900D01*
X99916739Y-51385900D01*
X99914209Y-51385875D01*
X99913213Y-51385855D01*
X99910802Y-51385783D01*
X99900916Y-51385395D01*
X99898539Y-51385279D01*
X99897542Y-51385221D01*
X99894974Y-51385046D01*
X99669499Y-51367301D01*
X99665175Y-51366885D01*
X99663457Y-51366690D01*
X99659259Y-51366142D01*
X99642303Y-51363638D01*
X99638107Y-51362946D01*
X99636407Y-51362636D01*
X99632285Y-51361811D01*
X99552138Y-51441958D01*
X99194342Y-51441958D01*
X98839375Y-51086990D01*
X98484407Y-51441958D01*
X98126611Y-51441958D01*
X97771644Y-51086990D01*
X97416676Y-51441958D01*
X97058881Y-51441958D01*
X96703913Y-51086990D01*
X96348945Y-51441959D01*
X95991149Y-51441959D01*
X95991150Y-51441958D01*
X95636182Y-51086990D01*
X95281214Y-51441959D01*
X94923418Y-51441959D01*
X94568450Y-51086990D01*
X94213482Y-51441958D01*
X93855686Y-51441958D01*
X93500719Y-51086990D01*
X93145751Y-51441958D01*
X92787956Y-51441958D01*
X92432988Y-51086990D01*
X92078020Y-51441959D01*
X91720224Y-51441959D01*
X91720225Y-51441958D01*
X91365257Y-51086990D01*
X91010289Y-51441959D01*
X90652493Y-51441959D01*
X90297525Y-51086990D01*
X89942557Y-51441958D01*
X89584761Y-51441958D01*
X89229794Y-51086990D01*
X88874826Y-51441958D01*
X88517031Y-51441958D01*
X88457972Y-51382899D01*
X88366070Y-51448452D01*
X88361841Y-51451341D01*
X88360097Y-51452481D01*
X88355673Y-51455244D01*
X88337936Y-51465817D01*
X88333416Y-51468386D01*
X88331584Y-51469378D01*
X88327020Y-51471730D01*
X88124401Y-51570992D01*
X88119704Y-51573175D01*
X88117799Y-51574013D01*
X88113043Y-51575990D01*
X88093818Y-51583525D01*
X88089005Y-51585299D01*
X88087035Y-51585980D01*
X88082076Y-51587581D01*
X87982570Y-51617434D01*
X87006845Y-51617434D01*
X86858001Y-51560596D01*
X86262931Y-51560596D01*
X86381568Y-51441959D01*
X86136248Y-51196638D01*
X86044476Y-51288090D01*
X86040740Y-51291663D01*
X86039205Y-51293072D01*
X86035327Y-51296488D01*
X86019556Y-51309815D01*
X86015524Y-51313082D01*
X86013880Y-51314359D01*
X86009755Y-51317430D01*
X85826070Y-51448452D01*
X85821841Y-51451341D01*
X85820097Y-51452481D01*
X85815673Y-51455244D01*
X85797936Y-51465817D01*
X85793416Y-51468386D01*
X85791584Y-51469378D01*
X85787020Y-51471730D01*
X85729556Y-51499881D01*
X84188183Y-51499881D01*
X84188391Y-51499673D01*
X84030342Y-51407316D01*
X84025930Y-51404615D01*
X84024176Y-51403491D01*
X84019886Y-51400615D01*
X84002972Y-51388771D01*
X83998834Y-51385747D01*
X83997178Y-51384484D01*
X83993104Y-51381241D01*
X83819507Y-51237118D01*
X83815582Y-51233721D01*
X83814036Y-51232326D01*
X83810289Y-51228803D01*
X83795537Y-51214357D01*
X83791920Y-51210666D01*
X83790492Y-51209148D01*
X83787028Y-51205312D01*
X83780432Y-51197697D01*
X83536170Y-51441959D01*
X81549626Y-51441959D01*
X81490342Y-51407316D01*
X81485930Y-51404615D01*
X81484176Y-51403491D01*
X81479886Y-51400615D01*
X81462972Y-51388771D01*
X81458834Y-51385747D01*
X81457747Y-51384918D01*
X81400707Y-51441958D01*
X81042913Y-51441958D01*
X80985187Y-51384232D01*
X80962239Y-51390124D01*
X80954537Y-51391846D01*
X80951405Y-51392444D01*
X80943565Y-51393687D01*
X80935283Y-51394733D01*
X80927281Y-51397058D01*
X80919628Y-51399023D01*
X80916516Y-51399719D01*
X80908728Y-51401205D01*
X80877535Y-51406146D01*
X80869671Y-51407140D01*
X80866495Y-51407440D01*
X80858603Y-51407936D01*
X80820939Y-51409120D01*
X80820736Y-51409142D01*
X80819145Y-51409293D01*
X80815148Y-51409609D01*
X80799358Y-51410602D01*
X80795400Y-51410788D01*
X80793806Y-51410838D01*
X80789856Y-51410900D01*
X80764316Y-51410900D01*
X80698625Y-51412965D01*
X80690717Y-51412965D01*
X80687528Y-51412865D01*
X80679617Y-51412368D01*
X80664090Y-51410900D01*
X80364034Y-51410900D01*
X80332976Y-51441958D01*
X79975181Y-51441958D01*
X79856213Y-51322990D01*
X79848808Y-51318919D01*
X79814788Y-51304197D01*
X79807628Y-51300828D01*
X79804786Y-51299380D01*
X79797848Y-51295566D01*
X79770663Y-51279489D01*
X79763974Y-51275243D01*
X79761336Y-51273450D01*
X79754940Y-51268804D01*
X79748345Y-51263689D01*
X79741039Y-51259672D01*
X79734229Y-51255645D01*
X79731536Y-51253936D01*
X79724989Y-51249487D01*
X79699436Y-51230922D01*
X79693191Y-51226078D01*
X79690733Y-51224045D01*
X79684784Y-51218802D01*
X79657293Y-51192986D01*
X79657142Y-51192865D01*
X79655911Y-51191847D01*
X79652882Y-51189260D01*
X79641010Y-51178793D01*
X79638132Y-51176176D01*
X79636969Y-51175085D01*
X79634079Y-51172285D01*
X79616035Y-51154241D01*
X79583507Y-51123695D01*
X79265244Y-51441958D01*
X78907450Y-51441958D01*
X78552482Y-51086990D01*
X78197514Y-51441959D01*
X77839718Y-51441959D01*
X77484750Y-51086990D01*
X77129782Y-51441958D01*
X76771986Y-51441958D01*
X76417019Y-51086990D01*
X76062051Y-51441958D01*
X75704255Y-51441958D01*
X75349288Y-51086991D01*
X74994320Y-51441959D01*
X74636524Y-51441959D01*
X74636525Y-51441958D01*
X74281557Y-51086990D01*
X73926589Y-51441959D01*
X73568793Y-51441959D01*
X73568794Y-51441958D01*
X73213826Y-51086990D01*
X72858858Y-51441959D01*
X72501062Y-51441959D01*
X72146094Y-51086990D01*
X71791126Y-51441958D01*
X71433330Y-51441958D01*
X71105682Y-51114310D01*
X70992759Y-51172594D01*
X70723395Y-51441958D01*
X70365600Y-51441958D01*
X70295001Y-51371359D01*
X70091139Y-51385257D01*
X70088985Y-51385386D01*
X70088122Y-51385430D01*
X70085997Y-51385520D01*
X70077427Y-51385812D01*
X70075321Y-51385866D01*
X70074456Y-51385881D01*
X70072271Y-51385900D01*
X69916739Y-51385900D01*
X69914209Y-51385875D01*
X69913213Y-51385855D01*
X69910802Y-51385783D01*
X69900916Y-51385395D01*
X69898539Y-51385279D01*
X69897542Y-51385221D01*
X69894974Y-51385046D01*
X69725884Y-51371739D01*
X69655664Y-51441959D01*
X69297868Y-51441959D01*
X69297869Y-51441958D01*
X69048320Y-51192409D01*
X69045062Y-51191217D01*
X69041077Y-51189682D01*
X69039474Y-51189033D01*
X69035506Y-51187347D01*
X69019848Y-51180375D01*
X69015952Y-51178560D01*
X69014399Y-51177804D01*
X69010589Y-51175868D01*
X68908224Y-51121668D01*
X68587933Y-51441959D01*
X68230137Y-51441959D01*
X67875169Y-51086990D01*
X67520201Y-51441958D01*
X67162405Y-51441958D01*
X66807438Y-51086990D01*
X66522201Y-51372227D01*
X66185958Y-51372227D01*
X66184112Y-51369532D01*
X66177987Y-51359638D01*
X65981763Y-51007350D01*
X65976575Y-50996932D01*
X65838726Y-50684732D01*
X66141964Y-50684732D01*
X66227515Y-50878488D01*
X66381568Y-51155065D01*
X66628540Y-50908092D01*
X66986336Y-50908092D01*
X67341304Y-51263061D01*
X67696272Y-50908093D01*
X67696271Y-50908092D01*
X68054067Y-50908092D01*
X68409035Y-51263061D01*
X68681498Y-50990598D01*
X68490977Y-50853694D01*
X68487556Y-50851148D01*
X68486188Y-50850093D01*
X68482823Y-50847404D01*
X68469616Y-50836479D01*
X68466349Y-50833682D01*
X68465055Y-50832535D01*
X68461901Y-50829642D01*
X68292896Y-50669263D01*
X68054067Y-50908092D01*
X67696271Y-50908092D01*
X67341303Y-50553125D01*
X66986336Y-50908092D01*
X66628540Y-50908092D01*
X66273572Y-50553124D01*
X66141964Y-50684732D01*
X65838726Y-50684732D01*
X65813688Y-50628026D01*
X65809484Y-50617174D01*
X65728056Y-50374227D01*
X66452471Y-50374227D01*
X66807439Y-50729195D01*
X67162407Y-50374227D01*
X67520202Y-50374227D01*
X67875170Y-50729195D01*
X68126662Y-50477703D01*
X68048070Y-50379604D01*
X68045438Y-50376201D01*
X68044404Y-50374816D01*
X68041904Y-50371346D01*
X68032122Y-50357271D01*
X68029751Y-50353734D01*
X68028813Y-50352282D01*
X68026534Y-50348617D01*
X67878896Y-50101932D01*
X67876758Y-50098219D01*
X67875921Y-50096706D01*
X67873908Y-50092916D01*
X67866127Y-50077645D01*
X67864221Y-50073738D01*
X67863490Y-50072172D01*
X67861766Y-50068311D01*
X67851107Y-50043321D01*
X67520202Y-50374227D01*
X67162407Y-50374227D01*
X66807439Y-50019259D01*
X66452471Y-50374227D01*
X65728056Y-50374227D01*
X65725687Y-50367159D01*
X65681327Y-50234809D01*
X65678145Y-50223624D01*
X65673098Y-50202162D01*
X65588003Y-49840361D01*
X65918604Y-49840361D01*
X66273573Y-50195329D01*
X66628540Y-49840362D01*
X66986336Y-49840362D01*
X67341303Y-50195329D01*
X67696272Y-49840361D01*
X67341304Y-49485393D01*
X66986336Y-49840362D01*
X66628540Y-49840362D01*
X66273572Y-49485393D01*
X65918604Y-49840361D01*
X65588003Y-49840361D01*
X65585820Y-49831079D01*
X65583681Y-49819639D01*
X65537097Y-49485690D01*
X65527967Y-49420240D01*
X65526893Y-49408651D01*
X65520889Y-49278777D01*
X65508269Y-49005818D01*
X65508269Y-49000000D01*
X65785697Y-49000000D01*
X65803675Y-49388855D01*
X65829217Y-49571954D01*
X66094675Y-49306496D01*
X66452470Y-49306496D01*
X66807438Y-49661464D01*
X67162405Y-49306496D01*
X67520201Y-49306496D01*
X67651057Y-49437352D01*
X67620610Y-49206087D01*
X67520201Y-49306496D01*
X67162405Y-49306496D01*
X67162406Y-49306495D01*
X66988614Y-49132703D01*
X67890743Y-49132703D01*
X67891302Y-49136947D01*
X67891302Y-49136951D01*
X67899596Y-49199951D01*
X67928268Y-49417734D01*
X68004129Y-49695036D01*
X68005813Y-49698984D01*
X68078511Y-49869420D01*
X68116923Y-49959476D01*
X68163108Y-50036646D01*
X68262168Y-50202162D01*
X68264561Y-50206161D01*
X68444313Y-50430528D01*
X68513288Y-50495983D01*
X68585146Y-50564173D01*
X68652851Y-50628423D01*
X68817612Y-50746816D01*
X68880350Y-50791898D01*
X68886317Y-50796186D01*
X68890112Y-50798195D01*
X68890113Y-50798196D01*
X68911869Y-50809715D01*
X69140392Y-50930712D01*
X69256857Y-50973332D01*
X69403643Y-51027048D01*
X69410373Y-51029511D01*
X69691264Y-51090755D01*
X69719841Y-51093004D01*
X69914282Y-51108307D01*
X69914291Y-51108307D01*
X69916739Y-51108500D01*
X70072271Y-51108500D01*
X70074407Y-51108354D01*
X70074418Y-51108354D01*
X70282548Y-51094165D01*
X70282554Y-51094164D01*
X70286825Y-51093873D01*
X70291020Y-51093004D01*
X70291022Y-51093004D01*
X70475068Y-51054890D01*
X70568342Y-51035574D01*
X70721795Y-50981233D01*
X71330402Y-50981233D01*
X71612229Y-51263061D01*
X71967197Y-50908093D01*
X71967196Y-50908092D01*
X72324992Y-50908092D01*
X72679960Y-51263061D01*
X73034928Y-50908093D01*
X73392723Y-50908093D01*
X73747691Y-51263061D01*
X74102658Y-50908093D01*
X74460454Y-50908093D01*
X74815422Y-51263061D01*
X75170390Y-50908092D01*
X75528186Y-50908092D01*
X75883154Y-51263061D01*
X76238122Y-50908093D01*
X76238121Y-50908092D01*
X76595917Y-50908092D01*
X76950885Y-51263061D01*
X77305853Y-50908093D01*
X77663648Y-50908093D01*
X78018616Y-51263061D01*
X78373583Y-50908093D01*
X78731379Y-50908093D01*
X79086347Y-51263061D01*
X79405601Y-50943807D01*
X79386288Y-50924494D01*
X79357705Y-50900848D01*
X79351754Y-50895600D01*
X79349429Y-50893416D01*
X79343844Y-50887830D01*
X79322224Y-50864806D01*
X79316999Y-50858880D01*
X79314966Y-50856423D01*
X79310107Y-50850159D01*
X79305202Y-50843408D01*
X79299307Y-50837513D01*
X79293874Y-50831727D01*
X79291765Y-50829334D01*
X79286735Y-50823254D01*
X79267377Y-50798299D01*
X79262727Y-50791898D01*
X79260934Y-50789260D01*
X79256688Y-50782571D01*
X79237814Y-50750656D01*
X79216026Y-50720668D01*
X79211583Y-50714131D01*
X79209873Y-50711437D01*
X79205835Y-50704611D01*
X79190620Y-50676933D01*
X79187013Y-50669849D01*
X79185656Y-50666963D01*
X79182526Y-50659728D01*
X79179460Y-50651983D01*
X79175215Y-50644806D01*
X79171779Y-50638556D01*
X79086348Y-50553125D01*
X78731379Y-50908093D01*
X78373583Y-50908093D01*
X78373584Y-50908092D01*
X78018617Y-50553125D01*
X77663648Y-50908093D01*
X77305853Y-50908093D01*
X76950884Y-50553125D01*
X76595917Y-50908092D01*
X76238121Y-50908092D01*
X75883153Y-50553125D01*
X75528186Y-50908092D01*
X75170390Y-50908092D01*
X74815423Y-50553125D01*
X74460454Y-50908093D01*
X74102658Y-50908093D01*
X74102659Y-50908092D01*
X73747692Y-50553125D01*
X73392723Y-50908093D01*
X73034928Y-50908093D01*
X72679959Y-50553125D01*
X72324992Y-50908092D01*
X71967196Y-50908092D01*
X71718878Y-50659774D01*
X71518855Y-50845648D01*
X71515647Y-50848529D01*
X71514342Y-50849661D01*
X71511076Y-50852398D01*
X71497756Y-50863185D01*
X71494385Y-50865822D01*
X71493005Y-50866864D01*
X71489530Y-50869396D01*
X71330402Y-50981233D01*
X70721795Y-50981233D01*
X70839343Y-50939607D01*
X71037147Y-50837513D01*
X71091005Y-50809715D01*
X71091006Y-50809715D01*
X71094812Y-50807750D01*
X71098313Y-50805289D01*
X71098317Y-50805287D01*
X71259283Y-50692158D01*
X71330023Y-50642441D01*
X71427912Y-50551477D01*
X71519641Y-50466237D01*
X71883137Y-50466237D01*
X72146095Y-50729195D01*
X72501063Y-50374227D01*
X72858857Y-50374227D01*
X73213825Y-50729195D01*
X73568793Y-50374227D01*
X73926588Y-50374227D01*
X74281556Y-50729195D01*
X74636524Y-50374227D01*
X74994319Y-50374227D01*
X75349288Y-50729196D01*
X75704257Y-50374227D01*
X76062052Y-50374227D01*
X76417020Y-50729195D01*
X76771988Y-50374227D01*
X77129783Y-50374227D01*
X77484751Y-50729195D01*
X77839719Y-50374227D01*
X78197513Y-50374227D01*
X78552481Y-50729195D01*
X78904990Y-50376686D01*
X78830435Y-50309201D01*
X78827195Y-50306162D01*
X78825899Y-50304903D01*
X78822713Y-50301695D01*
X78810324Y-50288764D01*
X78807294Y-50285488D01*
X78806092Y-50284141D01*
X78803160Y-50280734D01*
X78750369Y-50217147D01*
X78552481Y-50019259D01*
X78197513Y-50374227D01*
X77839719Y-50374227D01*
X77484751Y-50019259D01*
X77129783Y-50374227D01*
X76771988Y-50374227D01*
X76417020Y-50019259D01*
X76062052Y-50374227D01*
X75704257Y-50374227D01*
X75349288Y-50019258D01*
X74994319Y-50374227D01*
X74636524Y-50374227D01*
X74281556Y-50019259D01*
X73926588Y-50374227D01*
X73568793Y-50374227D01*
X73213825Y-50019259D01*
X72858857Y-50374227D01*
X72501063Y-50374227D01*
X72154553Y-50027717D01*
X72126932Y-50090641D01*
X72125132Y-50094558D01*
X72124384Y-50096115D01*
X72122475Y-50099922D01*
X72114535Y-50115112D01*
X72112505Y-50118841D01*
X72111652Y-50120347D01*
X72109450Y-50124084D01*
X71959236Y-50369210D01*
X71956921Y-50372846D01*
X71955968Y-50374288D01*
X71953555Y-50377808D01*
X71943626Y-50391779D01*
X71941105Y-50395202D01*
X71940057Y-50396576D01*
X71937377Y-50399968D01*
X71883137Y-50466237D01*
X71519641Y-50466237D01*
X71537479Y-50449661D01*
X71537481Y-50449658D01*
X71540622Y-50446740D01*
X71722713Y-50224268D01*
X71865371Y-49991472D01*
X71870686Y-49982799D01*
X71872927Y-49979142D01*
X71933847Y-49840362D01*
X72324992Y-49840362D01*
X72679959Y-50195329D01*
X73034928Y-49840361D01*
X73392723Y-49840361D01*
X73747692Y-50195329D01*
X74102659Y-49840362D01*
X74102658Y-49840361D01*
X74460454Y-49840361D01*
X74815423Y-50195329D01*
X75170390Y-49840362D01*
X75528186Y-49840362D01*
X75883153Y-50195329D01*
X76238121Y-49840362D01*
X76595917Y-49840362D01*
X76950884Y-50195329D01*
X77305853Y-49840361D01*
X77663648Y-49840361D01*
X78018617Y-50195329D01*
X78373584Y-49840362D01*
X78018616Y-49485393D01*
X77663648Y-49840361D01*
X77305853Y-49840361D01*
X76950885Y-49485393D01*
X76595917Y-49840362D01*
X76238121Y-49840362D01*
X76238122Y-49840361D01*
X75883154Y-49485393D01*
X75528186Y-49840362D01*
X75170390Y-49840362D01*
X74815422Y-49485393D01*
X74460454Y-49840361D01*
X74102658Y-49840361D01*
X73747691Y-49485393D01*
X73392723Y-49840361D01*
X73034928Y-49840361D01*
X72679960Y-49485393D01*
X72324992Y-49840362D01*
X71933847Y-49840362D01*
X71988483Y-49715898D01*
X72060365Y-49463555D01*
X72344003Y-49463555D01*
X72501062Y-49306495D01*
X72858858Y-49306495D01*
X73213826Y-49661464D01*
X73568794Y-49306496D01*
X73568793Y-49306495D01*
X73926589Y-49306495D01*
X74281557Y-49661464D01*
X74636525Y-49306496D01*
X74636524Y-49306495D01*
X74994320Y-49306495D01*
X75349288Y-49661463D01*
X75704255Y-49306496D01*
X76062051Y-49306496D01*
X76417019Y-49661464D01*
X76771986Y-49306496D01*
X77129782Y-49306496D01*
X77484750Y-49661464D01*
X77839718Y-49306495D01*
X78197514Y-49306495D01*
X78471409Y-49580391D01*
X78459815Y-49487310D01*
X78459344Y-49482891D01*
X78459184Y-49481091D01*
X78458865Y-49476584D01*
X78457920Y-49458700D01*
X78457763Y-49454213D01*
X78457732Y-49452407D01*
X78457734Y-49447936D01*
X78458871Y-49385911D01*
X78458871Y-49045138D01*
X78197514Y-49306495D01*
X77839718Y-49306495D01*
X77484751Y-48951528D01*
X77129782Y-49306496D01*
X76771986Y-49306496D01*
X76771987Y-49306495D01*
X76417020Y-48951528D01*
X76062051Y-49306496D01*
X75704255Y-49306496D01*
X75704256Y-49306495D01*
X75349288Y-48951527D01*
X74994320Y-49306495D01*
X74636524Y-49306495D01*
X74281556Y-48951528D01*
X73926589Y-49306495D01*
X73568793Y-49306495D01*
X73213825Y-48951528D01*
X72858858Y-49306495D01*
X72501062Y-49306495D01*
X72383039Y-49188472D01*
X72382918Y-49189598D01*
X72382384Y-49193869D01*
X72344003Y-49463555D01*
X72060365Y-49463555D01*
X72067244Y-49439406D01*
X72101868Y-49196124D01*
X72107146Y-49159036D01*
X72107146Y-49159034D01*
X72107751Y-49154784D01*
X72107821Y-49141548D01*
X72109235Y-48871583D01*
X72109235Y-48871576D01*
X72109257Y-48867297D01*
X72105841Y-48841346D01*
X72090792Y-48727037D01*
X72370585Y-48727037D01*
X72384284Y-48831090D01*
X72384391Y-48832030D01*
X72679959Y-49127598D01*
X73034928Y-48772630D01*
X73392723Y-48772630D01*
X73747692Y-49127598D01*
X74102659Y-48772631D01*
X74102658Y-48772630D01*
X74460454Y-48772630D01*
X74815423Y-49127598D01*
X75170390Y-48772631D01*
X75528186Y-48772631D01*
X75883153Y-49127598D01*
X76238121Y-48772631D01*
X76595917Y-48772631D01*
X76950884Y-49127598D01*
X77305853Y-48772630D01*
X77663648Y-48772630D01*
X78018617Y-49127598D01*
X78373584Y-48772631D01*
X78018616Y-48417662D01*
X77663648Y-48772630D01*
X77305853Y-48772630D01*
X76950885Y-48417662D01*
X76595917Y-48772631D01*
X76238121Y-48772631D01*
X76238122Y-48772630D01*
X75883154Y-48417662D01*
X75528186Y-48772631D01*
X75170390Y-48772631D01*
X74815422Y-48417662D01*
X74460454Y-48772630D01*
X74102658Y-48772630D01*
X73747691Y-48417662D01*
X73392723Y-48772630D01*
X73034928Y-48772630D01*
X72679960Y-48417662D01*
X72370585Y-48727037D01*
X72090792Y-48727037D01*
X72082805Y-48666373D01*
X72071732Y-48582266D01*
X72053761Y-48516573D01*
X72031989Y-48436990D01*
X71995871Y-48304964D01*
X71952799Y-48203984D01*
X71884763Y-48044476D01*
X71884761Y-48044472D01*
X71883077Y-48040524D01*
X71801930Y-47904938D01*
X72124952Y-47904938D01*
X72126092Y-47907084D01*
X72133873Y-47922355D01*
X72135779Y-47926262D01*
X72136510Y-47927828D01*
X72138234Y-47931689D01*
X72251028Y-48196129D01*
X72252635Y-48200079D01*
X72253259Y-48201691D01*
X72254746Y-48205738D01*
X72260383Y-48221925D01*
X72261717Y-48225975D01*
X72262230Y-48227626D01*
X72263439Y-48231766D01*
X72315985Y-48423842D01*
X72501062Y-48238764D01*
X72858858Y-48238764D01*
X73213826Y-48593733D01*
X73568794Y-48238765D01*
X73568793Y-48238764D01*
X73926589Y-48238764D01*
X74281557Y-48593733D01*
X74636525Y-48238765D01*
X74636524Y-48238764D01*
X74994320Y-48238764D01*
X75349288Y-48593732D01*
X75704255Y-48238765D01*
X76062051Y-48238765D01*
X76417019Y-48593733D01*
X76771986Y-48238765D01*
X77129782Y-48238765D01*
X77484750Y-48593733D01*
X77839718Y-48238764D01*
X78197514Y-48238764D01*
X78458871Y-48500121D01*
X78458871Y-48176684D01*
X78458863Y-48176571D01*
X78457919Y-48158694D01*
X78457763Y-48154214D01*
X78457732Y-48152409D01*
X78457734Y-48147936D01*
X78460359Y-48004737D01*
X78460524Y-48000208D01*
X78460622Y-47998405D01*
X78460940Y-47993985D01*
X78462540Y-47976149D01*
X78462831Y-47973447D01*
X78197514Y-48238764D01*
X77839718Y-48238764D01*
X77484751Y-47883797D01*
X77129782Y-48238765D01*
X76771986Y-48238765D01*
X76771987Y-48238764D01*
X76417020Y-47883797D01*
X76062051Y-48238765D01*
X75704255Y-48238765D01*
X75704256Y-48238764D01*
X75349288Y-47883796D01*
X74994320Y-48238764D01*
X74636524Y-48238764D01*
X74281556Y-47883797D01*
X73926589Y-48238764D01*
X73568793Y-48238764D01*
X73213825Y-47883797D01*
X72858858Y-48238764D01*
X72501062Y-48238764D01*
X72146094Y-47883796D01*
X72124952Y-47904938D01*
X71801930Y-47904938D01*
X71735439Y-47793839D01*
X71664184Y-47704898D01*
X72324992Y-47704898D01*
X72679960Y-48059867D01*
X73034928Y-47704899D01*
X73392723Y-47704899D01*
X73747691Y-48059867D01*
X74102658Y-47704899D01*
X74460454Y-47704899D01*
X74815422Y-48059867D01*
X75170390Y-47704898D01*
X75528186Y-47704898D01*
X75883154Y-48059867D01*
X76238122Y-47704899D01*
X76238121Y-47704898D01*
X76595917Y-47704898D01*
X76950885Y-48059867D01*
X77305853Y-47704899D01*
X77663648Y-47704899D01*
X78018616Y-48059867D01*
X78373584Y-47704898D01*
X78018617Y-47349931D01*
X77663648Y-47704899D01*
X77305853Y-47704899D01*
X76950884Y-47349931D01*
X76595917Y-47704898D01*
X76238121Y-47704898D01*
X75883153Y-47349931D01*
X75528186Y-47704898D01*
X75170390Y-47704898D01*
X74815423Y-47349931D01*
X74460454Y-47704899D01*
X74102658Y-47704899D01*
X74102659Y-47704898D01*
X73747692Y-47349931D01*
X73392723Y-47704899D01*
X73034928Y-47704899D01*
X72679959Y-47349931D01*
X72324992Y-47704898D01*
X71664184Y-47704898D01*
X71555687Y-47569472D01*
X71347149Y-47371577D01*
X71113683Y-47203814D01*
X71108233Y-47200928D01*
X71051772Y-47171034D01*
X71051770Y-47171033D01*
X71791126Y-47171033D01*
X72146095Y-47526001D01*
X72501062Y-47171034D01*
X72858858Y-47171034D01*
X73213825Y-47526001D01*
X73568793Y-47171034D01*
X73926589Y-47171034D01*
X74281556Y-47526001D01*
X74636524Y-47171034D01*
X74994320Y-47171034D01*
X75349288Y-47526002D01*
X75704256Y-47171034D01*
X75704255Y-47171033D01*
X76062051Y-47171033D01*
X76417020Y-47526001D01*
X76771987Y-47171034D01*
X76771986Y-47171033D01*
X77129782Y-47171033D01*
X77484751Y-47526001D01*
X77839718Y-47171034D01*
X78197514Y-47171034D01*
X78552482Y-47526002D01*
X78637826Y-47440658D01*
X78714864Y-47324926D01*
X78717424Y-47321226D01*
X78718478Y-47319759D01*
X78721144Y-47316182D01*
X78732101Y-47302018D01*
X78734909Y-47298519D01*
X78736064Y-47297131D01*
X78738987Y-47293743D01*
X78836074Y-47185158D01*
X78839113Y-47181878D01*
X78840364Y-47180575D01*
X78843531Y-47177392D01*
X78856386Y-47164924D01*
X78859666Y-47161854D01*
X78861006Y-47160644D01*
X78864375Y-47157709D01*
X78880539Y-47144122D01*
X78552482Y-46816065D01*
X78197514Y-47171034D01*
X77839718Y-47171034D01*
X77484750Y-46816065D01*
X77129782Y-47171033D01*
X76771986Y-47171033D01*
X76417019Y-46816065D01*
X76062051Y-47171033D01*
X75704255Y-47171033D01*
X75349288Y-46816066D01*
X74994320Y-47171034D01*
X74636524Y-47171034D01*
X74636525Y-47171033D01*
X74281557Y-46816065D01*
X73926589Y-47171034D01*
X73568793Y-47171034D01*
X73568794Y-47171033D01*
X73213826Y-46816065D01*
X72858858Y-47171034D01*
X72501062Y-47171034D01*
X72146094Y-46816065D01*
X71791126Y-47171033D01*
X71051770Y-47171033D01*
X70859608Y-47069288D01*
X70589627Y-46970489D01*
X70308736Y-46909245D01*
X70277685Y-46906801D01*
X70085718Y-46891693D01*
X70085709Y-46891693D01*
X70083261Y-46891500D01*
X69927729Y-46891500D01*
X69925593Y-46891646D01*
X69925582Y-46891646D01*
X69717452Y-46905835D01*
X69717446Y-46905836D01*
X69713175Y-46906127D01*
X69708980Y-46906996D01*
X69708978Y-46906996D01*
X69622238Y-46924959D01*
X69431658Y-46964426D01*
X69160657Y-47060393D01*
X69156848Y-47062359D01*
X68918929Y-47185158D01*
X68905188Y-47192250D01*
X68901687Y-47194711D01*
X68901683Y-47194713D01*
X68892840Y-47200928D01*
X68669977Y-47357559D01*
X68651717Y-47374527D01*
X68539680Y-47478639D01*
X68459378Y-47553260D01*
X68277287Y-47775732D01*
X68198109Y-47904938D01*
X68133837Y-48009821D01*
X68127073Y-48020858D01*
X68125347Y-48024791D01*
X68125346Y-48024792D01*
X68047693Y-48201691D01*
X68011517Y-48284102D01*
X67932756Y-48560594D01*
X67905051Y-48755266D01*
X67894126Y-48832030D01*
X67892249Y-48845216D01*
X67892227Y-48849505D01*
X67892226Y-48849512D01*
X67890765Y-49128417D01*
X67890743Y-49132703D01*
X66988614Y-49132703D01*
X66807439Y-48951528D01*
X66452470Y-49306496D01*
X66094675Y-49306496D01*
X65785807Y-48997628D01*
X65785697Y-49000000D01*
X65508269Y-49000000D01*
X65508269Y-48994181D01*
X65518512Y-48772630D01*
X65918604Y-48772630D01*
X66273573Y-49127598D01*
X66628540Y-48772631D01*
X66986336Y-48772631D01*
X67341303Y-49127598D01*
X67614799Y-48854102D01*
X67614853Y-48843762D01*
X67614949Y-48839466D01*
X67615017Y-48837739D01*
X67615257Y-48833470D01*
X67616512Y-48816377D01*
X67616897Y-48812121D01*
X67617082Y-48810402D01*
X67617616Y-48806131D01*
X67631589Y-48707947D01*
X67341304Y-48417662D01*
X66986336Y-48772631D01*
X66628540Y-48772631D01*
X66273572Y-48417662D01*
X65918604Y-48772630D01*
X65518512Y-48772630D01*
X65526893Y-48591349D01*
X65527967Y-48579760D01*
X65536781Y-48516573D01*
X65816867Y-48516573D01*
X66094675Y-48238765D01*
X66452470Y-48238765D01*
X66807438Y-48593733D01*
X67162405Y-48238765D01*
X67520201Y-48238765D01*
X67688154Y-48406718D01*
X67744731Y-48208105D01*
X67745981Y-48203984D01*
X67746511Y-48202339D01*
X67747890Y-48198296D01*
X67753696Y-48182170D01*
X67755208Y-48178184D01*
X67755848Y-48176579D01*
X67757513Y-48172603D01*
X67873069Y-47909359D01*
X67874868Y-47905442D01*
X67875616Y-47903885D01*
X67877525Y-47900078D01*
X67882305Y-47890932D01*
X67875170Y-47883797D01*
X67520201Y-48238765D01*
X67162405Y-48238765D01*
X67162406Y-48238764D01*
X66807439Y-47883797D01*
X66452470Y-48238765D01*
X66094675Y-48238765D01*
X65900120Y-48044210D01*
X65857455Y-48225614D01*
X65816867Y-48516573D01*
X65536781Y-48516573D01*
X65583681Y-48180361D01*
X65585820Y-48168921D01*
X65590756Y-48147936D01*
X65678147Y-47776367D01*
X65681330Y-47765182D01*
X65682583Y-47761444D01*
X65975149Y-47761444D01*
X66273572Y-48059867D01*
X66628540Y-47704898D01*
X66986336Y-47704898D01*
X67341304Y-48059867D01*
X67696272Y-47704899D01*
X67341303Y-47349931D01*
X66986336Y-47704898D01*
X66628540Y-47704898D01*
X66273573Y-47349931D01*
X66032163Y-47591341D01*
X65975149Y-47761444D01*
X65682583Y-47761444D01*
X65691911Y-47733615D01*
X65809484Y-47382826D01*
X65813688Y-47371974D01*
X65902412Y-47171033D01*
X66452470Y-47171033D01*
X66807439Y-47526001D01*
X67162406Y-47171034D01*
X67162405Y-47171033D01*
X67520201Y-47171033D01*
X67875170Y-47526001D01*
X68230137Y-47171034D01*
X67875169Y-46816065D01*
X67520201Y-47171033D01*
X67162405Y-47171033D01*
X66807438Y-46816065D01*
X66452470Y-47171033D01*
X65902412Y-47171033D01*
X65976575Y-47003068D01*
X65981763Y-46992650D01*
X66014747Y-46933432D01*
X66332276Y-46933432D01*
X66628540Y-46637167D01*
X66986336Y-46637167D01*
X67341304Y-46992136D01*
X67696272Y-46637168D01*
X67696271Y-46637167D01*
X68054067Y-46637167D01*
X68409035Y-46992136D01*
X68493038Y-46908133D01*
X68850833Y-46908133D01*
X68959332Y-46852133D01*
X71042295Y-46852133D01*
X71195602Y-46933305D01*
X71078363Y-46816065D01*
X71042295Y-46852133D01*
X68959332Y-46852133D01*
X68972284Y-46845448D01*
X68942901Y-46816065D01*
X68850833Y-46908133D01*
X68493038Y-46908133D01*
X68764003Y-46637168D01*
X69121798Y-46637168D01*
X69227184Y-46742554D01*
X69339059Y-46702937D01*
X69343159Y-46701564D01*
X69344808Y-46701043D01*
X69348887Y-46699830D01*
X69365396Y-46695221D01*
X69369525Y-46694143D01*
X69371204Y-46693735D01*
X69375405Y-46692790D01*
X69656922Y-46634491D01*
X69661121Y-46633695D01*
X69662825Y-46633402D01*
X69667078Y-46632746D01*
X69684059Y-46630420D01*
X69688325Y-46629909D01*
X69690044Y-46629733D01*
X69694307Y-46629370D01*
X69791550Y-46622740D01*
X70203958Y-46622740D01*
X70330501Y-46632699D01*
X70334825Y-46633115D01*
X70336543Y-46633310D01*
X70340741Y-46633858D01*
X70357697Y-46636362D01*
X70361893Y-46637054D01*
X70363593Y-46637364D01*
X70367831Y-46638212D01*
X70648722Y-46699456D01*
X70652919Y-46700447D01*
X70654595Y-46700873D01*
X70658710Y-46701993D01*
X70675169Y-46706775D01*
X70679247Y-46708035D01*
X70680889Y-46708573D01*
X70684958Y-46709984D01*
X70788690Y-46747944D01*
X70899466Y-46637168D01*
X70899465Y-46637167D01*
X71257261Y-46637167D01*
X71612229Y-46992136D01*
X71967197Y-46637168D01*
X71967196Y-46637167D01*
X72324992Y-46637167D01*
X72679960Y-46992136D01*
X73034928Y-46637168D01*
X73392723Y-46637168D01*
X73747691Y-46992136D01*
X74102658Y-46637168D01*
X74460454Y-46637168D01*
X74815422Y-46992136D01*
X75170390Y-46637167D01*
X75528186Y-46637167D01*
X75883154Y-46992136D01*
X76238122Y-46637168D01*
X76238121Y-46637167D01*
X76595917Y-46637167D01*
X76950885Y-46992136D01*
X77305853Y-46637168D01*
X77663648Y-46637168D01*
X78018616Y-46992136D01*
X78373583Y-46637168D01*
X78731379Y-46637168D01*
X79086347Y-46992136D01*
X79139706Y-46938777D01*
X79139835Y-46938333D01*
X79140821Y-46935300D01*
X79143496Y-46927873D01*
X79155122Y-46898508D01*
X79158265Y-46891243D01*
X79159623Y-46888357D01*
X79163217Y-46881303D01*
X79181077Y-46848816D01*
X79195801Y-46814790D01*
X79199170Y-46807629D01*
X79200618Y-46804787D01*
X79204433Y-46797849D01*
X79220509Y-46770666D01*
X79224766Y-46763958D01*
X79226559Y-46761321D01*
X79231193Y-46754944D01*
X79236307Y-46748351D01*
X79240329Y-46741035D01*
X79244356Y-46734226D01*
X79246065Y-46731533D01*
X79250516Y-46724983D01*
X79269080Y-46699433D01*
X79273922Y-46693191D01*
X79275955Y-46690733D01*
X79281198Y-46684785D01*
X79307005Y-46657303D01*
X79307167Y-46657101D01*
X79308185Y-46655871D01*
X79310739Y-46652882D01*
X79321204Y-46641012D01*
X79323825Y-46638130D01*
X79324917Y-46636966D01*
X79327714Y-46634079D01*
X79345775Y-46616018D01*
X79381801Y-46577653D01*
X79086348Y-46282200D01*
X78731379Y-46637168D01*
X78373583Y-46637168D01*
X78373584Y-46637167D01*
X78018617Y-46282200D01*
X77663648Y-46637168D01*
X77305853Y-46637168D01*
X76950884Y-46282200D01*
X76595917Y-46637167D01*
X76238121Y-46637167D01*
X75883153Y-46282200D01*
X75528186Y-46637167D01*
X75170390Y-46637167D01*
X74815423Y-46282200D01*
X74460454Y-46637168D01*
X74102658Y-46637168D01*
X74102659Y-46637167D01*
X73747692Y-46282200D01*
X73392723Y-46637168D01*
X73034928Y-46637168D01*
X72679959Y-46282200D01*
X72324992Y-46637167D01*
X71967196Y-46637167D01*
X71612228Y-46282200D01*
X71257261Y-46637167D01*
X70899465Y-46637167D01*
X70544498Y-46282200D01*
X70203958Y-46622740D01*
X69791550Y-46622740D01*
X69815663Y-46621096D01*
X69476767Y-46282200D01*
X69121798Y-46637168D01*
X68764003Y-46637168D01*
X68409034Y-46282200D01*
X68054067Y-46637167D01*
X67696271Y-46637167D01*
X67341303Y-46282200D01*
X66986336Y-46637167D01*
X66628540Y-46637167D01*
X66561613Y-46570240D01*
X66416924Y-46781460D01*
X66332276Y-46933432D01*
X66014747Y-46933432D01*
X66177987Y-46640362D01*
X66184113Y-46630467D01*
X66184865Y-46629370D01*
X66335053Y-46410121D01*
X66365253Y-46366035D01*
X66715202Y-46366035D01*
X66807438Y-46458271D01*
X67162407Y-46103302D01*
X67520201Y-46103302D01*
X67875170Y-46458270D01*
X68230137Y-46103303D01*
X68587933Y-46103303D01*
X68942900Y-46458270D01*
X69297868Y-46103303D01*
X69655664Y-46103303D01*
X70010631Y-46458270D01*
X70365600Y-46103302D01*
X70723395Y-46103302D01*
X71078364Y-46458270D01*
X71433331Y-46103303D01*
X71433330Y-46103302D01*
X71791126Y-46103302D01*
X72146095Y-46458270D01*
X72501062Y-46103303D01*
X72858858Y-46103303D01*
X73213825Y-46458270D01*
X73568793Y-46103303D01*
X73926589Y-46103303D01*
X74281556Y-46458270D01*
X74636524Y-46103303D01*
X74994320Y-46103303D01*
X75349288Y-46458271D01*
X75704256Y-46103303D01*
X75704255Y-46103302D01*
X76062051Y-46103302D01*
X76417020Y-46458270D01*
X76771987Y-46103303D01*
X76771986Y-46103302D01*
X77129782Y-46103302D01*
X77484751Y-46458270D01*
X77839718Y-46103303D01*
X78197514Y-46103303D01*
X78552481Y-46458270D01*
X78907449Y-46103303D01*
X79265245Y-46103303D01*
X79561867Y-46399925D01*
X79575525Y-46386267D01*
X79599152Y-46357707D01*
X79604381Y-46351776D01*
X79606564Y-46349451D01*
X79612167Y-46343847D01*
X79635191Y-46322226D01*
X79641139Y-46316983D01*
X79643597Y-46314950D01*
X79649842Y-46310106D01*
X79656589Y-46305204D01*
X79662486Y-46299307D01*
X79668294Y-46293854D01*
X79670687Y-46291746D01*
X79676745Y-46286737D01*
X79701701Y-46267378D01*
X79708093Y-46262733D01*
X79710732Y-46260939D01*
X79717431Y-46256687D01*
X79749339Y-46237817D01*
X79779330Y-46216027D01*
X79785897Y-46211566D01*
X79788591Y-46209857D01*
X79795385Y-46205839D01*
X79823063Y-46190623D01*
X79830117Y-46187029D01*
X79833003Y-46185671D01*
X79840271Y-46182526D01*
X79848016Y-46179460D01*
X79855193Y-46175215D01*
X79862151Y-46171390D01*
X79864994Y-46169942D01*
X79872139Y-46166581D01*
X79901127Y-46154037D01*
X79908466Y-46151130D01*
X79911467Y-46150049D01*
X79919017Y-46147595D01*
X79935748Y-46142734D01*
X79975181Y-46103302D01*
X79960979Y-46089100D01*
X80347178Y-46089100D01*
X80707042Y-46089100D01*
X80743951Y-46085611D01*
X80751859Y-46085114D01*
X80755047Y-46085014D01*
X80762954Y-46085014D01*
X80794523Y-46086006D01*
X80802419Y-46086503D01*
X80805594Y-46086803D01*
X80813452Y-46087795D01*
X80821691Y-46089100D01*
X80830030Y-46089100D01*
X80837931Y-46089348D01*
X80841114Y-46089548D01*
X80849003Y-46090293D01*
X80880337Y-46094251D01*
X80888170Y-46095492D01*
X80891303Y-46096090D01*
X80899012Y-46097814D01*
X80934925Y-46107034D01*
X80971545Y-46112835D01*
X80979323Y-46114319D01*
X80982436Y-46115015D01*
X80990100Y-46116983D01*
X81020422Y-46125793D01*
X81042912Y-46103303D01*
X81042911Y-46103302D01*
X81400707Y-46103302D01*
X81457381Y-46159976D01*
X81519779Y-46113127D01*
X81523997Y-46110094D01*
X81525713Y-46108913D01*
X81530006Y-46106086D01*
X81547479Y-46095083D01*
X81551905Y-46092421D01*
X81553712Y-46091384D01*
X81558247Y-46088904D01*
X81758380Y-45984721D01*
X81763012Y-45982429D01*
X81764897Y-45981544D01*
X81769616Y-45979445D01*
X81788651Y-45971443D01*
X81793451Y-45969540D01*
X81795403Y-45968812D01*
X81800287Y-45967104D01*
X81931543Y-45924203D01*
X81755675Y-45748334D01*
X81400707Y-46103302D01*
X81042911Y-46103302D01*
X80687944Y-45748334D01*
X80347178Y-46089100D01*
X79960979Y-46089100D01*
X79620213Y-45748334D01*
X79265245Y-46103303D01*
X78907449Y-46103303D01*
X78907450Y-46103302D01*
X78552482Y-45748334D01*
X78197514Y-46103303D01*
X77839718Y-46103303D01*
X77484750Y-45748334D01*
X77129782Y-46103302D01*
X76771986Y-46103302D01*
X76417019Y-45748334D01*
X76062051Y-46103302D01*
X75704255Y-46103302D01*
X75349288Y-45748335D01*
X74994320Y-46103303D01*
X74636524Y-46103303D01*
X74636525Y-46103302D01*
X74281557Y-45748334D01*
X73926589Y-46103303D01*
X73568793Y-46103303D01*
X73568794Y-46103302D01*
X73213826Y-45748334D01*
X72858858Y-46103303D01*
X72501062Y-46103303D01*
X72146094Y-45748334D01*
X71791126Y-46103302D01*
X71433330Y-46103302D01*
X71078363Y-45748334D01*
X70723395Y-46103302D01*
X70365600Y-46103302D01*
X70010632Y-45748334D01*
X69655664Y-46103303D01*
X69297868Y-46103303D01*
X69297869Y-46103302D01*
X68942901Y-45748334D01*
X68587933Y-46103303D01*
X68230137Y-46103303D01*
X67875169Y-45748334D01*
X67520201Y-46103302D01*
X67162407Y-46103302D01*
X67052769Y-45993664D01*
X66885599Y-46160834D01*
X66715202Y-46366035D01*
X66365253Y-46366035D01*
X66412015Y-46297771D01*
X66419029Y-46288483D01*
X66676656Y-45978234D01*
X66684497Y-45969634D01*
X66832800Y-45821331D01*
X67238230Y-45821331D01*
X67341303Y-45924404D01*
X67696271Y-45569437D01*
X68054067Y-45569437D01*
X68409034Y-45924404D01*
X68764003Y-45569436D01*
X69121798Y-45569436D01*
X69476767Y-45924404D01*
X69831734Y-45569437D01*
X69831733Y-45569436D01*
X70189529Y-45569436D01*
X70544498Y-45924404D01*
X70899465Y-45569437D01*
X71257261Y-45569437D01*
X71612228Y-45924404D01*
X71967196Y-45569437D01*
X72324992Y-45569437D01*
X72679959Y-45924404D01*
X73034928Y-45569436D01*
X73392723Y-45569436D01*
X73747692Y-45924404D01*
X74102659Y-45569437D01*
X74102658Y-45569436D01*
X74460454Y-45569436D01*
X74815423Y-45924404D01*
X75170390Y-45569437D01*
X75528186Y-45569437D01*
X75883153Y-45924404D01*
X76238121Y-45569437D01*
X76595917Y-45569437D01*
X76950884Y-45924404D01*
X77305853Y-45569436D01*
X77663648Y-45569436D01*
X78018617Y-45924404D01*
X78373584Y-45569437D01*
X78373583Y-45569436D01*
X78731379Y-45569436D01*
X79086348Y-45924404D01*
X79441315Y-45569437D01*
X79799111Y-45569437D01*
X80154078Y-45924404D01*
X80509046Y-45569437D01*
X80866842Y-45569437D01*
X81221809Y-45924404D01*
X81576778Y-45569436D01*
X81934573Y-45569436D01*
X82226043Y-45860906D01*
X82282000Y-45852344D01*
X82287137Y-45851665D01*
X82289206Y-45851435D01*
X82294334Y-45850971D01*
X82314932Y-45849530D01*
X82320097Y-45849275D01*
X82322180Y-45849215D01*
X82327347Y-45849172D01*
X82364322Y-45849624D01*
X82644509Y-45569437D01*
X82289541Y-45214468D01*
X81934573Y-45569436D01*
X81576778Y-45569436D01*
X81221810Y-45214468D01*
X80866842Y-45569437D01*
X80509046Y-45569437D01*
X80509047Y-45569436D01*
X80154079Y-45214468D01*
X79799111Y-45569437D01*
X79441315Y-45569437D01*
X79086347Y-45214468D01*
X78731379Y-45569436D01*
X78373583Y-45569436D01*
X78018616Y-45214468D01*
X77663648Y-45569436D01*
X77305853Y-45569436D01*
X76950885Y-45214468D01*
X76595917Y-45569437D01*
X76238121Y-45569437D01*
X76238122Y-45569436D01*
X75883154Y-45214468D01*
X75528186Y-45569437D01*
X75170390Y-45569437D01*
X74815422Y-45214468D01*
X74460454Y-45569436D01*
X74102658Y-45569436D01*
X73747691Y-45214468D01*
X73392723Y-45569436D01*
X73034928Y-45569436D01*
X72679960Y-45214468D01*
X72324992Y-45569437D01*
X71967196Y-45569437D01*
X71967197Y-45569436D01*
X71612229Y-45214468D01*
X71257261Y-45569437D01*
X70899465Y-45569437D01*
X70544497Y-45214468D01*
X70189529Y-45569436D01*
X69831733Y-45569436D01*
X69476766Y-45214468D01*
X69121798Y-45569436D01*
X68764003Y-45569436D01*
X68409035Y-45214468D01*
X68054067Y-45569437D01*
X67696271Y-45569437D01*
X67696272Y-45569436D01*
X67640393Y-45513557D01*
X67460317Y-45636912D01*
X67238230Y-45821331D01*
X66832800Y-45821331D01*
X66969634Y-45684497D01*
X66978234Y-45676656D01*
X67288483Y-45419029D01*
X67297771Y-45412015D01*
X67630467Y-45184113D01*
X67640362Y-45177987D01*
X67896048Y-45035570D01*
X68587933Y-45035570D01*
X68942901Y-45390539D01*
X69297869Y-45035571D01*
X69297868Y-45035570D01*
X69655664Y-45035570D01*
X70010632Y-45390539D01*
X70365600Y-45035571D01*
X70723395Y-45035571D01*
X71078363Y-45390539D01*
X71433330Y-45035571D01*
X71791126Y-45035571D01*
X72146094Y-45390539D01*
X72501062Y-45035570D01*
X72858858Y-45035570D01*
X73213826Y-45390539D01*
X73568794Y-45035571D01*
X73568793Y-45035570D01*
X73926589Y-45035570D01*
X74281557Y-45390539D01*
X74636525Y-45035571D01*
X74636524Y-45035570D01*
X74994320Y-45035570D01*
X75349288Y-45390538D01*
X75704255Y-45035571D01*
X76062051Y-45035571D01*
X76417019Y-45390539D01*
X76771986Y-45035571D01*
X77129782Y-45035571D01*
X77484750Y-45390539D01*
X77839718Y-45035570D01*
X78197514Y-45035570D01*
X78552482Y-45390539D01*
X78907450Y-45035571D01*
X78907449Y-45035570D01*
X79265245Y-45035570D01*
X79620213Y-45390539D01*
X79975181Y-45035571D01*
X80332976Y-45035571D01*
X80687944Y-45390539D01*
X81042911Y-45035571D01*
X81400707Y-45035571D01*
X81755675Y-45390539D01*
X82110643Y-45035570D01*
X82468439Y-45035570D01*
X82697211Y-45264342D01*
X82697211Y-44806798D01*
X82468439Y-45035570D01*
X82110643Y-45035570D01*
X81755676Y-44680603D01*
X81400707Y-45035571D01*
X81042911Y-45035571D01*
X81042912Y-45035570D01*
X80687945Y-44680603D01*
X80332976Y-45035571D01*
X79975181Y-45035571D01*
X79620212Y-44680603D01*
X79265245Y-45035570D01*
X78907449Y-45035570D01*
X78552481Y-44680603D01*
X78197514Y-45035570D01*
X77839718Y-45035570D01*
X77484751Y-44680603D01*
X77129782Y-45035571D01*
X76771986Y-45035571D01*
X76771987Y-45035570D01*
X76417020Y-44680603D01*
X76062051Y-45035571D01*
X75704255Y-45035571D01*
X75704256Y-45035570D01*
X75367356Y-44698670D01*
X75354808Y-44705342D01*
X75346750Y-44709266D01*
X75343450Y-44710730D01*
X75335137Y-44714069D01*
X75304909Y-44724981D01*
X74994320Y-45035570D01*
X74636524Y-45035570D01*
X74386354Y-44785400D01*
X74176759Y-44785400D01*
X73926589Y-45035570D01*
X73568793Y-45035570D01*
X73318623Y-44785400D01*
X73109028Y-44785400D01*
X72858858Y-45035570D01*
X72501062Y-45035570D01*
X72250892Y-44785400D01*
X72041297Y-44785400D01*
X71791126Y-45035571D01*
X71433330Y-45035571D01*
X71433331Y-45035570D01*
X71183161Y-44785400D01*
X70973566Y-44785400D01*
X70723395Y-45035571D01*
X70365600Y-45035571D01*
X70115429Y-44785400D01*
X70051448Y-44785400D01*
X70029700Y-44788244D01*
X70020761Y-44789091D01*
X70017157Y-44789303D01*
X70008220Y-44789511D01*
X69972498Y-44789075D01*
X69963564Y-44788648D01*
X69959967Y-44788348D01*
X69955141Y-44787772D01*
X69900957Y-44790277D01*
X69655664Y-45035570D01*
X69297868Y-45035570D01*
X69139910Y-44877612D01*
X68846702Y-44946573D01*
X68591340Y-45032163D01*
X68587933Y-45035570D01*
X67896048Y-45035570D01*
X67992650Y-44981763D01*
X68003068Y-44976575D01*
X68371974Y-44813688D01*
X68382826Y-44809484D01*
X68574004Y-44745407D01*
X68765191Y-44681327D01*
X68776367Y-44678147D01*
X69168921Y-44585820D01*
X69180361Y-44583681D01*
X69460845Y-44544555D01*
X75571035Y-44544555D01*
X75883153Y-44856673D01*
X76238121Y-44501706D01*
X76595917Y-44501706D01*
X76950884Y-44856673D01*
X77305853Y-44501705D01*
X77663648Y-44501705D01*
X78018617Y-44856673D01*
X78373584Y-44501706D01*
X78373583Y-44501705D01*
X78731379Y-44501705D01*
X79086348Y-44856673D01*
X79441315Y-44501706D01*
X79799111Y-44501706D01*
X80154078Y-44856673D01*
X80509046Y-44501706D01*
X80866842Y-44501706D01*
X81221809Y-44856673D01*
X81576778Y-44501705D01*
X81934573Y-44501705D01*
X82289542Y-44856673D01*
X82644509Y-44501706D01*
X82289541Y-44146737D01*
X81934573Y-44501705D01*
X81576778Y-44501705D01*
X81221810Y-44146737D01*
X80866842Y-44501706D01*
X80509046Y-44501706D01*
X80509047Y-44501705D01*
X80154079Y-44146737D01*
X79799111Y-44501706D01*
X79441315Y-44501706D01*
X79086347Y-44146737D01*
X78731379Y-44501705D01*
X78373583Y-44501705D01*
X78018616Y-44146737D01*
X77663648Y-44501705D01*
X77305853Y-44501705D01*
X76950885Y-44146737D01*
X76595917Y-44501706D01*
X76238121Y-44501706D01*
X76238122Y-44501705D01*
X75923570Y-44187153D01*
X75612103Y-44498620D01*
X75606571Y-44505437D01*
X75583086Y-44532359D01*
X75576952Y-44538905D01*
X75574391Y-44541450D01*
X75571035Y-44544555D01*
X69460845Y-44544555D01*
X69579760Y-44527967D01*
X69591349Y-44526893D01*
X69956816Y-44509997D01*
X69982015Y-44511362D01*
X69984858Y-44511805D01*
X69984860Y-44511805D01*
X69993730Y-44513186D01*
X70002632Y-44512022D01*
X70002635Y-44512022D01*
X70025251Y-44509064D01*
X70041589Y-44508000D01*
X74928980Y-44508000D01*
X74941096Y-44509354D01*
X74941135Y-44508870D01*
X74950086Y-44509590D01*
X74958840Y-44511571D01*
X75012501Y-44508242D01*
X75020303Y-44508000D01*
X75036477Y-44508000D01*
X75040918Y-44507364D01*
X75040919Y-44507364D01*
X75046813Y-44506520D01*
X75056872Y-44505490D01*
X75074196Y-44504415D01*
X75095117Y-44503117D01*
X75095119Y-44503117D01*
X75104075Y-44502561D01*
X75112513Y-44499515D01*
X75115424Y-44498912D01*
X75132292Y-44494706D01*
X75135159Y-44493868D01*
X75144045Y-44492595D01*
X75152216Y-44488880D01*
X75152219Y-44488879D01*
X75187092Y-44473023D01*
X75196461Y-44469209D01*
X75232501Y-44456199D01*
X75232505Y-44456197D01*
X75240945Y-44453150D01*
X75248194Y-44447854D01*
X75250829Y-44446453D01*
X75265814Y-44437697D01*
X75268339Y-44436082D01*
X75276510Y-44432367D01*
X75312338Y-44401496D01*
X75320256Y-44395209D01*
X75327286Y-44390073D01*
X75327289Y-44390071D01*
X75331225Y-44387195D01*
X75342177Y-44376243D01*
X75349025Y-44369885D01*
X75379944Y-44343244D01*
X75379948Y-44343239D01*
X75386747Y-44337381D01*
X75391628Y-44329850D01*
X75397104Y-44323573D01*
X75406666Y-44311754D01*
X75710163Y-44008257D01*
X76102468Y-44008257D01*
X76417019Y-44322808D01*
X76771986Y-43967840D01*
X77129782Y-43967840D01*
X77484750Y-44322808D01*
X77839718Y-43967839D01*
X78197514Y-43967839D01*
X78552482Y-44322808D01*
X78907450Y-43967840D01*
X78907449Y-43967839D01*
X79265245Y-43967839D01*
X79620213Y-44322808D01*
X79975181Y-43967840D01*
X80332976Y-43967840D01*
X80687944Y-44322808D01*
X81042911Y-43967840D01*
X81400707Y-43967840D01*
X81755675Y-44322808D01*
X82110643Y-43967839D01*
X82468439Y-43967839D01*
X82697211Y-44196611D01*
X82697211Y-43739067D01*
X82468439Y-43967839D01*
X82110643Y-43967839D01*
X81850200Y-43707396D01*
X81849834Y-43707609D01*
X81846652Y-43709313D01*
X81838621Y-43713253D01*
X81806015Y-43727839D01*
X81797702Y-43731208D01*
X81794310Y-43732444D01*
X81785799Y-43735207D01*
X81771959Y-43739163D01*
X81758856Y-43745120D01*
X81750581Y-43748533D01*
X81747197Y-43749790D01*
X81738690Y-43752610D01*
X81704403Y-43762637D01*
X81695704Y-43764848D01*
X81692176Y-43765612D01*
X81683370Y-43767193D01*
X81664360Y-43769915D01*
X81645884Y-43775196D01*
X81637189Y-43777350D01*
X81633656Y-43778093D01*
X81624826Y-43779624D01*
X81589430Y-43784473D01*
X81583472Y-43785075D01*
X81400707Y-43967840D01*
X81042911Y-43967840D01*
X81042912Y-43967839D01*
X80860473Y-43785400D01*
X80515416Y-43785400D01*
X80332976Y-43967840D01*
X79975181Y-43967840D01*
X79792741Y-43785400D01*
X79447684Y-43785400D01*
X79265245Y-43967839D01*
X78907449Y-43967839D01*
X78725010Y-43785400D01*
X78379953Y-43785400D01*
X78197514Y-43967839D01*
X77839718Y-43967839D01*
X77657279Y-43785400D01*
X77312222Y-43785400D01*
X77129782Y-43967840D01*
X76771986Y-43967840D01*
X76771987Y-43967839D01*
X76589548Y-43785400D01*
X76325325Y-43785400D01*
X76102468Y-44008257D01*
X75710163Y-44008257D01*
X76161776Y-43556645D01*
X82057244Y-43556645D01*
X82289541Y-43788942D01*
X82644509Y-43433973D01*
X82289541Y-43079005D01*
X82284721Y-43083825D01*
X82284608Y-43086520D01*
X82284329Y-43090120D01*
X82283322Y-43099010D01*
X82278041Y-43134343D01*
X82276402Y-43143154D01*
X82275616Y-43146677D01*
X82273356Y-43155344D01*
X82267852Y-43173748D01*
X82264897Y-43192727D01*
X82263201Y-43201540D01*
X82262393Y-43205059D01*
X82260084Y-43213700D01*
X82249639Y-43247865D01*
X82246719Y-43256326D01*
X82245421Y-43259695D01*
X82241901Y-43267944D01*
X82235785Y-43280971D01*
X82231662Y-43294757D01*
X82228796Y-43303232D01*
X82227519Y-43306608D01*
X82224048Y-43314881D01*
X82209064Y-43347309D01*
X82205007Y-43355326D01*
X82203263Y-43358487D01*
X82198673Y-43366151D01*
X82188223Y-43382274D01*
X82180057Y-43399666D01*
X82175968Y-43407628D01*
X82174206Y-43410778D01*
X82169552Y-43418444D01*
X82149939Y-43448302D01*
X82144749Y-43455621D01*
X82142557Y-43458490D01*
X82136877Y-43465401D01*
X82127354Y-43476184D01*
X82119526Y-43488261D01*
X82114384Y-43495607D01*
X82112210Y-43498489D01*
X82106568Y-43505440D01*
X82083083Y-43532361D01*
X82076968Y-43538888D01*
X82074408Y-43541433D01*
X82067822Y-43547530D01*
X82057244Y-43556645D01*
X76161776Y-43556645D01*
X76173517Y-43544904D01*
X76235829Y-43510879D01*
X76262612Y-43508000D01*
X81491298Y-43508000D01*
X81492069Y-43508002D01*
X81569652Y-43508476D01*
X81578281Y-43506010D01*
X81578286Y-43506009D01*
X81598048Y-43500361D01*
X81614809Y-43496783D01*
X81635152Y-43493870D01*
X81635162Y-43493867D01*
X81644045Y-43492595D01*
X81667395Y-43481979D01*
X81684907Y-43475536D01*
X81700937Y-43470954D01*
X81709565Y-43468488D01*
X81734548Y-43452726D01*
X81749614Y-43444596D01*
X81776510Y-43432367D01*
X81795939Y-43415626D01*
X81810947Y-43404521D01*
X81825039Y-43395630D01*
X81832631Y-43390840D01*
X81852182Y-43368703D01*
X81864374Y-43356659D01*
X81879949Y-43343239D01*
X81879950Y-43343237D01*
X81886747Y-43337381D01*
X81891626Y-43329853D01*
X81891629Y-43329850D01*
X81900696Y-43315861D01*
X81911986Y-43300987D01*
X81923012Y-43288502D01*
X81928956Y-43281772D01*
X81941510Y-43255034D01*
X81949824Y-43240065D01*
X81965893Y-43215273D01*
X81973239Y-43190709D01*
X81979901Y-43173264D01*
X81986983Y-43158179D01*
X81990799Y-43150052D01*
X81995343Y-43120870D01*
X81999126Y-43104151D01*
X82005014Y-43084464D01*
X82005015Y-43084461D01*
X82007587Y-43075859D01*
X82007797Y-43041444D01*
X82007830Y-43040672D01*
X82008000Y-43039577D01*
X82008000Y-43008702D01*
X82008002Y-43007932D01*
X82008452Y-42934284D01*
X82008452Y-42934283D01*
X82008476Y-42930348D01*
X82008092Y-42929004D01*
X82008000Y-42927659D01*
X82008000Y-42900109D01*
X82468439Y-42900109D01*
X82697211Y-43128881D01*
X82697211Y-42671337D01*
X82468439Y-42900109D01*
X82008000Y-42900109D01*
X82008000Y-42717070D01*
X82285400Y-42717070D01*
X82289541Y-42721211D01*
X82644509Y-42366242D01*
X82289541Y-42011274D01*
X82285400Y-42015415D01*
X82285400Y-42717070D01*
X82008000Y-42717070D01*
X82008000Y-41832378D01*
X82468439Y-41832378D01*
X82697211Y-42061150D01*
X82697211Y-41603606D01*
X82468439Y-41832378D01*
X82008000Y-41832378D01*
X82008000Y-41649339D01*
X82285400Y-41649339D01*
X82289541Y-41653480D01*
X82644509Y-41298512D01*
X82289541Y-40943543D01*
X82285400Y-40947684D01*
X82285400Y-41649339D01*
X82008000Y-41649339D01*
X82008000Y-40764645D01*
X82468439Y-40764645D01*
X82697211Y-40993417D01*
X82697211Y-40535873D01*
X82468439Y-40764645D01*
X82008000Y-40764645D01*
X82008000Y-40581608D01*
X82285400Y-40581608D01*
X82289541Y-40585749D01*
X82644509Y-40230781D01*
X82289541Y-39875812D01*
X82285400Y-39879953D01*
X82285400Y-40581608D01*
X82008000Y-40581608D01*
X82008000Y-39696914D01*
X82468439Y-39696914D01*
X82697211Y-39925686D01*
X82697211Y-39468142D01*
X82468439Y-39696914D01*
X82008000Y-39696914D01*
X82008000Y-39513876D01*
X82285400Y-39513876D01*
X82289541Y-39518017D01*
X82644509Y-39163048D01*
X82289541Y-38808080D01*
X82285400Y-38812221D01*
X82285400Y-39513876D01*
X82008000Y-39513876D01*
X82008000Y-38629184D01*
X82468439Y-38629184D01*
X82697211Y-38857956D01*
X82697211Y-38400412D01*
X82468439Y-38629184D01*
X82008000Y-38629184D01*
X82008000Y-38446145D01*
X82285400Y-38446145D01*
X82289541Y-38450286D01*
X82644509Y-38095317D01*
X82289541Y-37740349D01*
X82285400Y-37744490D01*
X82285400Y-38446145D01*
X82008000Y-38446145D01*
X82008000Y-37561453D01*
X82468439Y-37561453D01*
X82697211Y-37790225D01*
X82697211Y-37332681D01*
X82468439Y-37561453D01*
X82008000Y-37561453D01*
X82008000Y-37378414D01*
X82285400Y-37378414D01*
X82289541Y-37382555D01*
X82644509Y-37027587D01*
X82289541Y-36672618D01*
X82285400Y-36676759D01*
X82285400Y-37378414D01*
X82008000Y-37378414D01*
X82008000Y-36493720D01*
X82468439Y-36493720D01*
X82697211Y-36722492D01*
X82697211Y-36264948D01*
X82468439Y-36493720D01*
X82008000Y-36493720D01*
X82008000Y-36310683D01*
X82285400Y-36310683D01*
X82289541Y-36314824D01*
X82644509Y-35959856D01*
X82289541Y-35604887D01*
X82285400Y-35609028D01*
X82285400Y-36310683D01*
X82008000Y-36310683D01*
X82008000Y-35425989D01*
X82468439Y-35425989D01*
X82697211Y-35654761D01*
X82697211Y-35197217D01*
X82468439Y-35425989D01*
X82008000Y-35425989D01*
X82008000Y-35242952D01*
X82285400Y-35242952D01*
X82289541Y-35247093D01*
X82644509Y-34892125D01*
X82289541Y-34537156D01*
X82285400Y-34541297D01*
X82285400Y-35242952D01*
X82008000Y-35242952D01*
X82008000Y-34358259D01*
X82468439Y-34358259D01*
X82697211Y-34587031D01*
X82697211Y-34129487D01*
X82468439Y-34358259D01*
X82008000Y-34358259D01*
X82008000Y-34175220D01*
X82285400Y-34175220D01*
X82289541Y-34179361D01*
X82644509Y-33824392D01*
X82289541Y-33469424D01*
X82285400Y-33473565D01*
X82285400Y-34175220D01*
X82008000Y-34175220D01*
X82008000Y-33290528D01*
X82468439Y-33290528D01*
X82697211Y-33519300D01*
X82697211Y-33061756D01*
X82468439Y-33290528D01*
X82008000Y-33290528D01*
X82008000Y-33107489D01*
X82285400Y-33107489D01*
X82289541Y-33111630D01*
X82644509Y-32756661D01*
X82289541Y-32401693D01*
X82285400Y-32405834D01*
X82285400Y-33107489D01*
X82008000Y-33107489D01*
X82008000Y-32222795D01*
X82468439Y-32222795D01*
X82697211Y-32451567D01*
X82697211Y-31994023D01*
X82468439Y-32222795D01*
X82008000Y-32222795D01*
X82008000Y-32039758D01*
X82285400Y-32039758D01*
X82289541Y-32043899D01*
X82644509Y-31688931D01*
X82289541Y-31333962D01*
X82285400Y-31338103D01*
X82285400Y-32039758D01*
X82008000Y-32039758D01*
X82008000Y-31155064D01*
X82468439Y-31155064D01*
X82697211Y-31383836D01*
X82697211Y-30926292D01*
X82468439Y-31155064D01*
X82008000Y-31155064D01*
X82008000Y-30972027D01*
X82285400Y-30972027D01*
X82289541Y-30976168D01*
X82644509Y-30621200D01*
X82289541Y-30266231D01*
X82285400Y-30270372D01*
X82285400Y-30972027D01*
X82008000Y-30972027D01*
X82008000Y-30087334D01*
X82468439Y-30087334D01*
X82697211Y-30316106D01*
X82697211Y-29858562D01*
X82468439Y-30087334D01*
X82008000Y-30087334D01*
X82008000Y-29904295D01*
X82285400Y-29904295D01*
X82289541Y-29908436D01*
X82644509Y-29553467D01*
X82289541Y-29198499D01*
X82285400Y-29202640D01*
X82285400Y-29904295D01*
X82008000Y-29904295D01*
X82008000Y-29019603D01*
X82468439Y-29019603D01*
X82697211Y-29248375D01*
X82697211Y-28790831D01*
X82468439Y-29019603D01*
X82008000Y-29019603D01*
X82008000Y-28836564D01*
X82285400Y-28836564D01*
X82289541Y-28840705D01*
X82644509Y-28485736D01*
X82289541Y-28130768D01*
X82285400Y-28134909D01*
X82285400Y-28836564D01*
X82008000Y-28836564D01*
X82008000Y-27458095D01*
X82028002Y-27389974D01*
X82081658Y-27343481D01*
X82151932Y-27333377D01*
X82216512Y-27362871D01*
G37*
G04 #@! TD.AperFunction*
M02*
