G04 #@! TF.GenerationSoftware,KiCad,Pcbnew,6.0.9-8da3e8f707~116~ubuntu20.04.1*
G04 #@! TF.CreationDate,2023-05-05T17:23:47+00:00*
G04 #@! TF.ProjectId,LEC009212,4c454330-3039-4323-9132-2e6b69636164,rev?*
G04 #@! TF.SameCoordinates,Original*
G04 #@! TF.FileFunction,Legend,Top*
G04 #@! TF.FilePolarity,Positive*
%FSLAX46Y46*%
G04 Gerber Fmt 4.6, Leading zero omitted, Abs format (unit mm)*
G04 Created by KiCad (PCBNEW 6.0.9-8da3e8f707~116~ubuntu20.04.1) date 2023-05-05 17:23:47*
%MOMM*%
%LPD*%
G01*
G04 APERTURE LIST*
%ADD10C,0.120000*%
%ADD11C,0.150000*%
%ADD12C,0.010000*%
%ADD13C,0.400000*%
G04 APERTURE END LIST*
D10*
X87000000Y-30800000D02*
X82250000Y-30800000D01*
X87000000Y-40200000D02*
X87250000Y-40200000D01*
X82250000Y-30800000D02*
X82250000Y-40200000D01*
X87250000Y-30800000D02*
X87000000Y-30800000D01*
X87250000Y-40200000D02*
X87250000Y-30800000D01*
X82250000Y-40200000D02*
X87000000Y-40200000D01*
D11*
G04 #@! TO.C,J1*
X93556380Y-49103333D02*
X94270666Y-49103333D01*
X94413523Y-49150952D01*
X94508761Y-49246190D01*
X94556380Y-49389047D01*
X94556380Y-49484285D01*
X94556380Y-48103333D02*
X94556380Y-48674761D01*
X94556380Y-48389047D02*
X93556380Y-48389047D01*
X93699238Y-48484285D01*
X93794476Y-48579523D01*
X93842095Y-48674761D01*
G04 #@! TO.C,U1*
X84238095Y-22452380D02*
X84238095Y-23261904D01*
X84285714Y-23357142D01*
X84333333Y-23404761D01*
X84428571Y-23452380D01*
X84619047Y-23452380D01*
X84714285Y-23404761D01*
X84761904Y-23357142D01*
X84809523Y-23261904D01*
X84809523Y-22452380D01*
X85809523Y-23452380D02*
X85238095Y-23452380D01*
X85523809Y-23452380D02*
X85523809Y-22452380D01*
X85428571Y-22595238D01*
X85333333Y-22690476D01*
X85238095Y-22738095D01*
D10*
G04 #@! TO.C,H1*
X73224903Y-49000000D02*
G75*
G03*
X73224903Y-49000000I-3224903J0D01*
G01*
G36*
X70500000Y-45800000D02*
G01*
X71500000Y-46100000D01*
X72300000Y-46700000D01*
X72800000Y-47400000D01*
X73100000Y-48100000D01*
X73200000Y-48500000D01*
X73200000Y-49000000D01*
X71600000Y-49000000D01*
X71600000Y-48900000D01*
X71500000Y-48500000D01*
X71300000Y-48100000D01*
X70900000Y-47700000D01*
X70500000Y-47500000D01*
X70100000Y-47400000D01*
X70000000Y-47400000D01*
X70000000Y-45775097D01*
X70500000Y-45800000D01*
G37*
D12*
X70500000Y-45800000D02*
X71500000Y-46100000D01*
X72300000Y-46700000D01*
X72800000Y-47400000D01*
X73100000Y-48100000D01*
X73200000Y-48500000D01*
X73200000Y-49000000D01*
X71600000Y-49000000D01*
X71600000Y-48900000D01*
X71500000Y-48500000D01*
X71300000Y-48100000D01*
X70900000Y-47700000D01*
X70500000Y-47500000D01*
X70100000Y-47400000D01*
X70000000Y-47400000D01*
X70000000Y-45775097D01*
X70500000Y-45800000D01*
G36*
X68400000Y-49100000D02*
G01*
X68500000Y-49500000D01*
X68700000Y-49900000D01*
X69100000Y-50300000D01*
X69500000Y-50500000D01*
X69900000Y-50600000D01*
X70000000Y-50600000D01*
X70000000Y-52224903D01*
X69500000Y-52200000D01*
X68500000Y-51900000D01*
X67700000Y-51300000D01*
X67200000Y-50600000D01*
X66900000Y-49900000D01*
X66800000Y-49500000D01*
X66800000Y-49000000D01*
X68400000Y-49000000D01*
X68400000Y-49100000D01*
G37*
X68400000Y-49100000D02*
X68500000Y-49500000D01*
X68700000Y-49900000D01*
X69100000Y-50300000D01*
X69500000Y-50500000D01*
X69900000Y-50600000D01*
X70000000Y-50600000D01*
X70000000Y-52224903D01*
X69500000Y-52200000D01*
X68500000Y-51900000D01*
X67700000Y-51300000D01*
X67200000Y-50600000D01*
X66900000Y-49900000D01*
X66800000Y-49500000D01*
X66800000Y-49000000D01*
X68400000Y-49000000D01*
X68400000Y-49100000D01*
D10*
G04 #@! TO.C,H2*
X103224903Y-49000000D02*
G75*
G03*
X103224903Y-49000000I-3224903J0D01*
G01*
G36*
X98400000Y-49100000D02*
G01*
X98500000Y-49500000D01*
X98700000Y-49900000D01*
X99100000Y-50300000D01*
X99500000Y-50500000D01*
X99900000Y-50600000D01*
X100000000Y-50600000D01*
X100000000Y-52224903D01*
X99500000Y-52200000D01*
X98500000Y-51900000D01*
X97700000Y-51300000D01*
X97200000Y-50600000D01*
X96900000Y-49900000D01*
X96800000Y-49500000D01*
X96800000Y-49000000D01*
X98400000Y-49000000D01*
X98400000Y-49100000D01*
G37*
D12*
X98400000Y-49100000D02*
X98500000Y-49500000D01*
X98700000Y-49900000D01*
X99100000Y-50300000D01*
X99500000Y-50500000D01*
X99900000Y-50600000D01*
X100000000Y-50600000D01*
X100000000Y-52224903D01*
X99500000Y-52200000D01*
X98500000Y-51900000D01*
X97700000Y-51300000D01*
X97200000Y-50600000D01*
X96900000Y-49900000D01*
X96800000Y-49500000D01*
X96800000Y-49000000D01*
X98400000Y-49000000D01*
X98400000Y-49100000D01*
G36*
X100500000Y-45800000D02*
G01*
X101500000Y-46100000D01*
X102300000Y-46700000D01*
X102800000Y-47400000D01*
X103100000Y-48100000D01*
X103200000Y-48500000D01*
X103200000Y-49000000D01*
X101600000Y-49000000D01*
X101600000Y-48900000D01*
X101500000Y-48500000D01*
X101300000Y-48100000D01*
X100900000Y-47700000D01*
X100500000Y-47500000D01*
X100100000Y-47400000D01*
X100000000Y-47400000D01*
X100000000Y-45775097D01*
X100500000Y-45800000D01*
G37*
X100500000Y-45800000D02*
X101500000Y-46100000D01*
X102300000Y-46700000D01*
X102800000Y-47400000D01*
X103100000Y-48100000D01*
X103200000Y-48500000D01*
X103200000Y-49000000D01*
X101600000Y-49000000D01*
X101600000Y-48900000D01*
X101500000Y-48500000D01*
X101300000Y-48100000D01*
X100900000Y-47700000D01*
X100500000Y-47500000D01*
X100100000Y-47400000D01*
X100000000Y-47400000D01*
X100000000Y-45775097D01*
X100500000Y-45800000D01*
D10*
G04 #@! TO.C,J1*
X92850000Y-44095000D02*
X92850000Y-53445000D01*
X93100000Y-43845000D02*
X93100000Y-46385000D01*
X77070000Y-44095000D02*
X92850000Y-44095000D01*
X77070000Y-53445000D02*
X77070000Y-44095000D01*
X92850000Y-53445000D02*
X77070000Y-53445000D01*
X93100000Y-43845000D02*
X90560000Y-43845000D01*
G04 #@! TO.C,U1*
X88200000Y-20500000D02*
X88200000Y-25500000D01*
X81800000Y-20500000D02*
X88200000Y-20500000D01*
X88200000Y-25500000D02*
X82800000Y-25500000D01*
X81800000Y-24500000D02*
X81800000Y-20500000D01*
X82800000Y-25500000D02*
X81800000Y-24500000D01*
D13*
X89200000Y-21000000D02*
G75*
G03*
X89200000Y-21000000I-200000J0D01*
G01*
G04 #@! TO.C,kibuzzard-620CD1AC*
G36*
X85934900Y-34249844D02*
G01*
X85964269Y-34344300D01*
X85932519Y-34433994D01*
X85864256Y-34461775D01*
X85784484Y-34431216D01*
X85757894Y-34339537D01*
X85794406Y-34237937D01*
X85830125Y-34221269D01*
X85876162Y-34217300D01*
X85934900Y-34249844D01*
G37*
G36*
X87215086Y-30820182D02*
G01*
X87215086Y-40179818D01*
X84984914Y-40179818D01*
X84984914Y-39525900D01*
X85516594Y-39525900D01*
X85527309Y-39607656D01*
X85559456Y-39649725D01*
X85601525Y-39664806D01*
X85656294Y-39667188D01*
X86538944Y-39667188D01*
X86619906Y-39657663D01*
X86665150Y-39615594D01*
X86680231Y-39527488D01*
X86680231Y-38955988D01*
X86664356Y-38873438D01*
X86629431Y-38846450D01*
X86561963Y-38838513D01*
X86494494Y-38846450D01*
X86457188Y-38878200D01*
X86445281Y-38954400D01*
X86445281Y-39386200D01*
X85657881Y-39386200D01*
X85575331Y-39394138D01*
X85531278Y-39437397D01*
X85516594Y-39525900D01*
X84984914Y-39525900D01*
X84984914Y-38590863D01*
X85516594Y-38590863D01*
X85545962Y-38705163D01*
X85656294Y-38735325D01*
X86538944Y-38735325D01*
X86619906Y-38725800D01*
X86665150Y-38683731D01*
X86680231Y-38595625D01*
X86680231Y-37966975D01*
X86670706Y-37884425D01*
X86628638Y-37840372D01*
X86540531Y-37825688D01*
X86458775Y-37836403D01*
X86416706Y-37868550D01*
X86401625Y-37910619D01*
X86399244Y-37965388D01*
X86399244Y-38454338D01*
X86238906Y-38454338D01*
X86238906Y-38143188D01*
X86229381Y-38060638D01*
X86187313Y-38015394D01*
X86099206Y-38000313D01*
X86017450Y-38011028D01*
X85975381Y-38043175D01*
X85960300Y-38085244D01*
X85957919Y-38140013D01*
X85957919Y-38454338D01*
X85797581Y-38454338D01*
X85797581Y-37966975D01*
X85788056Y-37884425D01*
X85745987Y-37840372D01*
X85657881Y-37825688D01*
X85576125Y-37836403D01*
X85534056Y-37868550D01*
X85518975Y-37910619D01*
X85516594Y-37965388D01*
X85516594Y-38590863D01*
X84984914Y-38590863D01*
X84984914Y-37139888D01*
X85505481Y-37139888D01*
X85515006Y-37244486D01*
X85543581Y-37348732D01*
X85591206Y-37452625D01*
X85641014Y-37530611D01*
X85701537Y-37599469D01*
X85776150Y-37658008D01*
X85868225Y-37705038D01*
X85974786Y-37735994D01*
X86092856Y-37746313D01*
X86212117Y-37735795D01*
X86322250Y-37704244D01*
X86418294Y-37656420D01*
X86495288Y-37597088D01*
X86557597Y-37527833D01*
X86609588Y-37450244D01*
X86649672Y-37369678D01*
X86676263Y-37291494D01*
X86691145Y-37214897D01*
X86696106Y-37139094D01*
X86689756Y-37062298D01*
X86670706Y-36982725D01*
X86629431Y-36875569D01*
X86596094Y-36820800D01*
X86556406Y-36770794D01*
X86500844Y-36749363D01*
X86411944Y-36784288D01*
X86345269Y-36839453D01*
X86323044Y-36890650D01*
X86354794Y-36966850D01*
X86375431Y-36995425D01*
X86400831Y-37058131D01*
X86413531Y-37151000D01*
X86396069Y-37253791D01*
X86343681Y-37352613D01*
X86243669Y-37433575D01*
X86176002Y-37457388D01*
X86100000Y-37465325D01*
X86023998Y-37457388D01*
X85956331Y-37433575D01*
X85857906Y-37354200D01*
X85804328Y-37253394D01*
X85786469Y-37151000D01*
X85799962Y-37050988D01*
X85840444Y-36973200D01*
X85875369Y-36892238D01*
X85853937Y-36839850D01*
X85789644Y-36781113D01*
X85701537Y-36747775D01*
X85626131Y-36789050D01*
X85597556Y-36833500D01*
X85575331Y-36871600D01*
X85528500Y-36988281D01*
X85511236Y-37064680D01*
X85505481Y-37139888D01*
X84984914Y-37139888D01*
X84984914Y-36225488D01*
X85499131Y-36225488D01*
X85510045Y-36328477D01*
X85542787Y-36418369D01*
X85591603Y-36492386D01*
X85650737Y-36547750D01*
X85727136Y-36591605D01*
X85827744Y-36631094D01*
X85908001Y-36651819D01*
X85998488Y-36664255D01*
X86099206Y-36668400D01*
X86210508Y-36663285D01*
X86313695Y-36647939D01*
X86408769Y-36622363D01*
X86488541Y-36588033D01*
X86556406Y-36545369D01*
X86613358Y-36489409D01*
X86660388Y-36415194D01*
X86691939Y-36325698D01*
X86702456Y-36223900D01*
X86692138Y-36122498D01*
X86661181Y-36034194D01*
X86614350Y-35961367D01*
X86556406Y-35906400D01*
X86464827Y-35852227D01*
X86358366Y-35813531D01*
X86237021Y-35790314D01*
X86100794Y-35782575D01*
X85995842Y-35787867D01*
X85894772Y-35803742D01*
X85797581Y-35830200D01*
X85717412Y-35863339D01*
X85648356Y-35905606D01*
X85590016Y-35961169D01*
X85541994Y-36034194D01*
X85509847Y-36122895D01*
X85499131Y-36225488D01*
X84984914Y-36225488D01*
X84984914Y-35260287D01*
X85499131Y-35260287D01*
X85510045Y-35363277D01*
X85542787Y-35453169D01*
X85591603Y-35527186D01*
X85650737Y-35582550D01*
X85727136Y-35626405D01*
X85827744Y-35665894D01*
X85908001Y-35686619D01*
X85998488Y-35699055D01*
X86099206Y-35703200D01*
X86210508Y-35698085D01*
X86313695Y-35682739D01*
X86408769Y-35657163D01*
X86488541Y-35622833D01*
X86556406Y-35580169D01*
X86613358Y-35524209D01*
X86660388Y-35449994D01*
X86691939Y-35360498D01*
X86702456Y-35258700D01*
X86692138Y-35157298D01*
X86661181Y-35068994D01*
X86614350Y-34996167D01*
X86556406Y-34941200D01*
X86464827Y-34887027D01*
X86358366Y-34848331D01*
X86237021Y-34825114D01*
X86100794Y-34817375D01*
X85995842Y-34822667D01*
X85894772Y-34838542D01*
X85797581Y-34865000D01*
X85717412Y-34898139D01*
X85648356Y-34940406D01*
X85590016Y-34995969D01*
X85541994Y-35068994D01*
X85509847Y-35157695D01*
X85499131Y-35260287D01*
X84984914Y-35260287D01*
X84984914Y-34345887D01*
X85497544Y-34345887D01*
X85509538Y-34449428D01*
X85545522Y-34542032D01*
X85605494Y-34623700D01*
X85683281Y-34687200D01*
X85772710Y-34725300D01*
X85873781Y-34738000D01*
X85957654Y-34725565D01*
X86035706Y-34688258D01*
X86107938Y-34626081D01*
X86165705Y-34546618D01*
X86200365Y-34457453D01*
X86211919Y-34358587D01*
X86184931Y-34239525D01*
X86207156Y-34247462D01*
X86262719Y-34278816D01*
X86324631Y-34334775D01*
X86378606Y-34429231D01*
X86400831Y-34555437D01*
X86410356Y-34647512D01*
X86452425Y-34692756D01*
X86540531Y-34707837D01*
X86621097Y-34696725D01*
X86665944Y-34663387D01*
X86681819Y-34577662D01*
X86681819Y-34568137D01*
X86673691Y-34454409D01*
X86649307Y-34350713D01*
X86608667Y-34257051D01*
X86551771Y-34173421D01*
X86478619Y-34099825D01*
X86393338Y-34038103D01*
X86300057Y-33990097D01*
X86198774Y-33955807D01*
X86089491Y-33935233D01*
X85972206Y-33928375D01*
X85841061Y-33940017D01*
X85727026Y-33974942D01*
X85630100Y-34033150D01*
X85556458Y-34114465D01*
X85512272Y-34218711D01*
X85497544Y-34345887D01*
X84984914Y-34345887D01*
X84984914Y-33421169D01*
X85499131Y-33421169D01*
X85513683Y-33540584D01*
X85557340Y-33643772D01*
X85630100Y-33730731D01*
X85721205Y-33796436D01*
X85819894Y-33835859D01*
X85926169Y-33849000D01*
X86007131Y-33841062D01*
X86052375Y-33797803D01*
X86067456Y-33709300D01*
X86057931Y-33628337D01*
X86029356Y-33585475D01*
X85989669Y-33570394D01*
X85937281Y-33568012D01*
X85927756Y-33568012D01*
X85891244Y-33561662D01*
X85817425Y-33519594D01*
X85780119Y-33431487D01*
X85794406Y-33352112D01*
X85825362Y-33310044D01*
X85868225Y-33285437D01*
X85908706Y-33274325D01*
X85978159Y-33289208D01*
X86043644Y-33333856D01*
X86103770Y-33399539D01*
X86157150Y-33477525D01*
X86207553Y-33561662D01*
X86258750Y-33645800D01*
X86315503Y-33723786D01*
X86382575Y-33789469D01*
X86458180Y-33834117D01*
X86540531Y-33849000D01*
X86640544Y-33807725D01*
X86683406Y-33709300D01*
X86683406Y-33088587D01*
X86664356Y-32990162D01*
X86623081Y-32956031D01*
X86542913Y-32945712D01*
X86461950Y-32955237D01*
X86415913Y-32992544D01*
X86400831Y-33085412D01*
X86400831Y-33375925D01*
X86392894Y-33375925D01*
X86377019Y-33336237D01*
X86323441Y-33237812D01*
X86235731Y-33126687D01*
X86178581Y-33075094D01*
X86105556Y-33031437D01*
X86022212Y-33001672D01*
X85934106Y-32991750D01*
X85825010Y-33004979D01*
X85724203Y-33044667D01*
X85631687Y-33110812D01*
X85558045Y-33198213D01*
X85513860Y-33301665D01*
X85499131Y-33421169D01*
X84984914Y-33421169D01*
X84984914Y-32486131D01*
X85515006Y-32486131D01*
X85556281Y-32575825D01*
X85559456Y-32580587D01*
X85794406Y-32840937D01*
X85888069Y-32898087D01*
X85986494Y-32848081D01*
X86042056Y-32752037D01*
X85992844Y-32640912D01*
X85973794Y-32620275D01*
X86540531Y-32620275D01*
X86598475Y-32617894D01*
X86642131Y-32602812D01*
X86673088Y-32560347D01*
X86683406Y-32480575D01*
X86672691Y-32398819D01*
X86640544Y-32356750D01*
X86598475Y-32341669D01*
X86543706Y-32339287D01*
X85659469Y-32339287D01*
X85575331Y-32347225D01*
X85541200Y-32369450D01*
X85522944Y-32410725D01*
X85515006Y-32486131D01*
X84984914Y-32486131D01*
X84984914Y-31808269D01*
X85499131Y-31808269D01*
X85513683Y-31927684D01*
X85557340Y-32030872D01*
X85630100Y-32117831D01*
X85721205Y-32183536D01*
X85819894Y-32222959D01*
X85926169Y-32236100D01*
X86007131Y-32228162D01*
X86052375Y-32184903D01*
X86067456Y-32096400D01*
X86057931Y-32015437D01*
X86029356Y-31972575D01*
X85989669Y-31957494D01*
X85937281Y-31955112D01*
X85927756Y-31955112D01*
X85891244Y-31948762D01*
X85817425Y-31906694D01*
X85780119Y-31818587D01*
X85794406Y-31739212D01*
X85825362Y-31697144D01*
X85868225Y-31672537D01*
X85908706Y-31661425D01*
X85978159Y-31676308D01*
X86043644Y-31720956D01*
X86103770Y-31786639D01*
X86157150Y-31864625D01*
X86207553Y-31948762D01*
X86258750Y-32032900D01*
X86315503Y-32110886D01*
X86382575Y-32176569D01*
X86458180Y-32221217D01*
X86540531Y-32236100D01*
X86640544Y-32194825D01*
X86683406Y-32096400D01*
X86683406Y-31475688D01*
X86664356Y-31377262D01*
X86623081Y-31343131D01*
X86542913Y-31332812D01*
X86461950Y-31342337D01*
X86415913Y-31379644D01*
X86400831Y-31472512D01*
X86400831Y-31763025D01*
X86392894Y-31763025D01*
X86377019Y-31723337D01*
X86323441Y-31624912D01*
X86235731Y-31513787D01*
X86178581Y-31462194D01*
X86105556Y-31418537D01*
X86022212Y-31388772D01*
X85934106Y-31378850D01*
X85825010Y-31392079D01*
X85724203Y-31431767D01*
X85631687Y-31497912D01*
X85558045Y-31585313D01*
X85513860Y-31688765D01*
X85499131Y-31808269D01*
X84984914Y-31808269D01*
X84984914Y-30820182D01*
X87215086Y-30820182D01*
G37*
G36*
X86244859Y-35108582D02*
G01*
X86342094Y-35139241D01*
X86400434Y-35190338D01*
X86419881Y-35261875D01*
X86399889Y-35332023D01*
X86339911Y-35382128D01*
X86239948Y-35412191D01*
X86100000Y-35422212D01*
X85960052Y-35412092D01*
X85860089Y-35381731D01*
X85800111Y-35331130D01*
X85780119Y-35260287D01*
X85800062Y-35189445D01*
X85859891Y-35138844D01*
X85959605Y-35108483D01*
X86099206Y-35098362D01*
X86108731Y-35098362D01*
X86244859Y-35108582D01*
G37*
G36*
X86244859Y-36073782D02*
G01*
X86342094Y-36104441D01*
X86400434Y-36155538D01*
X86419881Y-36227075D01*
X86399889Y-36297223D01*
X86339911Y-36347328D01*
X86239948Y-36377391D01*
X86100000Y-36387413D01*
X85960052Y-36377292D01*
X85860089Y-36346931D01*
X85800111Y-36296330D01*
X85780119Y-36225488D01*
X85800062Y-36154645D01*
X85859891Y-36104044D01*
X85959605Y-36073683D01*
X86099206Y-36063563D01*
X86108731Y-36063563D01*
X86244859Y-36073782D01*
G37*
G04 #@! TD*
M02*
