G04 #@! TF.GenerationSoftware,KiCad,Pcbnew,6.0.9-8da3e8f707~116~ubuntu20.04.1*
G04 #@! TF.CreationDate,2023-05-05T17:23:47+00:00*
G04 #@! TF.ProjectId,LEC009212,4c454330-3039-4323-9132-2e6b69636164,rev?*
G04 #@! TF.SameCoordinates,Original*
G04 #@! TF.FileFunction,Soldermask,Top*
G04 #@! TF.FilePolarity,Negative*
%FSLAX46Y46*%
G04 Gerber Fmt 4.6, Leading zero omitted, Abs format (unit mm)*
G04 Created by KiCad (PCBNEW 6.0.9-8da3e8f707~116~ubuntu20.04.1) date 2023-05-05 17:23:47*
%MOMM*%
%LPD*%
G01*
G04 APERTURE LIST*
G04 Aperture macros list*
%AMRoundRect*
0 Rectangle with rounded corners*
0 $1 Rounding radius*
0 $2 $3 $4 $5 $6 $7 $8 $9 X,Y pos of 4 corners*
0 Add a 4 corners polygon primitive as box body*
4,1,4,$2,$3,$4,$5,$6,$7,$8,$9,$2,$3,0*
0 Add four circle primitives for the rounded corners*
1,1,$1+$1,$2,$3*
1,1,$1+$1,$4,$5*
1,1,$1+$1,$6,$7*
1,1,$1+$1,$8,$9*
0 Add four rect primitives between the rounded corners*
20,1,$1+$1,$2,$3,$4,$5,0*
20,1,$1+$1,$4,$5,$6,$7,0*
20,1,$1+$1,$6,$7,$8,$9,0*
20,1,$1+$1,$8,$9,$2,$3,0*%
G04 Aperture macros list end*
%ADD10C,0.010000*%
%ADD11C,3.300000*%
%ADD12RoundRect,0.050000X-0.863600X0.863600X-0.863600X-0.863600X0.863600X-0.863600X0.863600X0.863600X0*%
%ADD13O,1.827200X1.827200*%
%ADD14C,1.624000*%
G04 APERTURE END LIST*
G04 #@! TO.C,LOGO1*
G36*
X83347001Y-31829871D02*
G01*
X83353439Y-31833923D01*
X83362779Y-31840183D01*
X83374461Y-31848245D01*
X83387928Y-31857707D01*
X83402622Y-31868162D01*
X83417984Y-31879207D01*
X83433457Y-31890438D01*
X83448483Y-31901449D01*
X83462504Y-31911838D01*
X83474962Y-31921199D01*
X83485298Y-31929128D01*
X83492955Y-31935221D01*
X83497375Y-31939073D01*
X83498247Y-31940190D01*
X83496223Y-31941929D01*
X83490295Y-31946496D01*
X83480671Y-31953736D01*
X83467561Y-31963498D01*
X83451174Y-31975627D01*
X83431719Y-31989971D01*
X83409405Y-32006375D01*
X83384442Y-32024687D01*
X83357037Y-32044753D01*
X83327402Y-32066421D01*
X83295743Y-32089535D01*
X83262272Y-32113944D01*
X83227196Y-32139494D01*
X83190724Y-32166032D01*
X83153067Y-32193404D01*
X83141493Y-32201810D01*
X83103445Y-32229442D01*
X83066468Y-32256293D01*
X83030772Y-32282211D01*
X82996572Y-32307040D01*
X82964081Y-32330626D01*
X82933511Y-32352814D01*
X82905075Y-32373451D01*
X82878985Y-32392382D01*
X82855456Y-32409452D01*
X82834699Y-32424507D01*
X82816927Y-32437392D01*
X82802354Y-32447953D01*
X82791192Y-32456036D01*
X82783654Y-32461486D01*
X82779952Y-32464149D01*
X82779630Y-32464375D01*
X82778417Y-32465123D01*
X82777412Y-32465285D01*
X82776595Y-32464437D01*
X82775947Y-32462156D01*
X82775449Y-32458019D01*
X82775081Y-32451601D01*
X82774823Y-32442478D01*
X82774655Y-32430228D01*
X82774559Y-32414427D01*
X82774514Y-32394651D01*
X82774500Y-32370475D01*
X82774499Y-32353446D01*
X82774500Y-32239032D01*
X83057044Y-32033731D01*
X83090835Y-32009201D01*
X83123537Y-31985507D01*
X83154909Y-31962820D01*
X83184714Y-31941311D01*
X83212711Y-31921152D01*
X83238663Y-31902513D01*
X83262329Y-31885565D01*
X83283470Y-31870480D01*
X83301848Y-31857429D01*
X83317223Y-31846582D01*
X83329356Y-31838111D01*
X83338009Y-31832186D01*
X83342942Y-31828979D01*
X83344021Y-31828430D01*
X83347001Y-31829871D01*
G37*
D10*
X83347001Y-31829871D02*
X83353439Y-31833923D01*
X83362779Y-31840183D01*
X83374461Y-31848245D01*
X83387928Y-31857707D01*
X83402622Y-31868162D01*
X83417984Y-31879207D01*
X83433457Y-31890438D01*
X83448483Y-31901449D01*
X83462504Y-31911838D01*
X83474962Y-31921199D01*
X83485298Y-31929128D01*
X83492955Y-31935221D01*
X83497375Y-31939073D01*
X83498247Y-31940190D01*
X83496223Y-31941929D01*
X83490295Y-31946496D01*
X83480671Y-31953736D01*
X83467561Y-31963498D01*
X83451174Y-31975627D01*
X83431719Y-31989971D01*
X83409405Y-32006375D01*
X83384442Y-32024687D01*
X83357037Y-32044753D01*
X83327402Y-32066421D01*
X83295743Y-32089535D01*
X83262272Y-32113944D01*
X83227196Y-32139494D01*
X83190724Y-32166032D01*
X83153067Y-32193404D01*
X83141493Y-32201810D01*
X83103445Y-32229442D01*
X83066468Y-32256293D01*
X83030772Y-32282211D01*
X82996572Y-32307040D01*
X82964081Y-32330626D01*
X82933511Y-32352814D01*
X82905075Y-32373451D01*
X82878985Y-32392382D01*
X82855456Y-32409452D01*
X82834699Y-32424507D01*
X82816927Y-32437392D01*
X82802354Y-32447953D01*
X82791192Y-32456036D01*
X82783654Y-32461486D01*
X82779952Y-32464149D01*
X82779630Y-32464375D01*
X82778417Y-32465123D01*
X82777412Y-32465285D01*
X82776595Y-32464437D01*
X82775947Y-32462156D01*
X82775449Y-32458019D01*
X82775081Y-32451601D01*
X82774823Y-32442478D01*
X82774655Y-32430228D01*
X82774559Y-32414427D01*
X82774514Y-32394651D01*
X82774500Y-32370475D01*
X82774499Y-32353446D01*
X82774500Y-32239032D01*
X83057044Y-32033731D01*
X83090835Y-32009201D01*
X83123537Y-31985507D01*
X83154909Y-31962820D01*
X83184714Y-31941311D01*
X83212711Y-31921152D01*
X83238663Y-31902513D01*
X83262329Y-31885565D01*
X83283470Y-31870480D01*
X83301848Y-31857429D01*
X83317223Y-31846582D01*
X83329356Y-31838111D01*
X83338009Y-31832186D01*
X83342942Y-31828979D01*
X83344021Y-31828430D01*
X83347001Y-31829871D01*
G36*
X84052120Y-39759580D02*
G01*
X82777040Y-39759580D01*
X82777040Y-39538600D01*
X84052120Y-39538600D01*
X84052120Y-39759580D01*
G37*
X84052120Y-39759580D02*
X82777040Y-39759580D01*
X82777040Y-39538600D01*
X84052120Y-39538600D01*
X84052120Y-39759580D01*
G36*
X82987860Y-37940940D02*
G01*
X83300280Y-37940940D01*
X83300280Y-38164460D01*
X82766880Y-38164460D01*
X82766880Y-37067180D01*
X82987860Y-37067180D01*
X82987860Y-37940940D01*
G37*
X82987860Y-37940940D02*
X83300280Y-37940940D01*
X83300280Y-38164460D01*
X82766880Y-38164460D01*
X82766880Y-37067180D01*
X82987860Y-37067180D01*
X82987860Y-37940940D01*
G36*
X84445820Y-34349380D02*
G01*
X83163120Y-34349380D01*
X83163120Y-34128400D01*
X84445820Y-34128400D01*
X84445820Y-34349380D01*
G37*
X84445820Y-34349380D02*
X83163120Y-34349380D01*
X83163120Y-34128400D01*
X84445820Y-34128400D01*
X84445820Y-34349380D01*
G36*
X84062864Y-35224350D02*
G01*
X84068246Y-35226764D01*
X84076130Y-35231171D01*
X84087022Y-35237839D01*
X84101432Y-35247037D01*
X84106730Y-35250468D01*
X84157247Y-35286255D01*
X84204456Y-35325767D01*
X84248181Y-35368747D01*
X84288245Y-35414939D01*
X84324473Y-35464085D01*
X84356690Y-35515929D01*
X84384719Y-35570214D01*
X84408386Y-35626683D01*
X84427513Y-35685078D01*
X84440608Y-35738614D01*
X84444715Y-35759549D01*
X84447937Y-35778693D01*
X84450387Y-35797214D01*
X84452177Y-35816279D01*
X84453419Y-35837056D01*
X84454226Y-35860714D01*
X84454665Y-35884810D01*
X84454860Y-35903035D01*
X84454960Y-35919929D01*
X84454966Y-35934719D01*
X84454880Y-35946633D01*
X84454704Y-35954897D01*
X84454485Y-35958470D01*
X84453741Y-35964358D01*
X84452630Y-35973690D01*
X84451341Y-35984862D01*
X84450735Y-35990220D01*
X84442047Y-36045997D01*
X84428574Y-36101993D01*
X84410545Y-36157599D01*
X84388188Y-36212206D01*
X84361731Y-36265203D01*
X84331401Y-36315981D01*
X84325955Y-36324230D01*
X84305098Y-36354202D01*
X84284653Y-36380956D01*
X84263317Y-36406058D01*
X84239790Y-36431073D01*
X84224501Y-36446282D01*
X84177656Y-36488480D01*
X84128179Y-36526384D01*
X84076236Y-36559914D01*
X84021994Y-36588986D01*
X83965618Y-36613518D01*
X83907274Y-36633426D01*
X83847129Y-36648629D01*
X83801477Y-36656813D01*
X83792261Y-36658020D01*
X83779810Y-36659423D01*
X83765307Y-36660913D01*
X83749937Y-36662382D01*
X83734885Y-36663719D01*
X83721334Y-36664815D01*
X83710470Y-36665562D01*
X83703505Y-36665850D01*
X83703107Y-36663398D01*
X83702738Y-36656379D01*
X83702405Y-36645308D01*
X83702119Y-36630696D01*
X83701886Y-36613059D01*
X83701717Y-36592909D01*
X83701620Y-36570759D01*
X83701600Y-36554481D01*
X83701600Y-36443101D01*
X83735255Y-36441598D01*
X83784642Y-36436880D01*
X83833391Y-36427286D01*
X83881126Y-36413012D01*
X83927472Y-36394257D01*
X83972055Y-36371216D01*
X84014500Y-36344087D01*
X84054432Y-36313067D01*
X84091476Y-36278352D01*
X84125258Y-36240140D01*
X84130066Y-36234060D01*
X84158193Y-36193962D01*
X84182754Y-36150655D01*
X84203491Y-36104786D01*
X84220147Y-36057001D01*
X84232466Y-36007946D01*
X84240191Y-35958267D01*
X84240331Y-35956939D01*
X84241812Y-35935583D01*
X84242277Y-35910988D01*
X84241784Y-35884830D01*
X84240393Y-35858784D01*
X84238161Y-35834525D01*
X84235369Y-35814960D01*
X84223968Y-35764580D01*
X84208011Y-35715829D01*
X84187722Y-35669027D01*
X84163326Y-35624494D01*
X84135050Y-35582553D01*
X84103119Y-35543523D01*
X84067757Y-35507725D01*
X84029189Y-35475479D01*
X83987642Y-35447107D01*
X83969570Y-35436541D01*
X83961866Y-35432236D01*
X83956162Y-35429023D01*
X83953660Y-35427581D01*
X83953648Y-35427572D01*
X83954589Y-35425282D01*
X83957586Y-35419034D01*
X83962356Y-35409378D01*
X83968617Y-35396866D01*
X83976087Y-35382050D01*
X83984484Y-35365482D01*
X83993526Y-35347712D01*
X84002930Y-35329291D01*
X84012414Y-35310773D01*
X84021697Y-35292708D01*
X84030496Y-35275647D01*
X84038530Y-35260143D01*
X84045515Y-35246746D01*
X84051170Y-35236008D01*
X84055212Y-35228481D01*
X84057360Y-35224716D01*
X84057574Y-35224421D01*
X84059476Y-35223658D01*
X84062864Y-35224350D01*
G37*
X84062864Y-35224350D02*
X84068246Y-35226764D01*
X84076130Y-35231171D01*
X84087022Y-35237839D01*
X84101432Y-35247037D01*
X84106730Y-35250468D01*
X84157247Y-35286255D01*
X84204456Y-35325767D01*
X84248181Y-35368747D01*
X84288245Y-35414939D01*
X84324473Y-35464085D01*
X84356690Y-35515929D01*
X84384719Y-35570214D01*
X84408386Y-35626683D01*
X84427513Y-35685078D01*
X84440608Y-35738614D01*
X84444715Y-35759549D01*
X84447937Y-35778693D01*
X84450387Y-35797214D01*
X84452177Y-35816279D01*
X84453419Y-35837056D01*
X84454226Y-35860714D01*
X84454665Y-35884810D01*
X84454860Y-35903035D01*
X84454960Y-35919929D01*
X84454966Y-35934719D01*
X84454880Y-35946633D01*
X84454704Y-35954897D01*
X84454485Y-35958470D01*
X84453741Y-35964358D01*
X84452630Y-35973690D01*
X84451341Y-35984862D01*
X84450735Y-35990220D01*
X84442047Y-36045997D01*
X84428574Y-36101993D01*
X84410545Y-36157599D01*
X84388188Y-36212206D01*
X84361731Y-36265203D01*
X84331401Y-36315981D01*
X84325955Y-36324230D01*
X84305098Y-36354202D01*
X84284653Y-36380956D01*
X84263317Y-36406058D01*
X84239790Y-36431073D01*
X84224501Y-36446282D01*
X84177656Y-36488480D01*
X84128179Y-36526384D01*
X84076236Y-36559914D01*
X84021994Y-36588986D01*
X83965618Y-36613518D01*
X83907274Y-36633426D01*
X83847129Y-36648629D01*
X83801477Y-36656813D01*
X83792261Y-36658020D01*
X83779810Y-36659423D01*
X83765307Y-36660913D01*
X83749937Y-36662382D01*
X83734885Y-36663719D01*
X83721334Y-36664815D01*
X83710470Y-36665562D01*
X83703505Y-36665850D01*
X83703107Y-36663398D01*
X83702738Y-36656379D01*
X83702405Y-36645308D01*
X83702119Y-36630696D01*
X83701886Y-36613059D01*
X83701717Y-36592909D01*
X83701620Y-36570759D01*
X83701600Y-36554481D01*
X83701600Y-36443101D01*
X83735255Y-36441598D01*
X83784642Y-36436880D01*
X83833391Y-36427286D01*
X83881126Y-36413012D01*
X83927472Y-36394257D01*
X83972055Y-36371216D01*
X84014500Y-36344087D01*
X84054432Y-36313067D01*
X84091476Y-36278352D01*
X84125258Y-36240140D01*
X84130066Y-36234060D01*
X84158193Y-36193962D01*
X84182754Y-36150655D01*
X84203491Y-36104786D01*
X84220147Y-36057001D01*
X84232466Y-36007946D01*
X84240191Y-35958267D01*
X84240331Y-35956939D01*
X84241812Y-35935583D01*
X84242277Y-35910988D01*
X84241784Y-35884830D01*
X84240393Y-35858784D01*
X84238161Y-35834525D01*
X84235369Y-35814960D01*
X84223968Y-35764580D01*
X84208011Y-35715829D01*
X84187722Y-35669027D01*
X84163326Y-35624494D01*
X84135050Y-35582553D01*
X84103119Y-35543523D01*
X84067757Y-35507725D01*
X84029189Y-35475479D01*
X83987642Y-35447107D01*
X83969570Y-35436541D01*
X83961866Y-35432236D01*
X83956162Y-35429023D01*
X83953660Y-35427581D01*
X83953648Y-35427572D01*
X83954589Y-35425282D01*
X83957586Y-35419034D01*
X83962356Y-35409378D01*
X83968617Y-35396866D01*
X83976087Y-35382050D01*
X83984484Y-35365482D01*
X83993526Y-35347712D01*
X84002930Y-35329291D01*
X84012414Y-35310773D01*
X84021697Y-35292708D01*
X84030496Y-35275647D01*
X84038530Y-35260143D01*
X84045515Y-35246746D01*
X84051170Y-35236008D01*
X84055212Y-35228481D01*
X84057360Y-35224716D01*
X84057574Y-35224421D01*
X84059476Y-35223658D01*
X84062864Y-35224350D01*
G36*
X82995480Y-34918340D02*
G01*
X82774500Y-34918340D01*
X82774500Y-33549280D01*
X82995480Y-33549280D01*
X82995480Y-34918340D01*
G37*
X82995480Y-34918340D02*
X82774500Y-34918340D01*
X82774500Y-33549280D01*
X82995480Y-33549280D01*
X82995480Y-34918340D01*
G36*
X84453440Y-38159380D02*
G01*
X84229920Y-38159380D01*
X84229920Y-37067180D01*
X84453440Y-37067180D01*
X84453440Y-38159380D01*
G37*
X84453440Y-38159380D02*
X84229920Y-38159380D01*
X84229920Y-37067180D01*
X84453440Y-37067180D01*
X84453440Y-38159380D01*
G36*
X83709220Y-37940940D02*
G01*
X84052120Y-37940940D01*
X84052120Y-38161920D01*
X83485700Y-38161920D01*
X83485700Y-37181480D01*
X83709220Y-37181480D01*
X83709220Y-37940940D01*
G37*
X83709220Y-37940940D02*
X84052120Y-37940940D01*
X84052120Y-38161920D01*
X83485700Y-38161920D01*
X83485700Y-37181480D01*
X83709220Y-37181480D01*
X83709220Y-37940940D01*
G36*
X84453440Y-39759580D02*
G01*
X84229920Y-39759580D01*
X84229920Y-38611500D01*
X84453440Y-38611500D01*
X84453440Y-39759580D01*
G37*
X84453440Y-39759580D02*
X84229920Y-39759580D01*
X84229920Y-38611500D01*
X84453440Y-38611500D01*
X84453440Y-39759580D01*
G36*
X83148046Y-35260073D02*
G01*
X83149794Y-35262384D01*
X83153936Y-35268416D01*
X83160116Y-35277624D01*
X83167976Y-35289459D01*
X83177159Y-35303373D01*
X83187308Y-35318819D01*
X83198066Y-35335250D01*
X83209075Y-35352117D01*
X83219979Y-35368873D01*
X83230419Y-35384971D01*
X83240039Y-35399862D01*
X83248482Y-35413000D01*
X83255390Y-35423835D01*
X83260407Y-35431822D01*
X83263174Y-35436412D01*
X83263584Y-35437206D01*
X83262718Y-35440032D01*
X83258095Y-35444095D01*
X83249339Y-35449695D01*
X83243914Y-35452816D01*
X83216428Y-35469911D01*
X83188002Y-35490573D01*
X83159852Y-35513771D01*
X83133197Y-35538472D01*
X83109254Y-35563644D01*
X83099140Y-35575520D01*
X83069172Y-35616154D01*
X83043127Y-35659753D01*
X83021226Y-35705804D01*
X83003690Y-35753792D01*
X82990740Y-35803203D01*
X82983813Y-35843548D01*
X82981768Y-35865054D01*
X82980722Y-35889779D01*
X82980637Y-35916240D01*
X82981480Y-35942955D01*
X82983214Y-35968443D01*
X82985804Y-35991221D01*
X82987603Y-36002174D01*
X82999608Y-36052714D01*
X83016099Y-36101225D01*
X83036857Y-36147466D01*
X83061666Y-36191196D01*
X83090308Y-36232174D01*
X83122566Y-36270159D01*
X83158223Y-36304910D01*
X83197062Y-36336186D01*
X83238864Y-36363748D01*
X83283413Y-36387352D01*
X83330492Y-36406760D01*
X83361621Y-36416801D01*
X83406052Y-36427444D01*
X83452105Y-36434072D01*
X83490145Y-36436568D01*
X83531420Y-36437972D01*
X83531420Y-36658969D01*
X83486335Y-36657493D01*
X83426765Y-36653049D01*
X83368219Y-36643761D01*
X83310945Y-36629804D01*
X83255192Y-36611357D01*
X83201206Y-36588595D01*
X83149239Y-36561694D01*
X83099537Y-36530832D01*
X83052349Y-36496184D01*
X83007923Y-36457927D01*
X82966510Y-36416238D01*
X82928355Y-36371292D01*
X82893709Y-36323267D01*
X82862820Y-36272339D01*
X82835936Y-36218684D01*
X82822046Y-36185800D01*
X82803465Y-36132923D01*
X82788763Y-36078211D01*
X82777716Y-36020795D01*
X82775434Y-36005460D01*
X82773688Y-35989281D01*
X82772339Y-35969218D01*
X82771399Y-35946456D01*
X82770875Y-35922175D01*
X82770777Y-35897559D01*
X82771115Y-35873791D01*
X82771898Y-35852051D01*
X82773135Y-35833524D01*
X82774013Y-35825120D01*
X82784111Y-35763464D01*
X82798858Y-35703518D01*
X82818120Y-35645498D01*
X82841760Y-35589620D01*
X82869642Y-35536099D01*
X82901632Y-35485150D01*
X82937592Y-35436988D01*
X82977388Y-35391829D01*
X83020884Y-35349889D01*
X83067944Y-35311383D01*
X83118433Y-35276525D01*
X83120462Y-35275247D01*
X83130604Y-35269050D01*
X83139176Y-35264127D01*
X83145284Y-35260968D01*
X83148034Y-35260067D01*
X83148046Y-35260073D01*
G37*
X83148046Y-35260073D02*
X83149794Y-35262384D01*
X83153936Y-35268416D01*
X83160116Y-35277624D01*
X83167976Y-35289459D01*
X83177159Y-35303373D01*
X83187308Y-35318819D01*
X83198066Y-35335250D01*
X83209075Y-35352117D01*
X83219979Y-35368873D01*
X83230419Y-35384971D01*
X83240039Y-35399862D01*
X83248482Y-35413000D01*
X83255390Y-35423835D01*
X83260407Y-35431822D01*
X83263174Y-35436412D01*
X83263584Y-35437206D01*
X83262718Y-35440032D01*
X83258095Y-35444095D01*
X83249339Y-35449695D01*
X83243914Y-35452816D01*
X83216428Y-35469911D01*
X83188002Y-35490573D01*
X83159852Y-35513771D01*
X83133197Y-35538472D01*
X83109254Y-35563644D01*
X83099140Y-35575520D01*
X83069172Y-35616154D01*
X83043127Y-35659753D01*
X83021226Y-35705804D01*
X83003690Y-35753792D01*
X82990740Y-35803203D01*
X82983813Y-35843548D01*
X82981768Y-35865054D01*
X82980722Y-35889779D01*
X82980637Y-35916240D01*
X82981480Y-35942955D01*
X82983214Y-35968443D01*
X82985804Y-35991221D01*
X82987603Y-36002174D01*
X82999608Y-36052714D01*
X83016099Y-36101225D01*
X83036857Y-36147466D01*
X83061666Y-36191196D01*
X83090308Y-36232174D01*
X83122566Y-36270159D01*
X83158223Y-36304910D01*
X83197062Y-36336186D01*
X83238864Y-36363748D01*
X83283413Y-36387352D01*
X83330492Y-36406760D01*
X83361621Y-36416801D01*
X83406052Y-36427444D01*
X83452105Y-36434072D01*
X83490145Y-36436568D01*
X83531420Y-36437972D01*
X83531420Y-36658969D01*
X83486335Y-36657493D01*
X83426765Y-36653049D01*
X83368219Y-36643761D01*
X83310945Y-36629804D01*
X83255192Y-36611357D01*
X83201206Y-36588595D01*
X83149239Y-36561694D01*
X83099537Y-36530832D01*
X83052349Y-36496184D01*
X83007923Y-36457927D01*
X82966510Y-36416238D01*
X82928355Y-36371292D01*
X82893709Y-36323267D01*
X82862820Y-36272339D01*
X82835936Y-36218684D01*
X82822046Y-36185800D01*
X82803465Y-36132923D01*
X82788763Y-36078211D01*
X82777716Y-36020795D01*
X82775434Y-36005460D01*
X82773688Y-35989281D01*
X82772339Y-35969218D01*
X82771399Y-35946456D01*
X82770875Y-35922175D01*
X82770777Y-35897559D01*
X82771115Y-35873791D01*
X82771898Y-35852051D01*
X82773135Y-35833524D01*
X82774013Y-35825120D01*
X82784111Y-35763464D01*
X82798858Y-35703518D01*
X82818120Y-35645498D01*
X82841760Y-35589620D01*
X82869642Y-35536099D01*
X82901632Y-35485150D01*
X82937592Y-35436988D01*
X82977388Y-35391829D01*
X83020884Y-35349889D01*
X83067944Y-35311383D01*
X83118433Y-35276525D01*
X83120462Y-35275247D01*
X83130604Y-35269050D01*
X83139176Y-35264127D01*
X83145284Y-35260968D01*
X83148034Y-35260067D01*
X83148046Y-35260073D01*
G36*
X84445820Y-33102240D02*
G01*
X82774500Y-33102240D01*
X82774500Y-32881260D01*
X84445820Y-32881260D01*
X84445820Y-33102240D01*
G37*
X84445820Y-33102240D02*
X82774500Y-33102240D01*
X82774500Y-32881260D01*
X84445820Y-32881260D01*
X84445820Y-33102240D01*
G36*
X83199183Y-31297852D02*
G01*
X83240298Y-31327936D01*
X83280325Y-31357213D01*
X83319069Y-31385542D01*
X83356338Y-31412783D01*
X83391940Y-31438794D01*
X83425680Y-31463434D01*
X83457366Y-31486564D01*
X83486806Y-31508043D01*
X83513806Y-31527729D01*
X83538172Y-31545482D01*
X83559713Y-31561161D01*
X83578236Y-31574626D01*
X83593546Y-31585735D01*
X83605452Y-31594349D01*
X83613760Y-31600326D01*
X83618277Y-31603526D01*
X83619087Y-31604054D01*
X83621269Y-31602593D01*
X83627370Y-31598293D01*
X83637192Y-31591297D01*
X83650541Y-31581744D01*
X83667220Y-31569776D01*
X83687032Y-31555535D01*
X83709783Y-31539162D01*
X83735275Y-31520798D01*
X83763314Y-31500584D01*
X83793701Y-31478663D01*
X83826243Y-31455175D01*
X83860742Y-31430261D01*
X83897003Y-31404062D01*
X83934829Y-31376721D01*
X83974025Y-31348378D01*
X84014395Y-31319175D01*
X84030766Y-31307329D01*
X84071564Y-31277810D01*
X84111274Y-31249087D01*
X84149701Y-31221301D01*
X84186647Y-31194595D01*
X84221916Y-31169111D01*
X84255310Y-31144990D01*
X84286635Y-31122374D01*
X84315692Y-31101405D01*
X84342285Y-31082225D01*
X84366218Y-31064975D01*
X84387293Y-31049798D01*
X84405315Y-31036836D01*
X84420086Y-31026230D01*
X84431411Y-31018122D01*
X84439091Y-31012654D01*
X84442932Y-31009967D01*
X84443347Y-31009704D01*
X84443981Y-31011984D01*
X84444522Y-31019178D01*
X84444969Y-31031122D01*
X84445317Y-31047651D01*
X84445563Y-31068600D01*
X84445703Y-31093804D01*
X84445734Y-31122734D01*
X84445649Y-31236610D01*
X84111780Y-31477910D01*
X84075037Y-31504474D01*
X84039426Y-31530235D01*
X84005163Y-31555035D01*
X83972466Y-31578717D01*
X83941550Y-31601124D01*
X83912632Y-31622098D01*
X83885929Y-31641483D01*
X83861658Y-31659120D01*
X83840034Y-31674853D01*
X83821274Y-31688525D01*
X83805596Y-31699977D01*
X83793215Y-31709052D01*
X83784347Y-31715594D01*
X83779211Y-31719444D01*
X83777933Y-31720480D01*
X83779950Y-31722094D01*
X83785854Y-31726545D01*
X83795427Y-31733676D01*
X83808455Y-31743326D01*
X83824722Y-31755339D01*
X83844010Y-31769553D01*
X83866106Y-31785812D01*
X83890791Y-31803956D01*
X83917851Y-31823827D01*
X83947070Y-31845266D01*
X83978231Y-31868113D01*
X84011119Y-31892211D01*
X84045518Y-31917400D01*
X84081211Y-31943523D01*
X84109644Y-31964320D01*
X84146214Y-31991075D01*
X84181667Y-32017035D01*
X84215786Y-32042039D01*
X84248355Y-32065928D01*
X84279156Y-32088542D01*
X84307973Y-32109721D01*
X84334589Y-32129307D01*
X84358787Y-32147137D01*
X84380350Y-32163054D01*
X84399061Y-32176898D01*
X84414704Y-32188507D01*
X84427061Y-32197724D01*
X84435916Y-32204387D01*
X84441051Y-32208338D01*
X84442335Y-32209430D01*
X84442529Y-32212426D01*
X84442680Y-32219975D01*
X84442789Y-32231550D01*
X84442853Y-32246625D01*
X84442870Y-32264673D01*
X84442839Y-32285167D01*
X84442759Y-32307581D01*
X84442672Y-32324352D01*
X84442010Y-32436733D01*
X83613970Y-31830775D01*
X83555907Y-31788283D01*
X83498878Y-31746543D01*
X83443019Y-31705657D01*
X83388469Y-31665724D01*
X83335363Y-31626846D01*
X83283839Y-31589122D01*
X83234036Y-31552653D01*
X83186089Y-31517541D01*
X83140136Y-31483885D01*
X83096314Y-31451786D01*
X83054761Y-31421345D01*
X83015614Y-31392662D01*
X82979011Y-31365838D01*
X82945087Y-31340973D01*
X82913981Y-31318168D01*
X82885831Y-31297523D01*
X82860772Y-31279140D01*
X82838943Y-31263118D01*
X82820481Y-31249559D01*
X82805522Y-31238563D01*
X82794205Y-31230229D01*
X82786667Y-31224660D01*
X82783044Y-31221955D01*
X82782728Y-31221706D01*
X82781936Y-31219871D01*
X82781292Y-31215807D01*
X82780789Y-31209140D01*
X82780418Y-31199496D01*
X82780171Y-31186503D01*
X82780039Y-31169788D01*
X82780016Y-31148976D01*
X82780092Y-31123696D01*
X82780188Y-31105150D01*
X82780850Y-30991704D01*
X83199183Y-31297852D01*
G37*
X83199183Y-31297852D02*
X83240298Y-31327936D01*
X83280325Y-31357213D01*
X83319069Y-31385542D01*
X83356338Y-31412783D01*
X83391940Y-31438794D01*
X83425680Y-31463434D01*
X83457366Y-31486564D01*
X83486806Y-31508043D01*
X83513806Y-31527729D01*
X83538172Y-31545482D01*
X83559713Y-31561161D01*
X83578236Y-31574626D01*
X83593546Y-31585735D01*
X83605452Y-31594349D01*
X83613760Y-31600326D01*
X83618277Y-31603526D01*
X83619087Y-31604054D01*
X83621269Y-31602593D01*
X83627370Y-31598293D01*
X83637192Y-31591297D01*
X83650541Y-31581744D01*
X83667220Y-31569776D01*
X83687032Y-31555535D01*
X83709783Y-31539162D01*
X83735275Y-31520798D01*
X83763314Y-31500584D01*
X83793701Y-31478663D01*
X83826243Y-31455175D01*
X83860742Y-31430261D01*
X83897003Y-31404062D01*
X83934829Y-31376721D01*
X83974025Y-31348378D01*
X84014395Y-31319175D01*
X84030766Y-31307329D01*
X84071564Y-31277810D01*
X84111274Y-31249087D01*
X84149701Y-31221301D01*
X84186647Y-31194595D01*
X84221916Y-31169111D01*
X84255310Y-31144990D01*
X84286635Y-31122374D01*
X84315692Y-31101405D01*
X84342285Y-31082225D01*
X84366218Y-31064975D01*
X84387293Y-31049798D01*
X84405315Y-31036836D01*
X84420086Y-31026230D01*
X84431411Y-31018122D01*
X84439091Y-31012654D01*
X84442932Y-31009967D01*
X84443347Y-31009704D01*
X84443981Y-31011984D01*
X84444522Y-31019178D01*
X84444969Y-31031122D01*
X84445317Y-31047651D01*
X84445563Y-31068600D01*
X84445703Y-31093804D01*
X84445734Y-31122734D01*
X84445649Y-31236610D01*
X84111780Y-31477910D01*
X84075037Y-31504474D01*
X84039426Y-31530235D01*
X84005163Y-31555035D01*
X83972466Y-31578717D01*
X83941550Y-31601124D01*
X83912632Y-31622098D01*
X83885929Y-31641483D01*
X83861658Y-31659120D01*
X83840034Y-31674853D01*
X83821274Y-31688525D01*
X83805596Y-31699977D01*
X83793215Y-31709052D01*
X83784347Y-31715594D01*
X83779211Y-31719444D01*
X83777933Y-31720480D01*
X83779950Y-31722094D01*
X83785854Y-31726545D01*
X83795427Y-31733676D01*
X83808455Y-31743326D01*
X83824722Y-31755339D01*
X83844010Y-31769553D01*
X83866106Y-31785812D01*
X83890791Y-31803956D01*
X83917851Y-31823827D01*
X83947070Y-31845266D01*
X83978231Y-31868113D01*
X84011119Y-31892211D01*
X84045518Y-31917400D01*
X84081211Y-31943523D01*
X84109644Y-31964320D01*
X84146214Y-31991075D01*
X84181667Y-32017035D01*
X84215786Y-32042039D01*
X84248355Y-32065928D01*
X84279156Y-32088542D01*
X84307973Y-32109721D01*
X84334589Y-32129307D01*
X84358787Y-32147137D01*
X84380350Y-32163054D01*
X84399061Y-32176898D01*
X84414704Y-32188507D01*
X84427061Y-32197724D01*
X84435916Y-32204387D01*
X84441051Y-32208338D01*
X84442335Y-32209430D01*
X84442529Y-32212426D01*
X84442680Y-32219975D01*
X84442789Y-32231550D01*
X84442853Y-32246625D01*
X84442870Y-32264673D01*
X84442839Y-32285167D01*
X84442759Y-32307581D01*
X84442672Y-32324352D01*
X84442010Y-32436733D01*
X83613970Y-31830775D01*
X83555907Y-31788283D01*
X83498878Y-31746543D01*
X83443019Y-31705657D01*
X83388469Y-31665724D01*
X83335363Y-31626846D01*
X83283839Y-31589122D01*
X83234036Y-31552653D01*
X83186089Y-31517541D01*
X83140136Y-31483885D01*
X83096314Y-31451786D01*
X83054761Y-31421345D01*
X83015614Y-31392662D01*
X82979011Y-31365838D01*
X82945087Y-31340973D01*
X82913981Y-31318168D01*
X82885831Y-31297523D01*
X82860772Y-31279140D01*
X82838943Y-31263118D01*
X82820481Y-31249559D01*
X82805522Y-31238563D01*
X82794205Y-31230229D01*
X82786667Y-31224660D01*
X82783044Y-31221955D01*
X82782728Y-31221706D01*
X82781936Y-31219871D01*
X82781292Y-31215807D01*
X82780789Y-31209140D01*
X82780418Y-31199496D01*
X82780171Y-31186503D01*
X82780039Y-31169788D01*
X82780016Y-31148976D01*
X82780092Y-31123696D01*
X82780188Y-31105150D01*
X82780850Y-30991704D01*
X83199183Y-31297852D01*
G04 #@! TD*
D11*
G04 #@! TO.C,H1*
X70000000Y-49000000D03*
G04 #@! TD*
G04 #@! TO.C,H2*
X100000000Y-49000000D03*
G04 #@! TD*
D12*
G04 #@! TO.C,J1*
X87500000Y-47500000D03*
D13*
X87500000Y-50040000D03*
X84960000Y-47500000D03*
X84960000Y-50040000D03*
X82420000Y-47500000D03*
X82420000Y-50040000D03*
G04 #@! TD*
D14*
G04 #@! TO.C,U1*
X86400000Y-21730000D03*
X86400000Y-24270000D03*
X83600000Y-24270000D03*
X83600000Y-21730000D03*
G04 #@! TD*
M02*
