G04 #@! TF.GenerationSoftware,KiCad,Pcbnew,6.0.9-8da3e8f707~116~ubuntu20.04.1*
G04 #@! TF.CreationDate,2023-05-05T17:22:20+00:00*
G04 #@! TF.ProjectId,LEC009002,4c454330-3039-4303-9032-2e6b69636164,rev?*
G04 #@! TF.SameCoordinates,Original*
G04 #@! TF.FileFunction,Legend,Top*
G04 #@! TF.FilePolarity,Positive*
%FSLAX46Y46*%
G04 Gerber Fmt 4.6, Leading zero omitted, Abs format (unit mm)*
G04 Created by KiCad (PCBNEW 6.0.9-8da3e8f707~116~ubuntu20.04.1) date 2023-05-05 17:22:20*
%MOMM*%
%LPD*%
G01*
G04 APERTURE LIST*
%ADD10C,0.120000*%
%ADD11C,0.100000*%
%ADD12C,0.150000*%
%ADD13C,0.010000*%
G04 APERTURE END LIST*
D10*
X73750000Y-23500000D02*
X73750000Y-21250000D01*
D11*
G36*
X83750000Y-39500000D02*
G01*
X84250000Y-39500000D01*
X83000000Y-40750000D01*
X81750000Y-39500000D01*
X82250000Y-39500000D01*
X82250000Y-37500000D01*
X83750000Y-37500000D01*
X83750000Y-39500000D01*
G37*
X83750000Y-39500000D02*
X84250000Y-39500000D01*
X83000000Y-40750000D01*
X81750000Y-39500000D01*
X82250000Y-39500000D01*
X82250000Y-37500000D01*
X83750000Y-37500000D01*
X83750000Y-39500000D01*
D10*
X73750000Y-21250000D02*
X55750000Y-21250000D01*
X55750000Y-23500000D02*
X73750000Y-23500000D01*
X55750000Y-21250000D02*
X55750000Y-23500000D01*
D11*
G36*
X63750000Y-39500000D02*
G01*
X64250000Y-39500000D01*
X63000000Y-40750000D01*
X61750000Y-39500000D01*
X62250000Y-39500000D01*
X62250000Y-37500000D01*
X63750000Y-37500000D01*
X63750000Y-39500000D01*
G37*
X63750000Y-39500000D02*
X64250000Y-39500000D01*
X63000000Y-40750000D01*
X61750000Y-39500000D01*
X62250000Y-39500000D01*
X62250000Y-37500000D01*
X63750000Y-37500000D01*
X63750000Y-39500000D01*
D12*
X113285714Y-20297619D02*
X113285714Y-21297619D01*
X112714285Y-20297619D01*
X112714285Y-21297619D01*
X112047619Y-21297619D02*
X111857142Y-21297619D01*
X111761904Y-21250000D01*
X111666666Y-21154761D01*
X111619047Y-20964285D01*
X111619047Y-20630952D01*
X111666666Y-20440476D01*
X111761904Y-20345238D01*
X111857142Y-20297619D01*
X112047619Y-20297619D01*
X112142857Y-20345238D01*
X112238095Y-20440476D01*
X112285714Y-20630952D01*
X112285714Y-20964285D01*
X112238095Y-21154761D01*
X112142857Y-21250000D01*
X112047619Y-21297619D01*
X110666666Y-20297619D02*
X111238095Y-20297619D01*
X110952380Y-20297619D02*
X110952380Y-21297619D01*
X111047619Y-21154761D01*
X111142857Y-21059523D01*
X111238095Y-21011904D01*
X110964285Y-51702380D02*
X110964285Y-50702380D01*
X111535714Y-51702380D01*
X111535714Y-50702380D01*
X112202380Y-50702380D02*
X112392857Y-50702380D01*
X112488095Y-50750000D01*
X112583333Y-50845238D01*
X112630952Y-51035714D01*
X112630952Y-51369047D01*
X112583333Y-51559523D01*
X112488095Y-51654761D01*
X112392857Y-51702380D01*
X112202380Y-51702380D01*
X112107142Y-51654761D01*
X112011904Y-51559523D01*
X111964285Y-51369047D01*
X111964285Y-51035714D01*
X112011904Y-50845238D01*
X112107142Y-50750000D01*
X112202380Y-50702380D01*
X113011904Y-50797619D02*
X113059523Y-50750000D01*
X113154761Y-50702380D01*
X113392857Y-50702380D01*
X113488095Y-50750000D01*
X113535714Y-50797619D01*
X113583333Y-50892857D01*
X113583333Y-50988095D01*
X113535714Y-51130952D01*
X112964285Y-51702380D01*
X113583333Y-51702380D01*
X108261904Y-20297619D02*
X108261904Y-21297619D01*
X107690476Y-20297619D01*
X107690476Y-21297619D01*
X106642857Y-20392857D02*
X106690476Y-20345238D01*
X106833333Y-20297619D01*
X106928571Y-20297619D01*
X107071428Y-20345238D01*
X107166666Y-20440476D01*
X107214285Y-20535714D01*
X107261904Y-20726190D01*
X107261904Y-20869047D01*
X107214285Y-21059523D01*
X107166666Y-21154761D01*
X107071428Y-21250000D01*
X106928571Y-21297619D01*
X106833333Y-21297619D01*
X106690476Y-21250000D01*
X106642857Y-21202380D01*
X105690476Y-20297619D02*
X106261904Y-20297619D01*
X105976190Y-20297619D02*
X105976190Y-21297619D01*
X106071428Y-21154761D01*
X106166666Y-21059523D01*
X106261904Y-21011904D01*
X105738095Y-51702380D02*
X105738095Y-50702380D01*
X106309523Y-51702380D01*
X106309523Y-50702380D01*
X107357142Y-51607142D02*
X107309523Y-51654761D01*
X107166666Y-51702380D01*
X107071428Y-51702380D01*
X106928571Y-51654761D01*
X106833333Y-51559523D01*
X106785714Y-51464285D01*
X106738095Y-51273809D01*
X106738095Y-51130952D01*
X106785714Y-50940476D01*
X106833333Y-50845238D01*
X106928571Y-50750000D01*
X107071428Y-50702380D01*
X107166666Y-50702380D01*
X107309523Y-50750000D01*
X107357142Y-50797619D01*
X107738095Y-50797619D02*
X107785714Y-50750000D01*
X107880952Y-50702380D01*
X108119047Y-50702380D01*
X108214285Y-50750000D01*
X108261904Y-50797619D01*
X108309523Y-50892857D01*
X108309523Y-50988095D01*
X108261904Y-51130952D01*
X107690476Y-51702380D01*
X108309523Y-51702380D01*
X46297619Y-25416666D02*
X47297619Y-25416666D01*
X47297619Y-25797619D01*
X47250000Y-25892857D01*
X47202380Y-25940476D01*
X47107142Y-25988095D01*
X46964285Y-25988095D01*
X46869047Y-25940476D01*
X46821428Y-25892857D01*
X46773809Y-25797619D01*
X46773809Y-25416666D01*
X47297619Y-26321428D02*
X46297619Y-26559523D01*
X47011904Y-26750000D01*
X46297619Y-26940476D01*
X47297619Y-27178571D01*
X46297619Y-28130952D02*
X46773809Y-27797619D01*
X46297619Y-27559523D02*
X47297619Y-27559523D01*
X47297619Y-27940476D01*
X47250000Y-28035714D01*
X47202380Y-28083333D01*
X47107142Y-28130952D01*
X46964285Y-28130952D01*
X46869047Y-28083333D01*
X46821428Y-28035714D01*
X46773809Y-27940476D01*
X46773809Y-27559523D01*
X65750000Y-22702380D02*
X65273809Y-22702380D01*
X65273809Y-21702380D01*
X66083333Y-22178571D02*
X66416666Y-22178571D01*
X66559523Y-22702380D02*
X66083333Y-22702380D01*
X66083333Y-21702380D01*
X66559523Y-21702380D01*
X67559523Y-22607142D02*
X67511904Y-22654761D01*
X67369047Y-22702380D01*
X67273809Y-22702380D01*
X67130952Y-22654761D01*
X67035714Y-22559523D01*
X66988095Y-22464285D01*
X66940476Y-22273809D01*
X66940476Y-22130952D01*
X66988095Y-21940476D01*
X67035714Y-21845238D01*
X67130952Y-21750000D01*
X67273809Y-21702380D01*
X67369047Y-21702380D01*
X67511904Y-21750000D01*
X67559523Y-21797619D01*
X68178571Y-21702380D02*
X68273809Y-21702380D01*
X68369047Y-21750000D01*
X68416666Y-21797619D01*
X68464285Y-21892857D01*
X68511904Y-22083333D01*
X68511904Y-22321428D01*
X68464285Y-22511904D01*
X68416666Y-22607142D01*
X68369047Y-22654761D01*
X68273809Y-22702380D01*
X68178571Y-22702380D01*
X68083333Y-22654761D01*
X68035714Y-22607142D01*
X67988095Y-22511904D01*
X67940476Y-22321428D01*
X67940476Y-22083333D01*
X67988095Y-21892857D01*
X68035714Y-21797619D01*
X68083333Y-21750000D01*
X68178571Y-21702380D01*
X69130952Y-21702380D02*
X69226190Y-21702380D01*
X69321428Y-21750000D01*
X69369047Y-21797619D01*
X69416666Y-21892857D01*
X69464285Y-22083333D01*
X69464285Y-22321428D01*
X69416666Y-22511904D01*
X69369047Y-22607142D01*
X69321428Y-22654761D01*
X69226190Y-22702380D01*
X69130952Y-22702380D01*
X69035714Y-22654761D01*
X68988095Y-22607142D01*
X68940476Y-22511904D01*
X68892857Y-22321428D01*
X68892857Y-22083333D01*
X68940476Y-21892857D01*
X68988095Y-21797619D01*
X69035714Y-21750000D01*
X69130952Y-21702380D01*
X69940476Y-22702380D02*
X70130952Y-22702380D01*
X70226190Y-22654761D01*
X70273809Y-22607142D01*
X70369047Y-22464285D01*
X70416666Y-22273809D01*
X70416666Y-21892857D01*
X70369047Y-21797619D01*
X70321428Y-21750000D01*
X70226190Y-21702380D01*
X70035714Y-21702380D01*
X69940476Y-21750000D01*
X69892857Y-21797619D01*
X69845238Y-21892857D01*
X69845238Y-22130952D01*
X69892857Y-22226190D01*
X69940476Y-22273809D01*
X70035714Y-22321428D01*
X70226190Y-22321428D01*
X70321428Y-22273809D01*
X70369047Y-22226190D01*
X70416666Y-22130952D01*
X71035714Y-21702380D02*
X71130952Y-21702380D01*
X71226190Y-21750000D01*
X71273809Y-21797619D01*
X71321428Y-21892857D01*
X71369047Y-22083333D01*
X71369047Y-22321428D01*
X71321428Y-22511904D01*
X71273809Y-22607142D01*
X71226190Y-22654761D01*
X71130952Y-22702380D01*
X71035714Y-22702380D01*
X70940476Y-22654761D01*
X70892857Y-22607142D01*
X70845238Y-22511904D01*
X70797619Y-22321428D01*
X70797619Y-22083333D01*
X70845238Y-21892857D01*
X70892857Y-21797619D01*
X70940476Y-21750000D01*
X71035714Y-21702380D01*
X71988095Y-21702380D02*
X72083333Y-21702380D01*
X72178571Y-21750000D01*
X72226190Y-21797619D01*
X72273809Y-21892857D01*
X72321428Y-22083333D01*
X72321428Y-22321428D01*
X72273809Y-22511904D01*
X72226190Y-22607142D01*
X72178571Y-22654761D01*
X72083333Y-22702380D01*
X71988095Y-22702380D01*
X71892857Y-22654761D01*
X71845238Y-22607142D01*
X71797619Y-22511904D01*
X71750000Y-22321428D01*
X71750000Y-22083333D01*
X71797619Y-21892857D01*
X71845238Y-21797619D01*
X71892857Y-21750000D01*
X71988095Y-21702380D01*
X72702380Y-21797619D02*
X72750000Y-21750000D01*
X72845238Y-21702380D01*
X73083333Y-21702380D01*
X73178571Y-21750000D01*
X73226190Y-21797619D01*
X73273809Y-21892857D01*
X73273809Y-21988095D01*
X73226190Y-22130952D01*
X72654761Y-22702380D01*
X73273809Y-22702380D01*
X101833333Y-51607142D02*
X101785714Y-51654761D01*
X101642857Y-51702380D01*
X101547619Y-51702380D01*
X101404761Y-51654761D01*
X101309523Y-51559523D01*
X101261904Y-51464285D01*
X101214285Y-51273809D01*
X101214285Y-51130952D01*
X101261904Y-50940476D01*
X101309523Y-50845238D01*
X101404761Y-50750000D01*
X101547619Y-50702380D01*
X101642857Y-50702380D01*
X101785714Y-50750000D01*
X101833333Y-50797619D01*
X102214285Y-50797619D02*
X102261904Y-50750000D01*
X102357142Y-50702380D01*
X102595238Y-50702380D01*
X102690476Y-50750000D01*
X102738095Y-50797619D01*
X102785714Y-50892857D01*
X102785714Y-50988095D01*
X102738095Y-51130952D01*
X102166666Y-51702380D01*
X102785714Y-51702380D01*
X101916666Y-20392857D02*
X101964285Y-20345238D01*
X102107142Y-20297619D01*
X102202380Y-20297619D01*
X102345238Y-20345238D01*
X102440476Y-20440476D01*
X102488095Y-20535714D01*
X102535714Y-20726190D01*
X102535714Y-20869047D01*
X102488095Y-21059523D01*
X102440476Y-21154761D01*
X102345238Y-21250000D01*
X102202380Y-21297619D01*
X102107142Y-21297619D01*
X101964285Y-21250000D01*
X101916666Y-21202380D01*
X100964285Y-20297619D02*
X101535714Y-20297619D01*
X101250000Y-20297619D02*
X101250000Y-21297619D01*
X101345238Y-21154761D01*
X101440476Y-21059523D01*
X101535714Y-21011904D01*
G04 #@! TO.C,C1*
X76785714Y-39133333D02*
X76823809Y-39171428D01*
X76861904Y-39285714D01*
X76861904Y-39361904D01*
X76823809Y-39476190D01*
X76747619Y-39552380D01*
X76671428Y-39590476D01*
X76519047Y-39628571D01*
X76404761Y-39628571D01*
X76252380Y-39590476D01*
X76176190Y-39552380D01*
X76100000Y-39476190D01*
X76061904Y-39361904D01*
X76061904Y-39285714D01*
X76100000Y-39171428D01*
X76138095Y-39133333D01*
X76861904Y-38371428D02*
X76861904Y-38828571D01*
X76861904Y-38600000D02*
X76061904Y-38600000D01*
X76176190Y-38676190D01*
X76252380Y-38752380D01*
X76290476Y-38828571D01*
G04 #@! TO.C,C2*
X66285714Y-24383333D02*
X66323809Y-24421428D01*
X66361904Y-24535714D01*
X66361904Y-24611904D01*
X66323809Y-24726190D01*
X66247619Y-24802380D01*
X66171428Y-24840476D01*
X66019047Y-24878571D01*
X65904761Y-24878571D01*
X65752380Y-24840476D01*
X65676190Y-24802380D01*
X65600000Y-24726190D01*
X65561904Y-24611904D01*
X65561904Y-24535714D01*
X65600000Y-24421428D01*
X65638095Y-24383333D01*
X65638095Y-24078571D02*
X65600000Y-24040476D01*
X65561904Y-23964285D01*
X65561904Y-23773809D01*
X65600000Y-23697619D01*
X65638095Y-23659523D01*
X65714285Y-23621428D01*
X65790476Y-23621428D01*
X65904761Y-23659523D01*
X66361904Y-24116666D01*
X66361904Y-23621428D01*
G04 #@! TO.C,C3*
X73285714Y-27633333D02*
X73323809Y-27671428D01*
X73361904Y-27785714D01*
X73361904Y-27861904D01*
X73323809Y-27976190D01*
X73247619Y-28052380D01*
X73171428Y-28090476D01*
X73019047Y-28128571D01*
X72904761Y-28128571D01*
X72752380Y-28090476D01*
X72676190Y-28052380D01*
X72600000Y-27976190D01*
X72561904Y-27861904D01*
X72561904Y-27785714D01*
X72600000Y-27671428D01*
X72638095Y-27633333D01*
X72561904Y-27366666D02*
X72561904Y-26871428D01*
X72866666Y-27138095D01*
X72866666Y-27023809D01*
X72904761Y-26947619D01*
X72942857Y-26909523D01*
X73019047Y-26871428D01*
X73209523Y-26871428D01*
X73285714Y-26909523D01*
X73323809Y-26947619D01*
X73361904Y-27023809D01*
X73361904Y-27252380D01*
X73323809Y-27328571D01*
X73285714Y-27366666D01*
G04 #@! TO.C,C4*
X82285714Y-27633333D02*
X82323809Y-27671428D01*
X82361904Y-27785714D01*
X82361904Y-27861904D01*
X82323809Y-27976190D01*
X82247619Y-28052380D01*
X82171428Y-28090476D01*
X82019047Y-28128571D01*
X81904761Y-28128571D01*
X81752380Y-28090476D01*
X81676190Y-28052380D01*
X81600000Y-27976190D01*
X81561904Y-27861904D01*
X81561904Y-27785714D01*
X81600000Y-27671428D01*
X81638095Y-27633333D01*
X81828571Y-26947619D02*
X82361904Y-26947619D01*
X81523809Y-27138095D02*
X82095238Y-27328571D01*
X82095238Y-26833333D01*
G04 #@! TO.C,C5*
X89035714Y-22633333D02*
X89073809Y-22671428D01*
X89111904Y-22785714D01*
X89111904Y-22861904D01*
X89073809Y-22976190D01*
X88997619Y-23052380D01*
X88921428Y-23090476D01*
X88769047Y-23128571D01*
X88654761Y-23128571D01*
X88502380Y-23090476D01*
X88426190Y-23052380D01*
X88350000Y-22976190D01*
X88311904Y-22861904D01*
X88311904Y-22785714D01*
X88350000Y-22671428D01*
X88388095Y-22633333D01*
X88311904Y-21909523D02*
X88311904Y-22290476D01*
X88692857Y-22328571D01*
X88654761Y-22290476D01*
X88616666Y-22214285D01*
X88616666Y-22023809D01*
X88654761Y-21947619D01*
X88692857Y-21909523D01*
X88769047Y-21871428D01*
X88959523Y-21871428D01*
X89035714Y-21909523D01*
X89073809Y-21947619D01*
X89111904Y-22023809D01*
X89111904Y-22214285D01*
X89073809Y-22290476D01*
X89035714Y-22328571D01*
G04 #@! TO.C,D1*
X60909523Y-25361904D02*
X60909523Y-24561904D01*
X61100000Y-24561904D01*
X61214285Y-24600000D01*
X61290476Y-24676190D01*
X61328571Y-24752380D01*
X61366666Y-24904761D01*
X61366666Y-25019047D01*
X61328571Y-25171428D01*
X61290476Y-25247619D01*
X61214285Y-25323809D01*
X61100000Y-25361904D01*
X60909523Y-25361904D01*
X62128571Y-25361904D02*
X61671428Y-25361904D01*
X61900000Y-25361904D02*
X61900000Y-24561904D01*
X61823809Y-24676190D01*
X61747619Y-24752380D01*
X61671428Y-24790476D01*
G04 #@! TO.C,D2*
X87431904Y-36377976D02*
X86631904Y-36377976D01*
X86631904Y-36187500D01*
X86670000Y-36073214D01*
X86746190Y-35997023D01*
X86822380Y-35958928D01*
X86974761Y-35920833D01*
X87089047Y-35920833D01*
X87241428Y-35958928D01*
X87317619Y-35997023D01*
X87393809Y-36073214D01*
X87431904Y-36187500D01*
X87431904Y-36377976D01*
X86708095Y-35616071D02*
X86670000Y-35577976D01*
X86631904Y-35501785D01*
X86631904Y-35311309D01*
X86670000Y-35235119D01*
X86708095Y-35197023D01*
X86784285Y-35158928D01*
X86860476Y-35158928D01*
X86974761Y-35197023D01*
X87431904Y-35654166D01*
X87431904Y-35158928D01*
G04 #@! TO.C,D3*
X92111904Y-32090476D02*
X91311904Y-32090476D01*
X91311904Y-31900000D01*
X91350000Y-31785714D01*
X91426190Y-31709523D01*
X91502380Y-31671428D01*
X91654761Y-31633333D01*
X91769047Y-31633333D01*
X91921428Y-31671428D01*
X91997619Y-31709523D01*
X92073809Y-31785714D01*
X92111904Y-31900000D01*
X92111904Y-32090476D01*
X91311904Y-31366666D02*
X91311904Y-30871428D01*
X91616666Y-31138095D01*
X91616666Y-31023809D01*
X91654761Y-30947619D01*
X91692857Y-30909523D01*
X91769047Y-30871428D01*
X91959523Y-30871428D01*
X92035714Y-30909523D01*
X92073809Y-30947619D01*
X92111904Y-31023809D01*
X92111904Y-31252380D01*
X92073809Y-31328571D01*
X92035714Y-31366666D01*
G04 #@! TO.C,J1*
X51061904Y-26766666D02*
X51633333Y-26766666D01*
X51747619Y-26804761D01*
X51823809Y-26880952D01*
X51861904Y-26995238D01*
X51861904Y-27071428D01*
X51861904Y-25966666D02*
X51861904Y-26423809D01*
X51861904Y-26195238D02*
X51061904Y-26195238D01*
X51176190Y-26271428D01*
X51252380Y-26347619D01*
X51290476Y-26423809D01*
G04 #@! TO.C,J3*
X101413333Y-27711904D02*
X101413333Y-28283333D01*
X101375238Y-28397619D01*
X101299047Y-28473809D01*
X101184761Y-28511904D01*
X101108571Y-28511904D01*
X101718095Y-27711904D02*
X102213333Y-27711904D01*
X101946666Y-28016666D01*
X102060952Y-28016666D01*
X102137142Y-28054761D01*
X102175238Y-28092857D01*
X102213333Y-28169047D01*
X102213333Y-28359523D01*
X102175238Y-28435714D01*
X102137142Y-28473809D01*
X102060952Y-28511904D01*
X101832380Y-28511904D01*
X101756190Y-28473809D01*
X101718095Y-28435714D01*
G04 #@! TO.C,K1*
X105159523Y-36361904D02*
X105159523Y-35561904D01*
X105616666Y-36361904D02*
X105273809Y-35904761D01*
X105616666Y-35561904D02*
X105159523Y-36019047D01*
X106378571Y-36361904D02*
X105921428Y-36361904D01*
X106150000Y-36361904D02*
X106150000Y-35561904D01*
X106073809Y-35676190D01*
X105997619Y-35752380D01*
X105921428Y-35790476D01*
G04 #@! TO.C,Q1*
X94438095Y-42826190D02*
X94400000Y-42902380D01*
X94323809Y-42978571D01*
X94209523Y-43092857D01*
X94171428Y-43169047D01*
X94171428Y-43245238D01*
X94361904Y-43207142D02*
X94323809Y-43283333D01*
X94247619Y-43359523D01*
X94095238Y-43397619D01*
X93828571Y-43397619D01*
X93676190Y-43359523D01*
X93600000Y-43283333D01*
X93561904Y-43207142D01*
X93561904Y-43054761D01*
X93600000Y-42978571D01*
X93676190Y-42902380D01*
X93828571Y-42864285D01*
X94095238Y-42864285D01*
X94247619Y-42902380D01*
X94323809Y-42978571D01*
X94361904Y-43054761D01*
X94361904Y-43207142D01*
X94361904Y-42102380D02*
X94361904Y-42559523D01*
X94361904Y-42330952D02*
X93561904Y-42330952D01*
X93676190Y-42407142D01*
X93752380Y-42483333D01*
X93790476Y-42559523D01*
G04 #@! TO.C,Q2*
X80673809Y-40688095D02*
X80597619Y-40650000D01*
X80521428Y-40573809D01*
X80407142Y-40459523D01*
X80330952Y-40421428D01*
X80254761Y-40421428D01*
X80292857Y-40611904D02*
X80216666Y-40573809D01*
X80140476Y-40497619D01*
X80102380Y-40345238D01*
X80102380Y-40078571D01*
X80140476Y-39926190D01*
X80216666Y-39850000D01*
X80292857Y-39811904D01*
X80445238Y-39811904D01*
X80521428Y-39850000D01*
X80597619Y-39926190D01*
X80635714Y-40078571D01*
X80635714Y-40345238D01*
X80597619Y-40497619D01*
X80521428Y-40573809D01*
X80445238Y-40611904D01*
X80292857Y-40611904D01*
X80940476Y-39888095D02*
X80978571Y-39850000D01*
X81054761Y-39811904D01*
X81245238Y-39811904D01*
X81321428Y-39850000D01*
X81359523Y-39888095D01*
X81397619Y-39964285D01*
X81397619Y-40040476D01*
X81359523Y-40154761D01*
X80902380Y-40611904D01*
X81397619Y-40611904D01*
G04 #@! TO.C,R1*
X74579166Y-32861904D02*
X74312500Y-32480952D01*
X74122023Y-32861904D02*
X74122023Y-32061904D01*
X74426785Y-32061904D01*
X74502976Y-32100000D01*
X74541071Y-32138095D01*
X74579166Y-32214285D01*
X74579166Y-32328571D01*
X74541071Y-32404761D01*
X74502976Y-32442857D01*
X74426785Y-32480952D01*
X74122023Y-32480952D01*
X75341071Y-32861904D02*
X74883928Y-32861904D01*
X75112500Y-32861904D02*
X75112500Y-32061904D01*
X75036309Y-32176190D01*
X74960119Y-32252380D01*
X74883928Y-32290476D01*
G04 #@! TO.C,R2*
X90861904Y-47883333D02*
X90480952Y-48150000D01*
X90861904Y-48340476D02*
X90061904Y-48340476D01*
X90061904Y-48035714D01*
X90100000Y-47959523D01*
X90138095Y-47921428D01*
X90214285Y-47883333D01*
X90328571Y-47883333D01*
X90404761Y-47921428D01*
X90442857Y-47959523D01*
X90480952Y-48035714D01*
X90480952Y-48340476D01*
X90138095Y-47578571D02*
X90100000Y-47540476D01*
X90061904Y-47464285D01*
X90061904Y-47273809D01*
X90100000Y-47197619D01*
X90138095Y-47159523D01*
X90214285Y-47121428D01*
X90290476Y-47121428D01*
X90404761Y-47159523D01*
X90861904Y-47616666D01*
X90861904Y-47121428D01*
G04 #@! TO.C,R3*
X78361904Y-32883333D02*
X77980952Y-33150000D01*
X78361904Y-33340476D02*
X77561904Y-33340476D01*
X77561904Y-33035714D01*
X77600000Y-32959523D01*
X77638095Y-32921428D01*
X77714285Y-32883333D01*
X77828571Y-32883333D01*
X77904761Y-32921428D01*
X77942857Y-32959523D01*
X77980952Y-33035714D01*
X77980952Y-33340476D01*
X77561904Y-32616666D02*
X77561904Y-32121428D01*
X77866666Y-32388095D01*
X77866666Y-32273809D01*
X77904761Y-32197619D01*
X77942857Y-32159523D01*
X78019047Y-32121428D01*
X78209523Y-32121428D01*
X78285714Y-32159523D01*
X78323809Y-32197619D01*
X78361904Y-32273809D01*
X78361904Y-32502380D01*
X78323809Y-32578571D01*
X78285714Y-32616666D01*
G04 #@! TO.C,R4*
X58361904Y-32883333D02*
X57980952Y-33150000D01*
X58361904Y-33340476D02*
X57561904Y-33340476D01*
X57561904Y-33035714D01*
X57600000Y-32959523D01*
X57638095Y-32921428D01*
X57714285Y-32883333D01*
X57828571Y-32883333D01*
X57904761Y-32921428D01*
X57942857Y-32959523D01*
X57980952Y-33035714D01*
X57980952Y-33340476D01*
X57828571Y-32197619D02*
X58361904Y-32197619D01*
X57523809Y-32388095D02*
X58095238Y-32578571D01*
X58095238Y-32083333D01*
G04 #@! TO.C,R5*
X90111904Y-39383333D02*
X89730952Y-39650000D01*
X90111904Y-39840476D02*
X89311904Y-39840476D01*
X89311904Y-39535714D01*
X89350000Y-39459523D01*
X89388095Y-39421428D01*
X89464285Y-39383333D01*
X89578571Y-39383333D01*
X89654761Y-39421428D01*
X89692857Y-39459523D01*
X89730952Y-39535714D01*
X89730952Y-39840476D01*
X89311904Y-38659523D02*
X89311904Y-39040476D01*
X89692857Y-39078571D01*
X89654761Y-39040476D01*
X89616666Y-38964285D01*
X89616666Y-38773809D01*
X89654761Y-38697619D01*
X89692857Y-38659523D01*
X89769047Y-38621428D01*
X89959523Y-38621428D01*
X90035714Y-38659523D01*
X90073809Y-38697619D01*
X90111904Y-38773809D01*
X90111904Y-38964285D01*
X90073809Y-39040476D01*
X90035714Y-39078571D01*
G04 #@! TO.C,R6*
X80361904Y-33133333D02*
X79980952Y-33400000D01*
X80361904Y-33590476D02*
X79561904Y-33590476D01*
X79561904Y-33285714D01*
X79600000Y-33209523D01*
X79638095Y-33171428D01*
X79714285Y-33133333D01*
X79828571Y-33133333D01*
X79904761Y-33171428D01*
X79942857Y-33209523D01*
X79980952Y-33285714D01*
X79980952Y-33590476D01*
X79561904Y-32447619D02*
X79561904Y-32600000D01*
X79600000Y-32676190D01*
X79638095Y-32714285D01*
X79752380Y-32790476D01*
X79904761Y-32828571D01*
X80209523Y-32828571D01*
X80285714Y-32790476D01*
X80323809Y-32752380D01*
X80361904Y-32676190D01*
X80361904Y-32523809D01*
X80323809Y-32447619D01*
X80285714Y-32409523D01*
X80209523Y-32371428D01*
X80019047Y-32371428D01*
X79942857Y-32409523D01*
X79904761Y-32447619D01*
X79866666Y-32523809D01*
X79866666Y-32676190D01*
X79904761Y-32752380D01*
X79942857Y-32790476D01*
X80019047Y-32828571D01*
G04 #@! TO.C,R7*
X60361904Y-32883333D02*
X59980952Y-33150000D01*
X60361904Y-33340476D02*
X59561904Y-33340476D01*
X59561904Y-33035714D01*
X59600000Y-32959523D01*
X59638095Y-32921428D01*
X59714285Y-32883333D01*
X59828571Y-32883333D01*
X59904761Y-32921428D01*
X59942857Y-32959523D01*
X59980952Y-33035714D01*
X59980952Y-33340476D01*
X59561904Y-32616666D02*
X59561904Y-32083333D01*
X60361904Y-32426190D01*
G04 #@! TO.C,R8*
X86861904Y-40133333D02*
X86480952Y-40400000D01*
X86861904Y-40590476D02*
X86061904Y-40590476D01*
X86061904Y-40285714D01*
X86100000Y-40209523D01*
X86138095Y-40171428D01*
X86214285Y-40133333D01*
X86328571Y-40133333D01*
X86404761Y-40171428D01*
X86442857Y-40209523D01*
X86480952Y-40285714D01*
X86480952Y-40590476D01*
X86404761Y-39676190D02*
X86366666Y-39752380D01*
X86328571Y-39790476D01*
X86252380Y-39828571D01*
X86214285Y-39828571D01*
X86138095Y-39790476D01*
X86100000Y-39752380D01*
X86061904Y-39676190D01*
X86061904Y-39523809D01*
X86100000Y-39447619D01*
X86138095Y-39409523D01*
X86214285Y-39371428D01*
X86252380Y-39371428D01*
X86328571Y-39409523D01*
X86366666Y-39447619D01*
X86404761Y-39523809D01*
X86404761Y-39676190D01*
X86442857Y-39752380D01*
X86480952Y-39790476D01*
X86557142Y-39828571D01*
X86709523Y-39828571D01*
X86785714Y-39790476D01*
X86823809Y-39752380D01*
X86861904Y-39676190D01*
X86861904Y-39523809D01*
X86823809Y-39447619D01*
X86785714Y-39409523D01*
X86709523Y-39371428D01*
X86557142Y-39371428D01*
X86480952Y-39409523D01*
X86442857Y-39447619D01*
X86404761Y-39523809D01*
G04 #@! TO.C,R9*
X49611904Y-43883333D02*
X49230952Y-44150000D01*
X49611904Y-44340476D02*
X48811904Y-44340476D01*
X48811904Y-44035714D01*
X48850000Y-43959523D01*
X48888095Y-43921428D01*
X48964285Y-43883333D01*
X49078571Y-43883333D01*
X49154761Y-43921428D01*
X49192857Y-43959523D01*
X49230952Y-44035714D01*
X49230952Y-44340476D01*
X49611904Y-43502380D02*
X49611904Y-43350000D01*
X49573809Y-43273809D01*
X49535714Y-43235714D01*
X49421428Y-43159523D01*
X49269047Y-43121428D01*
X48964285Y-43121428D01*
X48888095Y-43159523D01*
X48850000Y-43197619D01*
X48811904Y-43273809D01*
X48811904Y-43426190D01*
X48850000Y-43502380D01*
X48888095Y-43540476D01*
X48964285Y-43578571D01*
X49154761Y-43578571D01*
X49230952Y-43540476D01*
X49269047Y-43502380D01*
X49307142Y-43426190D01*
X49307142Y-43273809D01*
X49269047Y-43197619D01*
X49230952Y-43159523D01*
X49154761Y-43121428D01*
G04 #@! TO.C,RV1*
X85861904Y-35476190D02*
X85480952Y-35742857D01*
X85861904Y-35933333D02*
X85061904Y-35933333D01*
X85061904Y-35628571D01*
X85100000Y-35552380D01*
X85138095Y-35514285D01*
X85214285Y-35476190D01*
X85328571Y-35476190D01*
X85404761Y-35514285D01*
X85442857Y-35552380D01*
X85480952Y-35628571D01*
X85480952Y-35933333D01*
X85061904Y-35247619D02*
X85861904Y-34980952D01*
X85061904Y-34714285D01*
X85861904Y-34028571D02*
X85861904Y-34485714D01*
X85861904Y-34257142D02*
X85061904Y-34257142D01*
X85176190Y-34333333D01*
X85252380Y-34409523D01*
X85290476Y-34485714D01*
G04 #@! TO.C,RV2*
X65861904Y-35476190D02*
X65480952Y-35742857D01*
X65861904Y-35933333D02*
X65061904Y-35933333D01*
X65061904Y-35628571D01*
X65100000Y-35552380D01*
X65138095Y-35514285D01*
X65214285Y-35476190D01*
X65328571Y-35476190D01*
X65404761Y-35514285D01*
X65442857Y-35552380D01*
X65480952Y-35628571D01*
X65480952Y-35933333D01*
X65061904Y-35247619D02*
X65861904Y-34980952D01*
X65061904Y-34714285D01*
X65138095Y-34485714D02*
X65100000Y-34447619D01*
X65061904Y-34371428D01*
X65061904Y-34180952D01*
X65100000Y-34104761D01*
X65138095Y-34066666D01*
X65214285Y-34028571D01*
X65290476Y-34028571D01*
X65404761Y-34066666D01*
X65861904Y-34523809D01*
X65861904Y-34028571D01*
G04 #@! TO.C,U2*
X81311904Y-24359523D02*
X81959523Y-24359523D01*
X82035714Y-24321428D01*
X82073809Y-24283333D01*
X82111904Y-24207142D01*
X82111904Y-24054761D01*
X82073809Y-23978571D01*
X82035714Y-23940476D01*
X81959523Y-23902380D01*
X81311904Y-23902380D01*
X81388095Y-23559523D02*
X81350000Y-23521428D01*
X81311904Y-23445238D01*
X81311904Y-23254761D01*
X81350000Y-23178571D01*
X81388095Y-23140476D01*
X81464285Y-23102380D01*
X81540476Y-23102380D01*
X81654761Y-23140476D01*
X82111904Y-23597619D01*
X82111904Y-23102380D01*
G04 #@! TO.C,Q3*
X60673809Y-38188095D02*
X60597619Y-38150000D01*
X60521428Y-38073809D01*
X60407142Y-37959523D01*
X60330952Y-37921428D01*
X60254761Y-37921428D01*
X60292857Y-38111904D02*
X60216666Y-38073809D01*
X60140476Y-37997619D01*
X60102380Y-37845238D01*
X60102380Y-37578571D01*
X60140476Y-37426190D01*
X60216666Y-37350000D01*
X60292857Y-37311904D01*
X60445238Y-37311904D01*
X60521428Y-37350000D01*
X60597619Y-37426190D01*
X60635714Y-37578571D01*
X60635714Y-37845238D01*
X60597619Y-37997619D01*
X60521428Y-38073809D01*
X60445238Y-38111904D01*
X60292857Y-38111904D01*
X60902380Y-37311904D02*
X61397619Y-37311904D01*
X61130952Y-37616666D01*
X61245238Y-37616666D01*
X61321428Y-37654761D01*
X61359523Y-37692857D01*
X61397619Y-37769047D01*
X61397619Y-37959523D01*
X61359523Y-38035714D01*
X61321428Y-38073809D01*
X61245238Y-38111904D01*
X61016666Y-38111904D01*
X60940476Y-38073809D01*
X60902380Y-38035714D01*
G04 #@! TO.C,J6*
X53561904Y-46016666D02*
X54133333Y-46016666D01*
X54247619Y-46054761D01*
X54323809Y-46130952D01*
X54361904Y-46245238D01*
X54361904Y-46321428D01*
X53561904Y-45292857D02*
X53561904Y-45445238D01*
X53600000Y-45521428D01*
X53638095Y-45559523D01*
X53752380Y-45635714D01*
X53904761Y-45673809D01*
X54209523Y-45673809D01*
X54285714Y-45635714D01*
X54323809Y-45597619D01*
X54361904Y-45521428D01*
X54361904Y-45369047D01*
X54323809Y-45292857D01*
X54285714Y-45254761D01*
X54209523Y-45216666D01*
X54019047Y-45216666D01*
X53942857Y-45254761D01*
X53904761Y-45292857D01*
X53866666Y-45369047D01*
X53866666Y-45521428D01*
X53904761Y-45597619D01*
X53942857Y-45635714D01*
X54019047Y-45673809D01*
G04 #@! TO.C,J5*
X75311904Y-46016666D02*
X75883333Y-46016666D01*
X75997619Y-46054761D01*
X76073809Y-46130952D01*
X76111904Y-46245238D01*
X76111904Y-46321428D01*
X75311904Y-45254761D02*
X75311904Y-45635714D01*
X75692857Y-45673809D01*
X75654761Y-45635714D01*
X75616666Y-45559523D01*
X75616666Y-45369047D01*
X75654761Y-45292857D01*
X75692857Y-45254761D01*
X75769047Y-45216666D01*
X75959523Y-45216666D01*
X76035714Y-45254761D01*
X76073809Y-45292857D01*
X76111904Y-45369047D01*
X76111904Y-45559523D01*
X76073809Y-45635714D01*
X76035714Y-45673809D01*
G04 #@! TO.C,U1*
X75811904Y-34109523D02*
X76459523Y-34109523D01*
X76535714Y-34071428D01*
X76573809Y-34033333D01*
X76611904Y-33957142D01*
X76611904Y-33804761D01*
X76573809Y-33728571D01*
X76535714Y-33690476D01*
X76459523Y-33652380D01*
X75811904Y-33652380D01*
X76611904Y-32852380D02*
X76611904Y-33309523D01*
X76611904Y-33080952D02*
X75811904Y-33080952D01*
X75926190Y-33157142D01*
X76002380Y-33233333D01*
X76040476Y-33309523D01*
G04 #@! TO.C,J4*
X111663333Y-43420904D02*
X111663333Y-43992333D01*
X111625238Y-44106619D01*
X111549047Y-44182809D01*
X111434761Y-44220904D01*
X111358571Y-44220904D01*
X112387142Y-43687571D02*
X112387142Y-44220904D01*
X112196666Y-43382809D02*
X112006190Y-43954238D01*
X112501428Y-43954238D01*
D10*
G04 #@! TO.C,C1*
X77010000Y-36837221D02*
X77010000Y-37162779D01*
X75990000Y-36837221D02*
X75990000Y-37162779D01*
G04 #@! TO.C,C2*
X71410000Y-30845563D02*
X71410000Y-25090000D01*
X71410000Y-25090000D02*
X69060000Y-25090000D01*
X64590000Y-25090000D02*
X66940000Y-25090000D01*
X70345563Y-31910000D02*
X71410000Y-30845563D01*
X64590000Y-30845563D02*
X64590000Y-25090000D01*
X65654437Y-31910000D02*
X64590000Y-30845563D01*
X70345563Y-31910000D02*
X69060000Y-31910000D01*
X66152500Y-32937500D02*
X66152500Y-32150000D01*
X65654437Y-31910000D02*
X66940000Y-31910000D01*
X65758750Y-32543750D02*
X66546250Y-32543750D01*
G04 #@! TO.C,C3*
X72490000Y-30162779D02*
X72490000Y-29837221D01*
X73510000Y-30162779D02*
X73510000Y-29837221D01*
G04 #@! TO.C,C4*
X81490000Y-30162779D02*
X81490000Y-29837221D01*
X82510000Y-30162779D02*
X82510000Y-29837221D01*
G04 #@! TO.C,C5*
X90410000Y-23590000D02*
X88060000Y-23590000D01*
X84758750Y-31043750D02*
X85546250Y-31043750D01*
X89345563Y-30410000D02*
X88060000Y-30410000D01*
X84654437Y-30410000D02*
X83590000Y-29345563D01*
X90410000Y-29345563D02*
X90410000Y-23590000D01*
X85152500Y-31437500D02*
X85152500Y-30650000D01*
X89345563Y-30410000D02*
X90410000Y-29345563D01*
X83590000Y-23590000D02*
X85940000Y-23590000D01*
X83590000Y-29345563D02*
X83590000Y-23590000D01*
X84654437Y-30410000D02*
X85940000Y-30410000D01*
G04 #@! TO.C,D1*
X62200000Y-31000000D02*
X62200000Y-30500000D01*
X62200000Y-30500000D02*
X63600000Y-30500000D01*
X62200000Y-26000000D02*
X62200000Y-26800000D01*
X57800000Y-29300000D02*
X57800000Y-27700000D01*
X57800000Y-31000000D02*
X62200000Y-31000000D01*
X57800000Y-26800000D02*
X57800000Y-26000000D01*
X57800000Y-30200000D02*
X57800000Y-31000000D01*
X57800000Y-26000000D02*
X62200000Y-26000000D01*
X62200000Y-29300000D02*
X62200000Y-27700000D01*
G04 #@! TO.C,D2*
X89235000Y-37272500D02*
X89235000Y-34987500D01*
X87765000Y-37272500D02*
X89235000Y-37272500D01*
X87765000Y-34987500D02*
X87765000Y-37272500D01*
G04 #@! TO.C,D3*
X93150000Y-32600000D02*
X93150000Y-38000000D01*
X89850000Y-32600000D02*
X89850000Y-38000000D01*
X93150000Y-32600000D02*
X89850000Y-32600000D01*
G04 #@! TO.C,H1*
X98224903Y-25500000D02*
G75*
G03*
X98224903Y-25500000I-3224903J0D01*
G01*
G36*
X95500000Y-22300000D02*
G01*
X96500000Y-22600000D01*
X97300000Y-23200000D01*
X97800000Y-23900000D01*
X98100000Y-24600000D01*
X98200000Y-25000000D01*
X98200000Y-25500000D01*
X96600000Y-25500000D01*
X96600000Y-25400000D01*
X96500000Y-25000000D01*
X96300000Y-24600000D01*
X95900000Y-24200000D01*
X95500000Y-24000000D01*
X95100000Y-23900000D01*
X95000000Y-23900000D01*
X95000000Y-22275097D01*
X95500000Y-22300000D01*
G37*
D13*
X95500000Y-22300000D02*
X96500000Y-22600000D01*
X97300000Y-23200000D01*
X97800000Y-23900000D01*
X98100000Y-24600000D01*
X98200000Y-25000000D01*
X98200000Y-25500000D01*
X96600000Y-25500000D01*
X96600000Y-25400000D01*
X96500000Y-25000000D01*
X96300000Y-24600000D01*
X95900000Y-24200000D01*
X95500000Y-24000000D01*
X95100000Y-23900000D01*
X95000000Y-23900000D01*
X95000000Y-22275097D01*
X95500000Y-22300000D01*
G36*
X93400000Y-25600000D02*
G01*
X93500000Y-26000000D01*
X93700000Y-26400000D01*
X94100000Y-26800000D01*
X94500000Y-27000000D01*
X94900000Y-27100000D01*
X95000000Y-27100000D01*
X95000000Y-28724903D01*
X94500000Y-28700000D01*
X93500000Y-28400000D01*
X92700000Y-27800000D01*
X92200000Y-27100000D01*
X91900000Y-26400000D01*
X91800000Y-26000000D01*
X91800000Y-25500000D01*
X93400000Y-25500000D01*
X93400000Y-25600000D01*
G37*
X93400000Y-25600000D02*
X93500000Y-26000000D01*
X93700000Y-26400000D01*
X94100000Y-26800000D01*
X94500000Y-27000000D01*
X94900000Y-27100000D01*
X95000000Y-27100000D01*
X95000000Y-28724903D01*
X94500000Y-28700000D01*
X93500000Y-28400000D01*
X92700000Y-27800000D01*
X92200000Y-27100000D01*
X91900000Y-26400000D01*
X91800000Y-26000000D01*
X91800000Y-25500000D01*
X93400000Y-25500000D01*
X93400000Y-25600000D01*
D10*
G04 #@! TO.C,H2*
X98224903Y-47500000D02*
G75*
G03*
X98224903Y-47500000I-3224903J0D01*
G01*
G36*
X93400000Y-47600000D02*
G01*
X93500000Y-48000000D01*
X93700000Y-48400000D01*
X94100000Y-48800000D01*
X94500000Y-49000000D01*
X94900000Y-49100000D01*
X95000000Y-49100000D01*
X95000000Y-50724903D01*
X94500000Y-50700000D01*
X93500000Y-50400000D01*
X92700000Y-49800000D01*
X92200000Y-49100000D01*
X91900000Y-48400000D01*
X91800000Y-48000000D01*
X91800000Y-47500000D01*
X93400000Y-47500000D01*
X93400000Y-47600000D01*
G37*
D13*
X93400000Y-47600000D02*
X93500000Y-48000000D01*
X93700000Y-48400000D01*
X94100000Y-48800000D01*
X94500000Y-49000000D01*
X94900000Y-49100000D01*
X95000000Y-49100000D01*
X95000000Y-50724903D01*
X94500000Y-50700000D01*
X93500000Y-50400000D01*
X92700000Y-49800000D01*
X92200000Y-49100000D01*
X91900000Y-48400000D01*
X91800000Y-48000000D01*
X91800000Y-47500000D01*
X93400000Y-47500000D01*
X93400000Y-47600000D01*
G36*
X95500000Y-44300000D02*
G01*
X96500000Y-44600000D01*
X97300000Y-45200000D01*
X97800000Y-45900000D01*
X98100000Y-46600000D01*
X98200000Y-47000000D01*
X98200000Y-47500000D01*
X96600000Y-47500000D01*
X96600000Y-47400000D01*
X96500000Y-47000000D01*
X96300000Y-46600000D01*
X95900000Y-46200000D01*
X95500000Y-46000000D01*
X95100000Y-45900000D01*
X95000000Y-45900000D01*
X95000000Y-44275097D01*
X95500000Y-44300000D01*
G37*
X95500000Y-44300000D02*
X96500000Y-44600000D01*
X97300000Y-45200000D01*
X97800000Y-45900000D01*
X98100000Y-46600000D01*
X98200000Y-47000000D01*
X98200000Y-47500000D01*
X96600000Y-47500000D01*
X96600000Y-47400000D01*
X96500000Y-47000000D01*
X96300000Y-46600000D01*
X95900000Y-46200000D01*
X95500000Y-46000000D01*
X95100000Y-45900000D01*
X95000000Y-45900000D01*
X95000000Y-44275097D01*
X95500000Y-44300000D01*
D10*
G04 #@! TO.C,H3*
X54224903Y-37000000D02*
G75*
G03*
X54224903Y-37000000I-3224903J0D01*
G01*
G36*
X51500000Y-33800000D02*
G01*
X52500000Y-34100000D01*
X53300000Y-34700000D01*
X53800000Y-35400000D01*
X54100000Y-36100000D01*
X54200000Y-36500000D01*
X54200000Y-37000000D01*
X52600000Y-37000000D01*
X52600000Y-36900000D01*
X52500000Y-36500000D01*
X52300000Y-36100000D01*
X51900000Y-35700000D01*
X51500000Y-35500000D01*
X51100000Y-35400000D01*
X51000000Y-35400000D01*
X51000000Y-33775097D01*
X51500000Y-33800000D01*
G37*
D13*
X51500000Y-33800000D02*
X52500000Y-34100000D01*
X53300000Y-34700000D01*
X53800000Y-35400000D01*
X54100000Y-36100000D01*
X54200000Y-36500000D01*
X54200000Y-37000000D01*
X52600000Y-37000000D01*
X52600000Y-36900000D01*
X52500000Y-36500000D01*
X52300000Y-36100000D01*
X51900000Y-35700000D01*
X51500000Y-35500000D01*
X51100000Y-35400000D01*
X51000000Y-35400000D01*
X51000000Y-33775097D01*
X51500000Y-33800000D01*
G36*
X49400000Y-37100000D02*
G01*
X49500000Y-37500000D01*
X49700000Y-37900000D01*
X50100000Y-38300000D01*
X50500000Y-38500000D01*
X50900000Y-38600000D01*
X51000000Y-38600000D01*
X51000000Y-40224903D01*
X50500000Y-40200000D01*
X49500000Y-39900000D01*
X48700000Y-39300000D01*
X48200000Y-38600000D01*
X47900000Y-37900000D01*
X47800000Y-37500000D01*
X47800000Y-37000000D01*
X49400000Y-37000000D01*
X49400000Y-37100000D01*
G37*
X49400000Y-37100000D02*
X49500000Y-37500000D01*
X49700000Y-37900000D01*
X50100000Y-38300000D01*
X50500000Y-38500000D01*
X50900000Y-38600000D01*
X51000000Y-38600000D01*
X51000000Y-40224903D01*
X50500000Y-40200000D01*
X49500000Y-39900000D01*
X48700000Y-39300000D01*
X48200000Y-38600000D01*
X47900000Y-37900000D01*
X47800000Y-37500000D01*
X47800000Y-37000000D01*
X49400000Y-37000000D01*
X49400000Y-37100000D01*
D10*
G04 #@! TO.C,J1*
X55310000Y-21460000D02*
X47690000Y-21460000D01*
X48960000Y-31620000D02*
X48960000Y-21460000D01*
X47690000Y-21460000D02*
X47690000Y-31620000D01*
X55310000Y-31620000D02*
X55310000Y-21460000D01*
X47690000Y-31620000D02*
X55310000Y-31620000D01*
G04 #@! TO.C,J3*
X114300000Y-21590000D02*
X114300000Y-29210000D01*
X114300000Y-22860000D02*
X99060000Y-22860000D01*
X114300000Y-21590000D02*
X99060000Y-21590000D01*
X99060000Y-21590000D02*
X99060000Y-29210000D01*
X114300000Y-29210000D02*
X99060000Y-29210000D01*
G04 #@! TO.C,K1*
X95500000Y-36600000D02*
X95500000Y-37700000D01*
X94100000Y-41400000D02*
X94100000Y-31000000D01*
X96100000Y-36600000D02*
X96100000Y-35900000D01*
X93900000Y-41600000D02*
X93900000Y-40100000D01*
X114700000Y-41400000D02*
X94100000Y-41400000D01*
X95700000Y-36600000D02*
X95300000Y-35900000D01*
X94900000Y-36600000D02*
X96100000Y-36600000D01*
X114700000Y-31000000D02*
X114700000Y-41400000D01*
X95500000Y-35900000D02*
X95500000Y-34800000D01*
X96100000Y-35900000D02*
X94900000Y-35900000D01*
X94100000Y-31000000D02*
X114700000Y-31000000D01*
X95600000Y-41600000D02*
X93900000Y-41600000D01*
X94900000Y-35900000D02*
X94900000Y-36600000D01*
G04 #@! TO.C,Q1*
X93080000Y-41240000D02*
X92150000Y-41240000D01*
X93080000Y-41240000D02*
X93080000Y-42700000D01*
X89920000Y-41240000D02*
X90850000Y-41240000D01*
X89920000Y-41240000D02*
X89920000Y-43400000D01*
G04 #@! TO.C,Q2*
X79760000Y-37420000D02*
X79760000Y-38350000D01*
X79760000Y-40580000D02*
X79760000Y-39650000D01*
X79760000Y-37420000D02*
X77600000Y-37420000D01*
X79760000Y-40580000D02*
X78300000Y-40580000D01*
G04 #@! TO.C,R1*
X72625279Y-31990000D02*
X72299721Y-31990000D01*
X72625279Y-33010000D02*
X72299721Y-33010000D01*
G04 #@! TO.C,R2*
X91010000Y-45124721D02*
X91010000Y-45450279D01*
X89990000Y-45124721D02*
X89990000Y-45450279D01*
G04 #@! TO.C,R3*
X77490000Y-35162779D02*
X77490000Y-34837221D01*
X78510000Y-35162779D02*
X78510000Y-34837221D01*
G04 #@! TO.C,R4*
X58510000Y-35162779D02*
X58510000Y-34837221D01*
X57490000Y-35162779D02*
X57490000Y-34837221D01*
G04 #@! TO.C,R5*
X89010000Y-39162779D02*
X89010000Y-38837221D01*
X87990000Y-39162779D02*
X87990000Y-38837221D01*
G04 #@! TO.C,R6*
X80510000Y-34837221D02*
X80510000Y-35162779D01*
X79490000Y-34837221D02*
X79490000Y-35162779D01*
G04 #@! TO.C,R7*
X59490000Y-34837221D02*
X59490000Y-35162779D01*
X60510000Y-34837221D02*
X60510000Y-35162779D01*
G04 #@! TO.C,R8*
X85760000Y-39087221D02*
X85760000Y-39412779D01*
X84740000Y-39087221D02*
X84740000Y-39412779D01*
G04 #@! TO.C,R9*
X48690000Y-46049721D02*
X48690000Y-46375279D01*
X49710000Y-46049721D02*
X49710000Y-46375279D01*
G04 #@! TO.C,RV1*
X84800000Y-33100000D02*
X84800000Y-32400000D01*
X84600000Y-34000000D02*
X84600000Y-36900000D01*
X83200000Y-32900000D02*
X82800000Y-32900000D01*
X81400000Y-36900000D02*
X82000000Y-36900000D01*
X81400000Y-34000000D02*
X81400000Y-36900000D01*
X84600000Y-36900000D02*
X84000000Y-36900000D01*
X84800000Y-32400000D02*
X84100000Y-32400000D01*
G04 #@! TO.C,RV2*
X64800000Y-33100000D02*
X64800000Y-32400000D01*
X64600000Y-36900000D02*
X64000000Y-36900000D01*
X61400000Y-34000000D02*
X61400000Y-36900000D01*
X61400000Y-36900000D02*
X62000000Y-36900000D01*
X63200000Y-32900000D02*
X62800000Y-32900000D01*
X64800000Y-32400000D02*
X64100000Y-32400000D01*
X64600000Y-34000000D02*
X64600000Y-36900000D01*
G04 #@! TO.C,U2*
X74075000Y-29245000D02*
X74345000Y-29245000D01*
X74345000Y-29245000D02*
X74345000Y-32075000D01*
X80975000Y-27745000D02*
X80975000Y-29245000D01*
X80975000Y-29245000D02*
X80705000Y-29245000D01*
X80705000Y-29245000D02*
X80705000Y-30345000D01*
X74075000Y-27745000D02*
X74075000Y-29245000D01*
G04 #@! TO.C,Q3*
X59760000Y-37420000D02*
X57600000Y-37420000D01*
X59760000Y-40580000D02*
X59760000Y-39650000D01*
X59760000Y-40580000D02*
X58300000Y-40580000D01*
X59760000Y-37420000D02*
X59760000Y-38350000D01*
G04 #@! TO.C,J6*
X50400000Y-50655000D02*
X50400000Y-48115000D01*
X50650000Y-50405000D02*
X50650000Y-41055000D01*
X66430000Y-41055000D02*
X66430000Y-50405000D01*
X66430000Y-50405000D02*
X50650000Y-50405000D01*
X50400000Y-50655000D02*
X52940000Y-50655000D01*
X50650000Y-41055000D02*
X66430000Y-41055000D01*
G04 #@! TO.C,J5*
X73650000Y-50405000D02*
X73650000Y-41055000D01*
X73400000Y-50655000D02*
X75940000Y-50655000D01*
X73650000Y-41055000D02*
X89430000Y-41055000D01*
X73400000Y-50655000D02*
X73400000Y-48115000D01*
X89430000Y-41055000D02*
X89430000Y-50405000D01*
X89430000Y-50405000D02*
X73650000Y-50405000D01*
G04 #@! TO.C,U1*
X75435000Y-37000000D02*
X75435000Y-38950000D01*
X66565000Y-37000000D02*
X66565000Y-35050000D01*
X75435000Y-37000000D02*
X75435000Y-33550000D01*
X66565000Y-37000000D02*
X66565000Y-38950000D01*
G04 #@! TO.C,J4*
X99060000Y-49149000D02*
X114300000Y-49149000D01*
X114300000Y-50419000D02*
X114300000Y-42799000D01*
X99060000Y-50419000D02*
X114300000Y-50419000D01*
X99060000Y-50419000D02*
X99060000Y-42799000D01*
X99060000Y-42799000D02*
X114300000Y-42799000D01*
G04 #@! TD*
M02*
