G04 #@! TF.GenerationSoftware,KiCad,Pcbnew,6.0.9-8da3e8f707~116~ubuntu20.04.1*
G04 #@! TF.CreationDate,2023-05-05T17:22:20+00:00*
G04 #@! TF.ProjectId,LEC009002,4c454330-3039-4303-9032-2e6b69636164,rev?*
G04 #@! TF.SameCoordinates,Original*
G04 #@! TF.FileFunction,Soldermask,Top*
G04 #@! TF.FilePolarity,Negative*
%FSLAX46Y46*%
G04 Gerber Fmt 4.6, Leading zero omitted, Abs format (unit mm)*
G04 Created by KiCad (PCBNEW 6.0.9-8da3e8f707~116~ubuntu20.04.1) date 2023-05-05 17:22:20*
%MOMM*%
%LPD*%
G01*
G04 APERTURE LIST*
G04 Aperture macros list*
%AMRoundRect*
0 Rectangle with rounded corners*
0 $1 Rounding radius*
0 $2 $3 $4 $5 $6 $7 $8 $9 X,Y pos of 4 corners*
0 Add a 4 corners polygon primitive as box body*
4,1,4,$2,$3,$4,$5,$6,$7,$8,$9,$2,$3,0*
0 Add four circle primitives for the rounded corners*
1,1,$1+$1,$2,$3*
1,1,$1+$1,$4,$5*
1,1,$1+$1,$6,$7*
1,1,$1+$1,$8,$9*
0 Add four rect primitives between the rounded corners*
20,1,$1+$1,$2,$3,$4,$5,0*
20,1,$1+$1,$4,$5,$6,$7,0*
20,1,$1+$1,$6,$7,$8,$9,0*
20,1,$1+$1,$8,$9,$2,$3,0*%
G04 Aperture macros list end*
%ADD10C,0.010000*%
%ADD11RoundRect,0.268750X-0.256250X0.218750X-0.256250X-0.218750X0.256250X-0.218750X0.256250X0.218750X0*%
%ADD12RoundRect,0.299600X0.550400X-1.500400X0.550400X1.500400X-0.550400X1.500400X-0.550400X-1.500400X0*%
%ADD13RoundRect,0.268750X0.256250X-0.218750X0.256250X0.218750X-0.256250X0.218750X-0.256250X-0.218750X0*%
%ADD14RoundRect,0.050000X0.500000X0.400000X-0.500000X0.400000X-0.500000X-0.400000X0.500000X-0.400000X0*%
%ADD15RoundRect,0.050000X-0.900000X1.250000X-0.900000X-1.250000X0.900000X-1.250000X0.900000X1.250000X0*%
%ADD16C,3.300000*%
%ADD17RoundRect,0.050000X-1.500000X1.500000X-1.500000X-1.500000X1.500000X-1.500000X1.500000X1.500000X0*%
%ADD18C,3.100000*%
%ADD19RoundRect,0.050000X1.500000X1.500000X-1.500000X1.500000X-1.500000X-1.500000X1.500000X-1.500000X0*%
%ADD20C,1.900000*%
%ADD21RoundRect,0.050000X0.900000X-0.900000X0.900000X0.900000X-0.900000X0.900000X-0.900000X-0.900000X0*%
%ADD22RoundRect,0.050000X0.400000X-0.450000X0.400000X0.450000X-0.400000X0.450000X-0.400000X-0.450000X0*%
%ADD23RoundRect,0.050000X-0.450000X-0.400000X0.450000X-0.400000X0.450000X0.400000X-0.450000X0.400000X0*%
%ADD24RoundRect,0.268750X0.218750X0.256250X-0.218750X0.256250X-0.218750X-0.256250X0.218750X-0.256250X0*%
%ADD25RoundRect,0.050000X-0.600000X0.600000X-0.600000X-0.600000X0.600000X-0.600000X0.600000X0.600000X0*%
%ADD26RoundRect,0.050000X-0.800000X0.750000X-0.800000X-0.750000X0.800000X-0.750000X0.800000X0.750000X0*%
%ADD27RoundRect,0.050000X0.600000X-1.100000X0.600000X1.100000X-0.600000X1.100000X-0.600000X-1.100000X0*%
%ADD28RoundRect,0.050000X2.900000X-3.200000X2.900000X3.200000X-2.900000X3.200000X-2.900000X-3.200000X0*%
%ADD29RoundRect,0.050000X0.863600X-0.863600X0.863600X0.863600X-0.863600X0.863600X-0.863600X-0.863600X0*%
%ADD30O,1.827200X1.827200*%
%ADD31RoundRect,0.200000X-0.150000X0.825000X-0.150000X-0.825000X0.150000X-0.825000X0.150000X0.825000X0*%
%ADD32RoundRect,0.050000X-1.500000X-1.500000X1.500000X-1.500000X1.500000X1.500000X-1.500000X1.500000X0*%
G04 APERTURE END LIST*
G04 #@! TO.C,LOGO1*
G36*
X56211400Y-22702120D02*
G01*
X55990420Y-22702120D01*
X55990420Y-21427040D01*
X56211400Y-21427040D01*
X56211400Y-22702120D01*
G37*
D10*
X56211400Y-22702120D02*
X55990420Y-22702120D01*
X55990420Y-21427040D01*
X56211400Y-21427040D01*
X56211400Y-22702120D01*
G36*
X59308402Y-22385255D02*
G01*
X59313120Y-22434642D01*
X59322714Y-22483391D01*
X59336988Y-22531126D01*
X59355743Y-22577472D01*
X59378784Y-22622055D01*
X59405913Y-22664500D01*
X59436933Y-22704432D01*
X59471648Y-22741476D01*
X59509860Y-22775258D01*
X59515940Y-22780066D01*
X59556038Y-22808193D01*
X59599345Y-22832754D01*
X59645214Y-22853491D01*
X59692999Y-22870147D01*
X59742054Y-22882466D01*
X59791733Y-22890191D01*
X59793061Y-22890331D01*
X59814417Y-22891812D01*
X59839012Y-22892277D01*
X59865170Y-22891784D01*
X59891216Y-22890393D01*
X59915475Y-22888161D01*
X59935040Y-22885369D01*
X59985420Y-22873968D01*
X60034171Y-22858011D01*
X60080973Y-22837722D01*
X60125506Y-22813326D01*
X60167447Y-22785050D01*
X60206477Y-22753119D01*
X60242275Y-22717757D01*
X60274521Y-22679189D01*
X60302893Y-22637642D01*
X60313459Y-22619570D01*
X60317764Y-22611866D01*
X60320977Y-22606162D01*
X60322419Y-22603660D01*
X60322428Y-22603648D01*
X60324718Y-22604589D01*
X60330966Y-22607586D01*
X60340622Y-22612356D01*
X60353134Y-22618617D01*
X60367950Y-22626087D01*
X60384518Y-22634484D01*
X60402288Y-22643526D01*
X60420709Y-22652930D01*
X60439227Y-22662414D01*
X60457292Y-22671697D01*
X60474353Y-22680496D01*
X60489857Y-22688530D01*
X60503254Y-22695515D01*
X60513992Y-22701170D01*
X60521519Y-22705212D01*
X60525284Y-22707360D01*
X60525579Y-22707574D01*
X60526342Y-22709476D01*
X60525650Y-22712864D01*
X60523236Y-22718246D01*
X60518829Y-22726130D01*
X60512161Y-22737022D01*
X60502963Y-22751432D01*
X60499532Y-22756730D01*
X60463745Y-22807247D01*
X60424233Y-22854456D01*
X60381253Y-22898181D01*
X60335061Y-22938245D01*
X60285915Y-22974473D01*
X60234071Y-23006690D01*
X60179786Y-23034719D01*
X60123317Y-23058386D01*
X60064922Y-23077513D01*
X60011386Y-23090608D01*
X59990451Y-23094715D01*
X59971307Y-23097937D01*
X59952786Y-23100387D01*
X59933721Y-23102177D01*
X59912944Y-23103419D01*
X59889286Y-23104226D01*
X59865190Y-23104665D01*
X59846965Y-23104860D01*
X59830071Y-23104960D01*
X59815281Y-23104966D01*
X59803367Y-23104880D01*
X59795103Y-23104704D01*
X59791530Y-23104485D01*
X59785642Y-23103741D01*
X59776310Y-23102630D01*
X59765138Y-23101341D01*
X59759780Y-23100735D01*
X59704003Y-23092047D01*
X59648007Y-23078574D01*
X59592401Y-23060545D01*
X59537794Y-23038188D01*
X59484797Y-23011731D01*
X59434019Y-22981401D01*
X59425770Y-22975955D01*
X59395798Y-22955098D01*
X59369044Y-22934653D01*
X59343942Y-22913317D01*
X59318927Y-22889790D01*
X59303718Y-22874501D01*
X59261520Y-22827656D01*
X59223616Y-22778179D01*
X59190086Y-22726236D01*
X59161014Y-22671994D01*
X59136482Y-22615618D01*
X59116574Y-22557274D01*
X59101371Y-22497129D01*
X59093187Y-22451477D01*
X59091980Y-22442261D01*
X59090577Y-22429810D01*
X59089087Y-22415307D01*
X59087618Y-22399937D01*
X59086281Y-22384885D01*
X59085185Y-22371334D01*
X59084438Y-22360470D01*
X59084150Y-22353505D01*
X59086602Y-22353107D01*
X59093621Y-22352738D01*
X59104692Y-22352405D01*
X59119304Y-22352119D01*
X59136941Y-22351886D01*
X59157091Y-22351717D01*
X59179241Y-22351620D01*
X59195519Y-22351600D01*
X59306899Y-22351600D01*
X59308402Y-22385255D01*
G37*
X59308402Y-22385255D02*
X59313120Y-22434642D01*
X59322714Y-22483391D01*
X59336988Y-22531126D01*
X59355743Y-22577472D01*
X59378784Y-22622055D01*
X59405913Y-22664500D01*
X59436933Y-22704432D01*
X59471648Y-22741476D01*
X59509860Y-22775258D01*
X59515940Y-22780066D01*
X59556038Y-22808193D01*
X59599345Y-22832754D01*
X59645214Y-22853491D01*
X59692999Y-22870147D01*
X59742054Y-22882466D01*
X59791733Y-22890191D01*
X59793061Y-22890331D01*
X59814417Y-22891812D01*
X59839012Y-22892277D01*
X59865170Y-22891784D01*
X59891216Y-22890393D01*
X59915475Y-22888161D01*
X59935040Y-22885369D01*
X59985420Y-22873968D01*
X60034171Y-22858011D01*
X60080973Y-22837722D01*
X60125506Y-22813326D01*
X60167447Y-22785050D01*
X60206477Y-22753119D01*
X60242275Y-22717757D01*
X60274521Y-22679189D01*
X60302893Y-22637642D01*
X60313459Y-22619570D01*
X60317764Y-22611866D01*
X60320977Y-22606162D01*
X60322419Y-22603660D01*
X60322428Y-22603648D01*
X60324718Y-22604589D01*
X60330966Y-22607586D01*
X60340622Y-22612356D01*
X60353134Y-22618617D01*
X60367950Y-22626087D01*
X60384518Y-22634484D01*
X60402288Y-22643526D01*
X60420709Y-22652930D01*
X60439227Y-22662414D01*
X60457292Y-22671697D01*
X60474353Y-22680496D01*
X60489857Y-22688530D01*
X60503254Y-22695515D01*
X60513992Y-22701170D01*
X60521519Y-22705212D01*
X60525284Y-22707360D01*
X60525579Y-22707574D01*
X60526342Y-22709476D01*
X60525650Y-22712864D01*
X60523236Y-22718246D01*
X60518829Y-22726130D01*
X60512161Y-22737022D01*
X60502963Y-22751432D01*
X60499532Y-22756730D01*
X60463745Y-22807247D01*
X60424233Y-22854456D01*
X60381253Y-22898181D01*
X60335061Y-22938245D01*
X60285915Y-22974473D01*
X60234071Y-23006690D01*
X60179786Y-23034719D01*
X60123317Y-23058386D01*
X60064922Y-23077513D01*
X60011386Y-23090608D01*
X59990451Y-23094715D01*
X59971307Y-23097937D01*
X59952786Y-23100387D01*
X59933721Y-23102177D01*
X59912944Y-23103419D01*
X59889286Y-23104226D01*
X59865190Y-23104665D01*
X59846965Y-23104860D01*
X59830071Y-23104960D01*
X59815281Y-23104966D01*
X59803367Y-23104880D01*
X59795103Y-23104704D01*
X59791530Y-23104485D01*
X59785642Y-23103741D01*
X59776310Y-23102630D01*
X59765138Y-23101341D01*
X59759780Y-23100735D01*
X59704003Y-23092047D01*
X59648007Y-23078574D01*
X59592401Y-23060545D01*
X59537794Y-23038188D01*
X59484797Y-23011731D01*
X59434019Y-22981401D01*
X59425770Y-22975955D01*
X59395798Y-22955098D01*
X59369044Y-22934653D01*
X59343942Y-22913317D01*
X59318927Y-22889790D01*
X59303718Y-22874501D01*
X59261520Y-22827656D01*
X59223616Y-22778179D01*
X59190086Y-22726236D01*
X59161014Y-22671994D01*
X59136482Y-22615618D01*
X59116574Y-22557274D01*
X59101371Y-22497129D01*
X59093187Y-22451477D01*
X59091980Y-22442261D01*
X59090577Y-22429810D01*
X59089087Y-22415307D01*
X59087618Y-22399937D01*
X59086281Y-22384885D01*
X59085185Y-22371334D01*
X59084438Y-22360470D01*
X59084150Y-22353505D01*
X59086602Y-22353107D01*
X59093621Y-22352738D01*
X59104692Y-22352405D01*
X59119304Y-22352119D01*
X59136941Y-22351886D01*
X59157091Y-22351717D01*
X59179241Y-22351620D01*
X59195519Y-22351600D01*
X59306899Y-22351600D01*
X59308402Y-22385255D01*
G36*
X58682820Y-21637860D02*
G01*
X57809060Y-21637860D01*
X57809060Y-21950280D01*
X57585540Y-21950280D01*
X57585540Y-21416880D01*
X58682820Y-21416880D01*
X58682820Y-21637860D01*
G37*
X58682820Y-21637860D02*
X57809060Y-21637860D01*
X57809060Y-21950280D01*
X57585540Y-21950280D01*
X57585540Y-21416880D01*
X58682820Y-21416880D01*
X58682820Y-21637860D01*
G36*
X58682820Y-23103440D02*
G01*
X57590620Y-23103440D01*
X57590620Y-22879920D01*
X58682820Y-22879920D01*
X58682820Y-23103440D01*
G37*
X58682820Y-23103440D02*
X57590620Y-23103440D01*
X57590620Y-22879920D01*
X58682820Y-22879920D01*
X58682820Y-23103440D01*
G36*
X61621600Y-23095820D02*
G01*
X61400620Y-23095820D01*
X61400620Y-21813120D01*
X61621600Y-21813120D01*
X61621600Y-23095820D01*
G37*
X61621600Y-23095820D02*
X61400620Y-23095820D01*
X61400620Y-21813120D01*
X61621600Y-21813120D01*
X61621600Y-23095820D01*
G36*
X59876209Y-21421115D02*
G01*
X59897949Y-21421898D01*
X59916476Y-21423135D01*
X59924880Y-21424013D01*
X59986536Y-21434111D01*
X60046482Y-21448858D01*
X60104502Y-21468120D01*
X60160380Y-21491760D01*
X60213901Y-21519642D01*
X60264850Y-21551632D01*
X60313012Y-21587592D01*
X60358171Y-21627388D01*
X60400111Y-21670884D01*
X60438617Y-21717944D01*
X60473475Y-21768433D01*
X60474753Y-21770462D01*
X60480950Y-21780604D01*
X60485873Y-21789176D01*
X60489032Y-21795284D01*
X60489933Y-21798034D01*
X60489927Y-21798046D01*
X60487616Y-21799794D01*
X60481584Y-21803936D01*
X60472376Y-21810116D01*
X60460541Y-21817976D01*
X60446627Y-21827159D01*
X60431181Y-21837308D01*
X60414750Y-21848066D01*
X60397883Y-21859075D01*
X60381127Y-21869979D01*
X60365029Y-21880419D01*
X60350138Y-21890039D01*
X60337000Y-21898482D01*
X60326165Y-21905390D01*
X60318178Y-21910407D01*
X60313588Y-21913174D01*
X60312794Y-21913584D01*
X60309968Y-21912718D01*
X60305905Y-21908095D01*
X60300305Y-21899339D01*
X60297184Y-21893914D01*
X60280089Y-21866428D01*
X60259427Y-21838002D01*
X60236229Y-21809852D01*
X60211528Y-21783197D01*
X60186356Y-21759254D01*
X60174480Y-21749140D01*
X60133846Y-21719172D01*
X60090247Y-21693127D01*
X60044196Y-21671226D01*
X59996208Y-21653690D01*
X59946797Y-21640740D01*
X59906452Y-21633813D01*
X59884946Y-21631768D01*
X59860221Y-21630722D01*
X59833760Y-21630637D01*
X59807045Y-21631480D01*
X59781557Y-21633214D01*
X59758779Y-21635804D01*
X59747826Y-21637603D01*
X59697286Y-21649608D01*
X59648775Y-21666099D01*
X59602534Y-21686857D01*
X59558804Y-21711666D01*
X59517826Y-21740308D01*
X59479841Y-21772566D01*
X59445090Y-21808223D01*
X59413814Y-21847062D01*
X59386252Y-21888864D01*
X59362648Y-21933413D01*
X59343240Y-21980492D01*
X59333199Y-22011621D01*
X59322556Y-22056052D01*
X59315928Y-22102105D01*
X59313432Y-22140145D01*
X59312028Y-22181420D01*
X59091031Y-22181420D01*
X59092507Y-22136335D01*
X59096951Y-22076765D01*
X59106239Y-22018219D01*
X59120196Y-21960945D01*
X59138643Y-21905192D01*
X59161405Y-21851206D01*
X59188306Y-21799239D01*
X59219168Y-21749537D01*
X59253816Y-21702349D01*
X59292073Y-21657923D01*
X59333762Y-21616510D01*
X59378708Y-21578355D01*
X59426733Y-21543709D01*
X59477661Y-21512820D01*
X59531316Y-21485936D01*
X59564200Y-21472046D01*
X59617077Y-21453465D01*
X59671789Y-21438763D01*
X59729205Y-21427716D01*
X59744540Y-21425434D01*
X59760719Y-21423688D01*
X59780782Y-21422339D01*
X59803544Y-21421399D01*
X59827825Y-21420875D01*
X59852441Y-21420777D01*
X59876209Y-21421115D01*
G37*
X59876209Y-21421115D02*
X59897949Y-21421898D01*
X59916476Y-21423135D01*
X59924880Y-21424013D01*
X59986536Y-21434111D01*
X60046482Y-21448858D01*
X60104502Y-21468120D01*
X60160380Y-21491760D01*
X60213901Y-21519642D01*
X60264850Y-21551632D01*
X60313012Y-21587592D01*
X60358171Y-21627388D01*
X60400111Y-21670884D01*
X60438617Y-21717944D01*
X60473475Y-21768433D01*
X60474753Y-21770462D01*
X60480950Y-21780604D01*
X60485873Y-21789176D01*
X60489032Y-21795284D01*
X60489933Y-21798034D01*
X60489927Y-21798046D01*
X60487616Y-21799794D01*
X60481584Y-21803936D01*
X60472376Y-21810116D01*
X60460541Y-21817976D01*
X60446627Y-21827159D01*
X60431181Y-21837308D01*
X60414750Y-21848066D01*
X60397883Y-21859075D01*
X60381127Y-21869979D01*
X60365029Y-21880419D01*
X60350138Y-21890039D01*
X60337000Y-21898482D01*
X60326165Y-21905390D01*
X60318178Y-21910407D01*
X60313588Y-21913174D01*
X60312794Y-21913584D01*
X60309968Y-21912718D01*
X60305905Y-21908095D01*
X60300305Y-21899339D01*
X60297184Y-21893914D01*
X60280089Y-21866428D01*
X60259427Y-21838002D01*
X60236229Y-21809852D01*
X60211528Y-21783197D01*
X60186356Y-21759254D01*
X60174480Y-21749140D01*
X60133846Y-21719172D01*
X60090247Y-21693127D01*
X60044196Y-21671226D01*
X59996208Y-21653690D01*
X59946797Y-21640740D01*
X59906452Y-21633813D01*
X59884946Y-21631768D01*
X59860221Y-21630722D01*
X59833760Y-21630637D01*
X59807045Y-21631480D01*
X59781557Y-21633214D01*
X59758779Y-21635804D01*
X59747826Y-21637603D01*
X59697286Y-21649608D01*
X59648775Y-21666099D01*
X59602534Y-21686857D01*
X59558804Y-21711666D01*
X59517826Y-21740308D01*
X59479841Y-21772566D01*
X59445090Y-21808223D01*
X59413814Y-21847062D01*
X59386252Y-21888864D01*
X59362648Y-21933413D01*
X59343240Y-21980492D01*
X59333199Y-22011621D01*
X59322556Y-22056052D01*
X59315928Y-22102105D01*
X59313432Y-22140145D01*
X59312028Y-22181420D01*
X59091031Y-22181420D01*
X59092507Y-22136335D01*
X59096951Y-22076765D01*
X59106239Y-22018219D01*
X59120196Y-21960945D01*
X59138643Y-21905192D01*
X59161405Y-21851206D01*
X59188306Y-21799239D01*
X59219168Y-21749537D01*
X59253816Y-21702349D01*
X59292073Y-21657923D01*
X59333762Y-21616510D01*
X59378708Y-21578355D01*
X59426733Y-21543709D01*
X59477661Y-21512820D01*
X59531316Y-21485936D01*
X59564200Y-21472046D01*
X59617077Y-21453465D01*
X59671789Y-21438763D01*
X59729205Y-21427716D01*
X59744540Y-21425434D01*
X59760719Y-21423688D01*
X59780782Y-21422339D01*
X59803544Y-21421399D01*
X59827825Y-21420875D01*
X59852441Y-21420777D01*
X59876209Y-21421115D01*
G36*
X58568520Y-22359220D02*
G01*
X57809060Y-22359220D01*
X57809060Y-22702120D01*
X57588080Y-22702120D01*
X57588080Y-22135700D01*
X58568520Y-22135700D01*
X58568520Y-22359220D01*
G37*
X58568520Y-22359220D02*
X57809060Y-22359220D01*
X57809060Y-22702120D01*
X57588080Y-22702120D01*
X57588080Y-22135700D01*
X58568520Y-22135700D01*
X58568520Y-22359220D01*
G36*
X62200720Y-21645480D02*
G01*
X60831660Y-21645480D01*
X60831660Y-21424500D01*
X62200720Y-21424500D01*
X62200720Y-21645480D01*
G37*
X62200720Y-21645480D02*
X60831660Y-21645480D01*
X60831660Y-21424500D01*
X62200720Y-21424500D01*
X62200720Y-21645480D01*
G36*
X63510968Y-21424500D02*
G01*
X63716269Y-21707044D01*
X63740799Y-21740835D01*
X63764493Y-21773537D01*
X63787180Y-21804909D01*
X63808689Y-21834714D01*
X63828848Y-21862711D01*
X63847487Y-21888663D01*
X63864435Y-21912329D01*
X63879520Y-21933470D01*
X63892571Y-21951848D01*
X63903418Y-21967223D01*
X63911889Y-21979356D01*
X63917814Y-21988009D01*
X63921021Y-21992942D01*
X63921570Y-21994021D01*
X63920129Y-21997001D01*
X63916077Y-22003439D01*
X63909817Y-22012779D01*
X63901755Y-22024461D01*
X63892293Y-22037928D01*
X63881838Y-22052622D01*
X63870793Y-22067984D01*
X63859562Y-22083457D01*
X63848551Y-22098483D01*
X63838162Y-22112504D01*
X63828801Y-22124962D01*
X63820872Y-22135298D01*
X63814779Y-22142955D01*
X63810927Y-22147375D01*
X63809810Y-22148247D01*
X63808071Y-22146223D01*
X63803504Y-22140295D01*
X63796264Y-22130671D01*
X63786502Y-22117561D01*
X63774373Y-22101174D01*
X63760029Y-22081719D01*
X63743625Y-22059405D01*
X63725313Y-22034442D01*
X63705247Y-22007037D01*
X63683579Y-21977402D01*
X63660465Y-21945743D01*
X63636056Y-21912272D01*
X63610506Y-21877196D01*
X63583968Y-21840724D01*
X63556596Y-21803067D01*
X63548190Y-21791493D01*
X63520558Y-21753445D01*
X63493707Y-21716468D01*
X63467789Y-21680772D01*
X63442960Y-21646572D01*
X63419374Y-21614081D01*
X63397186Y-21583511D01*
X63376549Y-21555075D01*
X63357618Y-21528985D01*
X63340548Y-21505456D01*
X63325493Y-21484699D01*
X63312608Y-21466927D01*
X63302047Y-21452354D01*
X63293964Y-21441192D01*
X63288514Y-21433654D01*
X63285851Y-21429952D01*
X63285625Y-21429630D01*
X63284877Y-21428417D01*
X63284715Y-21427412D01*
X63285563Y-21426595D01*
X63287844Y-21425947D01*
X63291981Y-21425449D01*
X63298399Y-21425081D01*
X63307522Y-21424823D01*
X63319772Y-21424655D01*
X63335573Y-21424559D01*
X63355349Y-21424514D01*
X63379525Y-21424500D01*
X63396554Y-21424499D01*
X63510968Y-21424500D01*
G37*
X63510968Y-21424500D02*
X63716269Y-21707044D01*
X63740799Y-21740835D01*
X63764493Y-21773537D01*
X63787180Y-21804909D01*
X63808689Y-21834714D01*
X63828848Y-21862711D01*
X63847487Y-21888663D01*
X63864435Y-21912329D01*
X63879520Y-21933470D01*
X63892571Y-21951848D01*
X63903418Y-21967223D01*
X63911889Y-21979356D01*
X63917814Y-21988009D01*
X63921021Y-21992942D01*
X63921570Y-21994021D01*
X63920129Y-21997001D01*
X63916077Y-22003439D01*
X63909817Y-22012779D01*
X63901755Y-22024461D01*
X63892293Y-22037928D01*
X63881838Y-22052622D01*
X63870793Y-22067984D01*
X63859562Y-22083457D01*
X63848551Y-22098483D01*
X63838162Y-22112504D01*
X63828801Y-22124962D01*
X63820872Y-22135298D01*
X63814779Y-22142955D01*
X63810927Y-22147375D01*
X63809810Y-22148247D01*
X63808071Y-22146223D01*
X63803504Y-22140295D01*
X63796264Y-22130671D01*
X63786502Y-22117561D01*
X63774373Y-22101174D01*
X63760029Y-22081719D01*
X63743625Y-22059405D01*
X63725313Y-22034442D01*
X63705247Y-22007037D01*
X63683579Y-21977402D01*
X63660465Y-21945743D01*
X63636056Y-21912272D01*
X63610506Y-21877196D01*
X63583968Y-21840724D01*
X63556596Y-21803067D01*
X63548190Y-21791493D01*
X63520558Y-21753445D01*
X63493707Y-21716468D01*
X63467789Y-21680772D01*
X63442960Y-21646572D01*
X63419374Y-21614081D01*
X63397186Y-21583511D01*
X63376549Y-21555075D01*
X63357618Y-21528985D01*
X63340548Y-21505456D01*
X63325493Y-21484699D01*
X63312608Y-21466927D01*
X63302047Y-21452354D01*
X63293964Y-21441192D01*
X63288514Y-21433654D01*
X63285851Y-21429952D01*
X63285625Y-21429630D01*
X63284877Y-21428417D01*
X63284715Y-21427412D01*
X63285563Y-21426595D01*
X63287844Y-21425947D01*
X63291981Y-21425449D01*
X63298399Y-21425081D01*
X63307522Y-21424823D01*
X63319772Y-21424655D01*
X63335573Y-21424559D01*
X63355349Y-21424514D01*
X63379525Y-21424500D01*
X63396554Y-21424499D01*
X63510968Y-21424500D01*
G36*
X62868740Y-23095820D02*
G01*
X62647760Y-23095820D01*
X62647760Y-21424500D01*
X62868740Y-21424500D01*
X62868740Y-23095820D01*
G37*
X62868740Y-23095820D02*
X62647760Y-23095820D01*
X62647760Y-21424500D01*
X62868740Y-21424500D01*
X62868740Y-23095820D01*
G36*
X64626304Y-21430092D02*
G01*
X64644850Y-21430188D01*
X64758296Y-21430850D01*
X64452148Y-21849183D01*
X64422064Y-21890298D01*
X64392787Y-21930325D01*
X64364458Y-21969069D01*
X64337217Y-22006338D01*
X64311206Y-22041940D01*
X64286566Y-22075680D01*
X64263436Y-22107366D01*
X64241957Y-22136806D01*
X64222271Y-22163806D01*
X64204518Y-22188172D01*
X64188839Y-22209713D01*
X64175374Y-22228236D01*
X64164265Y-22243546D01*
X64155651Y-22255452D01*
X64149674Y-22263760D01*
X64146474Y-22268277D01*
X64145946Y-22269087D01*
X64147407Y-22271269D01*
X64151707Y-22277370D01*
X64158703Y-22287192D01*
X64168256Y-22300541D01*
X64180224Y-22317220D01*
X64194465Y-22337032D01*
X64210838Y-22359783D01*
X64229202Y-22385275D01*
X64249416Y-22413314D01*
X64271337Y-22443701D01*
X64294825Y-22476243D01*
X64319739Y-22510742D01*
X64345938Y-22547003D01*
X64373279Y-22584829D01*
X64401622Y-22624025D01*
X64430825Y-22664395D01*
X64442671Y-22680766D01*
X64472190Y-22721564D01*
X64500913Y-22761274D01*
X64528699Y-22799701D01*
X64555405Y-22836647D01*
X64580889Y-22871916D01*
X64605010Y-22905310D01*
X64627626Y-22936635D01*
X64648595Y-22965692D01*
X64667775Y-22992285D01*
X64685025Y-23016218D01*
X64700202Y-23037293D01*
X64713164Y-23055315D01*
X64723770Y-23070086D01*
X64731878Y-23081411D01*
X64737346Y-23089091D01*
X64740033Y-23092932D01*
X64740296Y-23093347D01*
X64738016Y-23093981D01*
X64730822Y-23094522D01*
X64718878Y-23094969D01*
X64702349Y-23095317D01*
X64681400Y-23095563D01*
X64656196Y-23095703D01*
X64627266Y-23095734D01*
X64513390Y-23095649D01*
X64272090Y-22761780D01*
X64245526Y-22725037D01*
X64219765Y-22689426D01*
X64194965Y-22655163D01*
X64171283Y-22622466D01*
X64148876Y-22591550D01*
X64127902Y-22562632D01*
X64108517Y-22535929D01*
X64090880Y-22511658D01*
X64075147Y-22490034D01*
X64061475Y-22471274D01*
X64050023Y-22455596D01*
X64040948Y-22443215D01*
X64034406Y-22434347D01*
X64030556Y-22429211D01*
X64029520Y-22427933D01*
X64027906Y-22429950D01*
X64023455Y-22435854D01*
X64016324Y-22445427D01*
X64006674Y-22458455D01*
X63994661Y-22474722D01*
X63980447Y-22494010D01*
X63964188Y-22516106D01*
X63946044Y-22540791D01*
X63926173Y-22567851D01*
X63904734Y-22597070D01*
X63881887Y-22628231D01*
X63857789Y-22661119D01*
X63832600Y-22695518D01*
X63806477Y-22731211D01*
X63785680Y-22759644D01*
X63758925Y-22796214D01*
X63732965Y-22831667D01*
X63707961Y-22865786D01*
X63684072Y-22898355D01*
X63661458Y-22929156D01*
X63640279Y-22957973D01*
X63620693Y-22984589D01*
X63602863Y-23008787D01*
X63586946Y-23030350D01*
X63573102Y-23049061D01*
X63561493Y-23064704D01*
X63552276Y-23077061D01*
X63545613Y-23085916D01*
X63541662Y-23091051D01*
X63540570Y-23092335D01*
X63537574Y-23092529D01*
X63530025Y-23092680D01*
X63518450Y-23092789D01*
X63503375Y-23092853D01*
X63485327Y-23092870D01*
X63464833Y-23092839D01*
X63442419Y-23092759D01*
X63425648Y-23092672D01*
X63313267Y-23092010D01*
X63919225Y-22263970D01*
X63961717Y-22205907D01*
X64003457Y-22148878D01*
X64044343Y-22093019D01*
X64084276Y-22038469D01*
X64123154Y-21985363D01*
X64160878Y-21933839D01*
X64197347Y-21884036D01*
X64232459Y-21836089D01*
X64266115Y-21790136D01*
X64298214Y-21746314D01*
X64328655Y-21704761D01*
X64357338Y-21665614D01*
X64384162Y-21629011D01*
X64409027Y-21595087D01*
X64431832Y-21563981D01*
X64452477Y-21535831D01*
X64470860Y-21510772D01*
X64486882Y-21488943D01*
X64500441Y-21470481D01*
X64511437Y-21455522D01*
X64519771Y-21444205D01*
X64525340Y-21436667D01*
X64528045Y-21433044D01*
X64528294Y-21432728D01*
X64530129Y-21431936D01*
X64534193Y-21431292D01*
X64540860Y-21430789D01*
X64550504Y-21430418D01*
X64563497Y-21430171D01*
X64580212Y-21430039D01*
X64601024Y-21430016D01*
X64626304Y-21430092D01*
G37*
X64626304Y-21430092D02*
X64644850Y-21430188D01*
X64758296Y-21430850D01*
X64452148Y-21849183D01*
X64422064Y-21890298D01*
X64392787Y-21930325D01*
X64364458Y-21969069D01*
X64337217Y-22006338D01*
X64311206Y-22041940D01*
X64286566Y-22075680D01*
X64263436Y-22107366D01*
X64241957Y-22136806D01*
X64222271Y-22163806D01*
X64204518Y-22188172D01*
X64188839Y-22209713D01*
X64175374Y-22228236D01*
X64164265Y-22243546D01*
X64155651Y-22255452D01*
X64149674Y-22263760D01*
X64146474Y-22268277D01*
X64145946Y-22269087D01*
X64147407Y-22271269D01*
X64151707Y-22277370D01*
X64158703Y-22287192D01*
X64168256Y-22300541D01*
X64180224Y-22317220D01*
X64194465Y-22337032D01*
X64210838Y-22359783D01*
X64229202Y-22385275D01*
X64249416Y-22413314D01*
X64271337Y-22443701D01*
X64294825Y-22476243D01*
X64319739Y-22510742D01*
X64345938Y-22547003D01*
X64373279Y-22584829D01*
X64401622Y-22624025D01*
X64430825Y-22664395D01*
X64442671Y-22680766D01*
X64472190Y-22721564D01*
X64500913Y-22761274D01*
X64528699Y-22799701D01*
X64555405Y-22836647D01*
X64580889Y-22871916D01*
X64605010Y-22905310D01*
X64627626Y-22936635D01*
X64648595Y-22965692D01*
X64667775Y-22992285D01*
X64685025Y-23016218D01*
X64700202Y-23037293D01*
X64713164Y-23055315D01*
X64723770Y-23070086D01*
X64731878Y-23081411D01*
X64737346Y-23089091D01*
X64740033Y-23092932D01*
X64740296Y-23093347D01*
X64738016Y-23093981D01*
X64730822Y-23094522D01*
X64718878Y-23094969D01*
X64702349Y-23095317D01*
X64681400Y-23095563D01*
X64656196Y-23095703D01*
X64627266Y-23095734D01*
X64513390Y-23095649D01*
X64272090Y-22761780D01*
X64245526Y-22725037D01*
X64219765Y-22689426D01*
X64194965Y-22655163D01*
X64171283Y-22622466D01*
X64148876Y-22591550D01*
X64127902Y-22562632D01*
X64108517Y-22535929D01*
X64090880Y-22511658D01*
X64075147Y-22490034D01*
X64061475Y-22471274D01*
X64050023Y-22455596D01*
X64040948Y-22443215D01*
X64034406Y-22434347D01*
X64030556Y-22429211D01*
X64029520Y-22427933D01*
X64027906Y-22429950D01*
X64023455Y-22435854D01*
X64016324Y-22445427D01*
X64006674Y-22458455D01*
X63994661Y-22474722D01*
X63980447Y-22494010D01*
X63964188Y-22516106D01*
X63946044Y-22540791D01*
X63926173Y-22567851D01*
X63904734Y-22597070D01*
X63881887Y-22628231D01*
X63857789Y-22661119D01*
X63832600Y-22695518D01*
X63806477Y-22731211D01*
X63785680Y-22759644D01*
X63758925Y-22796214D01*
X63732965Y-22831667D01*
X63707961Y-22865786D01*
X63684072Y-22898355D01*
X63661458Y-22929156D01*
X63640279Y-22957973D01*
X63620693Y-22984589D01*
X63602863Y-23008787D01*
X63586946Y-23030350D01*
X63573102Y-23049061D01*
X63561493Y-23064704D01*
X63552276Y-23077061D01*
X63545613Y-23085916D01*
X63541662Y-23091051D01*
X63540570Y-23092335D01*
X63537574Y-23092529D01*
X63530025Y-23092680D01*
X63518450Y-23092789D01*
X63503375Y-23092853D01*
X63485327Y-23092870D01*
X63464833Y-23092839D01*
X63442419Y-23092759D01*
X63425648Y-23092672D01*
X63313267Y-23092010D01*
X63919225Y-22263970D01*
X63961717Y-22205907D01*
X64003457Y-22148878D01*
X64044343Y-22093019D01*
X64084276Y-22038469D01*
X64123154Y-21985363D01*
X64160878Y-21933839D01*
X64197347Y-21884036D01*
X64232459Y-21836089D01*
X64266115Y-21790136D01*
X64298214Y-21746314D01*
X64328655Y-21704761D01*
X64357338Y-21665614D01*
X64384162Y-21629011D01*
X64409027Y-21595087D01*
X64431832Y-21563981D01*
X64452477Y-21535831D01*
X64470860Y-21510772D01*
X64486882Y-21488943D01*
X64500441Y-21470481D01*
X64511437Y-21455522D01*
X64519771Y-21444205D01*
X64525340Y-21436667D01*
X64528045Y-21433044D01*
X64528294Y-21432728D01*
X64530129Y-21431936D01*
X64534193Y-21431292D01*
X64540860Y-21430789D01*
X64550504Y-21430418D01*
X64563497Y-21430171D01*
X64580212Y-21430039D01*
X64601024Y-21430016D01*
X64626304Y-21430092D01*
G36*
X57138500Y-23103440D02*
G01*
X55990420Y-23103440D01*
X55990420Y-22879920D01*
X57138500Y-22879920D01*
X57138500Y-23103440D01*
G37*
X57138500Y-23103440D02*
X55990420Y-23103440D01*
X55990420Y-22879920D01*
X57138500Y-22879920D01*
X57138500Y-23103440D01*
G04 #@! TD*
D11*
G04 #@! TO.C,C1*
X76500000Y-36212500D03*
X76500000Y-37787500D03*
G04 #@! TD*
D12*
G04 #@! TO.C,C2*
X68000000Y-30700000D03*
X68000000Y-26300000D03*
G04 #@! TD*
D13*
G04 #@! TO.C,C3*
X73000000Y-30787500D03*
X73000000Y-29212500D03*
G04 #@! TD*
G04 #@! TO.C,C4*
X82000000Y-30787500D03*
X82000000Y-29212500D03*
G04 #@! TD*
D12*
G04 #@! TO.C,C5*
X87000000Y-29200000D03*
X87000000Y-24800000D03*
G04 #@! TD*
D14*
G04 #@! TO.C,D1*
X63075000Y-29770000D03*
X63075000Y-27230000D03*
X56925000Y-27230000D03*
X56925000Y-29770000D03*
G04 #@! TD*
D13*
G04 #@! TO.C,D2*
X88500000Y-36575000D03*
X88500000Y-35000000D03*
G04 #@! TD*
D15*
G04 #@! TO.C,D3*
X91500000Y-34000000D03*
X91500000Y-38000000D03*
G04 #@! TD*
D16*
G04 #@! TO.C,H1*
X95000000Y-25500000D03*
G04 #@! TD*
G04 #@! TO.C,H2*
X95000000Y-47500000D03*
G04 #@! TD*
G04 #@! TO.C,H3*
X51000000Y-37000000D03*
G04 #@! TD*
D17*
G04 #@! TO.C,J1*
X51500000Y-24000000D03*
D18*
X51500000Y-29080000D03*
G04 #@! TD*
D19*
G04 #@! TO.C,J3*
X111760000Y-25400000D03*
D18*
X106680000Y-25400000D03*
X101600000Y-25400000D03*
G04 #@! TD*
D20*
G04 #@! TO.C,K1*
X95500000Y-32380000D03*
X103120000Y-32380000D03*
X108200000Y-32380000D03*
X113280000Y-32380000D03*
X113280000Y-40000000D03*
X108200000Y-40000000D03*
X103120000Y-40000000D03*
D21*
X95500000Y-40000000D03*
G04 #@! TD*
D22*
G04 #@! TO.C,Q1*
X90550000Y-43000000D03*
X92450000Y-43000000D03*
X91500000Y-41000000D03*
G04 #@! TD*
D23*
G04 #@! TO.C,Q2*
X78000000Y-38050000D03*
X78000000Y-39950000D03*
X80000000Y-39000000D03*
G04 #@! TD*
D24*
G04 #@! TO.C,R1*
X73250000Y-32500000D03*
X71675000Y-32500000D03*
G04 #@! TD*
D11*
G04 #@! TO.C,R2*
X90500000Y-44500000D03*
X90500000Y-46075000D03*
G04 #@! TD*
D13*
G04 #@! TO.C,R3*
X78000000Y-35787500D03*
X78000000Y-34212500D03*
G04 #@! TD*
G04 #@! TO.C,R4*
X58000000Y-35787500D03*
X58000000Y-34212500D03*
G04 #@! TD*
G04 #@! TO.C,R5*
X88500000Y-39787500D03*
X88500000Y-38212500D03*
G04 #@! TD*
D11*
G04 #@! TO.C,R6*
X80000000Y-34212500D03*
X80000000Y-35787500D03*
G04 #@! TD*
G04 #@! TO.C,R7*
X60000000Y-34212500D03*
X60000000Y-35787500D03*
G04 #@! TD*
G04 #@! TO.C,R8*
X85250000Y-38462500D03*
X85250000Y-40037500D03*
G04 #@! TD*
G04 #@! TO.C,R9*
X49200000Y-45425000D03*
X49200000Y-47000000D03*
G04 #@! TD*
D25*
G04 #@! TO.C,RV1*
X84000000Y-33200000D03*
D26*
X83000000Y-36450000D03*
D25*
X82000000Y-33200000D03*
G04 #@! TD*
G04 #@! TO.C,RV2*
X64000000Y-33200000D03*
D26*
X63000000Y-36450000D03*
D25*
X62000000Y-33200000D03*
G04 #@! TD*
D27*
G04 #@! TO.C,U2*
X75245000Y-30975000D03*
D28*
X77525000Y-24675000D03*
D27*
X79805000Y-30975000D03*
G04 #@! TD*
D23*
G04 #@! TO.C,Q3*
X58000000Y-38050000D03*
X58000000Y-39950000D03*
X60000000Y-39000000D03*
G04 #@! TD*
D29*
G04 #@! TO.C,J6*
X56000000Y-47000000D03*
D30*
X56000000Y-44460000D03*
X58540000Y-47000000D03*
X58540000Y-44460000D03*
X61080000Y-47000000D03*
X61080000Y-44460000D03*
G04 #@! TD*
D29*
G04 #@! TO.C,J5*
X79000000Y-47000000D03*
D30*
X79000000Y-44460000D03*
X81540000Y-47000000D03*
X81540000Y-44460000D03*
X84080000Y-47000000D03*
X84080000Y-44460000D03*
G04 #@! TD*
D31*
G04 #@! TO.C,U1*
X74810000Y-34525000D03*
X73540000Y-34525000D03*
X72270000Y-34525000D03*
X71000000Y-34525000D03*
X69730000Y-34525000D03*
X68460000Y-34525000D03*
X67190000Y-34525000D03*
X67190000Y-39475000D03*
X68460000Y-39475000D03*
X69730000Y-39475000D03*
X71000000Y-39475000D03*
X72270000Y-39475000D03*
X73540000Y-39475000D03*
X74810000Y-39475000D03*
G04 #@! TD*
D32*
G04 #@! TO.C,J4*
X101600000Y-46609000D03*
D18*
X106680000Y-46609000D03*
X111760000Y-46609000D03*
G04 #@! TD*
M02*
