G04 #@! TF.GenerationSoftware,KiCad,Pcbnew,6.0.9-8da3e8f707~116~ubuntu20.04.1*
G04 #@! TF.CreationDate,2023-05-05T17:22:20+00:00*
G04 #@! TF.ProjectId,LEC009002,4c454330-3039-4303-9032-2e6b69636164,rev?*
G04 #@! TF.SameCoordinates,Original*
G04 #@! TF.FileFunction,Soldermask,Bot*
G04 #@! TF.FilePolarity,Negative*
%FSLAX46Y46*%
G04 Gerber Fmt 4.6, Leading zero omitted, Abs format (unit mm)*
G04 Created by KiCad (PCBNEW 6.0.9-8da3e8f707~116~ubuntu20.04.1) date 2023-05-05 17:22:20*
%MOMM*%
%LPD*%
G01*
G04 APERTURE LIST*
G04 Aperture macros list*
%AMRoundRect*
0 Rectangle with rounded corners*
0 $1 Rounding radius*
0 $2 $3 $4 $5 $6 $7 $8 $9 X,Y pos of 4 corners*
0 Add a 4 corners polygon primitive as box body*
4,1,4,$2,$3,$4,$5,$6,$7,$8,$9,$2,$3,0*
0 Add four circle primitives for the rounded corners*
1,1,$1+$1,$2,$3*
1,1,$1+$1,$4,$5*
1,1,$1+$1,$6,$7*
1,1,$1+$1,$8,$9*
0 Add four rect primitives between the rounded corners*
20,1,$1+$1,$2,$3,$4,$5,0*
20,1,$1+$1,$4,$5,$6,$7,0*
20,1,$1+$1,$6,$7,$8,$9,0*
20,1,$1+$1,$8,$9,$2,$3,0*%
G04 Aperture macros list end*
%ADD10C,3.300000*%
%ADD11RoundRect,0.050000X-1.500000X1.500000X-1.500000X-1.500000X1.500000X-1.500000X1.500000X1.500000X0*%
%ADD12C,3.100000*%
%ADD13RoundRect,0.050000X1.500000X1.500000X-1.500000X1.500000X-1.500000X-1.500000X1.500000X-1.500000X0*%
%ADD14C,1.900000*%
%ADD15RoundRect,0.050000X0.900000X-0.900000X0.900000X0.900000X-0.900000X0.900000X-0.900000X-0.900000X0*%
%ADD16RoundRect,0.050000X0.863600X-0.863600X0.863600X0.863600X-0.863600X0.863600X-0.863600X-0.863600X0*%
%ADD17O,1.827200X1.827200*%
%ADD18RoundRect,0.050000X-1.500000X-1.500000X1.500000X-1.500000X1.500000X1.500000X-1.500000X1.500000X0*%
%ADD19C,1.600000*%
G04 APERTURE END LIST*
D10*
G04 #@! TO.C,H1*
X95000000Y-25500000D03*
G04 #@! TD*
G04 #@! TO.C,H2*
X95000000Y-47500000D03*
G04 #@! TD*
G04 #@! TO.C,H3*
X51000000Y-37000000D03*
G04 #@! TD*
D11*
G04 #@! TO.C,J1*
X51500000Y-24000000D03*
D12*
X51500000Y-29080000D03*
G04 #@! TD*
D13*
G04 #@! TO.C,J3*
X111760000Y-25400000D03*
D12*
X106680000Y-25400000D03*
X101600000Y-25400000D03*
G04 #@! TD*
D14*
G04 #@! TO.C,K1*
X95500000Y-32380000D03*
X103120000Y-32380000D03*
X108200000Y-32380000D03*
X113280000Y-32380000D03*
X113280000Y-40000000D03*
X108200000Y-40000000D03*
X103120000Y-40000000D03*
D15*
X95500000Y-40000000D03*
G04 #@! TD*
D16*
G04 #@! TO.C,J6*
X56000000Y-47000000D03*
D17*
X56000000Y-44460000D03*
X58540000Y-47000000D03*
X58540000Y-44460000D03*
X61080000Y-47000000D03*
X61080000Y-44460000D03*
G04 #@! TD*
D16*
G04 #@! TO.C,J5*
X79000000Y-47000000D03*
D17*
X79000000Y-44460000D03*
X81540000Y-47000000D03*
X81540000Y-44460000D03*
X84080000Y-47000000D03*
X84080000Y-44460000D03*
G04 #@! TD*
D18*
G04 #@! TO.C,J4*
X101600000Y-46609000D03*
D12*
X106680000Y-46609000D03*
X111760000Y-46609000D03*
G04 #@! TD*
D19*
G04 #@! TO.C,TP5*
X63750000Y-47750000D03*
G04 #@! TD*
G04 #@! TO.C,TP6*
X108000000Y-29500000D03*
G04 #@! TD*
G04 #@! TO.C,TP7*
X103250000Y-29500000D03*
G04 #@! TD*
G04 #@! TO.C,TP8*
X113250000Y-29500000D03*
G04 #@! TD*
G04 #@! TO.C,TP9*
X108000000Y-43000000D03*
G04 #@! TD*
G04 #@! TO.C,TP10*
X103000000Y-43000000D03*
G04 #@! TD*
G04 #@! TO.C,TP11*
X85000000Y-35000000D03*
G04 #@! TD*
G04 #@! TO.C,TP13*
X113000000Y-43000000D03*
G04 #@! TD*
G04 #@! TO.C,TP14*
X76250000Y-34500000D03*
G04 #@! TD*
G04 #@! TO.C,TP15*
X66750000Y-27750000D03*
G04 #@! TD*
G04 #@! TO.C,TP12*
X62500000Y-36750000D03*
G04 #@! TD*
G04 #@! TO.C,TP1*
X74500000Y-38500000D03*
G04 #@! TD*
G04 #@! TO.C,TP2*
X72250000Y-38750000D03*
G04 #@! TD*
G04 #@! TO.C,TP3*
X86500000Y-47250000D03*
G04 #@! TD*
G04 #@! TO.C,TP4*
X70000000Y-38750000D03*
G04 #@! TD*
G04 #@! TO.C,TP16*
X68500000Y-42750000D03*
G04 #@! TD*
G04 #@! TO.C,TP17*
X65250000Y-41750000D03*
G04 #@! TD*
G04 #@! TO.C,TP18*
X68000000Y-34500000D03*
G04 #@! TD*
M02*
