G04 #@! TF.GenerationSoftware,KiCad,Pcbnew,6.0.9-8da3e8f707~116~ubuntu20.04.1*
G04 #@! TF.CreationDate,2023-05-05T17:22:20+00:00*
G04 #@! TF.ProjectId,LEC009002,4c454330-3039-4303-9032-2e6b69636164,rev?*
G04 #@! TF.SameCoordinates,Original*
G04 #@! TF.FileFunction,Legend,Bot*
G04 #@! TF.FilePolarity,Positive*
%FSLAX46Y46*%
G04 Gerber Fmt 4.6, Leading zero omitted, Abs format (unit mm)*
G04 Created by KiCad (PCBNEW 6.0.9-8da3e8f707~116~ubuntu20.04.1) date 2023-05-05 17:22:20*
%MOMM*%
%LPD*%
G01*
G04 APERTURE LIST*
%ADD10C,0.150000*%
%ADD11C,0.120000*%
%ADD12C,0.010000*%
G04 APERTURE END LIST*
D10*
G04 #@! TO.C,TP5*
X64759523Y-48959904D02*
X64302380Y-48959904D01*
X64530952Y-49759904D02*
X64530952Y-48959904D01*
X64035714Y-49759904D02*
X64035714Y-48959904D01*
X63730952Y-48959904D01*
X63654761Y-48998000D01*
X63616666Y-49036095D01*
X63578571Y-49112285D01*
X63578571Y-49226571D01*
X63616666Y-49302761D01*
X63654761Y-49340857D01*
X63730952Y-49378952D01*
X64035714Y-49378952D01*
X62854761Y-48959904D02*
X63235714Y-48959904D01*
X63273809Y-49340857D01*
X63235714Y-49302761D01*
X63159523Y-49264666D01*
X62969047Y-49264666D01*
X62892857Y-49302761D01*
X62854761Y-49340857D01*
X62816666Y-49417047D01*
X62816666Y-49607523D01*
X62854761Y-49683714D01*
X62892857Y-49721809D01*
X62969047Y-49759904D01*
X63159523Y-49759904D01*
X63235714Y-49721809D01*
X63273809Y-49683714D01*
G04 #@! TO.C,TP6*
X109009523Y-27561904D02*
X108552380Y-27561904D01*
X108780952Y-28361904D02*
X108780952Y-27561904D01*
X108285714Y-28361904D02*
X108285714Y-27561904D01*
X107980952Y-27561904D01*
X107904761Y-27600000D01*
X107866666Y-27638095D01*
X107828571Y-27714285D01*
X107828571Y-27828571D01*
X107866666Y-27904761D01*
X107904761Y-27942857D01*
X107980952Y-27980952D01*
X108285714Y-27980952D01*
X107142857Y-27561904D02*
X107295238Y-27561904D01*
X107371428Y-27600000D01*
X107409523Y-27638095D01*
X107485714Y-27752380D01*
X107523809Y-27904761D01*
X107523809Y-28209523D01*
X107485714Y-28285714D01*
X107447619Y-28323809D01*
X107371428Y-28361904D01*
X107219047Y-28361904D01*
X107142857Y-28323809D01*
X107104761Y-28285714D01*
X107066666Y-28209523D01*
X107066666Y-28019047D01*
X107104761Y-27942857D01*
X107142857Y-27904761D01*
X107219047Y-27866666D01*
X107371428Y-27866666D01*
X107447619Y-27904761D01*
X107485714Y-27942857D01*
X107523809Y-28019047D01*
G04 #@! TO.C,TP7*
X104259523Y-27561904D02*
X103802380Y-27561904D01*
X104030952Y-28361904D02*
X104030952Y-27561904D01*
X103535714Y-28361904D02*
X103535714Y-27561904D01*
X103230952Y-27561904D01*
X103154761Y-27600000D01*
X103116666Y-27638095D01*
X103078571Y-27714285D01*
X103078571Y-27828571D01*
X103116666Y-27904761D01*
X103154761Y-27942857D01*
X103230952Y-27980952D01*
X103535714Y-27980952D01*
X102811904Y-27561904D02*
X102278571Y-27561904D01*
X102621428Y-28361904D01*
G04 #@! TO.C,TP8*
X114259523Y-27561904D02*
X113802380Y-27561904D01*
X114030952Y-28361904D02*
X114030952Y-27561904D01*
X113535714Y-28361904D02*
X113535714Y-27561904D01*
X113230952Y-27561904D01*
X113154761Y-27600000D01*
X113116666Y-27638095D01*
X113078571Y-27714285D01*
X113078571Y-27828571D01*
X113116666Y-27904761D01*
X113154761Y-27942857D01*
X113230952Y-27980952D01*
X113535714Y-27980952D01*
X112621428Y-27904761D02*
X112697619Y-27866666D01*
X112735714Y-27828571D01*
X112773809Y-27752380D01*
X112773809Y-27714285D01*
X112735714Y-27638095D01*
X112697619Y-27600000D01*
X112621428Y-27561904D01*
X112469047Y-27561904D01*
X112392857Y-27600000D01*
X112354761Y-27638095D01*
X112316666Y-27714285D01*
X112316666Y-27752380D01*
X112354761Y-27828571D01*
X112392857Y-27866666D01*
X112469047Y-27904761D01*
X112621428Y-27904761D01*
X112697619Y-27942857D01*
X112735714Y-27980952D01*
X112773809Y-28057142D01*
X112773809Y-28209523D01*
X112735714Y-28285714D01*
X112697619Y-28323809D01*
X112621428Y-28361904D01*
X112469047Y-28361904D01*
X112392857Y-28323809D01*
X112354761Y-28285714D01*
X112316666Y-28209523D01*
X112316666Y-28057142D01*
X112354761Y-27980952D01*
X112392857Y-27942857D01*
X112469047Y-27904761D01*
G04 #@! TO.C,TP9*
X107009523Y-41561904D02*
X106552380Y-41561904D01*
X106780952Y-42361904D02*
X106780952Y-41561904D01*
X106285714Y-42361904D02*
X106285714Y-41561904D01*
X105980952Y-41561904D01*
X105904761Y-41600000D01*
X105866666Y-41638095D01*
X105828571Y-41714285D01*
X105828571Y-41828571D01*
X105866666Y-41904761D01*
X105904761Y-41942857D01*
X105980952Y-41980952D01*
X106285714Y-41980952D01*
X105447619Y-42361904D02*
X105295238Y-42361904D01*
X105219047Y-42323809D01*
X105180952Y-42285714D01*
X105104761Y-42171428D01*
X105066666Y-42019047D01*
X105066666Y-41714285D01*
X105104761Y-41638095D01*
X105142857Y-41600000D01*
X105219047Y-41561904D01*
X105371428Y-41561904D01*
X105447619Y-41600000D01*
X105485714Y-41638095D01*
X105523809Y-41714285D01*
X105523809Y-41904761D01*
X105485714Y-41980952D01*
X105447619Y-42019047D01*
X105371428Y-42057142D01*
X105219047Y-42057142D01*
X105142857Y-42019047D01*
X105104761Y-41980952D01*
X105066666Y-41904761D01*
G04 #@! TO.C,TP10*
X101640476Y-41561904D02*
X101183333Y-41561904D01*
X101411904Y-42361904D02*
X101411904Y-41561904D01*
X100916666Y-42361904D02*
X100916666Y-41561904D01*
X100611904Y-41561904D01*
X100535714Y-41600000D01*
X100497619Y-41638095D01*
X100459523Y-41714285D01*
X100459523Y-41828571D01*
X100497619Y-41904761D01*
X100535714Y-41942857D01*
X100611904Y-41980952D01*
X100916666Y-41980952D01*
X99697619Y-42361904D02*
X100154761Y-42361904D01*
X99926190Y-42361904D02*
X99926190Y-41561904D01*
X100002380Y-41676190D01*
X100078571Y-41752380D01*
X100154761Y-41790476D01*
X99202380Y-41561904D02*
X99126190Y-41561904D01*
X99050000Y-41600000D01*
X99011904Y-41638095D01*
X98973809Y-41714285D01*
X98935714Y-41866666D01*
X98935714Y-42057142D01*
X98973809Y-42209523D01*
X99011904Y-42285714D01*
X99050000Y-42323809D01*
X99126190Y-42361904D01*
X99202380Y-42361904D01*
X99278571Y-42323809D01*
X99316666Y-42285714D01*
X99354761Y-42209523D01*
X99392857Y-42057142D01*
X99392857Y-41866666D01*
X99354761Y-41714285D01*
X99316666Y-41638095D01*
X99278571Y-41600000D01*
X99202380Y-41561904D01*
G04 #@! TO.C,TP11*
X86390476Y-36209904D02*
X85933333Y-36209904D01*
X86161904Y-37009904D02*
X86161904Y-36209904D01*
X85666666Y-37009904D02*
X85666666Y-36209904D01*
X85361904Y-36209904D01*
X85285714Y-36248000D01*
X85247619Y-36286095D01*
X85209523Y-36362285D01*
X85209523Y-36476571D01*
X85247619Y-36552761D01*
X85285714Y-36590857D01*
X85361904Y-36628952D01*
X85666666Y-36628952D01*
X84447619Y-37009904D02*
X84904761Y-37009904D01*
X84676190Y-37009904D02*
X84676190Y-36209904D01*
X84752380Y-36324190D01*
X84828571Y-36400380D01*
X84904761Y-36438476D01*
X83685714Y-37009904D02*
X84142857Y-37009904D01*
X83914285Y-37009904D02*
X83914285Y-36209904D01*
X83990476Y-36324190D01*
X84066666Y-36400380D01*
X84142857Y-36438476D01*
G04 #@! TO.C,TP13*
X112140476Y-41561904D02*
X111683333Y-41561904D01*
X111911904Y-42361904D02*
X111911904Y-41561904D01*
X111416666Y-42361904D02*
X111416666Y-41561904D01*
X111111904Y-41561904D01*
X111035714Y-41600000D01*
X110997619Y-41638095D01*
X110959523Y-41714285D01*
X110959523Y-41828571D01*
X110997619Y-41904761D01*
X111035714Y-41942857D01*
X111111904Y-41980952D01*
X111416666Y-41980952D01*
X110197619Y-42361904D02*
X110654761Y-42361904D01*
X110426190Y-42361904D02*
X110426190Y-41561904D01*
X110502380Y-41676190D01*
X110578571Y-41752380D01*
X110654761Y-41790476D01*
X109930952Y-41561904D02*
X109435714Y-41561904D01*
X109702380Y-41866666D01*
X109588095Y-41866666D01*
X109511904Y-41904761D01*
X109473809Y-41942857D01*
X109435714Y-42019047D01*
X109435714Y-42209523D01*
X109473809Y-42285714D01*
X109511904Y-42323809D01*
X109588095Y-42361904D01*
X109816666Y-42361904D01*
X109892857Y-42323809D01*
X109930952Y-42285714D01*
G04 #@! TO.C,TP14*
X77640476Y-35709904D02*
X77183333Y-35709904D01*
X77411904Y-36509904D02*
X77411904Y-35709904D01*
X76916666Y-36509904D02*
X76916666Y-35709904D01*
X76611904Y-35709904D01*
X76535714Y-35748000D01*
X76497619Y-35786095D01*
X76459523Y-35862285D01*
X76459523Y-35976571D01*
X76497619Y-36052761D01*
X76535714Y-36090857D01*
X76611904Y-36128952D01*
X76916666Y-36128952D01*
X75697619Y-36509904D02*
X76154761Y-36509904D01*
X75926190Y-36509904D02*
X75926190Y-35709904D01*
X76002380Y-35824190D01*
X76078571Y-35900380D01*
X76154761Y-35938476D01*
X75011904Y-35976571D02*
X75011904Y-36509904D01*
X75202380Y-35671809D02*
X75392857Y-36243238D01*
X74897619Y-36243238D01*
G04 #@! TO.C,TP15*
X68140476Y-28959904D02*
X67683333Y-28959904D01*
X67911904Y-29759904D02*
X67911904Y-28959904D01*
X67416666Y-29759904D02*
X67416666Y-28959904D01*
X67111904Y-28959904D01*
X67035714Y-28998000D01*
X66997619Y-29036095D01*
X66959523Y-29112285D01*
X66959523Y-29226571D01*
X66997619Y-29302761D01*
X67035714Y-29340857D01*
X67111904Y-29378952D01*
X67416666Y-29378952D01*
X66197619Y-29759904D02*
X66654761Y-29759904D01*
X66426190Y-29759904D02*
X66426190Y-28959904D01*
X66502380Y-29074190D01*
X66578571Y-29150380D01*
X66654761Y-29188476D01*
X65473809Y-28959904D02*
X65854761Y-28959904D01*
X65892857Y-29340857D01*
X65854761Y-29302761D01*
X65778571Y-29264666D01*
X65588095Y-29264666D01*
X65511904Y-29302761D01*
X65473809Y-29340857D01*
X65435714Y-29417047D01*
X65435714Y-29607523D01*
X65473809Y-29683714D01*
X65511904Y-29721809D01*
X65588095Y-29759904D01*
X65778571Y-29759904D01*
X65854761Y-29721809D01*
X65892857Y-29683714D01*
G04 #@! TO.C,TP12*
X63890476Y-37959904D02*
X63433333Y-37959904D01*
X63661904Y-38759904D02*
X63661904Y-37959904D01*
X63166666Y-38759904D02*
X63166666Y-37959904D01*
X62861904Y-37959904D01*
X62785714Y-37998000D01*
X62747619Y-38036095D01*
X62709523Y-38112285D01*
X62709523Y-38226571D01*
X62747619Y-38302761D01*
X62785714Y-38340857D01*
X62861904Y-38378952D01*
X63166666Y-38378952D01*
X61947619Y-38759904D02*
X62404761Y-38759904D01*
X62176190Y-38759904D02*
X62176190Y-37959904D01*
X62252380Y-38074190D01*
X62328571Y-38150380D01*
X62404761Y-38188476D01*
X61642857Y-38036095D02*
X61604761Y-37998000D01*
X61528571Y-37959904D01*
X61338095Y-37959904D01*
X61261904Y-37998000D01*
X61223809Y-38036095D01*
X61185714Y-38112285D01*
X61185714Y-38188476D01*
X61223809Y-38302761D01*
X61680952Y-38759904D01*
X61185714Y-38759904D01*
G04 #@! TO.C,TP1*
X77009523Y-39561904D02*
X76552380Y-39561904D01*
X76780952Y-40361904D02*
X76780952Y-39561904D01*
X76285714Y-40361904D02*
X76285714Y-39561904D01*
X75980952Y-39561904D01*
X75904761Y-39600000D01*
X75866666Y-39638095D01*
X75828571Y-39714285D01*
X75828571Y-39828571D01*
X75866666Y-39904761D01*
X75904761Y-39942857D01*
X75980952Y-39980952D01*
X76285714Y-39980952D01*
X75066666Y-40361904D02*
X75523809Y-40361904D01*
X75295238Y-40361904D02*
X75295238Y-39561904D01*
X75371428Y-39676190D01*
X75447619Y-39752380D01*
X75523809Y-39790476D01*
G04 #@! TO.C,TP2*
X73259523Y-39959904D02*
X72802380Y-39959904D01*
X73030952Y-40759904D02*
X73030952Y-39959904D01*
X72535714Y-40759904D02*
X72535714Y-39959904D01*
X72230952Y-39959904D01*
X72154761Y-39998000D01*
X72116666Y-40036095D01*
X72078571Y-40112285D01*
X72078571Y-40226571D01*
X72116666Y-40302761D01*
X72154761Y-40340857D01*
X72230952Y-40378952D01*
X72535714Y-40378952D01*
X71773809Y-40036095D02*
X71735714Y-39998000D01*
X71659523Y-39959904D01*
X71469047Y-39959904D01*
X71392857Y-39998000D01*
X71354761Y-40036095D01*
X71316666Y-40112285D01*
X71316666Y-40188476D01*
X71354761Y-40302761D01*
X71811904Y-40759904D01*
X71316666Y-40759904D01*
G04 #@! TO.C,TP3*
X87509523Y-48459904D02*
X87052380Y-48459904D01*
X87280952Y-49259904D02*
X87280952Y-48459904D01*
X86785714Y-49259904D02*
X86785714Y-48459904D01*
X86480952Y-48459904D01*
X86404761Y-48498000D01*
X86366666Y-48536095D01*
X86328571Y-48612285D01*
X86328571Y-48726571D01*
X86366666Y-48802761D01*
X86404761Y-48840857D01*
X86480952Y-48878952D01*
X86785714Y-48878952D01*
X86061904Y-48459904D02*
X85566666Y-48459904D01*
X85833333Y-48764666D01*
X85719047Y-48764666D01*
X85642857Y-48802761D01*
X85604761Y-48840857D01*
X85566666Y-48917047D01*
X85566666Y-49107523D01*
X85604761Y-49183714D01*
X85642857Y-49221809D01*
X85719047Y-49259904D01*
X85947619Y-49259904D01*
X86023809Y-49221809D01*
X86061904Y-49183714D01*
G04 #@! TO.C,TP4*
X69009523Y-38561904D02*
X68552380Y-38561904D01*
X68780952Y-39361904D02*
X68780952Y-38561904D01*
X68285714Y-39361904D02*
X68285714Y-38561904D01*
X67980952Y-38561904D01*
X67904761Y-38600000D01*
X67866666Y-38638095D01*
X67828571Y-38714285D01*
X67828571Y-38828571D01*
X67866666Y-38904761D01*
X67904761Y-38942857D01*
X67980952Y-38980952D01*
X68285714Y-38980952D01*
X67142857Y-38828571D02*
X67142857Y-39361904D01*
X67333333Y-38523809D02*
X67523809Y-39095238D01*
X67028571Y-39095238D01*
G04 #@! TO.C,TP16*
X69890476Y-43959904D02*
X69433333Y-43959904D01*
X69661904Y-44759904D02*
X69661904Y-43959904D01*
X69166666Y-44759904D02*
X69166666Y-43959904D01*
X68861904Y-43959904D01*
X68785714Y-43998000D01*
X68747619Y-44036095D01*
X68709523Y-44112285D01*
X68709523Y-44226571D01*
X68747619Y-44302761D01*
X68785714Y-44340857D01*
X68861904Y-44378952D01*
X69166666Y-44378952D01*
X67947619Y-44759904D02*
X68404761Y-44759904D01*
X68176190Y-44759904D02*
X68176190Y-43959904D01*
X68252380Y-44074190D01*
X68328571Y-44150380D01*
X68404761Y-44188476D01*
X67261904Y-43959904D02*
X67414285Y-43959904D01*
X67490476Y-43998000D01*
X67528571Y-44036095D01*
X67604761Y-44150380D01*
X67642857Y-44302761D01*
X67642857Y-44607523D01*
X67604761Y-44683714D01*
X67566666Y-44721809D01*
X67490476Y-44759904D01*
X67338095Y-44759904D01*
X67261904Y-44721809D01*
X67223809Y-44683714D01*
X67185714Y-44607523D01*
X67185714Y-44417047D01*
X67223809Y-44340857D01*
X67261904Y-44302761D01*
X67338095Y-44264666D01*
X67490476Y-44264666D01*
X67566666Y-44302761D01*
X67604761Y-44340857D01*
X67642857Y-44417047D01*
G04 #@! TO.C,TP17*
X66640476Y-42959904D02*
X66183333Y-42959904D01*
X66411904Y-43759904D02*
X66411904Y-42959904D01*
X65916666Y-43759904D02*
X65916666Y-42959904D01*
X65611904Y-42959904D01*
X65535714Y-42998000D01*
X65497619Y-43036095D01*
X65459523Y-43112285D01*
X65459523Y-43226571D01*
X65497619Y-43302761D01*
X65535714Y-43340857D01*
X65611904Y-43378952D01*
X65916666Y-43378952D01*
X64697619Y-43759904D02*
X65154761Y-43759904D01*
X64926190Y-43759904D02*
X64926190Y-42959904D01*
X65002380Y-43074190D01*
X65078571Y-43150380D01*
X65154761Y-43188476D01*
X64430952Y-42959904D02*
X63897619Y-42959904D01*
X64240476Y-43759904D01*
G04 #@! TO.C,TP18*
X69390476Y-35709904D02*
X68933333Y-35709904D01*
X69161904Y-36509904D02*
X69161904Y-35709904D01*
X68666666Y-36509904D02*
X68666666Y-35709904D01*
X68361904Y-35709904D01*
X68285714Y-35748000D01*
X68247619Y-35786095D01*
X68209523Y-35862285D01*
X68209523Y-35976571D01*
X68247619Y-36052761D01*
X68285714Y-36090857D01*
X68361904Y-36128952D01*
X68666666Y-36128952D01*
X67447619Y-36509904D02*
X67904761Y-36509904D01*
X67676190Y-36509904D02*
X67676190Y-35709904D01*
X67752380Y-35824190D01*
X67828571Y-35900380D01*
X67904761Y-35938476D01*
X66990476Y-36052761D02*
X67066666Y-36014666D01*
X67104761Y-35976571D01*
X67142857Y-35900380D01*
X67142857Y-35862285D01*
X67104761Y-35786095D01*
X67066666Y-35748000D01*
X66990476Y-35709904D01*
X66838095Y-35709904D01*
X66761904Y-35748000D01*
X66723809Y-35786095D01*
X66685714Y-35862285D01*
X66685714Y-35900380D01*
X66723809Y-35976571D01*
X66761904Y-36014666D01*
X66838095Y-36052761D01*
X66990476Y-36052761D01*
X67066666Y-36090857D01*
X67104761Y-36128952D01*
X67142857Y-36205142D01*
X67142857Y-36357523D01*
X67104761Y-36433714D01*
X67066666Y-36471809D01*
X66990476Y-36509904D01*
X66838095Y-36509904D01*
X66761904Y-36471809D01*
X66723809Y-36433714D01*
X66685714Y-36357523D01*
X66685714Y-36205142D01*
X66723809Y-36128952D01*
X66761904Y-36090857D01*
X66838095Y-36052761D01*
D11*
G04 #@! TO.C,H1*
X98224903Y-25500000D02*
G75*
G03*
X98224903Y-25500000I-3224903J0D01*
G01*
G36*
X95500000Y-22300000D02*
G01*
X96500000Y-22600000D01*
X97300000Y-23200000D01*
X97800000Y-23900000D01*
X98100000Y-24600000D01*
X98200000Y-25000000D01*
X98200000Y-25500000D01*
X96600000Y-25500000D01*
X96600000Y-25400000D01*
X96500000Y-25000000D01*
X96300000Y-24600000D01*
X95900000Y-24200000D01*
X95500000Y-24000000D01*
X95100000Y-23900000D01*
X95000000Y-23900000D01*
X95000000Y-22275097D01*
X95500000Y-22300000D01*
G37*
D12*
X95500000Y-22300000D02*
X96500000Y-22600000D01*
X97300000Y-23200000D01*
X97800000Y-23900000D01*
X98100000Y-24600000D01*
X98200000Y-25000000D01*
X98200000Y-25500000D01*
X96600000Y-25500000D01*
X96600000Y-25400000D01*
X96500000Y-25000000D01*
X96300000Y-24600000D01*
X95900000Y-24200000D01*
X95500000Y-24000000D01*
X95100000Y-23900000D01*
X95000000Y-23900000D01*
X95000000Y-22275097D01*
X95500000Y-22300000D01*
G36*
X93400000Y-25600000D02*
G01*
X93500000Y-26000000D01*
X93700000Y-26400000D01*
X94100000Y-26800000D01*
X94500000Y-27000000D01*
X94900000Y-27100000D01*
X95000000Y-27100000D01*
X95000000Y-28724903D01*
X94500000Y-28700000D01*
X93500000Y-28400000D01*
X92700000Y-27800000D01*
X92200000Y-27100000D01*
X91900000Y-26400000D01*
X91800000Y-26000000D01*
X91800000Y-25500000D01*
X93400000Y-25500000D01*
X93400000Y-25600000D01*
G37*
X93400000Y-25600000D02*
X93500000Y-26000000D01*
X93700000Y-26400000D01*
X94100000Y-26800000D01*
X94500000Y-27000000D01*
X94900000Y-27100000D01*
X95000000Y-27100000D01*
X95000000Y-28724903D01*
X94500000Y-28700000D01*
X93500000Y-28400000D01*
X92700000Y-27800000D01*
X92200000Y-27100000D01*
X91900000Y-26400000D01*
X91800000Y-26000000D01*
X91800000Y-25500000D01*
X93400000Y-25500000D01*
X93400000Y-25600000D01*
D11*
G04 #@! TO.C,H2*
X98224903Y-47500000D02*
G75*
G03*
X98224903Y-47500000I-3224903J0D01*
G01*
G36*
X93400000Y-47600000D02*
G01*
X93500000Y-48000000D01*
X93700000Y-48400000D01*
X94100000Y-48800000D01*
X94500000Y-49000000D01*
X94900000Y-49100000D01*
X95000000Y-49100000D01*
X95000000Y-50724903D01*
X94500000Y-50700000D01*
X93500000Y-50400000D01*
X92700000Y-49800000D01*
X92200000Y-49100000D01*
X91900000Y-48400000D01*
X91800000Y-48000000D01*
X91800000Y-47500000D01*
X93400000Y-47500000D01*
X93400000Y-47600000D01*
G37*
D12*
X93400000Y-47600000D02*
X93500000Y-48000000D01*
X93700000Y-48400000D01*
X94100000Y-48800000D01*
X94500000Y-49000000D01*
X94900000Y-49100000D01*
X95000000Y-49100000D01*
X95000000Y-50724903D01*
X94500000Y-50700000D01*
X93500000Y-50400000D01*
X92700000Y-49800000D01*
X92200000Y-49100000D01*
X91900000Y-48400000D01*
X91800000Y-48000000D01*
X91800000Y-47500000D01*
X93400000Y-47500000D01*
X93400000Y-47600000D01*
G36*
X95500000Y-44300000D02*
G01*
X96500000Y-44600000D01*
X97300000Y-45200000D01*
X97800000Y-45900000D01*
X98100000Y-46600000D01*
X98200000Y-47000000D01*
X98200000Y-47500000D01*
X96600000Y-47500000D01*
X96600000Y-47400000D01*
X96500000Y-47000000D01*
X96300000Y-46600000D01*
X95900000Y-46200000D01*
X95500000Y-46000000D01*
X95100000Y-45900000D01*
X95000000Y-45900000D01*
X95000000Y-44275097D01*
X95500000Y-44300000D01*
G37*
X95500000Y-44300000D02*
X96500000Y-44600000D01*
X97300000Y-45200000D01*
X97800000Y-45900000D01*
X98100000Y-46600000D01*
X98200000Y-47000000D01*
X98200000Y-47500000D01*
X96600000Y-47500000D01*
X96600000Y-47400000D01*
X96500000Y-47000000D01*
X96300000Y-46600000D01*
X95900000Y-46200000D01*
X95500000Y-46000000D01*
X95100000Y-45900000D01*
X95000000Y-45900000D01*
X95000000Y-44275097D01*
X95500000Y-44300000D01*
D11*
G04 #@! TO.C,H3*
X54224903Y-37000000D02*
G75*
G03*
X54224903Y-37000000I-3224903J0D01*
G01*
G36*
X51500000Y-33800000D02*
G01*
X52500000Y-34100000D01*
X53300000Y-34700000D01*
X53800000Y-35400000D01*
X54100000Y-36100000D01*
X54200000Y-36500000D01*
X54200000Y-37000000D01*
X52600000Y-37000000D01*
X52600000Y-36900000D01*
X52500000Y-36500000D01*
X52300000Y-36100000D01*
X51900000Y-35700000D01*
X51500000Y-35500000D01*
X51100000Y-35400000D01*
X51000000Y-35400000D01*
X51000000Y-33775097D01*
X51500000Y-33800000D01*
G37*
D12*
X51500000Y-33800000D02*
X52500000Y-34100000D01*
X53300000Y-34700000D01*
X53800000Y-35400000D01*
X54100000Y-36100000D01*
X54200000Y-36500000D01*
X54200000Y-37000000D01*
X52600000Y-37000000D01*
X52600000Y-36900000D01*
X52500000Y-36500000D01*
X52300000Y-36100000D01*
X51900000Y-35700000D01*
X51500000Y-35500000D01*
X51100000Y-35400000D01*
X51000000Y-35400000D01*
X51000000Y-33775097D01*
X51500000Y-33800000D01*
G36*
X49400000Y-37100000D02*
G01*
X49500000Y-37500000D01*
X49700000Y-37900000D01*
X50100000Y-38300000D01*
X50500000Y-38500000D01*
X50900000Y-38600000D01*
X51000000Y-38600000D01*
X51000000Y-40224903D01*
X50500000Y-40200000D01*
X49500000Y-39900000D01*
X48700000Y-39300000D01*
X48200000Y-38600000D01*
X47900000Y-37900000D01*
X47800000Y-37500000D01*
X47800000Y-37000000D01*
X49400000Y-37000000D01*
X49400000Y-37100000D01*
G37*
X49400000Y-37100000D02*
X49500000Y-37500000D01*
X49700000Y-37900000D01*
X50100000Y-38300000D01*
X50500000Y-38500000D01*
X50900000Y-38600000D01*
X51000000Y-38600000D01*
X51000000Y-40224903D01*
X50500000Y-40200000D01*
X49500000Y-39900000D01*
X48700000Y-39300000D01*
X48200000Y-38600000D01*
X47900000Y-37900000D01*
X47800000Y-37500000D01*
X47800000Y-37000000D01*
X49400000Y-37000000D01*
X49400000Y-37100000D01*
D11*
G04 #@! TO.C,TP5*
X64700000Y-47750000D02*
G75*
G03*
X64700000Y-47750000I-950000J0D01*
G01*
G04 #@! TO.C,TP6*
X108950000Y-29500000D02*
G75*
G03*
X108950000Y-29500000I-950000J0D01*
G01*
G04 #@! TO.C,TP7*
X104200000Y-29500000D02*
G75*
G03*
X104200000Y-29500000I-950000J0D01*
G01*
G04 #@! TO.C,TP8*
X114200000Y-29500000D02*
G75*
G03*
X114200000Y-29500000I-950000J0D01*
G01*
G04 #@! TO.C,TP9*
X108950000Y-43000000D02*
G75*
G03*
X108950000Y-43000000I-950000J0D01*
G01*
G04 #@! TO.C,TP10*
X103950000Y-43000000D02*
G75*
G03*
X103950000Y-43000000I-950000J0D01*
G01*
G04 #@! TO.C,TP11*
X85950000Y-35000000D02*
G75*
G03*
X85950000Y-35000000I-950000J0D01*
G01*
G04 #@! TO.C,TP13*
X113950000Y-43000000D02*
G75*
G03*
X113950000Y-43000000I-950000J0D01*
G01*
G04 #@! TO.C,TP14*
X77200000Y-34500000D02*
G75*
G03*
X77200000Y-34500000I-950000J0D01*
G01*
G04 #@! TO.C,TP15*
X67700000Y-27750000D02*
G75*
G03*
X67700000Y-27750000I-950000J0D01*
G01*
G04 #@! TO.C,TP12*
X63450000Y-36750000D02*
G75*
G03*
X63450000Y-36750000I-950000J0D01*
G01*
G04 #@! TO.C,REF\u002A\u002A*
G36*
X89272971Y-30267822D02*
G01*
X85752178Y-30267822D01*
X85752178Y-29400198D01*
X89272971Y-29400198D01*
X89272971Y-30267822D01*
G37*
D12*
X89272971Y-30267822D02*
X85752178Y-30267822D01*
X85752178Y-29400198D01*
X89272971Y-29400198D01*
X89272971Y-30267822D01*
G36*
X88511662Y-25010696D02*
G01*
X88551314Y-25011782D01*
X88619109Y-25011782D01*
X88619109Y-25124951D01*
X88459577Y-25124951D01*
X88444682Y-25302732D01*
X88442682Y-25327037D01*
X88438023Y-25387880D01*
X88434731Y-25437389D01*
X88433092Y-25470992D01*
X88433390Y-25484116D01*
X88437724Y-25480343D01*
X88457496Y-25460676D01*
X88491679Y-25425818D01*
X88538541Y-25377576D01*
X88596354Y-25317757D01*
X88663387Y-25248167D01*
X88737912Y-25170615D01*
X88818197Y-25086907D01*
X88902513Y-24998849D01*
X88989130Y-24908250D01*
X89076319Y-24816915D01*
X89162349Y-24726653D01*
X89245492Y-24639269D01*
X89324016Y-24556572D01*
X89396192Y-24480368D01*
X89460291Y-24412463D01*
X89514583Y-24354666D01*
X89611592Y-24251040D01*
X89612034Y-24339315D01*
X89612475Y-24427589D01*
X89011938Y-25059158D01*
X88411401Y-25690726D01*
X88399396Y-25834674D01*
X88351365Y-26410635D01*
X88342876Y-26512791D01*
X88332343Y-26640612D01*
X88322621Y-26759767D01*
X88313898Y-26867914D01*
X88306358Y-26962713D01*
X88300187Y-27041819D01*
X88295573Y-27102892D01*
X88292700Y-27143590D01*
X88291754Y-27161570D01*
X88294251Y-27169808D01*
X88305471Y-27187599D01*
X88326751Y-27214411D01*
X88337021Y-27226129D01*
X88359225Y-27251466D01*
X88404023Y-27299986D01*
X88462281Y-27361192D01*
X88535129Y-27436307D01*
X88623703Y-27526550D01*
X88729134Y-27633145D01*
X88798492Y-27703093D01*
X88895179Y-27800658D01*
X88991526Y-27897941D01*
X89084638Y-27992014D01*
X89171618Y-28079950D01*
X89249569Y-28158820D01*
X89315596Y-28225699D01*
X89366802Y-28277658D01*
X89567514Y-28481620D01*
X89531058Y-28519671D01*
X89522460Y-28528245D01*
X89497095Y-28549297D01*
X89479695Y-28557723D01*
X89466071Y-28550530D01*
X89440743Y-28528944D01*
X89410379Y-28497995D01*
X89391896Y-28478448D01*
X89357427Y-28442752D01*
X89308712Y-28392684D01*
X89247469Y-28330001D01*
X89175420Y-28256457D01*
X89094285Y-28173810D01*
X89005784Y-28083815D01*
X88911637Y-27988228D01*
X88813565Y-27888805D01*
X88271161Y-27339343D01*
X88249066Y-27624746D01*
X88244250Y-27685662D01*
X88237216Y-27767548D01*
X88230872Y-27829569D01*
X88224748Y-27874987D01*
X88218373Y-27907062D01*
X88211277Y-27929052D01*
X88202991Y-27944219D01*
X88191393Y-27965416D01*
X88181850Y-28004386D01*
X88179010Y-28060531D01*
X88179010Y-28142773D01*
X87952674Y-28142773D01*
X87952674Y-27966733D01*
X87107082Y-27966733D01*
X87058203Y-28022262D01*
X87044836Y-28036722D01*
X86972388Y-28094813D01*
X86890532Y-28130576D01*
X86801900Y-28142773D01*
X86723692Y-28136306D01*
X86635233Y-28109047D01*
X86559507Y-28060328D01*
X86544748Y-28046403D01*
X86507864Y-28001328D01*
X86475503Y-27948819D01*
X86452297Y-27897061D01*
X86442879Y-27854239D01*
X86442697Y-27848023D01*
X86441342Y-27825246D01*
X86437800Y-27809513D01*
X86430390Y-27802068D01*
X86417431Y-27804156D01*
X86397243Y-27817020D01*
X86368145Y-27841905D01*
X86328456Y-27880053D01*
X86276496Y-27932710D01*
X86210584Y-28001119D01*
X86129040Y-28086524D01*
X86085604Y-28132112D01*
X86013000Y-28208441D01*
X85944309Y-28280808D01*
X85882223Y-28346366D01*
X85829434Y-28402274D01*
X85788634Y-28445686D01*
X85762515Y-28473758D01*
X85691119Y-28551436D01*
X85602863Y-28463416D01*
X86148690Y-27891287D01*
X86183105Y-27855188D01*
X86305546Y-27726272D01*
X86410651Y-27614754D01*
X86498736Y-27520288D01*
X86570116Y-27442529D01*
X86620588Y-27386174D01*
X86827247Y-27386174D01*
X86828872Y-27399434D01*
X86829156Y-27400819D01*
X86842698Y-27432228D01*
X86869748Y-27446863D01*
X86953129Y-27478063D01*
X87027418Y-27530038D01*
X87085846Y-27598791D01*
X87125890Y-27681315D01*
X87145026Y-27774606D01*
X87151364Y-27853565D01*
X88100838Y-27853565D01*
X88107458Y-27825273D01*
X88108629Y-27818329D01*
X88112268Y-27787281D01*
X88117234Y-27737081D01*
X88123157Y-27671727D01*
X88129669Y-27595219D01*
X88136401Y-27511555D01*
X88158724Y-27226129D01*
X87857826Y-26920565D01*
X87802636Y-26864704D01*
X87735109Y-26796888D01*
X87674529Y-26736643D01*
X87623021Y-26686052D01*
X87582710Y-26647200D01*
X87555722Y-26622170D01*
X87544182Y-26613046D01*
X87536444Y-26617405D01*
X87513395Y-26637241D01*
X87478709Y-26670375D01*
X87435487Y-26713820D01*
X87386832Y-26764587D01*
X87374140Y-26778051D01*
X87317229Y-26838275D01*
X87249414Y-26909864D01*
X87175800Y-26987437D01*
X87101493Y-27065611D01*
X87031599Y-27139005D01*
X87027401Y-27143409D01*
X86962420Y-27211785D01*
X86912836Y-27264732D01*
X86876688Y-27304767D01*
X86852016Y-27334411D01*
X86836858Y-27356181D01*
X86829256Y-27372595D01*
X86827247Y-27386174D01*
X86620588Y-27386174D01*
X86625105Y-27381131D01*
X86664019Y-27335748D01*
X86687173Y-27306035D01*
X86694882Y-27291644D01*
X86694883Y-27291559D01*
X86693825Y-27273624D01*
X86690737Y-27233421D01*
X86685858Y-27173687D01*
X86679432Y-27097158D01*
X86671700Y-27006569D01*
X86662905Y-26904657D01*
X86653287Y-26794159D01*
X86643091Y-26677811D01*
X86632556Y-26558348D01*
X86621926Y-26438507D01*
X86611442Y-26321025D01*
X86601346Y-26208637D01*
X86591881Y-26104081D01*
X86583288Y-26010091D01*
X86575809Y-25929405D01*
X86569687Y-25864759D01*
X86565162Y-25818888D01*
X86562478Y-25794530D01*
X86557067Y-25753732D01*
X86686253Y-25753732D01*
X86687908Y-25784653D01*
X86691549Y-25836653D01*
X86696995Y-25907487D01*
X86704063Y-25994911D01*
X86712570Y-26096681D01*
X86722335Y-26210552D01*
X86733174Y-26334279D01*
X86744907Y-26465618D01*
X86754079Y-26566908D01*
X86765566Y-26692526D01*
X86776322Y-26808762D01*
X86786131Y-26913380D01*
X86794781Y-27004140D01*
X86802057Y-27078804D01*
X86807746Y-27135134D01*
X86811634Y-27170891D01*
X86813506Y-27183837D01*
X86819188Y-27179826D01*
X86840020Y-27160138D01*
X86873872Y-27126322D01*
X86918412Y-27080837D01*
X86971310Y-27026146D01*
X87030236Y-26964710D01*
X87092858Y-26898990D01*
X87156848Y-26831449D01*
X87219874Y-26764547D01*
X87279606Y-26700746D01*
X87333713Y-26642507D01*
X87379865Y-26592292D01*
X87415733Y-26552563D01*
X87438984Y-26525780D01*
X87445778Y-26516477D01*
X87627601Y-26516477D01*
X87903305Y-26791968D01*
X87970726Y-26859224D01*
X88034267Y-26922162D01*
X88083490Y-26970100D01*
X88120196Y-27004594D01*
X88146190Y-27027199D01*
X88163276Y-27039471D01*
X88173256Y-27042966D01*
X88177935Y-27039238D01*
X88179116Y-27029844D01*
X88179873Y-27014749D01*
X88182601Y-26975883D01*
X88187108Y-26916895D01*
X88193179Y-26840473D01*
X88200596Y-26749305D01*
X88209142Y-26646080D01*
X88218602Y-26533483D01*
X88228758Y-26414205D01*
X88237723Y-26309077D01*
X88247066Y-26198351D01*
X88255443Y-26097814D01*
X88262653Y-26009943D01*
X88268496Y-25937215D01*
X88272769Y-25882110D01*
X88275273Y-25847104D01*
X88275805Y-25834674D01*
X88275384Y-25834908D01*
X88263509Y-25846350D01*
X88237130Y-25873198D01*
X88198570Y-25913018D01*
X88150153Y-25963372D01*
X88094203Y-26021828D01*
X88033042Y-26085948D01*
X87968995Y-26153298D01*
X87904385Y-26221443D01*
X87841535Y-26287948D01*
X87782768Y-26350377D01*
X87730409Y-26406295D01*
X87629533Y-26514406D01*
X87627601Y-26516477D01*
X87445778Y-26516477D01*
X87447290Y-26514406D01*
X87439148Y-26503383D01*
X87415478Y-26476999D01*
X87378478Y-26437527D01*
X87330350Y-26387191D01*
X87273296Y-26328217D01*
X87209520Y-26262830D01*
X87141222Y-26193255D01*
X87070605Y-26121716D01*
X86999871Y-26050438D01*
X86931222Y-25981647D01*
X86866861Y-25917566D01*
X86808989Y-25860422D01*
X86759810Y-25812439D01*
X86721524Y-25775841D01*
X86696334Y-25752854D01*
X86686442Y-25745703D01*
X86686253Y-25753732D01*
X86557067Y-25753732D01*
X86555390Y-25741089D01*
X86280297Y-25741089D01*
X86280140Y-25640495D01*
X86380891Y-25640495D01*
X86462624Y-25640495D01*
X86469895Y-25640489D01*
X86510950Y-25639613D01*
X86533277Y-25635867D01*
X86542529Y-25627270D01*
X86544357Y-25611840D01*
X86536306Y-25589159D01*
X86508730Y-25551428D01*
X86462624Y-25502179D01*
X86380891Y-25421172D01*
X86380891Y-25640495D01*
X86280140Y-25640495D01*
X86279968Y-25530471D01*
X86279639Y-25319852D01*
X85827914Y-24860891D01*
X85376189Y-24401931D01*
X85375570Y-24314848D01*
X85374951Y-24227767D01*
X85916769Y-24776952D01*
X85969137Y-24829998D01*
X86077803Y-24939772D01*
X86170709Y-25033114D01*
X86249055Y-25111173D01*
X86314043Y-25175097D01*
X86366872Y-25226035D01*
X86408743Y-25265135D01*
X86440855Y-25293548D01*
X86464410Y-25312420D01*
X86480608Y-25322901D01*
X86490649Y-25326139D01*
X86507579Y-25325158D01*
X86517084Y-25317996D01*
X86518723Y-25298401D01*
X86514782Y-25260124D01*
X86512065Y-25236025D01*
X86508284Y-25195744D01*
X86506760Y-25168961D01*
X86506015Y-25159728D01*
X86498746Y-25149839D01*
X86478668Y-25146562D01*
X86439689Y-25147992D01*
X86429737Y-25148553D01*
X86389898Y-25147921D01*
X86361560Y-25139167D01*
X86341586Y-25124951D01*
X86624852Y-25124951D01*
X86629013Y-25172104D01*
X86630935Y-25193498D01*
X86636924Y-25251909D01*
X86642826Y-25290381D01*
X86649727Y-25312912D01*
X86658712Y-25323498D01*
X86670870Y-25326139D01*
X86681801Y-25327937D01*
X86689050Y-25336530D01*
X86693100Y-25356505D01*
X86694863Y-25392450D01*
X86695248Y-25448952D01*
X86695248Y-25571766D01*
X86735447Y-25611840D01*
X86833565Y-25709654D01*
X86971881Y-25847542D01*
X86971881Y-25741089D01*
X87726337Y-25741089D01*
X87726337Y-25980000D01*
X87107831Y-25980000D01*
X87317592Y-26196906D01*
X87357770Y-26238334D01*
X87413328Y-26295200D01*
X87461570Y-26344082D01*
X87499971Y-26382441D01*
X87526003Y-26407741D01*
X87537140Y-26417442D01*
X87541373Y-26414767D01*
X87561224Y-26396782D01*
X87595451Y-26363481D01*
X87642227Y-26316712D01*
X87699724Y-26258325D01*
X87766112Y-26190169D01*
X87839564Y-26114094D01*
X87918251Y-26031950D01*
X87997341Y-25948943D01*
X88074871Y-25867136D01*
X88137746Y-25800083D01*
X88187502Y-25746007D01*
X88225678Y-25703129D01*
X88253811Y-25669673D01*
X88273440Y-25643861D01*
X88286101Y-25623914D01*
X88293334Y-25608056D01*
X88296675Y-25594509D01*
X88297561Y-25587910D01*
X88301488Y-25551548D01*
X88306459Y-25498018D01*
X88311927Y-25433421D01*
X88317344Y-25363862D01*
X88319181Y-25339635D01*
X88324488Y-25274178D01*
X88329548Y-25217717D01*
X88333863Y-25175618D01*
X88336934Y-25153243D01*
X88342955Y-25124951D01*
X86624852Y-25124951D01*
X86341586Y-25124951D01*
X86333630Y-25119289D01*
X86328820Y-25115104D01*
X86289482Y-25064427D01*
X86273903Y-25011782D01*
X86614698Y-25011782D01*
X88029221Y-25011782D01*
X88241881Y-25011782D01*
X88298908Y-25011782D01*
X88315993Y-25011662D01*
X88341308Y-25009462D01*
X88348616Y-25002334D01*
X88342943Y-24987508D01*
X88341267Y-24984682D01*
X88322448Y-24962944D01*
X88295183Y-24938820D01*
X88267987Y-24919254D01*
X88249371Y-24911188D01*
X88247697Y-24912463D01*
X88243544Y-24929976D01*
X88241881Y-24961485D01*
X88241881Y-25011782D01*
X88029221Y-25011782D01*
X88025526Y-24921095D01*
X88021832Y-24830407D01*
X87946386Y-24815252D01*
X87908551Y-24808379D01*
X87845368Y-24798756D01*
X87786065Y-24791496D01*
X87701188Y-24782893D01*
X87701188Y-24886040D01*
X87122773Y-24886040D01*
X87122773Y-24795122D01*
X87050471Y-24803753D01*
X86939998Y-24822249D01*
X86828816Y-24855691D01*
X86736850Y-24902324D01*
X86662542Y-24962786D01*
X86614698Y-25011782D01*
X86273903Y-25011782D01*
X86272172Y-25005934D01*
X86277474Y-24944575D01*
X86305975Y-24885297D01*
X86308733Y-24881606D01*
X86346822Y-24849851D01*
X86396476Y-24831067D01*
X86450002Y-24826071D01*
X86499707Y-24835678D01*
X86537900Y-24860704D01*
X86550831Y-24873480D01*
X86563428Y-24876576D01*
X86581467Y-24866998D01*
X86611928Y-24843082D01*
X86621274Y-24835731D01*
X86693430Y-24789339D01*
X86778915Y-24748084D01*
X86848830Y-24722575D01*
X87223367Y-24722575D01*
X87223367Y-24785446D01*
X87600594Y-24785446D01*
X87600594Y-24722575D01*
X87223367Y-24722575D01*
X86848830Y-24722575D01*
X86869767Y-24714936D01*
X86958027Y-24692868D01*
X87035736Y-24684852D01*
X87043991Y-24684788D01*
X87089879Y-24680321D01*
X87115079Y-24667795D01*
X87122773Y-24645784D01*
X87123676Y-24638849D01*
X87128615Y-24632885D01*
X87140611Y-24628519D01*
X87162680Y-24625503D01*
X87197836Y-24623590D01*
X87249094Y-24622530D01*
X87319471Y-24622077D01*
X87411980Y-24621980D01*
X87498660Y-24622150D01*
X87572332Y-24622834D01*
X87626265Y-24624215D01*
X87663288Y-24626470D01*
X87686230Y-24629778D01*
X87697920Y-24634320D01*
X87701188Y-24640272D01*
X87711937Y-24654888D01*
X87742055Y-24664215D01*
X87753582Y-24665847D01*
X87792886Y-24671591D01*
X87845188Y-24679378D01*
X87902376Y-24688003D01*
X87933916Y-24692393D01*
X87980074Y-24697148D01*
X88012641Y-24698295D01*
X88026023Y-24695495D01*
X88028308Y-24693671D01*
X88049405Y-24689165D01*
X88087355Y-24686029D01*
X88136048Y-24684852D01*
X88241881Y-24684852D01*
X88241894Y-24722575D01*
X88241894Y-24725718D01*
X88242388Y-24738668D01*
X88248819Y-24760411D01*
X88267123Y-24778851D01*
X88302830Y-24800801D01*
X88334174Y-24820854D01*
X88381893Y-24859356D01*
X88425138Y-24902579D01*
X88458219Y-24944627D01*
X88475442Y-24979604D01*
X88479662Y-24993081D01*
X88487480Y-25002334D01*
X88490116Y-25005454D01*
X88511662Y-25010696D01*
G37*
X88511662Y-25010696D02*
X88551314Y-25011782D01*
X88619109Y-25011782D01*
X88619109Y-25124951D01*
X88459577Y-25124951D01*
X88444682Y-25302732D01*
X88442682Y-25327037D01*
X88438023Y-25387880D01*
X88434731Y-25437389D01*
X88433092Y-25470992D01*
X88433390Y-25484116D01*
X88437724Y-25480343D01*
X88457496Y-25460676D01*
X88491679Y-25425818D01*
X88538541Y-25377576D01*
X88596354Y-25317757D01*
X88663387Y-25248167D01*
X88737912Y-25170615D01*
X88818197Y-25086907D01*
X88902513Y-24998849D01*
X88989130Y-24908250D01*
X89076319Y-24816915D01*
X89162349Y-24726653D01*
X89245492Y-24639269D01*
X89324016Y-24556572D01*
X89396192Y-24480368D01*
X89460291Y-24412463D01*
X89514583Y-24354666D01*
X89611592Y-24251040D01*
X89612034Y-24339315D01*
X89612475Y-24427589D01*
X89011938Y-25059158D01*
X88411401Y-25690726D01*
X88399396Y-25834674D01*
X88351365Y-26410635D01*
X88342876Y-26512791D01*
X88332343Y-26640612D01*
X88322621Y-26759767D01*
X88313898Y-26867914D01*
X88306358Y-26962713D01*
X88300187Y-27041819D01*
X88295573Y-27102892D01*
X88292700Y-27143590D01*
X88291754Y-27161570D01*
X88294251Y-27169808D01*
X88305471Y-27187599D01*
X88326751Y-27214411D01*
X88337021Y-27226129D01*
X88359225Y-27251466D01*
X88404023Y-27299986D01*
X88462281Y-27361192D01*
X88535129Y-27436307D01*
X88623703Y-27526550D01*
X88729134Y-27633145D01*
X88798492Y-27703093D01*
X88895179Y-27800658D01*
X88991526Y-27897941D01*
X89084638Y-27992014D01*
X89171618Y-28079950D01*
X89249569Y-28158820D01*
X89315596Y-28225699D01*
X89366802Y-28277658D01*
X89567514Y-28481620D01*
X89531058Y-28519671D01*
X89522460Y-28528245D01*
X89497095Y-28549297D01*
X89479695Y-28557723D01*
X89466071Y-28550530D01*
X89440743Y-28528944D01*
X89410379Y-28497995D01*
X89391896Y-28478448D01*
X89357427Y-28442752D01*
X89308712Y-28392684D01*
X89247469Y-28330001D01*
X89175420Y-28256457D01*
X89094285Y-28173810D01*
X89005784Y-28083815D01*
X88911637Y-27988228D01*
X88813565Y-27888805D01*
X88271161Y-27339343D01*
X88249066Y-27624746D01*
X88244250Y-27685662D01*
X88237216Y-27767548D01*
X88230872Y-27829569D01*
X88224748Y-27874987D01*
X88218373Y-27907062D01*
X88211277Y-27929052D01*
X88202991Y-27944219D01*
X88191393Y-27965416D01*
X88181850Y-28004386D01*
X88179010Y-28060531D01*
X88179010Y-28142773D01*
X87952674Y-28142773D01*
X87952674Y-27966733D01*
X87107082Y-27966733D01*
X87058203Y-28022262D01*
X87044836Y-28036722D01*
X86972388Y-28094813D01*
X86890532Y-28130576D01*
X86801900Y-28142773D01*
X86723692Y-28136306D01*
X86635233Y-28109047D01*
X86559507Y-28060328D01*
X86544748Y-28046403D01*
X86507864Y-28001328D01*
X86475503Y-27948819D01*
X86452297Y-27897061D01*
X86442879Y-27854239D01*
X86442697Y-27848023D01*
X86441342Y-27825246D01*
X86437800Y-27809513D01*
X86430390Y-27802068D01*
X86417431Y-27804156D01*
X86397243Y-27817020D01*
X86368145Y-27841905D01*
X86328456Y-27880053D01*
X86276496Y-27932710D01*
X86210584Y-28001119D01*
X86129040Y-28086524D01*
X86085604Y-28132112D01*
X86013000Y-28208441D01*
X85944309Y-28280808D01*
X85882223Y-28346366D01*
X85829434Y-28402274D01*
X85788634Y-28445686D01*
X85762515Y-28473758D01*
X85691119Y-28551436D01*
X85602863Y-28463416D01*
X86148690Y-27891287D01*
X86183105Y-27855188D01*
X86305546Y-27726272D01*
X86410651Y-27614754D01*
X86498736Y-27520288D01*
X86570116Y-27442529D01*
X86620588Y-27386174D01*
X86827247Y-27386174D01*
X86828872Y-27399434D01*
X86829156Y-27400819D01*
X86842698Y-27432228D01*
X86869748Y-27446863D01*
X86953129Y-27478063D01*
X87027418Y-27530038D01*
X87085846Y-27598791D01*
X87125890Y-27681315D01*
X87145026Y-27774606D01*
X87151364Y-27853565D01*
X88100838Y-27853565D01*
X88107458Y-27825273D01*
X88108629Y-27818329D01*
X88112268Y-27787281D01*
X88117234Y-27737081D01*
X88123157Y-27671727D01*
X88129669Y-27595219D01*
X88136401Y-27511555D01*
X88158724Y-27226129D01*
X87857826Y-26920565D01*
X87802636Y-26864704D01*
X87735109Y-26796888D01*
X87674529Y-26736643D01*
X87623021Y-26686052D01*
X87582710Y-26647200D01*
X87555722Y-26622170D01*
X87544182Y-26613046D01*
X87536444Y-26617405D01*
X87513395Y-26637241D01*
X87478709Y-26670375D01*
X87435487Y-26713820D01*
X87386832Y-26764587D01*
X87374140Y-26778051D01*
X87317229Y-26838275D01*
X87249414Y-26909864D01*
X87175800Y-26987437D01*
X87101493Y-27065611D01*
X87031599Y-27139005D01*
X87027401Y-27143409D01*
X86962420Y-27211785D01*
X86912836Y-27264732D01*
X86876688Y-27304767D01*
X86852016Y-27334411D01*
X86836858Y-27356181D01*
X86829256Y-27372595D01*
X86827247Y-27386174D01*
X86620588Y-27386174D01*
X86625105Y-27381131D01*
X86664019Y-27335748D01*
X86687173Y-27306035D01*
X86694882Y-27291644D01*
X86694883Y-27291559D01*
X86693825Y-27273624D01*
X86690737Y-27233421D01*
X86685858Y-27173687D01*
X86679432Y-27097158D01*
X86671700Y-27006569D01*
X86662905Y-26904657D01*
X86653287Y-26794159D01*
X86643091Y-26677811D01*
X86632556Y-26558348D01*
X86621926Y-26438507D01*
X86611442Y-26321025D01*
X86601346Y-26208637D01*
X86591881Y-26104081D01*
X86583288Y-26010091D01*
X86575809Y-25929405D01*
X86569687Y-25864759D01*
X86565162Y-25818888D01*
X86562478Y-25794530D01*
X86557067Y-25753732D01*
X86686253Y-25753732D01*
X86687908Y-25784653D01*
X86691549Y-25836653D01*
X86696995Y-25907487D01*
X86704063Y-25994911D01*
X86712570Y-26096681D01*
X86722335Y-26210552D01*
X86733174Y-26334279D01*
X86744907Y-26465618D01*
X86754079Y-26566908D01*
X86765566Y-26692526D01*
X86776322Y-26808762D01*
X86786131Y-26913380D01*
X86794781Y-27004140D01*
X86802057Y-27078804D01*
X86807746Y-27135134D01*
X86811634Y-27170891D01*
X86813506Y-27183837D01*
X86819188Y-27179826D01*
X86840020Y-27160138D01*
X86873872Y-27126322D01*
X86918412Y-27080837D01*
X86971310Y-27026146D01*
X87030236Y-26964710D01*
X87092858Y-26898990D01*
X87156848Y-26831449D01*
X87219874Y-26764547D01*
X87279606Y-26700746D01*
X87333713Y-26642507D01*
X87379865Y-26592292D01*
X87415733Y-26552563D01*
X87438984Y-26525780D01*
X87445778Y-26516477D01*
X87627601Y-26516477D01*
X87903305Y-26791968D01*
X87970726Y-26859224D01*
X88034267Y-26922162D01*
X88083490Y-26970100D01*
X88120196Y-27004594D01*
X88146190Y-27027199D01*
X88163276Y-27039471D01*
X88173256Y-27042966D01*
X88177935Y-27039238D01*
X88179116Y-27029844D01*
X88179873Y-27014749D01*
X88182601Y-26975883D01*
X88187108Y-26916895D01*
X88193179Y-26840473D01*
X88200596Y-26749305D01*
X88209142Y-26646080D01*
X88218602Y-26533483D01*
X88228758Y-26414205D01*
X88237723Y-26309077D01*
X88247066Y-26198351D01*
X88255443Y-26097814D01*
X88262653Y-26009943D01*
X88268496Y-25937215D01*
X88272769Y-25882110D01*
X88275273Y-25847104D01*
X88275805Y-25834674D01*
X88275384Y-25834908D01*
X88263509Y-25846350D01*
X88237130Y-25873198D01*
X88198570Y-25913018D01*
X88150153Y-25963372D01*
X88094203Y-26021828D01*
X88033042Y-26085948D01*
X87968995Y-26153298D01*
X87904385Y-26221443D01*
X87841535Y-26287948D01*
X87782768Y-26350377D01*
X87730409Y-26406295D01*
X87629533Y-26514406D01*
X87627601Y-26516477D01*
X87445778Y-26516477D01*
X87447290Y-26514406D01*
X87439148Y-26503383D01*
X87415478Y-26476999D01*
X87378478Y-26437527D01*
X87330350Y-26387191D01*
X87273296Y-26328217D01*
X87209520Y-26262830D01*
X87141222Y-26193255D01*
X87070605Y-26121716D01*
X86999871Y-26050438D01*
X86931222Y-25981647D01*
X86866861Y-25917566D01*
X86808989Y-25860422D01*
X86759810Y-25812439D01*
X86721524Y-25775841D01*
X86696334Y-25752854D01*
X86686442Y-25745703D01*
X86686253Y-25753732D01*
X86557067Y-25753732D01*
X86555390Y-25741089D01*
X86280297Y-25741089D01*
X86280140Y-25640495D01*
X86380891Y-25640495D01*
X86462624Y-25640495D01*
X86469895Y-25640489D01*
X86510950Y-25639613D01*
X86533277Y-25635867D01*
X86542529Y-25627270D01*
X86544357Y-25611840D01*
X86536306Y-25589159D01*
X86508730Y-25551428D01*
X86462624Y-25502179D01*
X86380891Y-25421172D01*
X86380891Y-25640495D01*
X86280140Y-25640495D01*
X86279968Y-25530471D01*
X86279639Y-25319852D01*
X85827914Y-24860891D01*
X85376189Y-24401931D01*
X85375570Y-24314848D01*
X85374951Y-24227767D01*
X85916769Y-24776952D01*
X85969137Y-24829998D01*
X86077803Y-24939772D01*
X86170709Y-25033114D01*
X86249055Y-25111173D01*
X86314043Y-25175097D01*
X86366872Y-25226035D01*
X86408743Y-25265135D01*
X86440855Y-25293548D01*
X86464410Y-25312420D01*
X86480608Y-25322901D01*
X86490649Y-25326139D01*
X86507579Y-25325158D01*
X86517084Y-25317996D01*
X86518723Y-25298401D01*
X86514782Y-25260124D01*
X86512065Y-25236025D01*
X86508284Y-25195744D01*
X86506760Y-25168961D01*
X86506015Y-25159728D01*
X86498746Y-25149839D01*
X86478668Y-25146562D01*
X86439689Y-25147992D01*
X86429737Y-25148553D01*
X86389898Y-25147921D01*
X86361560Y-25139167D01*
X86341586Y-25124951D01*
X86624852Y-25124951D01*
X86629013Y-25172104D01*
X86630935Y-25193498D01*
X86636924Y-25251909D01*
X86642826Y-25290381D01*
X86649727Y-25312912D01*
X86658712Y-25323498D01*
X86670870Y-25326139D01*
X86681801Y-25327937D01*
X86689050Y-25336530D01*
X86693100Y-25356505D01*
X86694863Y-25392450D01*
X86695248Y-25448952D01*
X86695248Y-25571766D01*
X86735447Y-25611840D01*
X86833565Y-25709654D01*
X86971881Y-25847542D01*
X86971881Y-25741089D01*
X87726337Y-25741089D01*
X87726337Y-25980000D01*
X87107831Y-25980000D01*
X87317592Y-26196906D01*
X87357770Y-26238334D01*
X87413328Y-26295200D01*
X87461570Y-26344082D01*
X87499971Y-26382441D01*
X87526003Y-26407741D01*
X87537140Y-26417442D01*
X87541373Y-26414767D01*
X87561224Y-26396782D01*
X87595451Y-26363481D01*
X87642227Y-26316712D01*
X87699724Y-26258325D01*
X87766112Y-26190169D01*
X87839564Y-26114094D01*
X87918251Y-26031950D01*
X87997341Y-25948943D01*
X88074871Y-25867136D01*
X88137746Y-25800083D01*
X88187502Y-25746007D01*
X88225678Y-25703129D01*
X88253811Y-25669673D01*
X88273440Y-25643861D01*
X88286101Y-25623914D01*
X88293334Y-25608056D01*
X88296675Y-25594509D01*
X88297561Y-25587910D01*
X88301488Y-25551548D01*
X88306459Y-25498018D01*
X88311927Y-25433421D01*
X88317344Y-25363862D01*
X88319181Y-25339635D01*
X88324488Y-25274178D01*
X88329548Y-25217717D01*
X88333863Y-25175618D01*
X88336934Y-25153243D01*
X88342955Y-25124951D01*
X86624852Y-25124951D01*
X86341586Y-25124951D01*
X86333630Y-25119289D01*
X86328820Y-25115104D01*
X86289482Y-25064427D01*
X86273903Y-25011782D01*
X86614698Y-25011782D01*
X88029221Y-25011782D01*
X88241881Y-25011782D01*
X88298908Y-25011782D01*
X88315993Y-25011662D01*
X88341308Y-25009462D01*
X88348616Y-25002334D01*
X88342943Y-24987508D01*
X88341267Y-24984682D01*
X88322448Y-24962944D01*
X88295183Y-24938820D01*
X88267987Y-24919254D01*
X88249371Y-24911188D01*
X88247697Y-24912463D01*
X88243544Y-24929976D01*
X88241881Y-24961485D01*
X88241881Y-25011782D01*
X88029221Y-25011782D01*
X88025526Y-24921095D01*
X88021832Y-24830407D01*
X87946386Y-24815252D01*
X87908551Y-24808379D01*
X87845368Y-24798756D01*
X87786065Y-24791496D01*
X87701188Y-24782893D01*
X87701188Y-24886040D01*
X87122773Y-24886040D01*
X87122773Y-24795122D01*
X87050471Y-24803753D01*
X86939998Y-24822249D01*
X86828816Y-24855691D01*
X86736850Y-24902324D01*
X86662542Y-24962786D01*
X86614698Y-25011782D01*
X86273903Y-25011782D01*
X86272172Y-25005934D01*
X86277474Y-24944575D01*
X86305975Y-24885297D01*
X86308733Y-24881606D01*
X86346822Y-24849851D01*
X86396476Y-24831067D01*
X86450002Y-24826071D01*
X86499707Y-24835678D01*
X86537900Y-24860704D01*
X86550831Y-24873480D01*
X86563428Y-24876576D01*
X86581467Y-24866998D01*
X86611928Y-24843082D01*
X86621274Y-24835731D01*
X86693430Y-24789339D01*
X86778915Y-24748084D01*
X86848830Y-24722575D01*
X87223367Y-24722575D01*
X87223367Y-24785446D01*
X87600594Y-24785446D01*
X87600594Y-24722575D01*
X87223367Y-24722575D01*
X86848830Y-24722575D01*
X86869767Y-24714936D01*
X86958027Y-24692868D01*
X87035736Y-24684852D01*
X87043991Y-24684788D01*
X87089879Y-24680321D01*
X87115079Y-24667795D01*
X87122773Y-24645784D01*
X87123676Y-24638849D01*
X87128615Y-24632885D01*
X87140611Y-24628519D01*
X87162680Y-24625503D01*
X87197836Y-24623590D01*
X87249094Y-24622530D01*
X87319471Y-24622077D01*
X87411980Y-24621980D01*
X87498660Y-24622150D01*
X87572332Y-24622834D01*
X87626265Y-24624215D01*
X87663288Y-24626470D01*
X87686230Y-24629778D01*
X87697920Y-24634320D01*
X87701188Y-24640272D01*
X87711937Y-24654888D01*
X87742055Y-24664215D01*
X87753582Y-24665847D01*
X87792886Y-24671591D01*
X87845188Y-24679378D01*
X87902376Y-24688003D01*
X87933916Y-24692393D01*
X87980074Y-24697148D01*
X88012641Y-24698295D01*
X88026023Y-24695495D01*
X88028308Y-24693671D01*
X88049405Y-24689165D01*
X88087355Y-24686029D01*
X88136048Y-24684852D01*
X88241881Y-24684852D01*
X88241894Y-24722575D01*
X88241894Y-24725718D01*
X88242388Y-24738668D01*
X88248819Y-24760411D01*
X88267123Y-24778851D01*
X88302830Y-24800801D01*
X88334174Y-24820854D01*
X88381893Y-24859356D01*
X88425138Y-24902579D01*
X88458219Y-24944627D01*
X88475442Y-24979604D01*
X88479662Y-24993081D01*
X88487480Y-25002334D01*
X88490116Y-25005454D01*
X88511662Y-25010696D01*
D11*
G04 #@! TO.C,TP1*
X75450000Y-38500000D02*
G75*
G03*
X75450000Y-38500000I-950000J0D01*
G01*
G04 #@! TO.C,TP2*
X73200000Y-38750000D02*
G75*
G03*
X73200000Y-38750000I-950000J0D01*
G01*
G04 #@! TO.C,TP3*
X87450000Y-47250000D02*
G75*
G03*
X87450000Y-47250000I-950000J0D01*
G01*
G04 #@! TO.C,TP4*
X70950000Y-38750000D02*
G75*
G03*
X70950000Y-38750000I-950000J0D01*
G01*
G04 #@! TO.C,TP16*
X69450000Y-42750000D02*
G75*
G03*
X69450000Y-42750000I-950000J0D01*
G01*
G04 #@! TO.C,TP17*
X66200000Y-41750000D02*
G75*
G03*
X66200000Y-41750000I-950000J0D01*
G01*
G04 #@! TO.C,TP18*
X68950000Y-34500000D02*
G75*
G03*
X68950000Y-34500000I-950000J0D01*
G01*
G04 #@! TD*
M02*
