G04 #@! TF.GenerationSoftware,KiCad,Pcbnew,6.0.9-8da3e8f707~116~ubuntu20.04.1*
G04 #@! TF.CreationDate,2023-05-05T17:22:20+00:00*
G04 #@! TF.ProjectId,LEC009002,4c454330-3039-4303-9032-2e6b69636164,rev?*
G04 #@! TF.SameCoordinates,Original*
G04 #@! TF.FileFunction,Copper,L1,Top*
G04 #@! TF.FilePolarity,Positive*
%FSLAX46Y46*%
G04 Gerber Fmt 4.6, Leading zero omitted, Abs format (unit mm)*
G04 Created by KiCad (PCBNEW 6.0.9-8da3e8f707~116~ubuntu20.04.1) date 2023-05-05 17:22:20*
%MOMM*%
%LPD*%
G01*
G04 APERTURE LIST*
G04 Aperture macros list*
%AMRoundRect*
0 Rectangle with rounded corners*
0 $1 Rounding radius*
0 $2 $3 $4 $5 $6 $7 $8 $9 X,Y pos of 4 corners*
0 Add a 4 corners polygon primitive as box body*
4,1,4,$2,$3,$4,$5,$6,$7,$8,$9,$2,$3,0*
0 Add four circle primitives for the rounded corners*
1,1,$1+$1,$2,$3*
1,1,$1+$1,$4,$5*
1,1,$1+$1,$6,$7*
1,1,$1+$1,$8,$9*
0 Add four rect primitives between the rounded corners*
20,1,$1+$1,$2,$3,$4,$5,0*
20,1,$1+$1,$4,$5,$6,$7,0*
20,1,$1+$1,$6,$7,$8,$9,0*
20,1,$1+$1,$8,$9,$2,$3,0*%
G04 Aperture macros list end*
G04 #@! TA.AperFunction,EtchedComponent*
%ADD10C,0.010000*%
G04 #@! TD*
G04 #@! TA.AperFunction,SMDPad,CuDef*
%ADD11RoundRect,0.218750X-0.256250X0.218750X-0.256250X-0.218750X0.256250X-0.218750X0.256250X0.218750X0*%
G04 #@! TD*
G04 #@! TA.AperFunction,SMDPad,CuDef*
%ADD12RoundRect,0.249600X0.550400X-1.500400X0.550400X1.500400X-0.550400X1.500400X-0.550400X-1.500400X0*%
G04 #@! TD*
G04 #@! TA.AperFunction,SMDPad,CuDef*
%ADD13RoundRect,0.218750X0.256250X-0.218750X0.256250X0.218750X-0.256250X0.218750X-0.256250X-0.218750X0*%
G04 #@! TD*
G04 #@! TA.AperFunction,SMDPad,CuDef*
%ADD14R,1.000000X0.800000*%
G04 #@! TD*
G04 #@! TA.AperFunction,SMDPad,CuDef*
%ADD15R,1.800000X2.500000*%
G04 #@! TD*
G04 #@! TA.AperFunction,ComponentPad*
%ADD16R,3.000000X3.000000*%
G04 #@! TD*
G04 #@! TA.AperFunction,ComponentPad*
%ADD17C,3.000000*%
G04 #@! TD*
G04 #@! TA.AperFunction,ComponentPad*
%ADD18C,1.800000*%
G04 #@! TD*
G04 #@! TA.AperFunction,ComponentPad*
%ADD19R,1.800000X1.800000*%
G04 #@! TD*
G04 #@! TA.AperFunction,SMDPad,CuDef*
%ADD20R,0.800000X0.900000*%
G04 #@! TD*
G04 #@! TA.AperFunction,SMDPad,CuDef*
%ADD21R,0.900000X0.800000*%
G04 #@! TD*
G04 #@! TA.AperFunction,SMDPad,CuDef*
%ADD22RoundRect,0.218750X0.218750X0.256250X-0.218750X0.256250X-0.218750X-0.256250X0.218750X-0.256250X0*%
G04 #@! TD*
G04 #@! TA.AperFunction,SMDPad,CuDef*
%ADD23R,1.200000X1.200000*%
G04 #@! TD*
G04 #@! TA.AperFunction,SMDPad,CuDef*
%ADD24R,1.600000X1.500000*%
G04 #@! TD*
G04 #@! TA.AperFunction,SMDPad,CuDef*
%ADD25R,1.200000X2.200000*%
G04 #@! TD*
G04 #@! TA.AperFunction,SMDPad,CuDef*
%ADD26R,5.800000X6.400000*%
G04 #@! TD*
G04 #@! TA.AperFunction,ComponentPad*
%ADD27R,1.727200X1.727200*%
G04 #@! TD*
G04 #@! TA.AperFunction,ComponentPad*
%ADD28O,1.727200X1.727200*%
G04 #@! TD*
G04 #@! TA.AperFunction,SMDPad,CuDef*
%ADD29RoundRect,0.150000X-0.150000X0.825000X-0.150000X-0.825000X0.150000X-0.825000X0.150000X0.825000X0*%
G04 #@! TD*
G04 #@! TA.AperFunction,ViaPad*
%ADD30C,0.800000*%
G04 #@! TD*
G04 #@! TA.AperFunction,Conductor*
%ADD31C,0.400000*%
G04 #@! TD*
G04 #@! TA.AperFunction,Conductor*
%ADD32C,0.800000*%
G04 #@! TD*
G04 #@! TA.AperFunction,Conductor*
%ADD33C,0.300000*%
G04 #@! TD*
G04 #@! TA.AperFunction,Conductor*
%ADD34C,0.254000*%
G04 #@! TD*
G04 APERTURE END LIST*
G04 #@! TO.C,LOGO1*
G36*
X58682820Y-21637860D02*
G01*
X57809060Y-21637860D01*
X57809060Y-21950280D01*
X57585540Y-21950280D01*
X57585540Y-21416880D01*
X58682820Y-21416880D01*
X58682820Y-21637860D01*
G37*
D10*
X58682820Y-21637860D02*
X57809060Y-21637860D01*
X57809060Y-21950280D01*
X57585540Y-21950280D01*
X57585540Y-21416880D01*
X58682820Y-21416880D01*
X58682820Y-21637860D01*
G36*
X64626304Y-21430092D02*
G01*
X64644850Y-21430188D01*
X64758296Y-21430850D01*
X64452148Y-21849183D01*
X64422064Y-21890298D01*
X64392787Y-21930325D01*
X64364458Y-21969069D01*
X64337217Y-22006338D01*
X64311206Y-22041940D01*
X64286566Y-22075680D01*
X64263436Y-22107366D01*
X64241957Y-22136806D01*
X64222271Y-22163806D01*
X64204518Y-22188172D01*
X64188839Y-22209713D01*
X64175374Y-22228236D01*
X64164265Y-22243546D01*
X64155651Y-22255452D01*
X64149674Y-22263760D01*
X64146474Y-22268277D01*
X64145946Y-22269087D01*
X64147407Y-22271269D01*
X64151707Y-22277370D01*
X64158703Y-22287192D01*
X64168256Y-22300541D01*
X64180224Y-22317220D01*
X64194465Y-22337032D01*
X64210838Y-22359783D01*
X64229202Y-22385275D01*
X64249416Y-22413314D01*
X64271337Y-22443701D01*
X64294825Y-22476243D01*
X64319739Y-22510742D01*
X64345938Y-22547003D01*
X64373279Y-22584829D01*
X64401622Y-22624025D01*
X64430825Y-22664395D01*
X64442671Y-22680766D01*
X64472190Y-22721564D01*
X64500913Y-22761274D01*
X64528699Y-22799701D01*
X64555405Y-22836647D01*
X64580889Y-22871916D01*
X64605010Y-22905310D01*
X64627626Y-22936635D01*
X64648595Y-22965692D01*
X64667775Y-22992285D01*
X64685025Y-23016218D01*
X64700202Y-23037293D01*
X64713164Y-23055315D01*
X64723770Y-23070086D01*
X64731878Y-23081411D01*
X64737346Y-23089091D01*
X64740033Y-23092932D01*
X64740296Y-23093347D01*
X64738016Y-23093981D01*
X64730822Y-23094522D01*
X64718878Y-23094969D01*
X64702349Y-23095317D01*
X64681400Y-23095563D01*
X64656196Y-23095703D01*
X64627266Y-23095734D01*
X64513390Y-23095649D01*
X64272090Y-22761780D01*
X64245526Y-22725037D01*
X64219765Y-22689426D01*
X64194965Y-22655163D01*
X64171283Y-22622466D01*
X64148876Y-22591550D01*
X64127902Y-22562632D01*
X64108517Y-22535929D01*
X64090880Y-22511658D01*
X64075147Y-22490034D01*
X64061475Y-22471274D01*
X64050023Y-22455596D01*
X64040948Y-22443215D01*
X64034406Y-22434347D01*
X64030556Y-22429211D01*
X64029520Y-22427933D01*
X64027906Y-22429950D01*
X64023455Y-22435854D01*
X64016324Y-22445427D01*
X64006674Y-22458455D01*
X63994661Y-22474722D01*
X63980447Y-22494010D01*
X63964188Y-22516106D01*
X63946044Y-22540791D01*
X63926173Y-22567851D01*
X63904734Y-22597070D01*
X63881887Y-22628231D01*
X63857789Y-22661119D01*
X63832600Y-22695518D01*
X63806477Y-22731211D01*
X63785680Y-22759644D01*
X63758925Y-22796214D01*
X63732965Y-22831667D01*
X63707961Y-22865786D01*
X63684072Y-22898355D01*
X63661458Y-22929156D01*
X63640279Y-22957973D01*
X63620693Y-22984589D01*
X63602863Y-23008787D01*
X63586946Y-23030350D01*
X63573102Y-23049061D01*
X63561493Y-23064704D01*
X63552276Y-23077061D01*
X63545613Y-23085916D01*
X63541662Y-23091051D01*
X63540570Y-23092335D01*
X63537574Y-23092529D01*
X63530025Y-23092680D01*
X63518450Y-23092789D01*
X63503375Y-23092853D01*
X63485327Y-23092870D01*
X63464833Y-23092839D01*
X63442419Y-23092759D01*
X63425648Y-23092672D01*
X63313267Y-23092010D01*
X63919225Y-22263970D01*
X63961717Y-22205907D01*
X64003457Y-22148878D01*
X64044343Y-22093019D01*
X64084276Y-22038469D01*
X64123154Y-21985363D01*
X64160878Y-21933839D01*
X64197347Y-21884036D01*
X64232459Y-21836089D01*
X64266115Y-21790136D01*
X64298214Y-21746314D01*
X64328655Y-21704761D01*
X64357338Y-21665614D01*
X64384162Y-21629011D01*
X64409027Y-21595087D01*
X64431832Y-21563981D01*
X64452477Y-21535831D01*
X64470860Y-21510772D01*
X64486882Y-21488943D01*
X64500441Y-21470481D01*
X64511437Y-21455522D01*
X64519771Y-21444205D01*
X64525340Y-21436667D01*
X64528045Y-21433044D01*
X64528294Y-21432728D01*
X64530129Y-21431936D01*
X64534193Y-21431292D01*
X64540860Y-21430789D01*
X64550504Y-21430418D01*
X64563497Y-21430171D01*
X64580212Y-21430039D01*
X64601024Y-21430016D01*
X64626304Y-21430092D01*
G37*
X64626304Y-21430092D02*
X64644850Y-21430188D01*
X64758296Y-21430850D01*
X64452148Y-21849183D01*
X64422064Y-21890298D01*
X64392787Y-21930325D01*
X64364458Y-21969069D01*
X64337217Y-22006338D01*
X64311206Y-22041940D01*
X64286566Y-22075680D01*
X64263436Y-22107366D01*
X64241957Y-22136806D01*
X64222271Y-22163806D01*
X64204518Y-22188172D01*
X64188839Y-22209713D01*
X64175374Y-22228236D01*
X64164265Y-22243546D01*
X64155651Y-22255452D01*
X64149674Y-22263760D01*
X64146474Y-22268277D01*
X64145946Y-22269087D01*
X64147407Y-22271269D01*
X64151707Y-22277370D01*
X64158703Y-22287192D01*
X64168256Y-22300541D01*
X64180224Y-22317220D01*
X64194465Y-22337032D01*
X64210838Y-22359783D01*
X64229202Y-22385275D01*
X64249416Y-22413314D01*
X64271337Y-22443701D01*
X64294825Y-22476243D01*
X64319739Y-22510742D01*
X64345938Y-22547003D01*
X64373279Y-22584829D01*
X64401622Y-22624025D01*
X64430825Y-22664395D01*
X64442671Y-22680766D01*
X64472190Y-22721564D01*
X64500913Y-22761274D01*
X64528699Y-22799701D01*
X64555405Y-22836647D01*
X64580889Y-22871916D01*
X64605010Y-22905310D01*
X64627626Y-22936635D01*
X64648595Y-22965692D01*
X64667775Y-22992285D01*
X64685025Y-23016218D01*
X64700202Y-23037293D01*
X64713164Y-23055315D01*
X64723770Y-23070086D01*
X64731878Y-23081411D01*
X64737346Y-23089091D01*
X64740033Y-23092932D01*
X64740296Y-23093347D01*
X64738016Y-23093981D01*
X64730822Y-23094522D01*
X64718878Y-23094969D01*
X64702349Y-23095317D01*
X64681400Y-23095563D01*
X64656196Y-23095703D01*
X64627266Y-23095734D01*
X64513390Y-23095649D01*
X64272090Y-22761780D01*
X64245526Y-22725037D01*
X64219765Y-22689426D01*
X64194965Y-22655163D01*
X64171283Y-22622466D01*
X64148876Y-22591550D01*
X64127902Y-22562632D01*
X64108517Y-22535929D01*
X64090880Y-22511658D01*
X64075147Y-22490034D01*
X64061475Y-22471274D01*
X64050023Y-22455596D01*
X64040948Y-22443215D01*
X64034406Y-22434347D01*
X64030556Y-22429211D01*
X64029520Y-22427933D01*
X64027906Y-22429950D01*
X64023455Y-22435854D01*
X64016324Y-22445427D01*
X64006674Y-22458455D01*
X63994661Y-22474722D01*
X63980447Y-22494010D01*
X63964188Y-22516106D01*
X63946044Y-22540791D01*
X63926173Y-22567851D01*
X63904734Y-22597070D01*
X63881887Y-22628231D01*
X63857789Y-22661119D01*
X63832600Y-22695518D01*
X63806477Y-22731211D01*
X63785680Y-22759644D01*
X63758925Y-22796214D01*
X63732965Y-22831667D01*
X63707961Y-22865786D01*
X63684072Y-22898355D01*
X63661458Y-22929156D01*
X63640279Y-22957973D01*
X63620693Y-22984589D01*
X63602863Y-23008787D01*
X63586946Y-23030350D01*
X63573102Y-23049061D01*
X63561493Y-23064704D01*
X63552276Y-23077061D01*
X63545613Y-23085916D01*
X63541662Y-23091051D01*
X63540570Y-23092335D01*
X63537574Y-23092529D01*
X63530025Y-23092680D01*
X63518450Y-23092789D01*
X63503375Y-23092853D01*
X63485327Y-23092870D01*
X63464833Y-23092839D01*
X63442419Y-23092759D01*
X63425648Y-23092672D01*
X63313267Y-23092010D01*
X63919225Y-22263970D01*
X63961717Y-22205907D01*
X64003457Y-22148878D01*
X64044343Y-22093019D01*
X64084276Y-22038469D01*
X64123154Y-21985363D01*
X64160878Y-21933839D01*
X64197347Y-21884036D01*
X64232459Y-21836089D01*
X64266115Y-21790136D01*
X64298214Y-21746314D01*
X64328655Y-21704761D01*
X64357338Y-21665614D01*
X64384162Y-21629011D01*
X64409027Y-21595087D01*
X64431832Y-21563981D01*
X64452477Y-21535831D01*
X64470860Y-21510772D01*
X64486882Y-21488943D01*
X64500441Y-21470481D01*
X64511437Y-21455522D01*
X64519771Y-21444205D01*
X64525340Y-21436667D01*
X64528045Y-21433044D01*
X64528294Y-21432728D01*
X64530129Y-21431936D01*
X64534193Y-21431292D01*
X64540860Y-21430789D01*
X64550504Y-21430418D01*
X64563497Y-21430171D01*
X64580212Y-21430039D01*
X64601024Y-21430016D01*
X64626304Y-21430092D01*
G36*
X58568520Y-22359220D02*
G01*
X57809060Y-22359220D01*
X57809060Y-22702120D01*
X57588080Y-22702120D01*
X57588080Y-22135700D01*
X58568520Y-22135700D01*
X58568520Y-22359220D01*
G37*
X58568520Y-22359220D02*
X57809060Y-22359220D01*
X57809060Y-22702120D01*
X57588080Y-22702120D01*
X57588080Y-22135700D01*
X58568520Y-22135700D01*
X58568520Y-22359220D01*
G36*
X63510968Y-21424500D02*
G01*
X63716269Y-21707044D01*
X63740799Y-21740835D01*
X63764493Y-21773537D01*
X63787180Y-21804909D01*
X63808689Y-21834714D01*
X63828848Y-21862711D01*
X63847487Y-21888663D01*
X63864435Y-21912329D01*
X63879520Y-21933470D01*
X63892571Y-21951848D01*
X63903418Y-21967223D01*
X63911889Y-21979356D01*
X63917814Y-21988009D01*
X63921021Y-21992942D01*
X63921570Y-21994021D01*
X63920129Y-21997001D01*
X63916077Y-22003439D01*
X63909817Y-22012779D01*
X63901755Y-22024461D01*
X63892293Y-22037928D01*
X63881838Y-22052622D01*
X63870793Y-22067984D01*
X63859562Y-22083457D01*
X63848551Y-22098483D01*
X63838162Y-22112504D01*
X63828801Y-22124962D01*
X63820872Y-22135298D01*
X63814779Y-22142955D01*
X63810927Y-22147375D01*
X63809810Y-22148247D01*
X63808071Y-22146223D01*
X63803504Y-22140295D01*
X63796264Y-22130671D01*
X63786502Y-22117561D01*
X63774373Y-22101174D01*
X63760029Y-22081719D01*
X63743625Y-22059405D01*
X63725313Y-22034442D01*
X63705247Y-22007037D01*
X63683579Y-21977402D01*
X63660465Y-21945743D01*
X63636056Y-21912272D01*
X63610506Y-21877196D01*
X63583968Y-21840724D01*
X63556596Y-21803067D01*
X63548190Y-21791493D01*
X63520558Y-21753445D01*
X63493707Y-21716468D01*
X63467789Y-21680772D01*
X63442960Y-21646572D01*
X63419374Y-21614081D01*
X63397186Y-21583511D01*
X63376549Y-21555075D01*
X63357618Y-21528985D01*
X63340548Y-21505456D01*
X63325493Y-21484699D01*
X63312608Y-21466927D01*
X63302047Y-21452354D01*
X63293964Y-21441192D01*
X63288514Y-21433654D01*
X63285851Y-21429952D01*
X63285625Y-21429630D01*
X63284877Y-21428417D01*
X63284715Y-21427412D01*
X63285563Y-21426595D01*
X63287844Y-21425947D01*
X63291981Y-21425449D01*
X63298399Y-21425081D01*
X63307522Y-21424823D01*
X63319772Y-21424655D01*
X63335573Y-21424559D01*
X63355349Y-21424514D01*
X63379525Y-21424500D01*
X63396554Y-21424499D01*
X63510968Y-21424500D01*
G37*
X63510968Y-21424500D02*
X63716269Y-21707044D01*
X63740799Y-21740835D01*
X63764493Y-21773537D01*
X63787180Y-21804909D01*
X63808689Y-21834714D01*
X63828848Y-21862711D01*
X63847487Y-21888663D01*
X63864435Y-21912329D01*
X63879520Y-21933470D01*
X63892571Y-21951848D01*
X63903418Y-21967223D01*
X63911889Y-21979356D01*
X63917814Y-21988009D01*
X63921021Y-21992942D01*
X63921570Y-21994021D01*
X63920129Y-21997001D01*
X63916077Y-22003439D01*
X63909817Y-22012779D01*
X63901755Y-22024461D01*
X63892293Y-22037928D01*
X63881838Y-22052622D01*
X63870793Y-22067984D01*
X63859562Y-22083457D01*
X63848551Y-22098483D01*
X63838162Y-22112504D01*
X63828801Y-22124962D01*
X63820872Y-22135298D01*
X63814779Y-22142955D01*
X63810927Y-22147375D01*
X63809810Y-22148247D01*
X63808071Y-22146223D01*
X63803504Y-22140295D01*
X63796264Y-22130671D01*
X63786502Y-22117561D01*
X63774373Y-22101174D01*
X63760029Y-22081719D01*
X63743625Y-22059405D01*
X63725313Y-22034442D01*
X63705247Y-22007037D01*
X63683579Y-21977402D01*
X63660465Y-21945743D01*
X63636056Y-21912272D01*
X63610506Y-21877196D01*
X63583968Y-21840724D01*
X63556596Y-21803067D01*
X63548190Y-21791493D01*
X63520558Y-21753445D01*
X63493707Y-21716468D01*
X63467789Y-21680772D01*
X63442960Y-21646572D01*
X63419374Y-21614081D01*
X63397186Y-21583511D01*
X63376549Y-21555075D01*
X63357618Y-21528985D01*
X63340548Y-21505456D01*
X63325493Y-21484699D01*
X63312608Y-21466927D01*
X63302047Y-21452354D01*
X63293964Y-21441192D01*
X63288514Y-21433654D01*
X63285851Y-21429952D01*
X63285625Y-21429630D01*
X63284877Y-21428417D01*
X63284715Y-21427412D01*
X63285563Y-21426595D01*
X63287844Y-21425947D01*
X63291981Y-21425449D01*
X63298399Y-21425081D01*
X63307522Y-21424823D01*
X63319772Y-21424655D01*
X63335573Y-21424559D01*
X63355349Y-21424514D01*
X63379525Y-21424500D01*
X63396554Y-21424499D01*
X63510968Y-21424500D01*
G36*
X59308402Y-22385255D02*
G01*
X59313120Y-22434642D01*
X59322714Y-22483391D01*
X59336988Y-22531126D01*
X59355743Y-22577472D01*
X59378784Y-22622055D01*
X59405913Y-22664500D01*
X59436933Y-22704432D01*
X59471648Y-22741476D01*
X59509860Y-22775258D01*
X59515940Y-22780066D01*
X59556038Y-22808193D01*
X59599345Y-22832754D01*
X59645214Y-22853491D01*
X59692999Y-22870147D01*
X59742054Y-22882466D01*
X59791733Y-22890191D01*
X59793061Y-22890331D01*
X59814417Y-22891812D01*
X59839012Y-22892277D01*
X59865170Y-22891784D01*
X59891216Y-22890393D01*
X59915475Y-22888161D01*
X59935040Y-22885369D01*
X59985420Y-22873968D01*
X60034171Y-22858011D01*
X60080973Y-22837722D01*
X60125506Y-22813326D01*
X60167447Y-22785050D01*
X60206477Y-22753119D01*
X60242275Y-22717757D01*
X60274521Y-22679189D01*
X60302893Y-22637642D01*
X60313459Y-22619570D01*
X60317764Y-22611866D01*
X60320977Y-22606162D01*
X60322419Y-22603660D01*
X60322428Y-22603648D01*
X60324718Y-22604589D01*
X60330966Y-22607586D01*
X60340622Y-22612356D01*
X60353134Y-22618617D01*
X60367950Y-22626087D01*
X60384518Y-22634484D01*
X60402288Y-22643526D01*
X60420709Y-22652930D01*
X60439227Y-22662414D01*
X60457292Y-22671697D01*
X60474353Y-22680496D01*
X60489857Y-22688530D01*
X60503254Y-22695515D01*
X60513992Y-22701170D01*
X60521519Y-22705212D01*
X60525284Y-22707360D01*
X60525579Y-22707574D01*
X60526342Y-22709476D01*
X60525650Y-22712864D01*
X60523236Y-22718246D01*
X60518829Y-22726130D01*
X60512161Y-22737022D01*
X60502963Y-22751432D01*
X60499532Y-22756730D01*
X60463745Y-22807247D01*
X60424233Y-22854456D01*
X60381253Y-22898181D01*
X60335061Y-22938245D01*
X60285915Y-22974473D01*
X60234071Y-23006690D01*
X60179786Y-23034719D01*
X60123317Y-23058386D01*
X60064922Y-23077513D01*
X60011386Y-23090608D01*
X59990451Y-23094715D01*
X59971307Y-23097937D01*
X59952786Y-23100387D01*
X59933721Y-23102177D01*
X59912944Y-23103419D01*
X59889286Y-23104226D01*
X59865190Y-23104665D01*
X59846965Y-23104860D01*
X59830071Y-23104960D01*
X59815281Y-23104966D01*
X59803367Y-23104880D01*
X59795103Y-23104704D01*
X59791530Y-23104485D01*
X59785642Y-23103741D01*
X59776310Y-23102630D01*
X59765138Y-23101341D01*
X59759780Y-23100735D01*
X59704003Y-23092047D01*
X59648007Y-23078574D01*
X59592401Y-23060545D01*
X59537794Y-23038188D01*
X59484797Y-23011731D01*
X59434019Y-22981401D01*
X59425770Y-22975955D01*
X59395798Y-22955098D01*
X59369044Y-22934653D01*
X59343942Y-22913317D01*
X59318927Y-22889790D01*
X59303718Y-22874501D01*
X59261520Y-22827656D01*
X59223616Y-22778179D01*
X59190086Y-22726236D01*
X59161014Y-22671994D01*
X59136482Y-22615618D01*
X59116574Y-22557274D01*
X59101371Y-22497129D01*
X59093187Y-22451477D01*
X59091980Y-22442261D01*
X59090577Y-22429810D01*
X59089087Y-22415307D01*
X59087618Y-22399937D01*
X59086281Y-22384885D01*
X59085185Y-22371334D01*
X59084438Y-22360470D01*
X59084150Y-22353505D01*
X59086602Y-22353107D01*
X59093621Y-22352738D01*
X59104692Y-22352405D01*
X59119304Y-22352119D01*
X59136941Y-22351886D01*
X59157091Y-22351717D01*
X59179241Y-22351620D01*
X59195519Y-22351600D01*
X59306899Y-22351600D01*
X59308402Y-22385255D01*
G37*
X59308402Y-22385255D02*
X59313120Y-22434642D01*
X59322714Y-22483391D01*
X59336988Y-22531126D01*
X59355743Y-22577472D01*
X59378784Y-22622055D01*
X59405913Y-22664500D01*
X59436933Y-22704432D01*
X59471648Y-22741476D01*
X59509860Y-22775258D01*
X59515940Y-22780066D01*
X59556038Y-22808193D01*
X59599345Y-22832754D01*
X59645214Y-22853491D01*
X59692999Y-22870147D01*
X59742054Y-22882466D01*
X59791733Y-22890191D01*
X59793061Y-22890331D01*
X59814417Y-22891812D01*
X59839012Y-22892277D01*
X59865170Y-22891784D01*
X59891216Y-22890393D01*
X59915475Y-22888161D01*
X59935040Y-22885369D01*
X59985420Y-22873968D01*
X60034171Y-22858011D01*
X60080973Y-22837722D01*
X60125506Y-22813326D01*
X60167447Y-22785050D01*
X60206477Y-22753119D01*
X60242275Y-22717757D01*
X60274521Y-22679189D01*
X60302893Y-22637642D01*
X60313459Y-22619570D01*
X60317764Y-22611866D01*
X60320977Y-22606162D01*
X60322419Y-22603660D01*
X60322428Y-22603648D01*
X60324718Y-22604589D01*
X60330966Y-22607586D01*
X60340622Y-22612356D01*
X60353134Y-22618617D01*
X60367950Y-22626087D01*
X60384518Y-22634484D01*
X60402288Y-22643526D01*
X60420709Y-22652930D01*
X60439227Y-22662414D01*
X60457292Y-22671697D01*
X60474353Y-22680496D01*
X60489857Y-22688530D01*
X60503254Y-22695515D01*
X60513992Y-22701170D01*
X60521519Y-22705212D01*
X60525284Y-22707360D01*
X60525579Y-22707574D01*
X60526342Y-22709476D01*
X60525650Y-22712864D01*
X60523236Y-22718246D01*
X60518829Y-22726130D01*
X60512161Y-22737022D01*
X60502963Y-22751432D01*
X60499532Y-22756730D01*
X60463745Y-22807247D01*
X60424233Y-22854456D01*
X60381253Y-22898181D01*
X60335061Y-22938245D01*
X60285915Y-22974473D01*
X60234071Y-23006690D01*
X60179786Y-23034719D01*
X60123317Y-23058386D01*
X60064922Y-23077513D01*
X60011386Y-23090608D01*
X59990451Y-23094715D01*
X59971307Y-23097937D01*
X59952786Y-23100387D01*
X59933721Y-23102177D01*
X59912944Y-23103419D01*
X59889286Y-23104226D01*
X59865190Y-23104665D01*
X59846965Y-23104860D01*
X59830071Y-23104960D01*
X59815281Y-23104966D01*
X59803367Y-23104880D01*
X59795103Y-23104704D01*
X59791530Y-23104485D01*
X59785642Y-23103741D01*
X59776310Y-23102630D01*
X59765138Y-23101341D01*
X59759780Y-23100735D01*
X59704003Y-23092047D01*
X59648007Y-23078574D01*
X59592401Y-23060545D01*
X59537794Y-23038188D01*
X59484797Y-23011731D01*
X59434019Y-22981401D01*
X59425770Y-22975955D01*
X59395798Y-22955098D01*
X59369044Y-22934653D01*
X59343942Y-22913317D01*
X59318927Y-22889790D01*
X59303718Y-22874501D01*
X59261520Y-22827656D01*
X59223616Y-22778179D01*
X59190086Y-22726236D01*
X59161014Y-22671994D01*
X59136482Y-22615618D01*
X59116574Y-22557274D01*
X59101371Y-22497129D01*
X59093187Y-22451477D01*
X59091980Y-22442261D01*
X59090577Y-22429810D01*
X59089087Y-22415307D01*
X59087618Y-22399937D01*
X59086281Y-22384885D01*
X59085185Y-22371334D01*
X59084438Y-22360470D01*
X59084150Y-22353505D01*
X59086602Y-22353107D01*
X59093621Y-22352738D01*
X59104692Y-22352405D01*
X59119304Y-22352119D01*
X59136941Y-22351886D01*
X59157091Y-22351717D01*
X59179241Y-22351620D01*
X59195519Y-22351600D01*
X59306899Y-22351600D01*
X59308402Y-22385255D01*
G36*
X59876209Y-21421115D02*
G01*
X59897949Y-21421898D01*
X59916476Y-21423135D01*
X59924880Y-21424013D01*
X59986536Y-21434111D01*
X60046482Y-21448858D01*
X60104502Y-21468120D01*
X60160380Y-21491760D01*
X60213901Y-21519642D01*
X60264850Y-21551632D01*
X60313012Y-21587592D01*
X60358171Y-21627388D01*
X60400111Y-21670884D01*
X60438617Y-21717944D01*
X60473475Y-21768433D01*
X60474753Y-21770462D01*
X60480950Y-21780604D01*
X60485873Y-21789176D01*
X60489032Y-21795284D01*
X60489933Y-21798034D01*
X60489927Y-21798046D01*
X60487616Y-21799794D01*
X60481584Y-21803936D01*
X60472376Y-21810116D01*
X60460541Y-21817976D01*
X60446627Y-21827159D01*
X60431181Y-21837308D01*
X60414750Y-21848066D01*
X60397883Y-21859075D01*
X60381127Y-21869979D01*
X60365029Y-21880419D01*
X60350138Y-21890039D01*
X60337000Y-21898482D01*
X60326165Y-21905390D01*
X60318178Y-21910407D01*
X60313588Y-21913174D01*
X60312794Y-21913584D01*
X60309968Y-21912718D01*
X60305905Y-21908095D01*
X60300305Y-21899339D01*
X60297184Y-21893914D01*
X60280089Y-21866428D01*
X60259427Y-21838002D01*
X60236229Y-21809852D01*
X60211528Y-21783197D01*
X60186356Y-21759254D01*
X60174480Y-21749140D01*
X60133846Y-21719172D01*
X60090247Y-21693127D01*
X60044196Y-21671226D01*
X59996208Y-21653690D01*
X59946797Y-21640740D01*
X59906452Y-21633813D01*
X59884946Y-21631768D01*
X59860221Y-21630722D01*
X59833760Y-21630637D01*
X59807045Y-21631480D01*
X59781557Y-21633214D01*
X59758779Y-21635804D01*
X59747826Y-21637603D01*
X59697286Y-21649608D01*
X59648775Y-21666099D01*
X59602534Y-21686857D01*
X59558804Y-21711666D01*
X59517826Y-21740308D01*
X59479841Y-21772566D01*
X59445090Y-21808223D01*
X59413814Y-21847062D01*
X59386252Y-21888864D01*
X59362648Y-21933413D01*
X59343240Y-21980492D01*
X59333199Y-22011621D01*
X59322556Y-22056052D01*
X59315928Y-22102105D01*
X59313432Y-22140145D01*
X59312028Y-22181420D01*
X59091031Y-22181420D01*
X59092507Y-22136335D01*
X59096951Y-22076765D01*
X59106239Y-22018219D01*
X59120196Y-21960945D01*
X59138643Y-21905192D01*
X59161405Y-21851206D01*
X59188306Y-21799239D01*
X59219168Y-21749537D01*
X59253816Y-21702349D01*
X59292073Y-21657923D01*
X59333762Y-21616510D01*
X59378708Y-21578355D01*
X59426733Y-21543709D01*
X59477661Y-21512820D01*
X59531316Y-21485936D01*
X59564200Y-21472046D01*
X59617077Y-21453465D01*
X59671789Y-21438763D01*
X59729205Y-21427716D01*
X59744540Y-21425434D01*
X59760719Y-21423688D01*
X59780782Y-21422339D01*
X59803544Y-21421399D01*
X59827825Y-21420875D01*
X59852441Y-21420777D01*
X59876209Y-21421115D01*
G37*
X59876209Y-21421115D02*
X59897949Y-21421898D01*
X59916476Y-21423135D01*
X59924880Y-21424013D01*
X59986536Y-21434111D01*
X60046482Y-21448858D01*
X60104502Y-21468120D01*
X60160380Y-21491760D01*
X60213901Y-21519642D01*
X60264850Y-21551632D01*
X60313012Y-21587592D01*
X60358171Y-21627388D01*
X60400111Y-21670884D01*
X60438617Y-21717944D01*
X60473475Y-21768433D01*
X60474753Y-21770462D01*
X60480950Y-21780604D01*
X60485873Y-21789176D01*
X60489032Y-21795284D01*
X60489933Y-21798034D01*
X60489927Y-21798046D01*
X60487616Y-21799794D01*
X60481584Y-21803936D01*
X60472376Y-21810116D01*
X60460541Y-21817976D01*
X60446627Y-21827159D01*
X60431181Y-21837308D01*
X60414750Y-21848066D01*
X60397883Y-21859075D01*
X60381127Y-21869979D01*
X60365029Y-21880419D01*
X60350138Y-21890039D01*
X60337000Y-21898482D01*
X60326165Y-21905390D01*
X60318178Y-21910407D01*
X60313588Y-21913174D01*
X60312794Y-21913584D01*
X60309968Y-21912718D01*
X60305905Y-21908095D01*
X60300305Y-21899339D01*
X60297184Y-21893914D01*
X60280089Y-21866428D01*
X60259427Y-21838002D01*
X60236229Y-21809852D01*
X60211528Y-21783197D01*
X60186356Y-21759254D01*
X60174480Y-21749140D01*
X60133846Y-21719172D01*
X60090247Y-21693127D01*
X60044196Y-21671226D01*
X59996208Y-21653690D01*
X59946797Y-21640740D01*
X59906452Y-21633813D01*
X59884946Y-21631768D01*
X59860221Y-21630722D01*
X59833760Y-21630637D01*
X59807045Y-21631480D01*
X59781557Y-21633214D01*
X59758779Y-21635804D01*
X59747826Y-21637603D01*
X59697286Y-21649608D01*
X59648775Y-21666099D01*
X59602534Y-21686857D01*
X59558804Y-21711666D01*
X59517826Y-21740308D01*
X59479841Y-21772566D01*
X59445090Y-21808223D01*
X59413814Y-21847062D01*
X59386252Y-21888864D01*
X59362648Y-21933413D01*
X59343240Y-21980492D01*
X59333199Y-22011621D01*
X59322556Y-22056052D01*
X59315928Y-22102105D01*
X59313432Y-22140145D01*
X59312028Y-22181420D01*
X59091031Y-22181420D01*
X59092507Y-22136335D01*
X59096951Y-22076765D01*
X59106239Y-22018219D01*
X59120196Y-21960945D01*
X59138643Y-21905192D01*
X59161405Y-21851206D01*
X59188306Y-21799239D01*
X59219168Y-21749537D01*
X59253816Y-21702349D01*
X59292073Y-21657923D01*
X59333762Y-21616510D01*
X59378708Y-21578355D01*
X59426733Y-21543709D01*
X59477661Y-21512820D01*
X59531316Y-21485936D01*
X59564200Y-21472046D01*
X59617077Y-21453465D01*
X59671789Y-21438763D01*
X59729205Y-21427716D01*
X59744540Y-21425434D01*
X59760719Y-21423688D01*
X59780782Y-21422339D01*
X59803544Y-21421399D01*
X59827825Y-21420875D01*
X59852441Y-21420777D01*
X59876209Y-21421115D01*
G36*
X56211400Y-22702120D02*
G01*
X55990420Y-22702120D01*
X55990420Y-21427040D01*
X56211400Y-21427040D01*
X56211400Y-22702120D01*
G37*
X56211400Y-22702120D02*
X55990420Y-22702120D01*
X55990420Y-21427040D01*
X56211400Y-21427040D01*
X56211400Y-22702120D01*
G36*
X58682820Y-23103440D02*
G01*
X57590620Y-23103440D01*
X57590620Y-22879920D01*
X58682820Y-22879920D01*
X58682820Y-23103440D01*
G37*
X58682820Y-23103440D02*
X57590620Y-23103440D01*
X57590620Y-22879920D01*
X58682820Y-22879920D01*
X58682820Y-23103440D01*
G36*
X62868740Y-23095820D02*
G01*
X62647760Y-23095820D01*
X62647760Y-21424500D01*
X62868740Y-21424500D01*
X62868740Y-23095820D01*
G37*
X62868740Y-23095820D02*
X62647760Y-23095820D01*
X62647760Y-21424500D01*
X62868740Y-21424500D01*
X62868740Y-23095820D01*
G36*
X57138500Y-23103440D02*
G01*
X55990420Y-23103440D01*
X55990420Y-22879920D01*
X57138500Y-22879920D01*
X57138500Y-23103440D01*
G37*
X57138500Y-23103440D02*
X55990420Y-23103440D01*
X55990420Y-22879920D01*
X57138500Y-22879920D01*
X57138500Y-23103440D01*
G36*
X61621600Y-23095820D02*
G01*
X61400620Y-23095820D01*
X61400620Y-21813120D01*
X61621600Y-21813120D01*
X61621600Y-23095820D01*
G37*
X61621600Y-23095820D02*
X61400620Y-23095820D01*
X61400620Y-21813120D01*
X61621600Y-21813120D01*
X61621600Y-23095820D01*
G36*
X62200720Y-21645480D02*
G01*
X60831660Y-21645480D01*
X60831660Y-21424500D01*
X62200720Y-21424500D01*
X62200720Y-21645480D01*
G37*
X62200720Y-21645480D02*
X60831660Y-21645480D01*
X60831660Y-21424500D01*
X62200720Y-21424500D01*
X62200720Y-21645480D01*
G04 #@! TD*
D11*
G04 #@! TO.P,C1,1*
G04 #@! TO.N,+5V*
X76500000Y-36212500D03*
G04 #@! TO.P,C1,2*
G04 #@! TO.N,GND*
X76500000Y-37787500D03*
G04 #@! TD*
D12*
G04 #@! TO.P,C2,1*
G04 #@! TO.N,Net-(C2-Pad1)*
X68000000Y-30700000D03*
G04 #@! TO.P,C2,2*
G04 #@! TO.N,GND*
X68000000Y-26300000D03*
G04 #@! TD*
D13*
G04 #@! TO.P,C3,1*
G04 #@! TO.N,Net-(C2-Pad1)*
X73000000Y-30787500D03*
G04 #@! TO.P,C3,2*
G04 #@! TO.N,GND*
X73000000Y-29212500D03*
G04 #@! TD*
G04 #@! TO.P,C4,1*
G04 #@! TO.N,+5V*
X82000000Y-30787500D03*
G04 #@! TO.P,C4,2*
G04 #@! TO.N,GND*
X82000000Y-29212500D03*
G04 #@! TD*
D12*
G04 #@! TO.P,C5,1*
G04 #@! TO.N,+5V*
X87000000Y-29200000D03*
G04 #@! TO.P,C5,2*
G04 #@! TO.N,GND*
X87000000Y-24800000D03*
G04 #@! TD*
D14*
G04 #@! TO.P,D1,1*
G04 #@! TO.N,Net-(C2-Pad1)*
X63075000Y-29770000D03*
G04 #@! TO.P,D1,2*
G04 #@! TO.N,GND*
X63075000Y-27230000D03*
G04 #@! TO.P,D1,3*
G04 #@! TO.N,Net-(D1-Pad3)*
X56925000Y-27230000D03*
G04 #@! TO.P,D1,4*
G04 #@! TO.N,Net-(D1-Pad4)*
X56925000Y-29770000D03*
G04 #@! TD*
D13*
G04 #@! TO.P,D2,1*
G04 #@! TO.N,Net-(D2-Pad1)*
X88500000Y-36575000D03*
G04 #@! TO.P,D2,2*
G04 #@! TO.N,+5V*
X88500000Y-35000000D03*
G04 #@! TD*
D15*
G04 #@! TO.P,D3,1*
G04 #@! TO.N,+5V*
X91500000Y-34000000D03*
G04 #@! TO.P,D3,2*
G04 #@! TO.N,Net-(D3-Pad2)*
X91500000Y-38000000D03*
G04 #@! TD*
D16*
G04 #@! TO.P,J1,1*
G04 #@! TO.N,Net-(D1-Pad3)*
X51500000Y-24000000D03*
D17*
G04 #@! TO.P,J1,2*
G04 #@! TO.N,Net-(D1-Pad4)*
X51500000Y-29080000D03*
G04 #@! TD*
D16*
G04 #@! TO.P,J3,1*
G04 #@! TO.N,/T1*
X111760000Y-25400000D03*
D17*
G04 #@! TO.P,J3,2*
G04 #@! TO.N,/R1*
X106680000Y-25400000D03*
G04 #@! TO.P,J3,3*
G04 #@! TO.N,/C1*
X101600000Y-25400000D03*
G04 #@! TD*
D18*
G04 #@! TO.P,K1,1*
G04 #@! TO.N,+5V*
X95500000Y-32380000D03*
G04 #@! TO.P,K1,4*
G04 #@! TO.N,/C1*
X103120000Y-32380000D03*
G04 #@! TO.P,K1,6*
G04 #@! TO.N,/R1*
X108200000Y-32380000D03*
G04 #@! TO.P,K1,8*
G04 #@! TO.N,/T1*
X113280000Y-32380000D03*
G04 #@! TO.P,K1,9*
G04 #@! TO.N,/T2*
X113280000Y-40000000D03*
G04 #@! TO.P,K1,11*
G04 #@! TO.N,/R2*
X108200000Y-40000000D03*
G04 #@! TO.P,K1,13*
G04 #@! TO.N,/C2*
X103120000Y-40000000D03*
D19*
G04 #@! TO.P,K1,16*
G04 #@! TO.N,Net-(D3-Pad2)*
X95500000Y-40000000D03*
G04 #@! TD*
D20*
G04 #@! TO.P,Q1,1*
G04 #@! TO.N,Net-(Q1-Pad1)*
X90550000Y-43000000D03*
G04 #@! TO.P,Q1,2*
G04 #@! TO.N,GND*
X92450000Y-43000000D03*
G04 #@! TO.P,Q1,3*
G04 #@! TO.N,Net-(D3-Pad2)*
X91500000Y-41000000D03*
G04 #@! TD*
D21*
G04 #@! TO.P,Q2,1*
G04 #@! TO.N,Net-(Q2-Pad1)*
X78000000Y-38050000D03*
G04 #@! TO.P,Q2,2*
G04 #@! TO.N,GND*
X78000000Y-39950000D03*
G04 #@! TO.P,Q2,3*
G04 #@! TO.N,Net-(J5-Pad2)*
X80000000Y-39000000D03*
G04 #@! TD*
D22*
G04 #@! TO.P,R1,1*
G04 #@! TO.N,+5V*
X73250000Y-32500000D03*
G04 #@! TO.P,R1,2*
G04 #@! TO.N,/nRS*
X71675000Y-32500000D03*
G04 #@! TD*
D11*
G04 #@! TO.P,R2,1*
G04 #@! TO.N,Net-(Q1-Pad1)*
X90500000Y-44500000D03*
G04 #@! TO.P,R2,2*
G04 #@! TO.N,/RELAY*
X90500000Y-46075000D03*
G04 #@! TD*
D13*
G04 #@! TO.P,R3,1*
G04 #@! TO.N,Net-(Q2-Pad1)*
X78000000Y-35787500D03*
G04 #@! TO.P,R3,2*
G04 #@! TO.N,/MOSI-IR_LED*
X78000000Y-34212500D03*
G04 #@! TD*
G04 #@! TO.P,R4,1*
G04 #@! TO.N,Net-(Q3-Pad1)*
X58000000Y-35787500D03*
G04 #@! TO.P,R4,2*
G04 #@! TO.N,/IR_LED_2*
X58000000Y-34212500D03*
G04 #@! TD*
G04 #@! TO.P,R5,1*
G04 #@! TO.N,Net-(D3-Pad2)*
X88500000Y-39787500D03*
G04 #@! TO.P,R5,2*
G04 #@! TO.N,Net-(D2-Pad1)*
X88500000Y-38212500D03*
G04 #@! TD*
D11*
G04 #@! TO.P,R6,1*
G04 #@! TO.N,+5V*
X80000000Y-34212500D03*
G04 #@! TO.P,R6,2*
G04 #@! TO.N,Net-(J5-Pad1)*
X80000000Y-35787500D03*
G04 #@! TD*
G04 #@! TO.P,R7,1*
G04 #@! TO.N,+5V*
X60000000Y-34212500D03*
G04 #@! TO.P,R7,2*
G04 #@! TO.N,Net-(J6-Pad1)*
X60000000Y-35787500D03*
G04 #@! TD*
G04 #@! TO.P,R8,1*
G04 #@! TO.N,GND*
X85250000Y-38462500D03*
G04 #@! TO.P,R8,2*
G04 #@! TO.N,Net-(J5-Pad3)*
X85250000Y-40037500D03*
G04 #@! TD*
G04 #@! TO.P,R9,1*
G04 #@! TO.N,GND*
X49200000Y-45425000D03*
G04 #@! TO.P,R9,2*
G04 #@! TO.N,Net-(J6-Pad3)*
X49200000Y-47000000D03*
G04 #@! TD*
D23*
G04 #@! TO.P,RV1,1*
G04 #@! TO.N,/IR_SENSOR*
X84000000Y-33200000D03*
D24*
G04 #@! TO.P,RV1,2*
X83000000Y-36450000D03*
D23*
G04 #@! TO.P,RV1,3*
G04 #@! TO.N,+5V*
X82000000Y-33200000D03*
G04 #@! TD*
G04 #@! TO.P,RV2,1*
G04 #@! TO.N,/IR_SENSOR_2*
X64000000Y-33200000D03*
D24*
G04 #@! TO.P,RV2,2*
X63000000Y-36450000D03*
D23*
G04 #@! TO.P,RV2,3*
G04 #@! TO.N,+5V*
X62000000Y-33200000D03*
G04 #@! TD*
D25*
G04 #@! TO.P,U2,1*
G04 #@! TO.N,Net-(C2-Pad1)*
X75245000Y-30975000D03*
D26*
G04 #@! TO.P,U2,2*
G04 #@! TO.N,GND*
X77525000Y-24675000D03*
D25*
G04 #@! TO.P,U2,3*
G04 #@! TO.N,+5V*
X79805000Y-30975000D03*
G04 #@! TD*
D21*
G04 #@! TO.P,Q3,1*
G04 #@! TO.N,Net-(Q3-Pad1)*
X58000000Y-38050000D03*
G04 #@! TO.P,Q3,2*
G04 #@! TO.N,GND*
X58000000Y-39950000D03*
G04 #@! TO.P,Q3,3*
G04 #@! TO.N,Net-(J6-Pad2)*
X60000000Y-39000000D03*
G04 #@! TD*
D27*
G04 #@! TO.P,J6,1*
G04 #@! TO.N,Net-(J6-Pad1)*
X56000000Y-47000000D03*
D28*
G04 #@! TO.P,J6,2*
G04 #@! TO.N,Net-(J6-Pad2)*
X56000000Y-44460000D03*
G04 #@! TO.P,J6,3*
G04 #@! TO.N,Net-(J6-Pad3)*
X58540000Y-47000000D03*
G04 #@! TO.P,J6,4*
G04 #@! TO.N,/IR_SENSOR_2*
X58540000Y-44460000D03*
G04 #@! TO.P,J6,5*
G04 #@! TO.N,/MODE_SENSOR_2*
X61080000Y-47000000D03*
G04 #@! TO.P,J6,6*
G04 #@! TO.N,GND*
X61080000Y-44460000D03*
G04 #@! TD*
D27*
G04 #@! TO.P,J5,1*
G04 #@! TO.N,Net-(J5-Pad1)*
X79000000Y-47000000D03*
D28*
G04 #@! TO.P,J5,2*
G04 #@! TO.N,Net-(J5-Pad2)*
X79000000Y-44460000D03*
G04 #@! TO.P,J5,3*
G04 #@! TO.N,Net-(J5-Pad3)*
X81540000Y-47000000D03*
G04 #@! TO.P,J5,4*
G04 #@! TO.N,/IR_SENSOR*
X81540000Y-44460000D03*
G04 #@! TO.P,J5,5*
G04 #@! TO.N,/MODE_SENSOR_1*
X84080000Y-47000000D03*
G04 #@! TO.P,J5,6*
G04 #@! TO.N,GND*
X84080000Y-44460000D03*
G04 #@! TD*
D29*
G04 #@! TO.P,U1,1*
G04 #@! TO.N,+5V*
X74810000Y-34525000D03*
G04 #@! TO.P,U1,2*
G04 #@! TO.N,Net-(TP1-Pad1)*
X73540000Y-34525000D03*
G04 #@! TO.P,U1,3*
G04 #@! TO.N,Net-(TP2-Pad1)*
X72270000Y-34525000D03*
G04 #@! TO.P,U1,4*
G04 #@! TO.N,/nRS*
X71000000Y-34525000D03*
G04 #@! TO.P,U1,5*
G04 #@! TO.N,/IR_LED_2*
X69730000Y-34525000D03*
G04 #@! TO.P,U1,6*
G04 #@! TO.N,/IR_SENSOR_2*
X68460000Y-34525000D03*
G04 #@! TO.P,U1,7*
G04 #@! TO.N,/MOSI-IR_LED*
X67190000Y-34525000D03*
G04 #@! TO.P,U1,8*
G04 #@! TO.N,/MISO*
X67190000Y-39475000D03*
G04 #@! TO.P,U1,9*
G04 #@! TO.N,/SCK*
X68460000Y-39475000D03*
G04 #@! TO.P,U1,10*
G04 #@! TO.N,/RELAY*
X69730000Y-39475000D03*
G04 #@! TO.P,U1,11*
G04 #@! TO.N,/IR_SENSOR*
X71000000Y-39475000D03*
G04 #@! TO.P,U1,12*
G04 #@! TO.N,/MODE_SENSOR_2*
X72270000Y-39475000D03*
G04 #@! TO.P,U1,13*
G04 #@! TO.N,/MODE_SENSOR_1*
X73540000Y-39475000D03*
G04 #@! TO.P,U1,14*
G04 #@! TO.N,GND*
X74810000Y-39475000D03*
G04 #@! TD*
D16*
G04 #@! TO.P,J4,1*
G04 #@! TO.N,/C2*
X101600000Y-46609000D03*
D17*
G04 #@! TO.P,J4,2*
G04 #@! TO.N,/R2*
X106680000Y-46609000D03*
G04 #@! TO.P,J4,3*
G04 #@! TO.N,/T2*
X111760000Y-46609000D03*
G04 #@! TD*
D30*
G04 #@! TO.N,GND*
X77500000Y-25000000D03*
X88250000Y-41250000D03*
X88000000Y-44000000D03*
X70000000Y-27500000D03*
X92500000Y-30000000D03*
X55000000Y-50000000D03*
X95000000Y-30000000D03*
X85000000Y-22500000D03*
X65000000Y-25000000D03*
X77500000Y-27500000D03*
X64250000Y-45750000D03*
X72500000Y-47500000D03*
X90000000Y-25000000D03*
X50000000Y-32500000D03*
X57500000Y-50000000D03*
X90000000Y-30750000D03*
X52500000Y-50000000D03*
X77500000Y-22500000D03*
X52500000Y-47500000D03*
X82500000Y-22500000D03*
X64500000Y-38750000D03*
X55000000Y-35000000D03*
X77000000Y-31000000D03*
X55000000Y-37500000D03*
X80000000Y-22500000D03*
X77750000Y-42250000D03*
X67500000Y-50000000D03*
X55000000Y-42500000D03*
X80000000Y-25000000D03*
X70000000Y-50000000D03*
X75000000Y-25000000D03*
X65000000Y-45000000D03*
X95000000Y-37500000D03*
X78000000Y-31000000D03*
X65000000Y-50000000D03*
X67500000Y-45000000D03*
X77000000Y-47000000D03*
X88000000Y-46000000D03*
X82500000Y-25000000D03*
X60000000Y-27500000D03*
X60000000Y-25000000D03*
X72750000Y-42500000D03*
X90000000Y-22500000D03*
X95000000Y-35000000D03*
X88250000Y-47750000D03*
X62000000Y-42250000D03*
X52500000Y-32500000D03*
X82500000Y-42500000D03*
X87000000Y-34000000D03*
X80000000Y-27500000D03*
X60000000Y-50000000D03*
X62500000Y-25000000D03*
X85250000Y-31500000D03*
X60000000Y-30000000D03*
X95000000Y-42500000D03*
X85000000Y-27500000D03*
X87000000Y-38750000D03*
X67500000Y-37500000D03*
X92500000Y-22500000D03*
X65500000Y-33000000D03*
X55000000Y-32500000D03*
X50000000Y-42500000D03*
X64500000Y-40000000D03*
X90000000Y-50000000D03*
X52500000Y-45000000D03*
X50000000Y-50000000D03*
X63500000Y-41000000D03*
X57500000Y-25000000D03*
X73250000Y-45000000D03*
X75000000Y-22500000D03*
X85000000Y-25000000D03*
X72500000Y-25000000D03*
X62500000Y-50000000D03*
X55000000Y-40000000D03*
X52500000Y-42500000D03*
X70000000Y-25000000D03*
X75000000Y-42250000D03*
X75000000Y-47000000D03*
X77000000Y-45000000D03*
X77500000Y-30000000D03*
X87500000Y-32500000D03*
X86000000Y-37000000D03*
X65000000Y-27500000D03*
X85000000Y-42500000D03*
X75000000Y-27500000D03*
X65000000Y-37500000D03*
X90000000Y-27500000D03*
G04 #@! TO.N,+5V*
X76500000Y-34500000D03*
X66500000Y-32500000D03*
X76950000Y-32800000D03*
G04 #@! TO.N,/MOSI-IR_LED*
X66000000Y-35000000D03*
X79000000Y-37000000D03*
G04 #@! TO.N,/IR_SENSOR*
X83000000Y-35000000D03*
X70700000Y-43750000D03*
G04 #@! TO.N,/nRS*
X70500000Y-36750000D03*
G04 #@! TO.N,/SCK*
X68500000Y-41250000D03*
G04 #@! TO.N,/MISO*
X67000000Y-41250000D03*
G04 #@! TO.N,/MODE_SENSOR_2*
X70500000Y-46750000D03*
G04 #@! TO.N,/IR_SENSOR_2*
X63000000Y-38250000D03*
G04 #@! TO.N,/IR_LED_2*
X69250000Y-36500000D03*
X56750000Y-35000000D03*
G04 #@! TO.N,Net-(TP1-Pad1)*
X73500000Y-36750000D03*
G04 #@! TO.N,Net-(TP2-Pad1)*
X72250000Y-36500000D03*
G04 #@! TD*
D31*
G04 #@! TO.N,GND*
X76500000Y-37787500D02*
X76500000Y-39000000D01*
X76000000Y-39500000D02*
X74750000Y-39500000D01*
X76500000Y-39000000D02*
X76000000Y-39500000D01*
G04 #@! TO.N,+5V*
X80000000Y-32800000D02*
X80400000Y-33200000D01*
X88500000Y-35000000D02*
X88500000Y-34200000D01*
X80400000Y-33200000D02*
X81900000Y-33200000D01*
X62500000Y-30900000D02*
X65000000Y-30900000D01*
X61687500Y-33212500D02*
X61900000Y-33000000D01*
X88700000Y-34000000D02*
X91400000Y-34000000D01*
X76950000Y-32800000D02*
X76500000Y-33250000D01*
X80000000Y-32800000D02*
X76950000Y-32800000D01*
D32*
X95600000Y-32400000D02*
X95500000Y-32400000D01*
X81925000Y-30975000D02*
X82000000Y-30900000D01*
X91000000Y-29200000D02*
X91500000Y-29700000D01*
D31*
X65000000Y-30900000D02*
X66500000Y-32400000D01*
X73250000Y-32500000D02*
X74000000Y-32500000D01*
X66500000Y-32400000D02*
X66500000Y-32500000D01*
X74000000Y-32500000D02*
X74250000Y-32750000D01*
D32*
X87000000Y-29200000D02*
X91000000Y-29200000D01*
X79805000Y-30975000D02*
X81925000Y-30975000D01*
D31*
X60000000Y-33212500D02*
X61687500Y-33212500D01*
X76500000Y-34500000D02*
X76500000Y-36250000D01*
D32*
X85400000Y-29200000D02*
X87000000Y-29200000D01*
D31*
X80000000Y-33600000D02*
X80400000Y-33200000D01*
D32*
X83700000Y-30900000D02*
X85400000Y-29200000D01*
D31*
X76500000Y-33250000D02*
X76500000Y-34500000D01*
X88500000Y-34200000D02*
X88700000Y-34000000D01*
X74750000Y-33250000D02*
X74750000Y-34500000D01*
X76475000Y-34525000D02*
X76500000Y-34500000D01*
D32*
X82000000Y-30900000D02*
X83700000Y-30900000D01*
D31*
X74810000Y-34525000D02*
X76475000Y-34525000D01*
D32*
X91500000Y-34000000D02*
X93600000Y-34000000D01*
D31*
X60000000Y-33212500D02*
X60000000Y-34187490D01*
X61900000Y-31500000D02*
X62500000Y-30900000D01*
X80000000Y-34212500D02*
X80000000Y-33600000D01*
X61900000Y-33000000D02*
X61900000Y-31500000D01*
X82000000Y-33200000D02*
X82000000Y-31100000D01*
D32*
X93600000Y-34000000D02*
X95200000Y-32400000D01*
D31*
X74250000Y-32750000D02*
X74750000Y-33250000D01*
D32*
X95200000Y-32400000D02*
X95600000Y-32400000D01*
X91500000Y-29700000D02*
X91500000Y-34000000D01*
G04 #@! TO.N,Net-(C2-Pad1)*
X67100000Y-31400000D02*
X68600000Y-31400000D01*
X65470000Y-29770000D02*
X67100000Y-31400000D01*
X75100000Y-30800000D02*
X75200000Y-30900000D01*
X70400000Y-31400000D02*
X71000000Y-30800000D01*
X71000000Y-30800000D02*
X75100000Y-30800000D01*
X68600000Y-31400000D02*
X70400000Y-31400000D01*
X63075000Y-29770000D02*
X65470000Y-29770000D01*
G04 #@! TO.N,Net-(D1-Pad4)*
X56925000Y-29770000D02*
X54870000Y-29770000D01*
X54200000Y-29100000D02*
X51500000Y-29100000D01*
X54870000Y-29770000D02*
X54200000Y-29100000D01*
G04 #@! TO.N,Net-(D1-Pad3)*
X51500000Y-24000000D02*
X53500000Y-24000000D01*
X56925000Y-27230000D02*
X55830000Y-27230000D01*
X55830000Y-27230000D02*
X54500000Y-25900000D01*
X53500000Y-24000000D02*
X54500000Y-25000000D01*
X54500000Y-25000000D02*
X54500000Y-25900000D01*
D31*
G04 #@! TO.N,Net-(D2-Pad1)*
X88500000Y-36575000D02*
X88500000Y-38100000D01*
D32*
G04 #@! TO.N,Net-(D3-Pad2)*
X91500000Y-39900000D02*
X91500000Y-41000000D01*
D31*
X91387500Y-39787500D02*
X91500000Y-39900000D01*
D32*
X93000000Y-38000000D02*
X91500000Y-38000000D01*
X91500000Y-38000000D02*
X91500000Y-39900000D01*
X94400000Y-40000000D02*
X93500000Y-39100000D01*
X95500000Y-40000000D02*
X94400000Y-40000000D01*
X93500000Y-38500000D02*
X93000000Y-38000000D01*
D31*
X88500000Y-39787500D02*
X91387500Y-39787500D01*
D32*
X93500000Y-39100000D02*
X93500000Y-38500000D01*
D31*
G04 #@! TO.N,/MOSI-IR_LED*
X66475000Y-34525000D02*
X66000000Y-35000000D01*
X79000000Y-34250000D02*
X78000000Y-34250000D01*
X67190000Y-34525000D02*
X66475000Y-34525000D01*
X79000000Y-37000000D02*
X79000000Y-34250000D01*
G04 #@! TO.N,Net-(Q1-Pad1)*
X90500000Y-43100000D02*
X90600000Y-43000000D01*
X90500000Y-44500000D02*
X90500000Y-43100000D01*
G04 #@! TO.N,Net-(Q2-Pad1)*
X78000000Y-35787500D02*
X78000000Y-38100000D01*
G04 #@! TO.N,Net-(Q3-Pad1)*
X58000000Y-35787500D02*
X58000000Y-38000000D01*
G04 #@! TO.N,/RELAY*
X69699999Y-47134001D02*
X72565998Y-50000000D01*
X69730000Y-39475000D02*
X69730000Y-41980000D01*
X88000000Y-50000000D02*
X90500000Y-47500000D01*
X69730000Y-41980000D02*
X69699999Y-42010001D01*
X72565998Y-50000000D02*
X88000000Y-50000000D01*
X69699999Y-42010001D02*
X69699999Y-47134001D01*
X90500000Y-47500000D02*
X90500000Y-46000000D01*
G04 #@! TO.N,/IR_SENSOR*
X84000000Y-34000000D02*
X83000000Y-35000000D01*
X83000000Y-36500000D02*
X83000000Y-37600000D01*
X70700000Y-42201458D02*
X71000000Y-41901458D01*
X81500000Y-39100000D02*
X81500000Y-44500000D01*
X84000000Y-33200000D02*
X84000000Y-34000000D01*
X83000000Y-37600000D02*
X81500000Y-39100000D01*
X83000000Y-35000000D02*
X83000000Y-36500000D01*
X71000000Y-39475000D02*
X71000000Y-41500000D01*
X71000000Y-41500000D02*
X71000000Y-41901458D01*
X70700000Y-43750000D02*
X70700000Y-42201458D01*
G04 #@! TO.N,Net-(J5-Pad3)*
X82803601Y-45736399D02*
X84986399Y-45736399D01*
X86400000Y-39900000D02*
X87000000Y-40500000D01*
X87000000Y-43722798D02*
X87000000Y-40500000D01*
X81540000Y-47000000D02*
X82803601Y-45736399D01*
X84986399Y-45736399D02*
X87000000Y-43722798D01*
X85200000Y-39900000D02*
X86400000Y-39900000D01*
G04 #@! TO.N,Net-(J5-Pad2)*
X80000000Y-39000000D02*
X80000000Y-43500000D01*
X80000000Y-43500000D02*
X79000000Y-44500000D01*
D33*
G04 #@! TO.N,Net-(J5-Pad1)*
X80000000Y-35787500D02*
X80000000Y-36600000D01*
X80800001Y-37400001D02*
X80800001Y-41599999D01*
X80800001Y-41599999D02*
X80600000Y-41800000D01*
X80213601Y-44064230D02*
X80213601Y-45786399D01*
X80000000Y-36600000D02*
X80800001Y-37400001D01*
X80213601Y-45786399D02*
X79000000Y-47000000D01*
X80600000Y-43677831D02*
X80213601Y-44064230D01*
X80600000Y-41800000D02*
X80600000Y-43677831D01*
D31*
G04 #@! TO.N,Net-(J6-Pad3)*
X49200000Y-48300000D02*
X50100000Y-49200000D01*
X58000000Y-49200000D02*
X58500000Y-48700000D01*
X50100000Y-49200000D02*
X58000000Y-49200000D01*
X49200000Y-47000000D02*
X49200000Y-48300000D01*
X58500000Y-48700000D02*
X58500000Y-47000000D01*
G04 #@! TO.N,Net-(J6-Pad2)*
X60000000Y-40300000D02*
X56000000Y-44300000D01*
X60000000Y-39000000D02*
X60000000Y-40300000D01*
G04 #@! TO.N,Net-(J6-Pad1)*
X57263601Y-45736399D02*
X56000000Y-47000000D01*
X61500000Y-39648542D02*
X57263601Y-43884941D01*
X57263601Y-43884941D02*
X57263601Y-45736399D01*
X61500000Y-38000000D02*
X61500000Y-39648542D01*
X60000000Y-36500000D02*
X61500000Y-38000000D01*
X60000000Y-35787500D02*
X60000000Y-36500000D01*
G04 #@! TO.N,/nRS*
X71675000Y-32500000D02*
X71250000Y-32500000D01*
X71250000Y-32500000D02*
X71000000Y-32750000D01*
X71000000Y-34525000D02*
X71000000Y-36250000D01*
X71000000Y-32750000D02*
X71000000Y-34500000D01*
X71000000Y-36250000D02*
X70500000Y-36750000D01*
G04 #@! TO.N,/SCK*
X68460000Y-41210000D02*
X68500000Y-41250000D01*
X68460000Y-39475000D02*
X68460000Y-41210000D01*
G04 #@! TO.N,/MISO*
X67190000Y-39475000D02*
X67190000Y-41060000D01*
X67190000Y-41060000D02*
X67000000Y-41250000D01*
G04 #@! TO.N,/MODE_SENSOR_1*
X73750000Y-41500000D02*
X73750000Y-43250000D01*
X73540000Y-41290000D02*
X73750000Y-41500000D01*
X76000000Y-45500000D02*
X76000000Y-48000000D01*
X76000000Y-48000000D02*
X77000000Y-49000000D01*
X81250000Y-49000000D02*
X82000000Y-49000000D01*
X73540000Y-39475000D02*
X73540000Y-41290000D01*
X82000000Y-49000000D02*
X84000000Y-47000000D01*
X77000000Y-49000000D02*
X81250000Y-49000000D01*
X73750000Y-43250000D02*
X76000000Y-45500000D01*
G04 #@! TO.N,/MODE_SENSOR_2*
X71500000Y-42250000D02*
X72250000Y-41500000D01*
X71500000Y-45750000D02*
X71500000Y-42250000D01*
X70500000Y-46750000D02*
X71500000Y-45750000D01*
X72250000Y-41500000D02*
X72250000Y-39500000D01*
G04 #@! TO.N,/IR_SENSOR_2*
X63000000Y-40000000D02*
X62050000Y-40950000D01*
X68460000Y-34525000D02*
X68460000Y-35790000D01*
X63000000Y-38250000D02*
X63000000Y-40000000D01*
X63000000Y-35450000D02*
X63000000Y-36500000D01*
X63000000Y-38250000D02*
X63000000Y-36500000D01*
X68460000Y-35790000D02*
X67750000Y-36500000D01*
X67750000Y-36500000D02*
X63000000Y-36500000D01*
X63000000Y-35450000D02*
X63000000Y-34600000D01*
X62050000Y-40950000D02*
X58600000Y-44400000D01*
X63000000Y-34600000D02*
X64000000Y-33600000D01*
G04 #@! TO.N,/IR_LED_2*
X57000000Y-34250000D02*
X58000000Y-34250000D01*
X56750000Y-34500000D02*
X57000000Y-34250000D01*
X56750000Y-35000000D02*
X56750000Y-34500000D01*
X69730000Y-34525000D02*
X69730000Y-36020000D01*
X69730000Y-36020000D02*
X69250000Y-36500000D01*
G04 #@! TO.N,Net-(TP1-Pad1)*
X73540000Y-34525000D02*
X73540000Y-36710000D01*
X73540000Y-36710000D02*
X73500000Y-36750000D01*
G04 #@! TO.N,Net-(TP2-Pad1)*
X72270000Y-34525000D02*
X72270000Y-36480000D01*
X72270000Y-36480000D02*
X72250000Y-36500000D01*
G04 #@! TD*
G04 #@! TO.N,GND*
D34*
X55350420Y-22702120D02*
X55356290Y-22761982D01*
X55359108Y-22792944D01*
X55357200Y-22811097D01*
X55350482Y-22870984D01*
X55350452Y-22875299D01*
X55350436Y-22875452D01*
X55350450Y-22875605D01*
X55350420Y-22879920D01*
X55350420Y-23103440D01*
X55356297Y-23163378D01*
X55361756Y-23223364D01*
X55362390Y-23225519D01*
X55362609Y-23227750D01*
X55379994Y-23285331D01*
X55397022Y-23343188D01*
X55398063Y-23345180D01*
X55398711Y-23347325D01*
X55426996Y-23400522D01*
X55454891Y-23453880D01*
X55456294Y-23455625D01*
X55457350Y-23457611D01*
X55495425Y-23504294D01*
X55533157Y-23551225D01*
X55534879Y-23552670D01*
X55536295Y-23554406D01*
X55582624Y-23592733D01*
X55628841Y-23631513D01*
X55630811Y-23632596D01*
X55632537Y-23634024D01*
X55685429Y-23662623D01*
X55738297Y-23691687D01*
X55740440Y-23692367D01*
X55742410Y-23693432D01*
X55799925Y-23711236D01*
X55857357Y-23729454D01*
X55859585Y-23729704D01*
X55861730Y-23730368D01*
X55921597Y-23736660D01*
X55981484Y-23743378D01*
X55985799Y-23743408D01*
X55985952Y-23743424D01*
X55986105Y-23743410D01*
X55990420Y-23743440D01*
X57138500Y-23743440D01*
X57198438Y-23737563D01*
X57258424Y-23732104D01*
X57260579Y-23731470D01*
X57262810Y-23731251D01*
X57320391Y-23713866D01*
X57365620Y-23700555D01*
X57400125Y-23711236D01*
X57457557Y-23729454D01*
X57459785Y-23729704D01*
X57461930Y-23730368D01*
X57521797Y-23736660D01*
X57581684Y-23743378D01*
X57585999Y-23743408D01*
X57586152Y-23743424D01*
X57586305Y-23743410D01*
X57590620Y-23743440D01*
X58682820Y-23743440D01*
X58742758Y-23737563D01*
X58802744Y-23732104D01*
X58804899Y-23731470D01*
X58807130Y-23731251D01*
X58864711Y-23713866D01*
X58922568Y-23696838D01*
X58924560Y-23695797D01*
X58926705Y-23695149D01*
X58979902Y-23666864D01*
X59033260Y-23638969D01*
X59035005Y-23637566D01*
X59036991Y-23636510D01*
X59083674Y-23598435D01*
X59130605Y-23560703D01*
X59132050Y-23558981D01*
X59133786Y-23557565D01*
X59139333Y-23550860D01*
X59156609Y-23561179D01*
X59174433Y-23569586D01*
X59190972Y-23580297D01*
X59198939Y-23584344D01*
X59251936Y-23610801D01*
X59270049Y-23617728D01*
X59287058Y-23627027D01*
X59295304Y-23630470D01*
X59349910Y-23652827D01*
X59368678Y-23658445D01*
X59386530Y-23666530D01*
X59395011Y-23669345D01*
X59450618Y-23687374D01*
X59470491Y-23691730D01*
X59489618Y-23698665D01*
X59498292Y-23700816D01*
X59554287Y-23714289D01*
X59575760Y-23717279D01*
X59596682Y-23722985D01*
X59605502Y-23724422D01*
X59661280Y-23733110D01*
X59670233Y-23733619D01*
X59678981Y-23735615D01*
X59687853Y-23736680D01*
X59692438Y-23737199D01*
X59701786Y-23738277D01*
X59707685Y-23738979D01*
X59711299Y-23739436D01*
X59727491Y-23739889D01*
X59743460Y-23742678D01*
X59752376Y-23743286D01*
X59755949Y-23743505D01*
X59764275Y-23743201D01*
X59772543Y-23744307D01*
X59781476Y-23744559D01*
X59789740Y-23744735D01*
X59789774Y-23744732D01*
X59789812Y-23744737D01*
X59798747Y-23744863D01*
X59810661Y-23744949D01*
X59810812Y-23744935D01*
X59815541Y-23744966D01*
X59830331Y-23744960D01*
X59830477Y-23744946D01*
X59833859Y-23744949D01*
X59850753Y-23744849D01*
X59850896Y-23744834D01*
X59853812Y-23744823D01*
X59872037Y-23744628D01*
X59872187Y-23744612D01*
X59876848Y-23744559D01*
X59900944Y-23744120D01*
X59901554Y-23744049D01*
X59902171Y-23744097D01*
X59911104Y-23743854D01*
X59934763Y-23743047D01*
X59938470Y-23742555D01*
X59942210Y-23742750D01*
X59951134Y-23742279D01*
X59971910Y-23741037D01*
X59978240Y-23740032D01*
X59984644Y-23740148D01*
X59993547Y-23739375D01*
X60012612Y-23737585D01*
X60020162Y-23736122D01*
X60027849Y-23735970D01*
X60036716Y-23734860D01*
X60055236Y-23732410D01*
X60061883Y-23730859D01*
X60068705Y-23730483D01*
X60077527Y-23729061D01*
X60096671Y-23725839D01*
X60100708Y-23724746D01*
X60104876Y-23724403D01*
X60113657Y-23722744D01*
X60134592Y-23718637D01*
X60144494Y-23715666D01*
X60154753Y-23714344D01*
X60163448Y-23712281D01*
X60216984Y-23699186D01*
X60235945Y-23692529D01*
X60255625Y-23688441D01*
X60264137Y-23685718D01*
X60322532Y-23666591D01*
X60342010Y-23658026D01*
X60362436Y-23652038D01*
X60370702Y-23648641D01*
X60427171Y-23624974D01*
X60445736Y-23614961D01*
X60465439Y-23607434D01*
X60473408Y-23603390D01*
X60527693Y-23575361D01*
X60545307Y-23563962D01*
X60564248Y-23554945D01*
X60571871Y-23550281D01*
X60623715Y-23518064D01*
X60640318Y-23505343D01*
X60658436Y-23494885D01*
X60665665Y-23489633D01*
X60714812Y-23453405D01*
X60730369Y-23439400D01*
X60747610Y-23427534D01*
X60754401Y-23421726D01*
X60800593Y-23381662D01*
X60815047Y-23366412D01*
X60820678Y-23361836D01*
X60837196Y-23392902D01*
X60865091Y-23446260D01*
X60866494Y-23448005D01*
X60867550Y-23449991D01*
X60905625Y-23496674D01*
X60943357Y-23543605D01*
X60945079Y-23545050D01*
X60946495Y-23546786D01*
X60992824Y-23585113D01*
X61039041Y-23623893D01*
X61041011Y-23624976D01*
X61042737Y-23626404D01*
X61095629Y-23655003D01*
X61148497Y-23684067D01*
X61150640Y-23684747D01*
X61152610Y-23685812D01*
X61210125Y-23703616D01*
X61267557Y-23721834D01*
X61269785Y-23722084D01*
X61271930Y-23722748D01*
X61331797Y-23729040D01*
X61391684Y-23735758D01*
X61395999Y-23735788D01*
X61396152Y-23735804D01*
X61396305Y-23735790D01*
X61400620Y-23735820D01*
X61621600Y-23735820D01*
X61681538Y-23729943D01*
X61741524Y-23724484D01*
X61743679Y-23723850D01*
X61745910Y-23723631D01*
X61803491Y-23706246D01*
X61861348Y-23689218D01*
X61863340Y-23688177D01*
X61865485Y-23687529D01*
X61918682Y-23659244D01*
X61972040Y-23631349D01*
X61973785Y-23629946D01*
X61975771Y-23628890D01*
X62022454Y-23590815D01*
X62069385Y-23553083D01*
X62070830Y-23551361D01*
X62072566Y-23549945D01*
X62110893Y-23503616D01*
X62134997Y-23474889D01*
X62152765Y-23496674D01*
X62190497Y-23543605D01*
X62192219Y-23545050D01*
X62193635Y-23546786D01*
X62239964Y-23585113D01*
X62286181Y-23623893D01*
X62288151Y-23624976D01*
X62289877Y-23626404D01*
X62342769Y-23655003D01*
X62395637Y-23684067D01*
X62397780Y-23684747D01*
X62399750Y-23685812D01*
X62457265Y-23703616D01*
X62514697Y-23721834D01*
X62516925Y-23722084D01*
X62519070Y-23722748D01*
X62578937Y-23729040D01*
X62638824Y-23735758D01*
X62643139Y-23735788D01*
X62643292Y-23735804D01*
X62643445Y-23735790D01*
X62647760Y-23735820D01*
X62868740Y-23735820D01*
X62928678Y-23729943D01*
X62988664Y-23724484D01*
X62990819Y-23723850D01*
X62993050Y-23723631D01*
X63050631Y-23706246D01*
X63098796Y-23692070D01*
X63107259Y-23694810D01*
X63156307Y-23712465D01*
X63166616Y-23714023D01*
X63176519Y-23717229D01*
X63228270Y-23723343D01*
X63279810Y-23731134D01*
X63290212Y-23730661D01*
X63300562Y-23731884D01*
X63309497Y-23731999D01*
X63421878Y-23732661D01*
X63421911Y-23732658D01*
X63422328Y-23732663D01*
X63439099Y-23732750D01*
X63439156Y-23732745D01*
X63440135Y-23732755D01*
X63462549Y-23732835D01*
X63462627Y-23732828D01*
X63463865Y-23732838D01*
X63484359Y-23732869D01*
X63484442Y-23732861D01*
X63485930Y-23732870D01*
X63503978Y-23732853D01*
X63504093Y-23732842D01*
X63506092Y-23732847D01*
X63521167Y-23732783D01*
X63521306Y-23732769D01*
X63524477Y-23732761D01*
X63536052Y-23732652D01*
X63536172Y-23732639D01*
X63542824Y-23732552D01*
X63550374Y-23732401D01*
X63560160Y-23731243D01*
X63570008Y-23731707D01*
X63578929Y-23731191D01*
X63581925Y-23730997D01*
X63583664Y-23730712D01*
X63585436Y-23730761D01*
X63609431Y-23726694D01*
X63617711Y-23726517D01*
X63638113Y-23722022D01*
X63674415Y-23717728D01*
X63686194Y-23713913D01*
X63705188Y-23710801D01*
X63706841Y-23710183D01*
X63708586Y-23709887D01*
X63729787Y-23701825D01*
X63739692Y-23699643D01*
X63766618Y-23687865D01*
X63793244Y-23679242D01*
X63800717Y-23675075D01*
X63822180Y-23667048D01*
X63823679Y-23666122D01*
X63825336Y-23665492D01*
X63842943Y-23654481D01*
X63854130Y-23649588D01*
X63883337Y-23629270D01*
X63887779Y-23626526D01*
X63902335Y-23618409D01*
X63906109Y-23615203D01*
X63928446Y-23601405D01*
X63929743Y-23600200D01*
X63931239Y-23599264D01*
X63944833Y-23586490D01*
X63956666Y-23578258D01*
X63985465Y-23548411D01*
X63993173Y-23541246D01*
X63997532Y-23537544D01*
X63998589Y-23536213D01*
X64019938Y-23516371D01*
X64020974Y-23514939D01*
X64022262Y-23513729D01*
X64027420Y-23507749D01*
X64055793Y-23543093D01*
X64067373Y-23552825D01*
X64077378Y-23564150D01*
X64115081Y-23592917D01*
X64151417Y-23623452D01*
X64164665Y-23630748D01*
X64176681Y-23639916D01*
X64219258Y-23660814D01*
X64260828Y-23683708D01*
X64275238Y-23688291D01*
X64288809Y-23694952D01*
X64334651Y-23707186D01*
X64379860Y-23721564D01*
X64394883Y-23723261D01*
X64409491Y-23727159D01*
X64456829Y-23730256D01*
X64503976Y-23735580D01*
X64512912Y-23735649D01*
X64626788Y-23735734D01*
X64626855Y-23735727D01*
X64627952Y-23735734D01*
X64656882Y-23735703D01*
X64657020Y-23735689D01*
X64659751Y-23735693D01*
X64684955Y-23735553D01*
X64685106Y-23735537D01*
X64688915Y-23735519D01*
X64709863Y-23735273D01*
X64710009Y-23735257D01*
X64715821Y-23735175D01*
X64732350Y-23734827D01*
X64733108Y-23734736D01*
X64733881Y-23734794D01*
X64742813Y-23734521D01*
X64754757Y-23734074D01*
X64762294Y-23733049D01*
X64769900Y-23733328D01*
X64778815Y-23732720D01*
X64786009Y-23732179D01*
X64819522Y-23726330D01*
X64846630Y-23724451D01*
X64863600Y-23719852D01*
X64875008Y-23718537D01*
X64884149Y-23715607D01*
X64900849Y-23712920D01*
X64909030Y-23710706D01*
X64909055Y-23710702D01*
X64909075Y-23710694D01*
X64909475Y-23710586D01*
X64911756Y-23709952D01*
X64939004Y-23699416D01*
X64967187Y-23691778D01*
X64983138Y-23683873D01*
X64993951Y-23680406D01*
X65007337Y-23672994D01*
X65028256Y-23664905D01*
X65052934Y-23649280D01*
X65079102Y-23636311D01*
X65093294Y-23625396D01*
X65103223Y-23619898D01*
X65114862Y-23610071D01*
X65133788Y-23598088D01*
X65154959Y-23577970D01*
X65178112Y-23560163D01*
X65189899Y-23546716D01*
X65198661Y-23539318D01*
X65208209Y-23527368D01*
X65224333Y-23512046D01*
X65241197Y-23488193D01*
X65260445Y-23466234D01*
X65269319Y-23450886D01*
X65276630Y-23441736D01*
X65283770Y-23427975D01*
X65296440Y-23410055D01*
X65308350Y-23383379D01*
X65322966Y-23358101D01*
X65328604Y-23341574D01*
X65334160Y-23330867D01*
X65338583Y-23315667D01*
X65347364Y-23296001D01*
X65353865Y-23267527D01*
X65363295Y-23239884D01*
X65365566Y-23222947D01*
X65369061Y-23210936D01*
X65370487Y-23194720D01*
X65375165Y-23174229D01*
X65376011Y-23145032D01*
X65379892Y-23116086D01*
X65378859Y-23099499D01*
X65380001Y-23086510D01*
X65378192Y-23069791D01*
X65378784Y-23049375D01*
X65373944Y-23020572D01*
X65372128Y-22991421D01*
X65368032Y-22975880D01*
X65366566Y-22962328D01*
X65361358Y-22945685D01*
X65358083Y-22926196D01*
X65347737Y-22898872D01*
X65340296Y-22870639D01*
X65333524Y-22856731D01*
X65329265Y-22843121D01*
X65320608Y-22827226D01*
X65313852Y-22809384D01*
X65298395Y-22784590D01*
X65285613Y-22758340D01*
X65280882Y-22750758D01*
X65280619Y-22750344D01*
X65274377Y-22742345D01*
X65269522Y-22733430D01*
X65264451Y-22726072D01*
X65261763Y-22722231D01*
X65261665Y-22722117D01*
X65258704Y-22717896D01*
X65253236Y-22710215D01*
X65253172Y-22710141D01*
X65252260Y-22708849D01*
X65244152Y-22697524D01*
X65244116Y-22697483D01*
X65243637Y-22696806D01*
X65233032Y-22682035D01*
X65233006Y-22682006D01*
X65232735Y-22681623D01*
X65219773Y-22663601D01*
X65219760Y-22663586D01*
X65219549Y-22663289D01*
X65204372Y-22642214D01*
X65204356Y-22642196D01*
X65204219Y-22642003D01*
X65186969Y-22618069D01*
X65186962Y-22618061D01*
X65186851Y-22617905D01*
X65167671Y-22591312D01*
X65167660Y-22591299D01*
X65167570Y-22591173D01*
X65146601Y-22562116D01*
X65146599Y-22562114D01*
X65146521Y-22562004D01*
X65123905Y-22530679D01*
X65123899Y-22530672D01*
X65123822Y-22530564D01*
X65099701Y-22497170D01*
X65099695Y-22497163D01*
X65099640Y-22497086D01*
X65074156Y-22461818D01*
X65074154Y-22461816D01*
X65074088Y-22461723D01*
X65047382Y-22424777D01*
X65047376Y-22424770D01*
X65047321Y-22424693D01*
X65019535Y-22386266D01*
X65019478Y-22386186D01*
X64990755Y-22346476D01*
X64990747Y-22346467D01*
X64990700Y-22346401D01*
X64961181Y-22305603D01*
X64961179Y-22305600D01*
X64961167Y-22305584D01*
X64949433Y-22289368D01*
X64949374Y-22289285D01*
X64936339Y-22271266D01*
X64938631Y-22268132D01*
X64938633Y-22268129D01*
X64968568Y-22227217D01*
X64968618Y-22227150D01*
X65274766Y-21808817D01*
X65280081Y-21799828D01*
X65286783Y-21791823D01*
X65311827Y-21746143D01*
X65338344Y-21701302D01*
X65341811Y-21691454D01*
X65346831Y-21682299D01*
X65353876Y-21660000D01*
X73987123Y-21660000D01*
X73990000Y-24389250D01*
X74148750Y-24548000D01*
X77398000Y-24548000D01*
X77398000Y-24528000D01*
X77652000Y-24528000D01*
X77652000Y-24548000D01*
X80901250Y-24548000D01*
X81060000Y-24389250D01*
X81061411Y-23050000D01*
X85561928Y-23050000D01*
X85565000Y-24514250D01*
X85723750Y-24673000D01*
X86873000Y-24673000D01*
X86873000Y-22573750D01*
X87127000Y-22573750D01*
X87127000Y-24673000D01*
X88276250Y-24673000D01*
X88435000Y-24514250D01*
X88438072Y-23050000D01*
X88425812Y-22925518D01*
X88389502Y-22805820D01*
X88330537Y-22695506D01*
X88251185Y-22598815D01*
X88154494Y-22519463D01*
X88044180Y-22460498D01*
X87924482Y-22424188D01*
X87800000Y-22411928D01*
X87285750Y-22415000D01*
X87127000Y-22573750D01*
X86873000Y-22573750D01*
X86714250Y-22415000D01*
X86200000Y-22411928D01*
X86075518Y-22424188D01*
X85955820Y-22460498D01*
X85845506Y-22519463D01*
X85748815Y-22598815D01*
X85669463Y-22695506D01*
X85610498Y-22805820D01*
X85574188Y-22925518D01*
X85561928Y-23050000D01*
X81061411Y-23050000D01*
X81062877Y-21660000D01*
X97873000Y-21660000D01*
X97873000Y-50340000D01*
X88840867Y-50340000D01*
X91061433Y-48119436D01*
X91093291Y-48093291D01*
X91121345Y-48059108D01*
X91197636Y-47966146D01*
X91275172Y-47821087D01*
X91322918Y-47663689D01*
X91339040Y-47500000D01*
X91335000Y-47458982D01*
X91335000Y-47279872D01*
X92765000Y-47279872D01*
X92765000Y-47720128D01*
X92850890Y-48151925D01*
X93019369Y-48558669D01*
X93263962Y-48924729D01*
X93575271Y-49236038D01*
X93941331Y-49480631D01*
X94348075Y-49649110D01*
X94779872Y-49735000D01*
X95220128Y-49735000D01*
X95651925Y-49649110D01*
X96058669Y-49480631D01*
X96424729Y-49236038D01*
X96736038Y-48924729D01*
X96980631Y-48558669D01*
X97149110Y-48151925D01*
X97235000Y-47720128D01*
X97235000Y-47279872D01*
X97149110Y-46848075D01*
X96980631Y-46441331D01*
X96736038Y-46075271D01*
X96424729Y-45763962D01*
X96058669Y-45519369D01*
X95651925Y-45350890D01*
X95220128Y-45265000D01*
X94779872Y-45265000D01*
X94348075Y-45350890D01*
X93941331Y-45519369D01*
X93575271Y-45763962D01*
X93263962Y-46075271D01*
X93019369Y-46441331D01*
X92850890Y-46848075D01*
X92765000Y-47279872D01*
X91335000Y-47279872D01*
X91335000Y-46921868D01*
X91362115Y-46899615D01*
X91468671Y-46769775D01*
X91547850Y-46621642D01*
X91596608Y-46460908D01*
X91613072Y-46293750D01*
X91613072Y-45856250D01*
X91596608Y-45689092D01*
X91547850Y-45528358D01*
X91468671Y-45380225D01*
X91392574Y-45287500D01*
X91468671Y-45194775D01*
X91547850Y-45046642D01*
X91596608Y-44885908D01*
X91613072Y-44718750D01*
X91613072Y-44281250D01*
X91596608Y-44114092D01*
X91547850Y-43953358D01*
X91473115Y-43813538D01*
X91480537Y-43804494D01*
X91500000Y-43768082D01*
X91519463Y-43804494D01*
X91598815Y-43901185D01*
X91695506Y-43980537D01*
X91805820Y-44039502D01*
X91925518Y-44075812D01*
X92050000Y-44088072D01*
X92164250Y-44085000D01*
X92323000Y-43926250D01*
X92323000Y-43127000D01*
X92577000Y-43127000D01*
X92577000Y-43926250D01*
X92735750Y-44085000D01*
X92850000Y-44088072D01*
X92974482Y-44075812D01*
X93094180Y-44039502D01*
X93204494Y-43980537D01*
X93301185Y-43901185D01*
X93380537Y-43804494D01*
X93439502Y-43694180D01*
X93475812Y-43574482D01*
X93488072Y-43450000D01*
X93485000Y-43285750D01*
X93326250Y-43127000D01*
X92577000Y-43127000D01*
X92323000Y-43127000D01*
X92303000Y-43127000D01*
X92303000Y-42873000D01*
X92323000Y-42873000D01*
X92323000Y-42073750D01*
X92577000Y-42073750D01*
X92577000Y-42873000D01*
X93326250Y-42873000D01*
X93485000Y-42714250D01*
X93488072Y-42550000D01*
X93475812Y-42425518D01*
X93439502Y-42305820D01*
X93380537Y-42195506D01*
X93301185Y-42098815D01*
X93204494Y-42019463D01*
X93094180Y-41960498D01*
X92974482Y-41924188D01*
X92850000Y-41911928D01*
X92735750Y-41915000D01*
X92577000Y-42073750D01*
X92323000Y-42073750D01*
X92238393Y-41989143D01*
X92254494Y-41980537D01*
X92351185Y-41901185D01*
X92430537Y-41804494D01*
X92489502Y-41694180D01*
X92525812Y-41574482D01*
X92538072Y-41450000D01*
X92538072Y-40550000D01*
X92535000Y-40518808D01*
X92535000Y-39872621D01*
X92644180Y-39839502D01*
X92730227Y-39793508D01*
X92764604Y-39835396D01*
X92804097Y-39867807D01*
X93632197Y-40695908D01*
X93664604Y-40735396D01*
X93704092Y-40767803D01*
X93822202Y-40864734D01*
X93881281Y-40896312D01*
X93966026Y-40941609D01*
X93974188Y-41024482D01*
X94010498Y-41144180D01*
X94069463Y-41254494D01*
X94148815Y-41351185D01*
X94245506Y-41430537D01*
X94355820Y-41489502D01*
X94475518Y-41525812D01*
X94600000Y-41538072D01*
X96400000Y-41538072D01*
X96524482Y-41525812D01*
X96644180Y-41489502D01*
X96754494Y-41430537D01*
X96851185Y-41351185D01*
X96930537Y-41254494D01*
X96989502Y-41144180D01*
X97025812Y-41024482D01*
X97038072Y-40900000D01*
X97038072Y-39100000D01*
X97025812Y-38975518D01*
X96989502Y-38855820D01*
X96930537Y-38745506D01*
X96851185Y-38648815D01*
X96754494Y-38569463D01*
X96644180Y-38510498D01*
X96524482Y-38474188D01*
X96400000Y-38461928D01*
X94600000Y-38461928D01*
X94536870Y-38468146D01*
X94533236Y-38431250D01*
X94520024Y-38297106D01*
X94460841Y-38102008D01*
X94443446Y-38069463D01*
X94364734Y-37922203D01*
X94355128Y-37910498D01*
X94235396Y-37764604D01*
X94195903Y-37732193D01*
X93767807Y-37304097D01*
X93735396Y-37264604D01*
X93577797Y-37135266D01*
X93397993Y-37039159D01*
X93202895Y-36979976D01*
X93050838Y-36965000D01*
X93050828Y-36965000D01*
X93038072Y-36963744D01*
X93038072Y-36750000D01*
X93025812Y-36625518D01*
X92989502Y-36505820D01*
X92930537Y-36395506D01*
X92851185Y-36298815D01*
X92754494Y-36219463D01*
X92644180Y-36160498D01*
X92524482Y-36124188D01*
X92400000Y-36111928D01*
X90600000Y-36111928D01*
X90475518Y-36124188D01*
X90355820Y-36160498D01*
X90245506Y-36219463D01*
X90148815Y-36298815D01*
X90069463Y-36395506D01*
X90010498Y-36505820D01*
X89974188Y-36625518D01*
X89961928Y-36750000D01*
X89961928Y-38952500D01*
X89431556Y-38952500D01*
X89468671Y-38907275D01*
X89547850Y-38759142D01*
X89596608Y-38598408D01*
X89613072Y-38431250D01*
X89613072Y-37993750D01*
X89596608Y-37826592D01*
X89547850Y-37665858D01*
X89468671Y-37517725D01*
X89366928Y-37393750D01*
X89468671Y-37269775D01*
X89547850Y-37121642D01*
X89596608Y-36960908D01*
X89613072Y-36793750D01*
X89613072Y-36356250D01*
X89596608Y-36189092D01*
X89547850Y-36028358D01*
X89468671Y-35880225D01*
X89392574Y-35787500D01*
X89468671Y-35694775D01*
X89547850Y-35546642D01*
X89596608Y-35385908D01*
X89613072Y-35218750D01*
X89613072Y-34835000D01*
X89961928Y-34835000D01*
X89961928Y-35250000D01*
X89974188Y-35374482D01*
X90010498Y-35494180D01*
X90069463Y-35604494D01*
X90148815Y-35701185D01*
X90245506Y-35780537D01*
X90355820Y-35839502D01*
X90475518Y-35875812D01*
X90600000Y-35888072D01*
X92400000Y-35888072D01*
X92524482Y-35875812D01*
X92644180Y-35839502D01*
X92754494Y-35780537D01*
X92851185Y-35701185D01*
X92930537Y-35604494D01*
X92989502Y-35494180D01*
X93025812Y-35374482D01*
X93038072Y-35250000D01*
X93038072Y-35035000D01*
X93549172Y-35035000D01*
X93600000Y-35040006D01*
X93650828Y-35035000D01*
X93650838Y-35035000D01*
X93802895Y-35020024D01*
X93997993Y-34960841D01*
X94177797Y-34864734D01*
X94335396Y-34735396D01*
X94367807Y-34695903D01*
X95181910Y-33881800D01*
X95348816Y-33915000D01*
X95651184Y-33915000D01*
X95947743Y-33856011D01*
X96227095Y-33740299D01*
X96478505Y-33572312D01*
X96692312Y-33358505D01*
X96860299Y-33107095D01*
X96976011Y-32827743D01*
X97035000Y-32531184D01*
X97035000Y-32228816D01*
X96976011Y-31932257D01*
X96860299Y-31652905D01*
X96692312Y-31401495D01*
X96478505Y-31187688D01*
X96227095Y-31019701D01*
X95947743Y-30903989D01*
X95651184Y-30845000D01*
X95348816Y-30845000D01*
X95052257Y-30903989D01*
X94772905Y-31019701D01*
X94521495Y-31187688D01*
X94307688Y-31401495D01*
X94139701Y-31652905D01*
X94023989Y-31932257D01*
X93979284Y-32157005D01*
X93171290Y-32965000D01*
X93038072Y-32965000D01*
X93038072Y-32750000D01*
X93025812Y-32625518D01*
X92989502Y-32505820D01*
X92930537Y-32395506D01*
X92851185Y-32298815D01*
X92754494Y-32219463D01*
X92644180Y-32160498D01*
X92535000Y-32127379D01*
X92535000Y-29750835D01*
X92540007Y-29700000D01*
X92535000Y-29649162D01*
X92520024Y-29497105D01*
X92460841Y-29302007D01*
X92364734Y-29122203D01*
X92235396Y-28964604D01*
X92195903Y-28932193D01*
X91767807Y-28504097D01*
X91735396Y-28464604D01*
X91577797Y-28335266D01*
X91397993Y-28239159D01*
X91202895Y-28179976D01*
X91050838Y-28165000D01*
X91050828Y-28165000D01*
X91000000Y-28159994D01*
X90949172Y-28165000D01*
X88438072Y-28165000D01*
X88438072Y-27699600D01*
X88421016Y-27526424D01*
X88370502Y-27359903D01*
X88288472Y-27206436D01*
X88178079Y-27071921D01*
X88171536Y-27066551D01*
X88251185Y-27001185D01*
X88330537Y-26904494D01*
X88389502Y-26794180D01*
X88425812Y-26674482D01*
X88438072Y-26550000D01*
X88435408Y-25279872D01*
X92765000Y-25279872D01*
X92765000Y-25720128D01*
X92850890Y-26151925D01*
X93019369Y-26558669D01*
X93263962Y-26924729D01*
X93575271Y-27236038D01*
X93941331Y-27480631D01*
X94348075Y-27649110D01*
X94779872Y-27735000D01*
X95220128Y-27735000D01*
X95651925Y-27649110D01*
X96058669Y-27480631D01*
X96424729Y-27236038D01*
X96736038Y-26924729D01*
X96980631Y-26558669D01*
X97149110Y-26151925D01*
X97235000Y-25720128D01*
X97235000Y-25279872D01*
X97149110Y-24848075D01*
X96980631Y-24441331D01*
X96736038Y-24075271D01*
X96424729Y-23763962D01*
X96058669Y-23519369D01*
X95651925Y-23350890D01*
X95220128Y-23265000D01*
X94779872Y-23265000D01*
X94348075Y-23350890D01*
X93941331Y-23519369D01*
X93575271Y-23763962D01*
X93263962Y-24075271D01*
X93019369Y-24441331D01*
X92850890Y-24848075D01*
X92765000Y-25279872D01*
X88435408Y-25279872D01*
X88435000Y-25085750D01*
X88276250Y-24927000D01*
X87127000Y-24927000D01*
X87127000Y-24947000D01*
X86873000Y-24947000D01*
X86873000Y-24927000D01*
X85723750Y-24927000D01*
X85565000Y-25085750D01*
X85561928Y-26550000D01*
X85574188Y-26674482D01*
X85610498Y-26794180D01*
X85669463Y-26904494D01*
X85748815Y-27001185D01*
X85828464Y-27066551D01*
X85821921Y-27071921D01*
X85711528Y-27206436D01*
X85629498Y-27359903D01*
X85578984Y-27526424D01*
X85561928Y-27699600D01*
X85561928Y-28165000D01*
X85450827Y-28165000D01*
X85399999Y-28159994D01*
X85349171Y-28165000D01*
X85349162Y-28165000D01*
X85197105Y-28179976D01*
X85002007Y-28239159D01*
X84944296Y-28270006D01*
X84822202Y-28335266D01*
X84704092Y-28432197D01*
X84664604Y-28464604D01*
X84632197Y-28504092D01*
X83271290Y-29865000D01*
X83073354Y-29865000D01*
X83100812Y-29774482D01*
X83113072Y-29650000D01*
X83110000Y-29498250D01*
X82951250Y-29339500D01*
X82127000Y-29339500D01*
X82127000Y-29359500D01*
X81873000Y-29359500D01*
X81873000Y-29339500D01*
X81048750Y-29339500D01*
X80904979Y-29483271D01*
X80856185Y-29423815D01*
X80759494Y-29344463D01*
X80649180Y-29285498D01*
X80529482Y-29249188D01*
X80405000Y-29236928D01*
X79205000Y-29236928D01*
X79080518Y-29249188D01*
X78960820Y-29285498D01*
X78850506Y-29344463D01*
X78753815Y-29423815D01*
X78674463Y-29520506D01*
X78615498Y-29630820D01*
X78579188Y-29750518D01*
X78566928Y-29875000D01*
X78566928Y-31965000D01*
X77563285Y-31965000D01*
X77440256Y-31882795D01*
X77251898Y-31804774D01*
X77051939Y-31765000D01*
X76848061Y-31765000D01*
X76648102Y-31804774D01*
X76483072Y-31873132D01*
X76483072Y-29875000D01*
X76470812Y-29750518D01*
X76434502Y-29630820D01*
X76375537Y-29520506D01*
X76296185Y-29423815D01*
X76199494Y-29344463D01*
X76089180Y-29285498D01*
X75969482Y-29249188D01*
X75845000Y-29236928D01*
X74645000Y-29236928D01*
X74520518Y-29249188D01*
X74400820Y-29285498D01*
X74290506Y-29344463D01*
X74193815Y-29423815D01*
X74114463Y-29520506D01*
X74110597Y-29527739D01*
X74110000Y-29498250D01*
X73951250Y-29339500D01*
X73127000Y-29339500D01*
X73127000Y-29359500D01*
X72873000Y-29359500D01*
X72873000Y-29339500D01*
X72048750Y-29339500D01*
X71890000Y-29498250D01*
X71886928Y-29650000D01*
X71898254Y-29765000D01*
X71050827Y-29765000D01*
X70999999Y-29759994D01*
X70949171Y-29765000D01*
X70949162Y-29765000D01*
X70797105Y-29779976D01*
X70602007Y-29839159D01*
X70553662Y-29865000D01*
X70422202Y-29935266D01*
X70398186Y-29954976D01*
X70264604Y-30064604D01*
X70232193Y-30104097D01*
X69971290Y-30365000D01*
X69438072Y-30365000D01*
X69438072Y-29199600D01*
X69421016Y-29026424D01*
X69370502Y-28859903D01*
X69325121Y-28775000D01*
X71886928Y-28775000D01*
X71890000Y-28926750D01*
X72048750Y-29085500D01*
X72873000Y-29085500D01*
X72873000Y-28298750D01*
X73127000Y-28298750D01*
X73127000Y-29085500D01*
X73951250Y-29085500D01*
X74110000Y-28926750D01*
X74113072Y-28775000D01*
X80886928Y-28775000D01*
X80890000Y-28926750D01*
X81048750Y-29085500D01*
X81873000Y-29085500D01*
X81873000Y-28298750D01*
X82127000Y-28298750D01*
X82127000Y-29085500D01*
X82951250Y-29085500D01*
X83110000Y-28926750D01*
X83113072Y-28775000D01*
X83100812Y-28650518D01*
X83064502Y-28530820D01*
X83005537Y-28420506D01*
X82926185Y-28323815D01*
X82829494Y-28244463D01*
X82719180Y-28185498D01*
X82599482Y-28149188D01*
X82475000Y-28136928D01*
X82285750Y-28140000D01*
X82127000Y-28298750D01*
X81873000Y-28298750D01*
X81714250Y-28140000D01*
X81525000Y-28136928D01*
X81400518Y-28149188D01*
X81280820Y-28185498D01*
X81170506Y-28244463D01*
X81073815Y-28323815D01*
X80994463Y-28420506D01*
X80935498Y-28530820D01*
X80899188Y-28650518D01*
X80886928Y-28775000D01*
X74113072Y-28775000D01*
X74100812Y-28650518D01*
X74064502Y-28530820D01*
X74005537Y-28420506D01*
X73926185Y-28323815D01*
X73829494Y-28244463D01*
X73719180Y-28185498D01*
X73599482Y-28149188D01*
X73475000Y-28136928D01*
X73285750Y-28140000D01*
X73127000Y-28298750D01*
X72873000Y-28298750D01*
X72714250Y-28140000D01*
X72525000Y-28136928D01*
X72400518Y-28149188D01*
X72280820Y-28185498D01*
X72170506Y-28244463D01*
X72073815Y-28323815D01*
X71994463Y-28420506D01*
X71935498Y-28530820D01*
X71899188Y-28650518D01*
X71886928Y-28775000D01*
X69325121Y-28775000D01*
X69288472Y-28706436D01*
X69178079Y-28571921D01*
X69171536Y-28566551D01*
X69251185Y-28501185D01*
X69330537Y-28404494D01*
X69389502Y-28294180D01*
X69425812Y-28174482D01*
X69438072Y-28050000D01*
X69437705Y-27875000D01*
X73986928Y-27875000D01*
X73999188Y-27999482D01*
X74035498Y-28119180D01*
X74094463Y-28229494D01*
X74173815Y-28326185D01*
X74270506Y-28405537D01*
X74380820Y-28464502D01*
X74500518Y-28500812D01*
X74625000Y-28513072D01*
X77239250Y-28510000D01*
X77398000Y-28351250D01*
X77398000Y-24802000D01*
X77652000Y-24802000D01*
X77652000Y-28351250D01*
X77810750Y-28510000D01*
X80425000Y-28513072D01*
X80549482Y-28500812D01*
X80669180Y-28464502D01*
X80779494Y-28405537D01*
X80876185Y-28326185D01*
X80955537Y-28229494D01*
X81014502Y-28119180D01*
X81050812Y-27999482D01*
X81063072Y-27875000D01*
X81060000Y-24960750D01*
X80901250Y-24802000D01*
X77652000Y-24802000D01*
X77398000Y-24802000D01*
X74148750Y-24802000D01*
X73990000Y-24960750D01*
X73986928Y-27875000D01*
X69437705Y-27875000D01*
X69435000Y-26585750D01*
X69276250Y-26427000D01*
X68127000Y-26427000D01*
X68127000Y-26447000D01*
X67873000Y-26447000D01*
X67873000Y-26427000D01*
X66723750Y-26427000D01*
X66565000Y-26585750D01*
X66561928Y-28050000D01*
X66574188Y-28174482D01*
X66610498Y-28294180D01*
X66669463Y-28404494D01*
X66748815Y-28501185D01*
X66828464Y-28566551D01*
X66821921Y-28571921D01*
X66711528Y-28706436D01*
X66629498Y-28859903D01*
X66578984Y-29026424D01*
X66561928Y-29199600D01*
X66561928Y-29398218D01*
X66237807Y-29074097D01*
X66205396Y-29034604D01*
X66047797Y-28905266D01*
X65867993Y-28809159D01*
X65672895Y-28749976D01*
X65520838Y-28735000D01*
X65520828Y-28735000D01*
X65470000Y-28729994D01*
X65419172Y-28735000D01*
X63606192Y-28735000D01*
X63575000Y-28731928D01*
X62575000Y-28731928D01*
X62450518Y-28744188D01*
X62330820Y-28780498D01*
X62220506Y-28839463D01*
X62123815Y-28918815D01*
X62044463Y-29015506D01*
X61985498Y-29125820D01*
X61949188Y-29245518D01*
X61936928Y-29370000D01*
X61936928Y-30170000D01*
X61947125Y-30273540D01*
X61906709Y-30306709D01*
X61880558Y-30338574D01*
X61338574Y-30880559D01*
X61306710Y-30906709D01*
X61250665Y-30975000D01*
X61202364Y-31033855D01*
X61124828Y-31178914D01*
X61077082Y-31336312D01*
X61060960Y-31500000D01*
X61065001Y-31541028D01*
X61065001Y-32059043D01*
X61045506Y-32069463D01*
X60948815Y-32148815D01*
X60869463Y-32245506D01*
X60810498Y-32355820D01*
X60803921Y-32377500D01*
X60041018Y-32377500D01*
X60000000Y-32373460D01*
X59958981Y-32377500D01*
X59836311Y-32389582D01*
X59678913Y-32437328D01*
X59533854Y-32514864D01*
X59406709Y-32619209D01*
X59302364Y-32746354D01*
X59224828Y-32891413D01*
X59177082Y-33048811D01*
X59160960Y-33212500D01*
X59165000Y-33253519D01*
X59165000Y-33365632D01*
X59137885Y-33387885D01*
X59031329Y-33517725D01*
X59000000Y-33576337D01*
X58968671Y-33517725D01*
X58862115Y-33387885D01*
X58732275Y-33281329D01*
X58584142Y-33202150D01*
X58423408Y-33153392D01*
X58256250Y-33136928D01*
X57743750Y-33136928D01*
X57576592Y-33153392D01*
X57415858Y-33202150D01*
X57267725Y-33281329D01*
X57137885Y-33387885D01*
X57115632Y-33415000D01*
X57041007Y-33415000D01*
X56999999Y-33410961D01*
X56958991Y-33415000D01*
X56958981Y-33415000D01*
X56836311Y-33427082D01*
X56678913Y-33474828D01*
X56533854Y-33552364D01*
X56406709Y-33656709D01*
X56380554Y-33688579D01*
X56188574Y-33880559D01*
X56156710Y-33906709D01*
X56080148Y-34000000D01*
X56052364Y-34033855D01*
X56022867Y-34089040D01*
X55974828Y-34178913D01*
X55927082Y-34336311D01*
X55923348Y-34374221D01*
X55832795Y-34509744D01*
X55754774Y-34698102D01*
X55715000Y-34898061D01*
X55715000Y-35101939D01*
X55754774Y-35301898D01*
X55832795Y-35490256D01*
X55946063Y-35659774D01*
X56090226Y-35803937D01*
X56259744Y-35917205D01*
X56448102Y-35995226D01*
X56648061Y-36035000D01*
X56851939Y-36035000D01*
X56889033Y-36027622D01*
X56903392Y-36173408D01*
X56952150Y-36334142D01*
X57031329Y-36482275D01*
X57137885Y-36612115D01*
X57165000Y-36634368D01*
X57165001Y-37144498D01*
X57098815Y-37198815D01*
X57019463Y-37295506D01*
X56960498Y-37405820D01*
X56924188Y-37525518D01*
X56911928Y-37650000D01*
X56911928Y-38450000D01*
X56924188Y-38574482D01*
X56960498Y-38694180D01*
X57019463Y-38804494D01*
X57098815Y-38901185D01*
X57195506Y-38980537D01*
X57231918Y-39000000D01*
X57195506Y-39019463D01*
X57098815Y-39098815D01*
X57019463Y-39195506D01*
X56960498Y-39305820D01*
X56924188Y-39425518D01*
X56911928Y-39550000D01*
X56915000Y-39664250D01*
X57073750Y-39823000D01*
X57873000Y-39823000D01*
X57873000Y-39803000D01*
X58127000Y-39803000D01*
X58127000Y-39823000D01*
X58926250Y-39823000D01*
X59010857Y-39738393D01*
X59019463Y-39754494D01*
X59098815Y-39851185D01*
X59165001Y-39905502D01*
X59165001Y-39954131D01*
X58984191Y-40134941D01*
X58926250Y-40077000D01*
X58127000Y-40077000D01*
X58127000Y-40826250D01*
X58209941Y-40909191D01*
X56156052Y-42963081D01*
X56147599Y-42961400D01*
X55852401Y-42961400D01*
X55562875Y-43018990D01*
X55290147Y-43131958D01*
X55044698Y-43295961D01*
X54835961Y-43504698D01*
X54671958Y-43750147D01*
X54558990Y-44022875D01*
X54501400Y-44312401D01*
X54501400Y-44607599D01*
X54558990Y-44897125D01*
X54671958Y-45169853D01*
X54835961Y-45415302D01*
X54950023Y-45529364D01*
X54892220Y-45546898D01*
X54781906Y-45605863D01*
X54685215Y-45685215D01*
X54605863Y-45781906D01*
X54546898Y-45892220D01*
X54510588Y-46011918D01*
X54498328Y-46136400D01*
X54498328Y-47863600D01*
X54510588Y-47988082D01*
X54546898Y-48107780D01*
X54605863Y-48218094D01*
X54685215Y-48314785D01*
X54746402Y-48365000D01*
X50445868Y-48365000D01*
X50035000Y-47954133D01*
X50035000Y-47846868D01*
X50062115Y-47824615D01*
X50168671Y-47694775D01*
X50247850Y-47546642D01*
X50296608Y-47385908D01*
X50313072Y-47218750D01*
X50313072Y-46781250D01*
X50296608Y-46614092D01*
X50247850Y-46453358D01*
X50168671Y-46305225D01*
X50150900Y-46283570D01*
X50205537Y-46216994D01*
X50264502Y-46106680D01*
X50300812Y-45986982D01*
X50313072Y-45862500D01*
X50310000Y-45710750D01*
X50151250Y-45552000D01*
X49327000Y-45552000D01*
X49327000Y-45572000D01*
X49073000Y-45572000D01*
X49073000Y-45552000D01*
X48248750Y-45552000D01*
X48090000Y-45710750D01*
X48086928Y-45862500D01*
X48099188Y-45986982D01*
X48135498Y-46106680D01*
X48194463Y-46216994D01*
X48249100Y-46283570D01*
X48231329Y-46305225D01*
X48152150Y-46453358D01*
X48103392Y-46614092D01*
X48086928Y-46781250D01*
X48086928Y-47218750D01*
X48103392Y-47385908D01*
X48152150Y-47546642D01*
X48231329Y-47694775D01*
X48337885Y-47824615D01*
X48365001Y-47846868D01*
X48365001Y-48258972D01*
X48360960Y-48300000D01*
X48377082Y-48463688D01*
X48424828Y-48621086D01*
X48488934Y-48741019D01*
X48502365Y-48766146D01*
X48606710Y-48893291D01*
X48638574Y-48919441D01*
X49480558Y-49761426D01*
X49506709Y-49793291D01*
X49633854Y-49897636D01*
X49778913Y-49975172D01*
X49936311Y-50022918D01*
X50058981Y-50035000D01*
X50058983Y-50035000D01*
X50099999Y-50039040D01*
X50141015Y-50035000D01*
X57958982Y-50035000D01*
X58000000Y-50039040D01*
X58041018Y-50035000D01*
X58041019Y-50035000D01*
X58163689Y-50022918D01*
X58321087Y-49975172D01*
X58466146Y-49897636D01*
X58593291Y-49793291D01*
X58619445Y-49761422D01*
X59061427Y-49319441D01*
X59093291Y-49293291D01*
X59197636Y-49166146D01*
X59275172Y-49021087D01*
X59322918Y-48863689D01*
X59335000Y-48741019D01*
X59335000Y-48741018D01*
X59339040Y-48700000D01*
X59335000Y-48658982D01*
X59335000Y-48271149D01*
X59495302Y-48164039D01*
X59704039Y-47955302D01*
X59810000Y-47796719D01*
X59915961Y-47955302D01*
X60124698Y-48164039D01*
X60370147Y-48328042D01*
X60642875Y-48441010D01*
X60932401Y-48498600D01*
X61227599Y-48498600D01*
X61517125Y-48441010D01*
X61789853Y-48328042D01*
X62035302Y-48164039D01*
X62244039Y-47955302D01*
X62408042Y-47709853D01*
X62521010Y-47437125D01*
X62578600Y-47147599D01*
X62578600Y-46852401D01*
X62521010Y-46562875D01*
X62408042Y-46290147D01*
X62244039Y-46044698D01*
X62035302Y-45835961D01*
X61874187Y-45728308D01*
X62090293Y-45566854D01*
X62286817Y-45348488D01*
X62436964Y-45095978D01*
X62534963Y-44819027D01*
X62414464Y-44587000D01*
X61207000Y-44587000D01*
X61207000Y-44607000D01*
X60953000Y-44607000D01*
X60953000Y-44587000D01*
X60933000Y-44587000D01*
X60933000Y-44333000D01*
X60953000Y-44333000D01*
X60953000Y-44313000D01*
X61207000Y-44313000D01*
X61207000Y-44333000D01*
X62414464Y-44333000D01*
X62534963Y-44100973D01*
X62436964Y-43824022D01*
X62286817Y-43571512D01*
X62090293Y-43353146D01*
X61854944Y-43177316D01*
X61589814Y-43050778D01*
X61439026Y-43005042D01*
X61207002Y-43126182D01*
X61207002Y-42973866D01*
X62669439Y-41511430D01*
X62669448Y-41511419D01*
X63561432Y-40619437D01*
X63593291Y-40593291D01*
X63653901Y-40519438D01*
X63697636Y-40466146D01*
X63775172Y-40321087D01*
X63822918Y-40163689D01*
X63839040Y-40000000D01*
X63835000Y-39958982D01*
X63835000Y-38863285D01*
X63917205Y-38740256D01*
X63995226Y-38551898D01*
X64035000Y-38351939D01*
X64035000Y-38148061D01*
X63995226Y-37948102D01*
X63942329Y-37820398D01*
X64044180Y-37789502D01*
X64154494Y-37730537D01*
X64251185Y-37651185D01*
X64330537Y-37554494D01*
X64389502Y-37444180D01*
X64422621Y-37335000D01*
X67708982Y-37335000D01*
X67750000Y-37339040D01*
X67791018Y-37335000D01*
X67791019Y-37335000D01*
X67913689Y-37322918D01*
X68071087Y-37275172D01*
X68216146Y-37197636D01*
X68343291Y-37093291D01*
X68369445Y-37061422D01*
X68375980Y-37054887D01*
X68446063Y-37159774D01*
X68590226Y-37303937D01*
X68759744Y-37417205D01*
X68948102Y-37495226D01*
X69148061Y-37535000D01*
X69351939Y-37535000D01*
X69551898Y-37495226D01*
X69714261Y-37427972D01*
X69840226Y-37553937D01*
X70009744Y-37667205D01*
X70198102Y-37745226D01*
X70398061Y-37785000D01*
X70601939Y-37785000D01*
X70801898Y-37745226D01*
X70990256Y-37667205D01*
X71159774Y-37553937D01*
X71303937Y-37409774D01*
X71417205Y-37240256D01*
X71449230Y-37162941D01*
X71590226Y-37303937D01*
X71759744Y-37417205D01*
X71948102Y-37495226D01*
X72148061Y-37535000D01*
X72351939Y-37535000D01*
X72551898Y-37495226D01*
X72714261Y-37427972D01*
X72840226Y-37553937D01*
X73009744Y-37667205D01*
X73198102Y-37745226D01*
X73398061Y-37785000D01*
X73601939Y-37785000D01*
X73801898Y-37745226D01*
X73990256Y-37667205D01*
X74159774Y-37553937D01*
X74303937Y-37409774D01*
X74417205Y-37240256D01*
X74495226Y-37051898D01*
X74535000Y-36851939D01*
X74535000Y-36648061D01*
X74495226Y-36448102D01*
X74417205Y-36259744D01*
X74375000Y-36196580D01*
X74375000Y-36083114D01*
X74506255Y-36122929D01*
X74660000Y-36138072D01*
X74960000Y-36138072D01*
X75113745Y-36122929D01*
X75261582Y-36078084D01*
X75386928Y-36011085D01*
X75386928Y-36431250D01*
X75403392Y-36598408D01*
X75452150Y-36759142D01*
X75531329Y-36907275D01*
X75549100Y-36928930D01*
X75494463Y-36995506D01*
X75435498Y-37105820D01*
X75399188Y-37225518D01*
X75386928Y-37350000D01*
X75390000Y-37501750D01*
X75548750Y-37660500D01*
X76373000Y-37660500D01*
X76373000Y-37640500D01*
X76627000Y-37640500D01*
X76627000Y-37660500D01*
X76647000Y-37660500D01*
X76647000Y-37914500D01*
X76627000Y-37914500D01*
X76627000Y-38701250D01*
X76785750Y-38860000D01*
X76975000Y-38863072D01*
X77060616Y-38854640D01*
X77098815Y-38901185D01*
X77195506Y-38980537D01*
X77231918Y-39000000D01*
X77195506Y-39019463D01*
X77098815Y-39098815D01*
X77019463Y-39195506D01*
X76960498Y-39305820D01*
X76924188Y-39425518D01*
X76911928Y-39550000D01*
X76915000Y-39664250D01*
X77073750Y-39823000D01*
X77873000Y-39823000D01*
X77873000Y-39803000D01*
X78127000Y-39803000D01*
X78127000Y-39823000D01*
X78926250Y-39823000D01*
X79010857Y-39738393D01*
X79019463Y-39754494D01*
X79098815Y-39851185D01*
X79165000Y-39905502D01*
X79165001Y-42964861D01*
X79147599Y-42961400D01*
X78852401Y-42961400D01*
X78562875Y-43018990D01*
X78290147Y-43131958D01*
X78044698Y-43295961D01*
X77835961Y-43504698D01*
X77671958Y-43750147D01*
X77558990Y-44022875D01*
X77501400Y-44312401D01*
X77501400Y-44607599D01*
X77558990Y-44897125D01*
X77671958Y-45169853D01*
X77835961Y-45415302D01*
X77950023Y-45529364D01*
X77892220Y-45546898D01*
X77781906Y-45605863D01*
X77685215Y-45685215D01*
X77605863Y-45781906D01*
X77546898Y-45892220D01*
X77510588Y-46011918D01*
X77498328Y-46136400D01*
X77498328Y-47863600D01*
X77510588Y-47988082D01*
X77546898Y-48107780D01*
X77577483Y-48165000D01*
X77345868Y-48165000D01*
X76835000Y-47654132D01*
X76835000Y-45541018D01*
X76839040Y-45500000D01*
X76822918Y-45336312D01*
X76811297Y-45298000D01*
X76775172Y-45178913D01*
X76697636Y-45033854D01*
X76593291Y-44906709D01*
X76561433Y-44880564D01*
X74585000Y-42904133D01*
X74585000Y-41541018D01*
X74589040Y-41500000D01*
X74572918Y-41336311D01*
X74554372Y-41275172D01*
X74525172Y-41178913D01*
X74474761Y-41084601D01*
X74510000Y-41088072D01*
X74524250Y-41085000D01*
X74683000Y-40926250D01*
X74683000Y-39602000D01*
X74937000Y-39602000D01*
X74937000Y-40926250D01*
X75095750Y-41085000D01*
X75110000Y-41088072D01*
X75234482Y-41075812D01*
X75354180Y-41039502D01*
X75464494Y-40980537D01*
X75561185Y-40901185D01*
X75640537Y-40804494D01*
X75699502Y-40694180D01*
X75735812Y-40574482D01*
X75748072Y-40450000D01*
X75747627Y-40350000D01*
X76911928Y-40350000D01*
X76924188Y-40474482D01*
X76960498Y-40594180D01*
X77019463Y-40704494D01*
X77098815Y-40801185D01*
X77195506Y-40880537D01*
X77305820Y-40939502D01*
X77425518Y-40975812D01*
X77550000Y-40988072D01*
X77714250Y-40985000D01*
X77873000Y-40826250D01*
X77873000Y-40077000D01*
X78127000Y-40077000D01*
X78127000Y-40826250D01*
X78285750Y-40985000D01*
X78450000Y-40988072D01*
X78574482Y-40975812D01*
X78694180Y-40939502D01*
X78804494Y-40880537D01*
X78901185Y-40801185D01*
X78980537Y-40704494D01*
X79039502Y-40594180D01*
X79075812Y-40474482D01*
X79088072Y-40350000D01*
X79085000Y-40235750D01*
X78926250Y-40077000D01*
X78127000Y-40077000D01*
X77873000Y-40077000D01*
X77073750Y-40077000D01*
X76915000Y-40235750D01*
X76911928Y-40350000D01*
X75747627Y-40350000D01*
X75745000Y-39760750D01*
X75586250Y-39602000D01*
X74937000Y-39602000D01*
X74683000Y-39602000D01*
X74663000Y-39602000D01*
X74663000Y-39348000D01*
X74683000Y-39348000D01*
X74683000Y-38023750D01*
X74937000Y-38023750D01*
X74937000Y-39348000D01*
X75586250Y-39348000D01*
X75745000Y-39189250D01*
X75746751Y-38796292D01*
X75780820Y-38814502D01*
X75900518Y-38850812D01*
X76025000Y-38863072D01*
X76214250Y-38860000D01*
X76373000Y-38701250D01*
X76373000Y-37914500D01*
X75548750Y-37914500D01*
X75480583Y-37982667D01*
X75464494Y-37969463D01*
X75354180Y-37910498D01*
X75234482Y-37874188D01*
X75110000Y-37861928D01*
X75095750Y-37865000D01*
X74937000Y-38023750D01*
X74683000Y-38023750D01*
X74524250Y-37865000D01*
X74510000Y-37861928D01*
X74385518Y-37874188D01*
X74265820Y-37910498D01*
X74155506Y-37969463D01*
X74125936Y-37993730D01*
X73991582Y-37921916D01*
X73843745Y-37877071D01*
X73690000Y-37861928D01*
X73390000Y-37861928D01*
X73236255Y-37877071D01*
X73088418Y-37921916D01*
X72952171Y-37994742D01*
X72905000Y-38033454D01*
X72857829Y-37994742D01*
X72721582Y-37921916D01*
X72573745Y-37877071D01*
X72420000Y-37861928D01*
X72120000Y-37861928D01*
X71966255Y-37877071D01*
X71818418Y-37921916D01*
X71682171Y-37994742D01*
X71635000Y-38033454D01*
X71587829Y-37994742D01*
X71451582Y-37921916D01*
X71303745Y-37877071D01*
X71150000Y-37861928D01*
X70850000Y-37861928D01*
X70696255Y-37877071D01*
X70548418Y-37921916D01*
X70412171Y-37994742D01*
X70365000Y-38033454D01*
X70317829Y-37994742D01*
X70181582Y-37921916D01*
X70033745Y-37877071D01*
X69880000Y-37861928D01*
X69580000Y-37861928D01*
X69426255Y-37877071D01*
X69278418Y-37921916D01*
X69142171Y-37994742D01*
X69095000Y-38033454D01*
X69047829Y-37994742D01*
X68911582Y-37921916D01*
X68763745Y-37877071D01*
X68610000Y-37861928D01*
X68310000Y-37861928D01*
X68156255Y-37877071D01*
X68008418Y-37921916D01*
X67872171Y-37994742D01*
X67825000Y-38033454D01*
X67777829Y-37994742D01*
X67641582Y-37921916D01*
X67493745Y-37877071D01*
X67340000Y-37861928D01*
X67040000Y-37861928D01*
X66886255Y-37877071D01*
X66738418Y-37921916D01*
X66602171Y-37994742D01*
X66482749Y-38092749D01*
X66384742Y-38212171D01*
X66311916Y-38348418D01*
X66267071Y-38496255D01*
X66251928Y-38650000D01*
X66251928Y-40300000D01*
X66267071Y-40453745D01*
X66282309Y-40503980D01*
X66196063Y-40590226D01*
X66082795Y-40759744D01*
X66004774Y-40948102D01*
X65965000Y-41148061D01*
X65965000Y-41351939D01*
X66004774Y-41551898D01*
X66082795Y-41740256D01*
X66196063Y-41909774D01*
X66340226Y-42053937D01*
X66509744Y-42167205D01*
X66698102Y-42245226D01*
X66898061Y-42285000D01*
X67101939Y-42285000D01*
X67301898Y-42245226D01*
X67490256Y-42167205D01*
X67659774Y-42053937D01*
X67750000Y-41963711D01*
X67840226Y-42053937D01*
X68009744Y-42167205D01*
X68198102Y-42245226D01*
X68398061Y-42285000D01*
X68601939Y-42285000D01*
X68801898Y-42245226D01*
X68864999Y-42219089D01*
X68865000Y-47092973D01*
X68860959Y-47134001D01*
X68877081Y-47297689D01*
X68924827Y-47455087D01*
X69002363Y-47600146D01*
X69002364Y-47600147D01*
X69106709Y-47727292D01*
X69138573Y-47753442D01*
X71725129Y-50340000D01*
X48273381Y-50340000D01*
X47660000Y-49726620D01*
X47660000Y-44987500D01*
X48086928Y-44987500D01*
X48090000Y-45139250D01*
X48248750Y-45298000D01*
X49073000Y-45298000D01*
X49073000Y-44511250D01*
X49327000Y-44511250D01*
X49327000Y-45298000D01*
X50151250Y-45298000D01*
X50310000Y-45139250D01*
X50313072Y-44987500D01*
X50300812Y-44863018D01*
X50264502Y-44743320D01*
X50205537Y-44633006D01*
X50126185Y-44536315D01*
X50029494Y-44456963D01*
X49919180Y-44397998D01*
X49799482Y-44361688D01*
X49675000Y-44349428D01*
X49485750Y-44352500D01*
X49327000Y-44511250D01*
X49073000Y-44511250D01*
X48914250Y-44352500D01*
X48725000Y-44349428D01*
X48600518Y-44361688D01*
X48480820Y-44397998D01*
X48370506Y-44456963D01*
X48273815Y-44536315D01*
X48194463Y-44633006D01*
X48135498Y-44743320D01*
X48099188Y-44863018D01*
X48086928Y-44987500D01*
X47660000Y-44987500D01*
X47660000Y-40350000D01*
X56911928Y-40350000D01*
X56924188Y-40474482D01*
X56960498Y-40594180D01*
X57019463Y-40704494D01*
X57098815Y-40801185D01*
X57195506Y-40880537D01*
X57305820Y-40939502D01*
X57425518Y-40975812D01*
X57550000Y-40988072D01*
X57714250Y-40985000D01*
X57873000Y-40826250D01*
X57873000Y-40077000D01*
X57073750Y-40077000D01*
X56915000Y-40235750D01*
X56911928Y-40350000D01*
X47660000Y-40350000D01*
X47660000Y-36779872D01*
X48765000Y-36779872D01*
X48765000Y-37220128D01*
X48850890Y-37651925D01*
X49019369Y-38058669D01*
X49263962Y-38424729D01*
X49575271Y-38736038D01*
X49941331Y-38980631D01*
X50348075Y-39149110D01*
X50779872Y-39235000D01*
X51220128Y-39235000D01*
X51651925Y-39149110D01*
X52058669Y-38980631D01*
X52424729Y-38736038D01*
X52736038Y-38424729D01*
X52980631Y-38058669D01*
X53149110Y-37651925D01*
X53235000Y-37220128D01*
X53235000Y-36779872D01*
X53149110Y-36348075D01*
X52980631Y-35941331D01*
X52736038Y-35575271D01*
X52424729Y-35263962D01*
X52058669Y-35019369D01*
X51651925Y-34850890D01*
X51220128Y-34765000D01*
X50779872Y-34765000D01*
X50348075Y-34850890D01*
X49941331Y-35019369D01*
X49575271Y-35263962D01*
X49263962Y-35575271D01*
X49019369Y-35941331D01*
X48850890Y-36348075D01*
X48765000Y-36779872D01*
X47660000Y-36779872D01*
X47660000Y-32032412D01*
X47663192Y-32000000D01*
X47660000Y-31967588D01*
X47660000Y-31967581D01*
X47650450Y-31870617D01*
X47612710Y-31746207D01*
X47551425Y-31631550D01*
X47527908Y-31602895D01*
X47489614Y-31556233D01*
X47489612Y-31556231D01*
X47468948Y-31531052D01*
X47443770Y-31510389D01*
X46660000Y-30726620D01*
X46660000Y-28869721D01*
X49365000Y-28869721D01*
X49365000Y-29290279D01*
X49447047Y-29702756D01*
X49607988Y-30091302D01*
X49841637Y-30440983D01*
X50139017Y-30738363D01*
X50488698Y-30972012D01*
X50877244Y-31132953D01*
X51289721Y-31215000D01*
X51710279Y-31215000D01*
X52122756Y-31132953D01*
X52511302Y-30972012D01*
X52860983Y-30738363D01*
X53158363Y-30440983D01*
X53362814Y-30135000D01*
X53771290Y-30135000D01*
X54102193Y-30465903D01*
X54134604Y-30505396D01*
X54206908Y-30564734D01*
X54292202Y-30634734D01*
X54348086Y-30664604D01*
X54472007Y-30730841D01*
X54667105Y-30790024D01*
X54819162Y-30805000D01*
X54819171Y-30805000D01*
X54869999Y-30810006D01*
X54920827Y-30805000D01*
X56393808Y-30805000D01*
X56425000Y-30808072D01*
X57425000Y-30808072D01*
X57549482Y-30795812D01*
X57669180Y-30759502D01*
X57779494Y-30700537D01*
X57876185Y-30621185D01*
X57955537Y-30524494D01*
X58014502Y-30414180D01*
X58050812Y-30294482D01*
X58063072Y-30170000D01*
X58063072Y-29370000D01*
X58050812Y-29245518D01*
X58014502Y-29125820D01*
X57955537Y-29015506D01*
X57876185Y-28918815D01*
X57779494Y-28839463D01*
X57669180Y-28780498D01*
X57549482Y-28744188D01*
X57425000Y-28731928D01*
X56425000Y-28731928D01*
X56393808Y-28735000D01*
X55298710Y-28735000D01*
X54967807Y-28404097D01*
X54935396Y-28364604D01*
X54777797Y-28235266D01*
X54597993Y-28139159D01*
X54402895Y-28079976D01*
X54250838Y-28065000D01*
X54250828Y-28065000D01*
X54200000Y-28059994D01*
X54149172Y-28065000D01*
X53389541Y-28065000D01*
X53158363Y-27719017D01*
X52860983Y-27421637D01*
X52511302Y-27187988D01*
X52122756Y-27027047D01*
X51710279Y-26945000D01*
X51289721Y-26945000D01*
X50877244Y-27027047D01*
X50488698Y-27187988D01*
X50139017Y-27421637D01*
X49841637Y-27719017D01*
X49607988Y-28068698D01*
X49447047Y-28457244D01*
X49365000Y-28869721D01*
X46660000Y-28869721D01*
X46660000Y-22500000D01*
X49361928Y-22500000D01*
X49361928Y-25500000D01*
X49374188Y-25624482D01*
X49410498Y-25744180D01*
X49469463Y-25854494D01*
X49548815Y-25951185D01*
X49645506Y-26030537D01*
X49755820Y-26089502D01*
X49875518Y-26125812D01*
X50000000Y-26138072D01*
X53000000Y-26138072D01*
X53124482Y-26125812D01*
X53244180Y-26089502D01*
X53354494Y-26030537D01*
X53451185Y-25951185D01*
X53463551Y-25936117D01*
X53479977Y-26102895D01*
X53539160Y-26297993D01*
X53635266Y-26477797D01*
X53723919Y-26585820D01*
X53764605Y-26635396D01*
X53804092Y-26667802D01*
X55062197Y-27925908D01*
X55094604Y-27965396D01*
X55134092Y-27997803D01*
X55252202Y-28094734D01*
X55335318Y-28139160D01*
X55432007Y-28190841D01*
X55627105Y-28250024D01*
X55779162Y-28265000D01*
X55779171Y-28265000D01*
X55829999Y-28270006D01*
X55880827Y-28265000D01*
X56393808Y-28265000D01*
X56425000Y-28268072D01*
X57425000Y-28268072D01*
X57549482Y-28255812D01*
X57669180Y-28219502D01*
X57779494Y-28160537D01*
X57876185Y-28081185D01*
X57955537Y-27984494D01*
X58014502Y-27874180D01*
X58050812Y-27754482D01*
X58063072Y-27630000D01*
X61936928Y-27630000D01*
X61949188Y-27754482D01*
X61985498Y-27874180D01*
X62044463Y-27984494D01*
X62123815Y-28081185D01*
X62220506Y-28160537D01*
X62330820Y-28219502D01*
X62450518Y-28255812D01*
X62575000Y-28268072D01*
X62789250Y-28265000D01*
X62948000Y-28106250D01*
X62948000Y-27357000D01*
X63202000Y-27357000D01*
X63202000Y-28106250D01*
X63360750Y-28265000D01*
X63575000Y-28268072D01*
X63699482Y-28255812D01*
X63819180Y-28219502D01*
X63929494Y-28160537D01*
X64026185Y-28081185D01*
X64105537Y-27984494D01*
X64164502Y-27874180D01*
X64200812Y-27754482D01*
X64213072Y-27630000D01*
X64210000Y-27515750D01*
X64051250Y-27357000D01*
X63202000Y-27357000D01*
X62948000Y-27357000D01*
X62098750Y-27357000D01*
X61940000Y-27515750D01*
X61936928Y-27630000D01*
X58063072Y-27630000D01*
X58063072Y-26830000D01*
X61936928Y-26830000D01*
X61940000Y-26944250D01*
X62098750Y-27103000D01*
X62948000Y-27103000D01*
X62948000Y-26353750D01*
X63202000Y-26353750D01*
X63202000Y-27103000D01*
X64051250Y-27103000D01*
X64210000Y-26944250D01*
X64213072Y-26830000D01*
X64200812Y-26705518D01*
X64164502Y-26585820D01*
X64105537Y-26475506D01*
X64026185Y-26378815D01*
X63929494Y-26299463D01*
X63819180Y-26240498D01*
X63699482Y-26204188D01*
X63575000Y-26191928D01*
X63360750Y-26195000D01*
X63202000Y-26353750D01*
X62948000Y-26353750D01*
X62789250Y-26195000D01*
X62575000Y-26191928D01*
X62450518Y-26204188D01*
X62330820Y-26240498D01*
X62220506Y-26299463D01*
X62123815Y-26378815D01*
X62044463Y-26475506D01*
X61985498Y-26585820D01*
X61949188Y-26705518D01*
X61936928Y-26830000D01*
X58063072Y-26830000D01*
X58050812Y-26705518D01*
X58014502Y-26585820D01*
X57955537Y-26475506D01*
X57876185Y-26378815D01*
X57779494Y-26299463D01*
X57669180Y-26240498D01*
X57549482Y-26204188D01*
X57425000Y-26191928D01*
X56425000Y-26191928D01*
X56393808Y-26195000D01*
X56258711Y-26195000D01*
X55535000Y-25471290D01*
X55535000Y-25050835D01*
X55540007Y-25000000D01*
X55532817Y-24927000D01*
X55520024Y-24797105D01*
X55474615Y-24647415D01*
X55460841Y-24602006D01*
X55433044Y-24550000D01*
X66561928Y-24550000D01*
X66565000Y-26014250D01*
X66723750Y-26173000D01*
X67873000Y-26173000D01*
X67873000Y-24073750D01*
X68127000Y-24073750D01*
X68127000Y-26173000D01*
X69276250Y-26173000D01*
X69435000Y-26014250D01*
X69438072Y-24550000D01*
X69425812Y-24425518D01*
X69389502Y-24305820D01*
X69330537Y-24195506D01*
X69251185Y-24098815D01*
X69154494Y-24019463D01*
X69044180Y-23960498D01*
X68924482Y-23924188D01*
X68800000Y-23911928D01*
X68285750Y-23915000D01*
X68127000Y-24073750D01*
X67873000Y-24073750D01*
X67714250Y-23915000D01*
X67200000Y-23911928D01*
X67075518Y-23924188D01*
X66955820Y-23960498D01*
X66845506Y-24019463D01*
X66748815Y-24098815D01*
X66669463Y-24195506D01*
X66610498Y-24305820D01*
X66574188Y-24425518D01*
X66561928Y-24550000D01*
X55433044Y-24550000D01*
X55364734Y-24422202D01*
X55267803Y-24304092D01*
X55235396Y-24264604D01*
X55195908Y-24232197D01*
X54267807Y-23304097D01*
X54235396Y-23264604D01*
X54077797Y-23135266D01*
X53897993Y-23039159D01*
X53702895Y-22979976D01*
X53638072Y-22973592D01*
X53638072Y-22500000D01*
X53625812Y-22375518D01*
X53589502Y-22255820D01*
X53530537Y-22145506D01*
X53451185Y-22048815D01*
X53354494Y-21969463D01*
X53244180Y-21910498D01*
X53124482Y-21874188D01*
X53000000Y-21861928D01*
X50000000Y-21861928D01*
X49875518Y-21874188D01*
X49755820Y-21910498D01*
X49645506Y-21969463D01*
X49548815Y-22048815D01*
X49469463Y-22145506D01*
X49410498Y-22255820D01*
X49374188Y-22375518D01*
X49361928Y-22500000D01*
X46660000Y-22500000D01*
X46660000Y-22273380D01*
X47273381Y-21660000D01*
X55350420Y-21660000D01*
X55350420Y-22702120D01*
X55350420Y-22702120D02*
X55350420Y-21660000D01*
G04 #@! TA.AperFunction,Conductor*
G36*
X55350420Y-22702120D02*
G01*
X55356290Y-22761982D01*
X55359108Y-22792944D01*
X55357200Y-22811097D01*
X55350482Y-22870984D01*
X55350452Y-22875299D01*
X55350436Y-22875452D01*
X55350450Y-22875605D01*
X55350420Y-22879920D01*
X55350420Y-23103440D01*
X55356297Y-23163378D01*
X55361756Y-23223364D01*
X55362390Y-23225519D01*
X55362609Y-23227750D01*
X55379994Y-23285331D01*
X55397022Y-23343188D01*
X55398063Y-23345180D01*
X55398711Y-23347325D01*
X55426996Y-23400522D01*
X55454891Y-23453880D01*
X55456294Y-23455625D01*
X55457350Y-23457611D01*
X55495425Y-23504294D01*
X55533157Y-23551225D01*
X55534879Y-23552670D01*
X55536295Y-23554406D01*
X55582624Y-23592733D01*
X55628841Y-23631513D01*
X55630811Y-23632596D01*
X55632537Y-23634024D01*
X55685429Y-23662623D01*
X55738297Y-23691687D01*
X55740440Y-23692367D01*
X55742410Y-23693432D01*
X55799925Y-23711236D01*
X55857357Y-23729454D01*
X55859585Y-23729704D01*
X55861730Y-23730368D01*
X55921597Y-23736660D01*
X55981484Y-23743378D01*
X55985799Y-23743408D01*
X55985952Y-23743424D01*
X55986105Y-23743410D01*
X55990420Y-23743440D01*
X57138500Y-23743440D01*
X57198438Y-23737563D01*
X57258424Y-23732104D01*
X57260579Y-23731470D01*
X57262810Y-23731251D01*
X57320391Y-23713866D01*
X57365620Y-23700555D01*
X57400125Y-23711236D01*
X57457557Y-23729454D01*
X57459785Y-23729704D01*
X57461930Y-23730368D01*
X57521797Y-23736660D01*
X57581684Y-23743378D01*
X57585999Y-23743408D01*
X57586152Y-23743424D01*
X57586305Y-23743410D01*
X57590620Y-23743440D01*
X58682820Y-23743440D01*
X58742758Y-23737563D01*
X58802744Y-23732104D01*
X58804899Y-23731470D01*
X58807130Y-23731251D01*
X58864711Y-23713866D01*
X58922568Y-23696838D01*
X58924560Y-23695797D01*
X58926705Y-23695149D01*
X58979902Y-23666864D01*
X59033260Y-23638969D01*
X59035005Y-23637566D01*
X59036991Y-23636510D01*
X59083674Y-23598435D01*
X59130605Y-23560703D01*
X59132050Y-23558981D01*
X59133786Y-23557565D01*
X59139333Y-23550860D01*
X59156609Y-23561179D01*
X59174433Y-23569586D01*
X59190972Y-23580297D01*
X59198939Y-23584344D01*
X59251936Y-23610801D01*
X59270049Y-23617728D01*
X59287058Y-23627027D01*
X59295304Y-23630470D01*
X59349910Y-23652827D01*
X59368678Y-23658445D01*
X59386530Y-23666530D01*
X59395011Y-23669345D01*
X59450618Y-23687374D01*
X59470491Y-23691730D01*
X59489618Y-23698665D01*
X59498292Y-23700816D01*
X59554287Y-23714289D01*
X59575760Y-23717279D01*
X59596682Y-23722985D01*
X59605502Y-23724422D01*
X59661280Y-23733110D01*
X59670233Y-23733619D01*
X59678981Y-23735615D01*
X59687853Y-23736680D01*
X59692438Y-23737199D01*
X59701786Y-23738277D01*
X59707685Y-23738979D01*
X59711299Y-23739436D01*
X59727491Y-23739889D01*
X59743460Y-23742678D01*
X59752376Y-23743286D01*
X59755949Y-23743505D01*
X59764275Y-23743201D01*
X59772543Y-23744307D01*
X59781476Y-23744559D01*
X59789740Y-23744735D01*
X59789774Y-23744732D01*
X59789812Y-23744737D01*
X59798747Y-23744863D01*
X59810661Y-23744949D01*
X59810812Y-23744935D01*
X59815541Y-23744966D01*
X59830331Y-23744960D01*
X59830477Y-23744946D01*
X59833859Y-23744949D01*
X59850753Y-23744849D01*
X59850896Y-23744834D01*
X59853812Y-23744823D01*
X59872037Y-23744628D01*
X59872187Y-23744612D01*
X59876848Y-23744559D01*
X59900944Y-23744120D01*
X59901554Y-23744049D01*
X59902171Y-23744097D01*
X59911104Y-23743854D01*
X59934763Y-23743047D01*
X59938470Y-23742555D01*
X59942210Y-23742750D01*
X59951134Y-23742279D01*
X59971910Y-23741037D01*
X59978240Y-23740032D01*
X59984644Y-23740148D01*
X59993547Y-23739375D01*
X60012612Y-23737585D01*
X60020162Y-23736122D01*
X60027849Y-23735970D01*
X60036716Y-23734860D01*
X60055236Y-23732410D01*
X60061883Y-23730859D01*
X60068705Y-23730483D01*
X60077527Y-23729061D01*
X60096671Y-23725839D01*
X60100708Y-23724746D01*
X60104876Y-23724403D01*
X60113657Y-23722744D01*
X60134592Y-23718637D01*
X60144494Y-23715666D01*
X60154753Y-23714344D01*
X60163448Y-23712281D01*
X60216984Y-23699186D01*
X60235945Y-23692529D01*
X60255625Y-23688441D01*
X60264137Y-23685718D01*
X60322532Y-23666591D01*
X60342010Y-23658026D01*
X60362436Y-23652038D01*
X60370702Y-23648641D01*
X60427171Y-23624974D01*
X60445736Y-23614961D01*
X60465439Y-23607434D01*
X60473408Y-23603390D01*
X60527693Y-23575361D01*
X60545307Y-23563962D01*
X60564248Y-23554945D01*
X60571871Y-23550281D01*
X60623715Y-23518064D01*
X60640318Y-23505343D01*
X60658436Y-23494885D01*
X60665665Y-23489633D01*
X60714812Y-23453405D01*
X60730369Y-23439400D01*
X60747610Y-23427534D01*
X60754401Y-23421726D01*
X60800593Y-23381662D01*
X60815047Y-23366412D01*
X60820678Y-23361836D01*
X60837196Y-23392902D01*
X60865091Y-23446260D01*
X60866494Y-23448005D01*
X60867550Y-23449991D01*
X60905625Y-23496674D01*
X60943357Y-23543605D01*
X60945079Y-23545050D01*
X60946495Y-23546786D01*
X60992824Y-23585113D01*
X61039041Y-23623893D01*
X61041011Y-23624976D01*
X61042737Y-23626404D01*
X61095629Y-23655003D01*
X61148497Y-23684067D01*
X61150640Y-23684747D01*
X61152610Y-23685812D01*
X61210125Y-23703616D01*
X61267557Y-23721834D01*
X61269785Y-23722084D01*
X61271930Y-23722748D01*
X61331797Y-23729040D01*
X61391684Y-23735758D01*
X61395999Y-23735788D01*
X61396152Y-23735804D01*
X61396305Y-23735790D01*
X61400620Y-23735820D01*
X61621600Y-23735820D01*
X61681538Y-23729943D01*
X61741524Y-23724484D01*
X61743679Y-23723850D01*
X61745910Y-23723631D01*
X61803491Y-23706246D01*
X61861348Y-23689218D01*
X61863340Y-23688177D01*
X61865485Y-23687529D01*
X61918682Y-23659244D01*
X61972040Y-23631349D01*
X61973785Y-23629946D01*
X61975771Y-23628890D01*
X62022454Y-23590815D01*
X62069385Y-23553083D01*
X62070830Y-23551361D01*
X62072566Y-23549945D01*
X62110893Y-23503616D01*
X62134997Y-23474889D01*
X62152765Y-23496674D01*
X62190497Y-23543605D01*
X62192219Y-23545050D01*
X62193635Y-23546786D01*
X62239964Y-23585113D01*
X62286181Y-23623893D01*
X62288151Y-23624976D01*
X62289877Y-23626404D01*
X62342769Y-23655003D01*
X62395637Y-23684067D01*
X62397780Y-23684747D01*
X62399750Y-23685812D01*
X62457265Y-23703616D01*
X62514697Y-23721834D01*
X62516925Y-23722084D01*
X62519070Y-23722748D01*
X62578937Y-23729040D01*
X62638824Y-23735758D01*
X62643139Y-23735788D01*
X62643292Y-23735804D01*
X62643445Y-23735790D01*
X62647760Y-23735820D01*
X62868740Y-23735820D01*
X62928678Y-23729943D01*
X62988664Y-23724484D01*
X62990819Y-23723850D01*
X62993050Y-23723631D01*
X63050631Y-23706246D01*
X63098796Y-23692070D01*
X63107259Y-23694810D01*
X63156307Y-23712465D01*
X63166616Y-23714023D01*
X63176519Y-23717229D01*
X63228270Y-23723343D01*
X63279810Y-23731134D01*
X63290212Y-23730661D01*
X63300562Y-23731884D01*
X63309497Y-23731999D01*
X63421878Y-23732661D01*
X63421911Y-23732658D01*
X63422328Y-23732663D01*
X63439099Y-23732750D01*
X63439156Y-23732745D01*
X63440135Y-23732755D01*
X63462549Y-23732835D01*
X63462627Y-23732828D01*
X63463865Y-23732838D01*
X63484359Y-23732869D01*
X63484442Y-23732861D01*
X63485930Y-23732870D01*
X63503978Y-23732853D01*
X63504093Y-23732842D01*
X63506092Y-23732847D01*
X63521167Y-23732783D01*
X63521306Y-23732769D01*
X63524477Y-23732761D01*
X63536052Y-23732652D01*
X63536172Y-23732639D01*
X63542824Y-23732552D01*
X63550374Y-23732401D01*
X63560160Y-23731243D01*
X63570008Y-23731707D01*
X63578929Y-23731191D01*
X63581925Y-23730997D01*
X63583664Y-23730712D01*
X63585436Y-23730761D01*
X63609431Y-23726694D01*
X63617711Y-23726517D01*
X63638113Y-23722022D01*
X63674415Y-23717728D01*
X63686194Y-23713913D01*
X63705188Y-23710801D01*
X63706841Y-23710183D01*
X63708586Y-23709887D01*
X63729787Y-23701825D01*
X63739692Y-23699643D01*
X63766618Y-23687865D01*
X63793244Y-23679242D01*
X63800717Y-23675075D01*
X63822180Y-23667048D01*
X63823679Y-23666122D01*
X63825336Y-23665492D01*
X63842943Y-23654481D01*
X63854130Y-23649588D01*
X63883337Y-23629270D01*
X63887779Y-23626526D01*
X63902335Y-23618409D01*
X63906109Y-23615203D01*
X63928446Y-23601405D01*
X63929743Y-23600200D01*
X63931239Y-23599264D01*
X63944833Y-23586490D01*
X63956666Y-23578258D01*
X63985465Y-23548411D01*
X63993173Y-23541246D01*
X63997532Y-23537544D01*
X63998589Y-23536213D01*
X64019938Y-23516371D01*
X64020974Y-23514939D01*
X64022262Y-23513729D01*
X64027420Y-23507749D01*
X64055793Y-23543093D01*
X64067373Y-23552825D01*
X64077378Y-23564150D01*
X64115081Y-23592917D01*
X64151417Y-23623452D01*
X64164665Y-23630748D01*
X64176681Y-23639916D01*
X64219258Y-23660814D01*
X64260828Y-23683708D01*
X64275238Y-23688291D01*
X64288809Y-23694952D01*
X64334651Y-23707186D01*
X64379860Y-23721564D01*
X64394883Y-23723261D01*
X64409491Y-23727159D01*
X64456829Y-23730256D01*
X64503976Y-23735580D01*
X64512912Y-23735649D01*
X64626788Y-23735734D01*
X64626855Y-23735727D01*
X64627952Y-23735734D01*
X64656882Y-23735703D01*
X64657020Y-23735689D01*
X64659751Y-23735693D01*
X64684955Y-23735553D01*
X64685106Y-23735537D01*
X64688915Y-23735519D01*
X64709863Y-23735273D01*
X64710009Y-23735257D01*
X64715821Y-23735175D01*
X64732350Y-23734827D01*
X64733108Y-23734736D01*
X64733881Y-23734794D01*
X64742813Y-23734521D01*
X64754757Y-23734074D01*
X64762294Y-23733049D01*
X64769900Y-23733328D01*
X64778815Y-23732720D01*
X64786009Y-23732179D01*
X64819522Y-23726330D01*
X64846630Y-23724451D01*
X64863600Y-23719852D01*
X64875008Y-23718537D01*
X64884149Y-23715607D01*
X64900849Y-23712920D01*
X64909030Y-23710706D01*
X64909055Y-23710702D01*
X64909075Y-23710694D01*
X64909475Y-23710586D01*
X64911756Y-23709952D01*
X64939004Y-23699416D01*
X64967187Y-23691778D01*
X64983138Y-23683873D01*
X64993951Y-23680406D01*
X65007337Y-23672994D01*
X65028256Y-23664905D01*
X65052934Y-23649280D01*
X65079102Y-23636311D01*
X65093294Y-23625396D01*
X65103223Y-23619898D01*
X65114862Y-23610071D01*
X65133788Y-23598088D01*
X65154959Y-23577970D01*
X65178112Y-23560163D01*
X65189899Y-23546716D01*
X65198661Y-23539318D01*
X65208209Y-23527368D01*
X65224333Y-23512046D01*
X65241197Y-23488193D01*
X65260445Y-23466234D01*
X65269319Y-23450886D01*
X65276630Y-23441736D01*
X65283770Y-23427975D01*
X65296440Y-23410055D01*
X65308350Y-23383379D01*
X65322966Y-23358101D01*
X65328604Y-23341574D01*
X65334160Y-23330867D01*
X65338583Y-23315667D01*
X65347364Y-23296001D01*
X65353865Y-23267527D01*
X65363295Y-23239884D01*
X65365566Y-23222947D01*
X65369061Y-23210936D01*
X65370487Y-23194720D01*
X65375165Y-23174229D01*
X65376011Y-23145032D01*
X65379892Y-23116086D01*
X65378859Y-23099499D01*
X65380001Y-23086510D01*
X65378192Y-23069791D01*
X65378784Y-23049375D01*
X65373944Y-23020572D01*
X65372128Y-22991421D01*
X65368032Y-22975880D01*
X65366566Y-22962328D01*
X65361358Y-22945685D01*
X65358083Y-22926196D01*
X65347737Y-22898872D01*
X65340296Y-22870639D01*
X65333524Y-22856731D01*
X65329265Y-22843121D01*
X65320608Y-22827226D01*
X65313852Y-22809384D01*
X65298395Y-22784590D01*
X65285613Y-22758340D01*
X65280882Y-22750758D01*
X65280619Y-22750344D01*
X65274377Y-22742345D01*
X65269522Y-22733430D01*
X65264451Y-22726072D01*
X65261763Y-22722231D01*
X65261665Y-22722117D01*
X65258704Y-22717896D01*
X65253236Y-22710215D01*
X65253172Y-22710141D01*
X65252260Y-22708849D01*
X65244152Y-22697524D01*
X65244116Y-22697483D01*
X65243637Y-22696806D01*
X65233032Y-22682035D01*
X65233006Y-22682006D01*
X65232735Y-22681623D01*
X65219773Y-22663601D01*
X65219760Y-22663586D01*
X65219549Y-22663289D01*
X65204372Y-22642214D01*
X65204356Y-22642196D01*
X65204219Y-22642003D01*
X65186969Y-22618069D01*
X65186962Y-22618061D01*
X65186851Y-22617905D01*
X65167671Y-22591312D01*
X65167660Y-22591299D01*
X65167570Y-22591173D01*
X65146601Y-22562116D01*
X65146599Y-22562114D01*
X65146521Y-22562004D01*
X65123905Y-22530679D01*
X65123899Y-22530672D01*
X65123822Y-22530564D01*
X65099701Y-22497170D01*
X65099695Y-22497163D01*
X65099640Y-22497086D01*
X65074156Y-22461818D01*
X65074154Y-22461816D01*
X65074088Y-22461723D01*
X65047382Y-22424777D01*
X65047376Y-22424770D01*
X65047321Y-22424693D01*
X65019535Y-22386266D01*
X65019478Y-22386186D01*
X64990755Y-22346476D01*
X64990747Y-22346467D01*
X64990700Y-22346401D01*
X64961181Y-22305603D01*
X64961179Y-22305600D01*
X64961167Y-22305584D01*
X64949433Y-22289368D01*
X64949374Y-22289285D01*
X64936339Y-22271266D01*
X64938631Y-22268132D01*
X64938633Y-22268129D01*
X64968568Y-22227217D01*
X64968618Y-22227150D01*
X65274766Y-21808817D01*
X65280081Y-21799828D01*
X65286783Y-21791823D01*
X65311827Y-21746143D01*
X65338344Y-21701302D01*
X65341811Y-21691454D01*
X65346831Y-21682299D01*
X65353876Y-21660000D01*
X73987123Y-21660000D01*
X73990000Y-24389250D01*
X74148750Y-24548000D01*
X77398000Y-24548000D01*
X77398000Y-24528000D01*
X77652000Y-24528000D01*
X77652000Y-24548000D01*
X80901250Y-24548000D01*
X81060000Y-24389250D01*
X81061411Y-23050000D01*
X85561928Y-23050000D01*
X85565000Y-24514250D01*
X85723750Y-24673000D01*
X86873000Y-24673000D01*
X86873000Y-22573750D01*
X87127000Y-22573750D01*
X87127000Y-24673000D01*
X88276250Y-24673000D01*
X88435000Y-24514250D01*
X88438072Y-23050000D01*
X88425812Y-22925518D01*
X88389502Y-22805820D01*
X88330537Y-22695506D01*
X88251185Y-22598815D01*
X88154494Y-22519463D01*
X88044180Y-22460498D01*
X87924482Y-22424188D01*
X87800000Y-22411928D01*
X87285750Y-22415000D01*
X87127000Y-22573750D01*
X86873000Y-22573750D01*
X86714250Y-22415000D01*
X86200000Y-22411928D01*
X86075518Y-22424188D01*
X85955820Y-22460498D01*
X85845506Y-22519463D01*
X85748815Y-22598815D01*
X85669463Y-22695506D01*
X85610498Y-22805820D01*
X85574188Y-22925518D01*
X85561928Y-23050000D01*
X81061411Y-23050000D01*
X81062877Y-21660000D01*
X97873000Y-21660000D01*
X97873000Y-50340000D01*
X88840867Y-50340000D01*
X91061433Y-48119436D01*
X91093291Y-48093291D01*
X91121345Y-48059108D01*
X91197636Y-47966146D01*
X91275172Y-47821087D01*
X91322918Y-47663689D01*
X91339040Y-47500000D01*
X91335000Y-47458982D01*
X91335000Y-47279872D01*
X92765000Y-47279872D01*
X92765000Y-47720128D01*
X92850890Y-48151925D01*
X93019369Y-48558669D01*
X93263962Y-48924729D01*
X93575271Y-49236038D01*
X93941331Y-49480631D01*
X94348075Y-49649110D01*
X94779872Y-49735000D01*
X95220128Y-49735000D01*
X95651925Y-49649110D01*
X96058669Y-49480631D01*
X96424729Y-49236038D01*
X96736038Y-48924729D01*
X96980631Y-48558669D01*
X97149110Y-48151925D01*
X97235000Y-47720128D01*
X97235000Y-47279872D01*
X97149110Y-46848075D01*
X96980631Y-46441331D01*
X96736038Y-46075271D01*
X96424729Y-45763962D01*
X96058669Y-45519369D01*
X95651925Y-45350890D01*
X95220128Y-45265000D01*
X94779872Y-45265000D01*
X94348075Y-45350890D01*
X93941331Y-45519369D01*
X93575271Y-45763962D01*
X93263962Y-46075271D01*
X93019369Y-46441331D01*
X92850890Y-46848075D01*
X92765000Y-47279872D01*
X91335000Y-47279872D01*
X91335000Y-46921868D01*
X91362115Y-46899615D01*
X91468671Y-46769775D01*
X91547850Y-46621642D01*
X91596608Y-46460908D01*
X91613072Y-46293750D01*
X91613072Y-45856250D01*
X91596608Y-45689092D01*
X91547850Y-45528358D01*
X91468671Y-45380225D01*
X91392574Y-45287500D01*
X91468671Y-45194775D01*
X91547850Y-45046642D01*
X91596608Y-44885908D01*
X91613072Y-44718750D01*
X91613072Y-44281250D01*
X91596608Y-44114092D01*
X91547850Y-43953358D01*
X91473115Y-43813538D01*
X91480537Y-43804494D01*
X91500000Y-43768082D01*
X91519463Y-43804494D01*
X91598815Y-43901185D01*
X91695506Y-43980537D01*
X91805820Y-44039502D01*
X91925518Y-44075812D01*
X92050000Y-44088072D01*
X92164250Y-44085000D01*
X92323000Y-43926250D01*
X92323000Y-43127000D01*
X92577000Y-43127000D01*
X92577000Y-43926250D01*
X92735750Y-44085000D01*
X92850000Y-44088072D01*
X92974482Y-44075812D01*
X93094180Y-44039502D01*
X93204494Y-43980537D01*
X93301185Y-43901185D01*
X93380537Y-43804494D01*
X93439502Y-43694180D01*
X93475812Y-43574482D01*
X93488072Y-43450000D01*
X93485000Y-43285750D01*
X93326250Y-43127000D01*
X92577000Y-43127000D01*
X92323000Y-43127000D01*
X92303000Y-43127000D01*
X92303000Y-42873000D01*
X92323000Y-42873000D01*
X92323000Y-42073750D01*
X92577000Y-42073750D01*
X92577000Y-42873000D01*
X93326250Y-42873000D01*
X93485000Y-42714250D01*
X93488072Y-42550000D01*
X93475812Y-42425518D01*
X93439502Y-42305820D01*
X93380537Y-42195506D01*
X93301185Y-42098815D01*
X93204494Y-42019463D01*
X93094180Y-41960498D01*
X92974482Y-41924188D01*
X92850000Y-41911928D01*
X92735750Y-41915000D01*
X92577000Y-42073750D01*
X92323000Y-42073750D01*
X92238393Y-41989143D01*
X92254494Y-41980537D01*
X92351185Y-41901185D01*
X92430537Y-41804494D01*
X92489502Y-41694180D01*
X92525812Y-41574482D01*
X92538072Y-41450000D01*
X92538072Y-40550000D01*
X92535000Y-40518808D01*
X92535000Y-39872621D01*
X92644180Y-39839502D01*
X92730227Y-39793508D01*
X92764604Y-39835396D01*
X92804097Y-39867807D01*
X93632197Y-40695908D01*
X93664604Y-40735396D01*
X93704092Y-40767803D01*
X93822202Y-40864734D01*
X93881281Y-40896312D01*
X93966026Y-40941609D01*
X93974188Y-41024482D01*
X94010498Y-41144180D01*
X94069463Y-41254494D01*
X94148815Y-41351185D01*
X94245506Y-41430537D01*
X94355820Y-41489502D01*
X94475518Y-41525812D01*
X94600000Y-41538072D01*
X96400000Y-41538072D01*
X96524482Y-41525812D01*
X96644180Y-41489502D01*
X96754494Y-41430537D01*
X96851185Y-41351185D01*
X96930537Y-41254494D01*
X96989502Y-41144180D01*
X97025812Y-41024482D01*
X97038072Y-40900000D01*
X97038072Y-39100000D01*
X97025812Y-38975518D01*
X96989502Y-38855820D01*
X96930537Y-38745506D01*
X96851185Y-38648815D01*
X96754494Y-38569463D01*
X96644180Y-38510498D01*
X96524482Y-38474188D01*
X96400000Y-38461928D01*
X94600000Y-38461928D01*
X94536870Y-38468146D01*
X94533236Y-38431250D01*
X94520024Y-38297106D01*
X94460841Y-38102008D01*
X94443446Y-38069463D01*
X94364734Y-37922203D01*
X94355128Y-37910498D01*
X94235396Y-37764604D01*
X94195903Y-37732193D01*
X93767807Y-37304097D01*
X93735396Y-37264604D01*
X93577797Y-37135266D01*
X93397993Y-37039159D01*
X93202895Y-36979976D01*
X93050838Y-36965000D01*
X93050828Y-36965000D01*
X93038072Y-36963744D01*
X93038072Y-36750000D01*
X93025812Y-36625518D01*
X92989502Y-36505820D01*
X92930537Y-36395506D01*
X92851185Y-36298815D01*
X92754494Y-36219463D01*
X92644180Y-36160498D01*
X92524482Y-36124188D01*
X92400000Y-36111928D01*
X90600000Y-36111928D01*
X90475518Y-36124188D01*
X90355820Y-36160498D01*
X90245506Y-36219463D01*
X90148815Y-36298815D01*
X90069463Y-36395506D01*
X90010498Y-36505820D01*
X89974188Y-36625518D01*
X89961928Y-36750000D01*
X89961928Y-38952500D01*
X89431556Y-38952500D01*
X89468671Y-38907275D01*
X89547850Y-38759142D01*
X89596608Y-38598408D01*
X89613072Y-38431250D01*
X89613072Y-37993750D01*
X89596608Y-37826592D01*
X89547850Y-37665858D01*
X89468671Y-37517725D01*
X89366928Y-37393750D01*
X89468671Y-37269775D01*
X89547850Y-37121642D01*
X89596608Y-36960908D01*
X89613072Y-36793750D01*
X89613072Y-36356250D01*
X89596608Y-36189092D01*
X89547850Y-36028358D01*
X89468671Y-35880225D01*
X89392574Y-35787500D01*
X89468671Y-35694775D01*
X89547850Y-35546642D01*
X89596608Y-35385908D01*
X89613072Y-35218750D01*
X89613072Y-34835000D01*
X89961928Y-34835000D01*
X89961928Y-35250000D01*
X89974188Y-35374482D01*
X90010498Y-35494180D01*
X90069463Y-35604494D01*
X90148815Y-35701185D01*
X90245506Y-35780537D01*
X90355820Y-35839502D01*
X90475518Y-35875812D01*
X90600000Y-35888072D01*
X92400000Y-35888072D01*
X92524482Y-35875812D01*
X92644180Y-35839502D01*
X92754494Y-35780537D01*
X92851185Y-35701185D01*
X92930537Y-35604494D01*
X92989502Y-35494180D01*
X93025812Y-35374482D01*
X93038072Y-35250000D01*
X93038072Y-35035000D01*
X93549172Y-35035000D01*
X93600000Y-35040006D01*
X93650828Y-35035000D01*
X93650838Y-35035000D01*
X93802895Y-35020024D01*
X93997993Y-34960841D01*
X94177797Y-34864734D01*
X94335396Y-34735396D01*
X94367807Y-34695903D01*
X95181910Y-33881800D01*
X95348816Y-33915000D01*
X95651184Y-33915000D01*
X95947743Y-33856011D01*
X96227095Y-33740299D01*
X96478505Y-33572312D01*
X96692312Y-33358505D01*
X96860299Y-33107095D01*
X96976011Y-32827743D01*
X97035000Y-32531184D01*
X97035000Y-32228816D01*
X96976011Y-31932257D01*
X96860299Y-31652905D01*
X96692312Y-31401495D01*
X96478505Y-31187688D01*
X96227095Y-31019701D01*
X95947743Y-30903989D01*
X95651184Y-30845000D01*
X95348816Y-30845000D01*
X95052257Y-30903989D01*
X94772905Y-31019701D01*
X94521495Y-31187688D01*
X94307688Y-31401495D01*
X94139701Y-31652905D01*
X94023989Y-31932257D01*
X93979284Y-32157005D01*
X93171290Y-32965000D01*
X93038072Y-32965000D01*
X93038072Y-32750000D01*
X93025812Y-32625518D01*
X92989502Y-32505820D01*
X92930537Y-32395506D01*
X92851185Y-32298815D01*
X92754494Y-32219463D01*
X92644180Y-32160498D01*
X92535000Y-32127379D01*
X92535000Y-29750835D01*
X92540007Y-29700000D01*
X92535000Y-29649162D01*
X92520024Y-29497105D01*
X92460841Y-29302007D01*
X92364734Y-29122203D01*
X92235396Y-28964604D01*
X92195903Y-28932193D01*
X91767807Y-28504097D01*
X91735396Y-28464604D01*
X91577797Y-28335266D01*
X91397993Y-28239159D01*
X91202895Y-28179976D01*
X91050838Y-28165000D01*
X91050828Y-28165000D01*
X91000000Y-28159994D01*
X90949172Y-28165000D01*
X88438072Y-28165000D01*
X88438072Y-27699600D01*
X88421016Y-27526424D01*
X88370502Y-27359903D01*
X88288472Y-27206436D01*
X88178079Y-27071921D01*
X88171536Y-27066551D01*
X88251185Y-27001185D01*
X88330537Y-26904494D01*
X88389502Y-26794180D01*
X88425812Y-26674482D01*
X88438072Y-26550000D01*
X88435408Y-25279872D01*
X92765000Y-25279872D01*
X92765000Y-25720128D01*
X92850890Y-26151925D01*
X93019369Y-26558669D01*
X93263962Y-26924729D01*
X93575271Y-27236038D01*
X93941331Y-27480631D01*
X94348075Y-27649110D01*
X94779872Y-27735000D01*
X95220128Y-27735000D01*
X95651925Y-27649110D01*
X96058669Y-27480631D01*
X96424729Y-27236038D01*
X96736038Y-26924729D01*
X96980631Y-26558669D01*
X97149110Y-26151925D01*
X97235000Y-25720128D01*
X97235000Y-25279872D01*
X97149110Y-24848075D01*
X96980631Y-24441331D01*
X96736038Y-24075271D01*
X96424729Y-23763962D01*
X96058669Y-23519369D01*
X95651925Y-23350890D01*
X95220128Y-23265000D01*
X94779872Y-23265000D01*
X94348075Y-23350890D01*
X93941331Y-23519369D01*
X93575271Y-23763962D01*
X93263962Y-24075271D01*
X93019369Y-24441331D01*
X92850890Y-24848075D01*
X92765000Y-25279872D01*
X88435408Y-25279872D01*
X88435000Y-25085750D01*
X88276250Y-24927000D01*
X87127000Y-24927000D01*
X87127000Y-24947000D01*
X86873000Y-24947000D01*
X86873000Y-24927000D01*
X85723750Y-24927000D01*
X85565000Y-25085750D01*
X85561928Y-26550000D01*
X85574188Y-26674482D01*
X85610498Y-26794180D01*
X85669463Y-26904494D01*
X85748815Y-27001185D01*
X85828464Y-27066551D01*
X85821921Y-27071921D01*
X85711528Y-27206436D01*
X85629498Y-27359903D01*
X85578984Y-27526424D01*
X85561928Y-27699600D01*
X85561928Y-28165000D01*
X85450827Y-28165000D01*
X85399999Y-28159994D01*
X85349171Y-28165000D01*
X85349162Y-28165000D01*
X85197105Y-28179976D01*
X85002007Y-28239159D01*
X84944296Y-28270006D01*
X84822202Y-28335266D01*
X84704092Y-28432197D01*
X84664604Y-28464604D01*
X84632197Y-28504092D01*
X83271290Y-29865000D01*
X83073354Y-29865000D01*
X83100812Y-29774482D01*
X83113072Y-29650000D01*
X83110000Y-29498250D01*
X82951250Y-29339500D01*
X82127000Y-29339500D01*
X82127000Y-29359500D01*
X81873000Y-29359500D01*
X81873000Y-29339500D01*
X81048750Y-29339500D01*
X80904979Y-29483271D01*
X80856185Y-29423815D01*
X80759494Y-29344463D01*
X80649180Y-29285498D01*
X80529482Y-29249188D01*
X80405000Y-29236928D01*
X79205000Y-29236928D01*
X79080518Y-29249188D01*
X78960820Y-29285498D01*
X78850506Y-29344463D01*
X78753815Y-29423815D01*
X78674463Y-29520506D01*
X78615498Y-29630820D01*
X78579188Y-29750518D01*
X78566928Y-29875000D01*
X78566928Y-31965000D01*
X77563285Y-31965000D01*
X77440256Y-31882795D01*
X77251898Y-31804774D01*
X77051939Y-31765000D01*
X76848061Y-31765000D01*
X76648102Y-31804774D01*
X76483072Y-31873132D01*
X76483072Y-29875000D01*
X76470812Y-29750518D01*
X76434502Y-29630820D01*
X76375537Y-29520506D01*
X76296185Y-29423815D01*
X76199494Y-29344463D01*
X76089180Y-29285498D01*
X75969482Y-29249188D01*
X75845000Y-29236928D01*
X74645000Y-29236928D01*
X74520518Y-29249188D01*
X74400820Y-29285498D01*
X74290506Y-29344463D01*
X74193815Y-29423815D01*
X74114463Y-29520506D01*
X74110597Y-29527739D01*
X74110000Y-29498250D01*
X73951250Y-29339500D01*
X73127000Y-29339500D01*
X73127000Y-29359500D01*
X72873000Y-29359500D01*
X72873000Y-29339500D01*
X72048750Y-29339500D01*
X71890000Y-29498250D01*
X71886928Y-29650000D01*
X71898254Y-29765000D01*
X71050827Y-29765000D01*
X70999999Y-29759994D01*
X70949171Y-29765000D01*
X70949162Y-29765000D01*
X70797105Y-29779976D01*
X70602007Y-29839159D01*
X70553662Y-29865000D01*
X70422202Y-29935266D01*
X70398186Y-29954976D01*
X70264604Y-30064604D01*
X70232193Y-30104097D01*
X69971290Y-30365000D01*
X69438072Y-30365000D01*
X69438072Y-29199600D01*
X69421016Y-29026424D01*
X69370502Y-28859903D01*
X69325121Y-28775000D01*
X71886928Y-28775000D01*
X71890000Y-28926750D01*
X72048750Y-29085500D01*
X72873000Y-29085500D01*
X72873000Y-28298750D01*
X73127000Y-28298750D01*
X73127000Y-29085500D01*
X73951250Y-29085500D01*
X74110000Y-28926750D01*
X74113072Y-28775000D01*
X80886928Y-28775000D01*
X80890000Y-28926750D01*
X81048750Y-29085500D01*
X81873000Y-29085500D01*
X81873000Y-28298750D01*
X82127000Y-28298750D01*
X82127000Y-29085500D01*
X82951250Y-29085500D01*
X83110000Y-28926750D01*
X83113072Y-28775000D01*
X83100812Y-28650518D01*
X83064502Y-28530820D01*
X83005537Y-28420506D01*
X82926185Y-28323815D01*
X82829494Y-28244463D01*
X82719180Y-28185498D01*
X82599482Y-28149188D01*
X82475000Y-28136928D01*
X82285750Y-28140000D01*
X82127000Y-28298750D01*
X81873000Y-28298750D01*
X81714250Y-28140000D01*
X81525000Y-28136928D01*
X81400518Y-28149188D01*
X81280820Y-28185498D01*
X81170506Y-28244463D01*
X81073815Y-28323815D01*
X80994463Y-28420506D01*
X80935498Y-28530820D01*
X80899188Y-28650518D01*
X80886928Y-28775000D01*
X74113072Y-28775000D01*
X74100812Y-28650518D01*
X74064502Y-28530820D01*
X74005537Y-28420506D01*
X73926185Y-28323815D01*
X73829494Y-28244463D01*
X73719180Y-28185498D01*
X73599482Y-28149188D01*
X73475000Y-28136928D01*
X73285750Y-28140000D01*
X73127000Y-28298750D01*
X72873000Y-28298750D01*
X72714250Y-28140000D01*
X72525000Y-28136928D01*
X72400518Y-28149188D01*
X72280820Y-28185498D01*
X72170506Y-28244463D01*
X72073815Y-28323815D01*
X71994463Y-28420506D01*
X71935498Y-28530820D01*
X71899188Y-28650518D01*
X71886928Y-28775000D01*
X69325121Y-28775000D01*
X69288472Y-28706436D01*
X69178079Y-28571921D01*
X69171536Y-28566551D01*
X69251185Y-28501185D01*
X69330537Y-28404494D01*
X69389502Y-28294180D01*
X69425812Y-28174482D01*
X69438072Y-28050000D01*
X69437705Y-27875000D01*
X73986928Y-27875000D01*
X73999188Y-27999482D01*
X74035498Y-28119180D01*
X74094463Y-28229494D01*
X74173815Y-28326185D01*
X74270506Y-28405537D01*
X74380820Y-28464502D01*
X74500518Y-28500812D01*
X74625000Y-28513072D01*
X77239250Y-28510000D01*
X77398000Y-28351250D01*
X77398000Y-24802000D01*
X77652000Y-24802000D01*
X77652000Y-28351250D01*
X77810750Y-28510000D01*
X80425000Y-28513072D01*
X80549482Y-28500812D01*
X80669180Y-28464502D01*
X80779494Y-28405537D01*
X80876185Y-28326185D01*
X80955537Y-28229494D01*
X81014502Y-28119180D01*
X81050812Y-27999482D01*
X81063072Y-27875000D01*
X81060000Y-24960750D01*
X80901250Y-24802000D01*
X77652000Y-24802000D01*
X77398000Y-24802000D01*
X74148750Y-24802000D01*
X73990000Y-24960750D01*
X73986928Y-27875000D01*
X69437705Y-27875000D01*
X69435000Y-26585750D01*
X69276250Y-26427000D01*
X68127000Y-26427000D01*
X68127000Y-26447000D01*
X67873000Y-26447000D01*
X67873000Y-26427000D01*
X66723750Y-26427000D01*
X66565000Y-26585750D01*
X66561928Y-28050000D01*
X66574188Y-28174482D01*
X66610498Y-28294180D01*
X66669463Y-28404494D01*
X66748815Y-28501185D01*
X66828464Y-28566551D01*
X66821921Y-28571921D01*
X66711528Y-28706436D01*
X66629498Y-28859903D01*
X66578984Y-29026424D01*
X66561928Y-29199600D01*
X66561928Y-29398218D01*
X66237807Y-29074097D01*
X66205396Y-29034604D01*
X66047797Y-28905266D01*
X65867993Y-28809159D01*
X65672895Y-28749976D01*
X65520838Y-28735000D01*
X65520828Y-28735000D01*
X65470000Y-28729994D01*
X65419172Y-28735000D01*
X63606192Y-28735000D01*
X63575000Y-28731928D01*
X62575000Y-28731928D01*
X62450518Y-28744188D01*
X62330820Y-28780498D01*
X62220506Y-28839463D01*
X62123815Y-28918815D01*
X62044463Y-29015506D01*
X61985498Y-29125820D01*
X61949188Y-29245518D01*
X61936928Y-29370000D01*
X61936928Y-30170000D01*
X61947125Y-30273540D01*
X61906709Y-30306709D01*
X61880558Y-30338574D01*
X61338574Y-30880559D01*
X61306710Y-30906709D01*
X61250665Y-30975000D01*
X61202364Y-31033855D01*
X61124828Y-31178914D01*
X61077082Y-31336312D01*
X61060960Y-31500000D01*
X61065001Y-31541028D01*
X61065001Y-32059043D01*
X61045506Y-32069463D01*
X60948815Y-32148815D01*
X60869463Y-32245506D01*
X60810498Y-32355820D01*
X60803921Y-32377500D01*
X60041018Y-32377500D01*
X60000000Y-32373460D01*
X59958981Y-32377500D01*
X59836311Y-32389582D01*
X59678913Y-32437328D01*
X59533854Y-32514864D01*
X59406709Y-32619209D01*
X59302364Y-32746354D01*
X59224828Y-32891413D01*
X59177082Y-33048811D01*
X59160960Y-33212500D01*
X59165000Y-33253519D01*
X59165000Y-33365632D01*
X59137885Y-33387885D01*
X59031329Y-33517725D01*
X59000000Y-33576337D01*
X58968671Y-33517725D01*
X58862115Y-33387885D01*
X58732275Y-33281329D01*
X58584142Y-33202150D01*
X58423408Y-33153392D01*
X58256250Y-33136928D01*
X57743750Y-33136928D01*
X57576592Y-33153392D01*
X57415858Y-33202150D01*
X57267725Y-33281329D01*
X57137885Y-33387885D01*
X57115632Y-33415000D01*
X57041007Y-33415000D01*
X56999999Y-33410961D01*
X56958991Y-33415000D01*
X56958981Y-33415000D01*
X56836311Y-33427082D01*
X56678913Y-33474828D01*
X56533854Y-33552364D01*
X56406709Y-33656709D01*
X56380554Y-33688579D01*
X56188574Y-33880559D01*
X56156710Y-33906709D01*
X56080148Y-34000000D01*
X56052364Y-34033855D01*
X56022867Y-34089040D01*
X55974828Y-34178913D01*
X55927082Y-34336311D01*
X55923348Y-34374221D01*
X55832795Y-34509744D01*
X55754774Y-34698102D01*
X55715000Y-34898061D01*
X55715000Y-35101939D01*
X55754774Y-35301898D01*
X55832795Y-35490256D01*
X55946063Y-35659774D01*
X56090226Y-35803937D01*
X56259744Y-35917205D01*
X56448102Y-35995226D01*
X56648061Y-36035000D01*
X56851939Y-36035000D01*
X56889033Y-36027622D01*
X56903392Y-36173408D01*
X56952150Y-36334142D01*
X57031329Y-36482275D01*
X57137885Y-36612115D01*
X57165000Y-36634368D01*
X57165001Y-37144498D01*
X57098815Y-37198815D01*
X57019463Y-37295506D01*
X56960498Y-37405820D01*
X56924188Y-37525518D01*
X56911928Y-37650000D01*
X56911928Y-38450000D01*
X56924188Y-38574482D01*
X56960498Y-38694180D01*
X57019463Y-38804494D01*
X57098815Y-38901185D01*
X57195506Y-38980537D01*
X57231918Y-39000000D01*
X57195506Y-39019463D01*
X57098815Y-39098815D01*
X57019463Y-39195506D01*
X56960498Y-39305820D01*
X56924188Y-39425518D01*
X56911928Y-39550000D01*
X56915000Y-39664250D01*
X57073750Y-39823000D01*
X57873000Y-39823000D01*
X57873000Y-39803000D01*
X58127000Y-39803000D01*
X58127000Y-39823000D01*
X58926250Y-39823000D01*
X59010857Y-39738393D01*
X59019463Y-39754494D01*
X59098815Y-39851185D01*
X59165001Y-39905502D01*
X59165001Y-39954131D01*
X58984191Y-40134941D01*
X58926250Y-40077000D01*
X58127000Y-40077000D01*
X58127000Y-40826250D01*
X58209941Y-40909191D01*
X56156052Y-42963081D01*
X56147599Y-42961400D01*
X55852401Y-42961400D01*
X55562875Y-43018990D01*
X55290147Y-43131958D01*
X55044698Y-43295961D01*
X54835961Y-43504698D01*
X54671958Y-43750147D01*
X54558990Y-44022875D01*
X54501400Y-44312401D01*
X54501400Y-44607599D01*
X54558990Y-44897125D01*
X54671958Y-45169853D01*
X54835961Y-45415302D01*
X54950023Y-45529364D01*
X54892220Y-45546898D01*
X54781906Y-45605863D01*
X54685215Y-45685215D01*
X54605863Y-45781906D01*
X54546898Y-45892220D01*
X54510588Y-46011918D01*
X54498328Y-46136400D01*
X54498328Y-47863600D01*
X54510588Y-47988082D01*
X54546898Y-48107780D01*
X54605863Y-48218094D01*
X54685215Y-48314785D01*
X54746402Y-48365000D01*
X50445868Y-48365000D01*
X50035000Y-47954133D01*
X50035000Y-47846868D01*
X50062115Y-47824615D01*
X50168671Y-47694775D01*
X50247850Y-47546642D01*
X50296608Y-47385908D01*
X50313072Y-47218750D01*
X50313072Y-46781250D01*
X50296608Y-46614092D01*
X50247850Y-46453358D01*
X50168671Y-46305225D01*
X50150900Y-46283570D01*
X50205537Y-46216994D01*
X50264502Y-46106680D01*
X50300812Y-45986982D01*
X50313072Y-45862500D01*
X50310000Y-45710750D01*
X50151250Y-45552000D01*
X49327000Y-45552000D01*
X49327000Y-45572000D01*
X49073000Y-45572000D01*
X49073000Y-45552000D01*
X48248750Y-45552000D01*
X48090000Y-45710750D01*
X48086928Y-45862500D01*
X48099188Y-45986982D01*
X48135498Y-46106680D01*
X48194463Y-46216994D01*
X48249100Y-46283570D01*
X48231329Y-46305225D01*
X48152150Y-46453358D01*
X48103392Y-46614092D01*
X48086928Y-46781250D01*
X48086928Y-47218750D01*
X48103392Y-47385908D01*
X48152150Y-47546642D01*
X48231329Y-47694775D01*
X48337885Y-47824615D01*
X48365001Y-47846868D01*
X48365001Y-48258972D01*
X48360960Y-48300000D01*
X48377082Y-48463688D01*
X48424828Y-48621086D01*
X48488934Y-48741019D01*
X48502365Y-48766146D01*
X48606710Y-48893291D01*
X48638574Y-48919441D01*
X49480558Y-49761426D01*
X49506709Y-49793291D01*
X49633854Y-49897636D01*
X49778913Y-49975172D01*
X49936311Y-50022918D01*
X50058981Y-50035000D01*
X50058983Y-50035000D01*
X50099999Y-50039040D01*
X50141015Y-50035000D01*
X57958982Y-50035000D01*
X58000000Y-50039040D01*
X58041018Y-50035000D01*
X58041019Y-50035000D01*
X58163689Y-50022918D01*
X58321087Y-49975172D01*
X58466146Y-49897636D01*
X58593291Y-49793291D01*
X58619445Y-49761422D01*
X59061427Y-49319441D01*
X59093291Y-49293291D01*
X59197636Y-49166146D01*
X59275172Y-49021087D01*
X59322918Y-48863689D01*
X59335000Y-48741019D01*
X59335000Y-48741018D01*
X59339040Y-48700000D01*
X59335000Y-48658982D01*
X59335000Y-48271149D01*
X59495302Y-48164039D01*
X59704039Y-47955302D01*
X59810000Y-47796719D01*
X59915961Y-47955302D01*
X60124698Y-48164039D01*
X60370147Y-48328042D01*
X60642875Y-48441010D01*
X60932401Y-48498600D01*
X61227599Y-48498600D01*
X61517125Y-48441010D01*
X61789853Y-48328042D01*
X62035302Y-48164039D01*
X62244039Y-47955302D01*
X62408042Y-47709853D01*
X62521010Y-47437125D01*
X62578600Y-47147599D01*
X62578600Y-46852401D01*
X62521010Y-46562875D01*
X62408042Y-46290147D01*
X62244039Y-46044698D01*
X62035302Y-45835961D01*
X61874187Y-45728308D01*
X62090293Y-45566854D01*
X62286817Y-45348488D01*
X62436964Y-45095978D01*
X62534963Y-44819027D01*
X62414464Y-44587000D01*
X61207000Y-44587000D01*
X61207000Y-44607000D01*
X60953000Y-44607000D01*
X60953000Y-44587000D01*
X60933000Y-44587000D01*
X60933000Y-44333000D01*
X60953000Y-44333000D01*
X60953000Y-44313000D01*
X61207000Y-44313000D01*
X61207000Y-44333000D01*
X62414464Y-44333000D01*
X62534963Y-44100973D01*
X62436964Y-43824022D01*
X62286817Y-43571512D01*
X62090293Y-43353146D01*
X61854944Y-43177316D01*
X61589814Y-43050778D01*
X61439026Y-43005042D01*
X61207002Y-43126182D01*
X61207002Y-42973866D01*
X62669439Y-41511430D01*
X62669448Y-41511419D01*
X63561432Y-40619437D01*
X63593291Y-40593291D01*
X63653901Y-40519438D01*
X63697636Y-40466146D01*
X63775172Y-40321087D01*
X63822918Y-40163689D01*
X63839040Y-40000000D01*
X63835000Y-39958982D01*
X63835000Y-38863285D01*
X63917205Y-38740256D01*
X63995226Y-38551898D01*
X64035000Y-38351939D01*
X64035000Y-38148061D01*
X63995226Y-37948102D01*
X63942329Y-37820398D01*
X64044180Y-37789502D01*
X64154494Y-37730537D01*
X64251185Y-37651185D01*
X64330537Y-37554494D01*
X64389502Y-37444180D01*
X64422621Y-37335000D01*
X67708982Y-37335000D01*
X67750000Y-37339040D01*
X67791018Y-37335000D01*
X67791019Y-37335000D01*
X67913689Y-37322918D01*
X68071087Y-37275172D01*
X68216146Y-37197636D01*
X68343291Y-37093291D01*
X68369445Y-37061422D01*
X68375980Y-37054887D01*
X68446063Y-37159774D01*
X68590226Y-37303937D01*
X68759744Y-37417205D01*
X68948102Y-37495226D01*
X69148061Y-37535000D01*
X69351939Y-37535000D01*
X69551898Y-37495226D01*
X69714261Y-37427972D01*
X69840226Y-37553937D01*
X70009744Y-37667205D01*
X70198102Y-37745226D01*
X70398061Y-37785000D01*
X70601939Y-37785000D01*
X70801898Y-37745226D01*
X70990256Y-37667205D01*
X71159774Y-37553937D01*
X71303937Y-37409774D01*
X71417205Y-37240256D01*
X71449230Y-37162941D01*
X71590226Y-37303937D01*
X71759744Y-37417205D01*
X71948102Y-37495226D01*
X72148061Y-37535000D01*
X72351939Y-37535000D01*
X72551898Y-37495226D01*
X72714261Y-37427972D01*
X72840226Y-37553937D01*
X73009744Y-37667205D01*
X73198102Y-37745226D01*
X73398061Y-37785000D01*
X73601939Y-37785000D01*
X73801898Y-37745226D01*
X73990256Y-37667205D01*
X74159774Y-37553937D01*
X74303937Y-37409774D01*
X74417205Y-37240256D01*
X74495226Y-37051898D01*
X74535000Y-36851939D01*
X74535000Y-36648061D01*
X74495226Y-36448102D01*
X74417205Y-36259744D01*
X74375000Y-36196580D01*
X74375000Y-36083114D01*
X74506255Y-36122929D01*
X74660000Y-36138072D01*
X74960000Y-36138072D01*
X75113745Y-36122929D01*
X75261582Y-36078084D01*
X75386928Y-36011085D01*
X75386928Y-36431250D01*
X75403392Y-36598408D01*
X75452150Y-36759142D01*
X75531329Y-36907275D01*
X75549100Y-36928930D01*
X75494463Y-36995506D01*
X75435498Y-37105820D01*
X75399188Y-37225518D01*
X75386928Y-37350000D01*
X75390000Y-37501750D01*
X75548750Y-37660500D01*
X76373000Y-37660500D01*
X76373000Y-37640500D01*
X76627000Y-37640500D01*
X76627000Y-37660500D01*
X76647000Y-37660500D01*
X76647000Y-37914500D01*
X76627000Y-37914500D01*
X76627000Y-38701250D01*
X76785750Y-38860000D01*
X76975000Y-38863072D01*
X77060616Y-38854640D01*
X77098815Y-38901185D01*
X77195506Y-38980537D01*
X77231918Y-39000000D01*
X77195506Y-39019463D01*
X77098815Y-39098815D01*
X77019463Y-39195506D01*
X76960498Y-39305820D01*
X76924188Y-39425518D01*
X76911928Y-39550000D01*
X76915000Y-39664250D01*
X77073750Y-39823000D01*
X77873000Y-39823000D01*
X77873000Y-39803000D01*
X78127000Y-39803000D01*
X78127000Y-39823000D01*
X78926250Y-39823000D01*
X79010857Y-39738393D01*
X79019463Y-39754494D01*
X79098815Y-39851185D01*
X79165000Y-39905502D01*
X79165001Y-42964861D01*
X79147599Y-42961400D01*
X78852401Y-42961400D01*
X78562875Y-43018990D01*
X78290147Y-43131958D01*
X78044698Y-43295961D01*
X77835961Y-43504698D01*
X77671958Y-43750147D01*
X77558990Y-44022875D01*
X77501400Y-44312401D01*
X77501400Y-44607599D01*
X77558990Y-44897125D01*
X77671958Y-45169853D01*
X77835961Y-45415302D01*
X77950023Y-45529364D01*
X77892220Y-45546898D01*
X77781906Y-45605863D01*
X77685215Y-45685215D01*
X77605863Y-45781906D01*
X77546898Y-45892220D01*
X77510588Y-46011918D01*
X77498328Y-46136400D01*
X77498328Y-47863600D01*
X77510588Y-47988082D01*
X77546898Y-48107780D01*
X77577483Y-48165000D01*
X77345868Y-48165000D01*
X76835000Y-47654132D01*
X76835000Y-45541018D01*
X76839040Y-45500000D01*
X76822918Y-45336312D01*
X76811297Y-45298000D01*
X76775172Y-45178913D01*
X76697636Y-45033854D01*
X76593291Y-44906709D01*
X76561433Y-44880564D01*
X74585000Y-42904133D01*
X74585000Y-41541018D01*
X74589040Y-41500000D01*
X74572918Y-41336311D01*
X74554372Y-41275172D01*
X74525172Y-41178913D01*
X74474761Y-41084601D01*
X74510000Y-41088072D01*
X74524250Y-41085000D01*
X74683000Y-40926250D01*
X74683000Y-39602000D01*
X74937000Y-39602000D01*
X74937000Y-40926250D01*
X75095750Y-41085000D01*
X75110000Y-41088072D01*
X75234482Y-41075812D01*
X75354180Y-41039502D01*
X75464494Y-40980537D01*
X75561185Y-40901185D01*
X75640537Y-40804494D01*
X75699502Y-40694180D01*
X75735812Y-40574482D01*
X75748072Y-40450000D01*
X75747627Y-40350000D01*
X76911928Y-40350000D01*
X76924188Y-40474482D01*
X76960498Y-40594180D01*
X77019463Y-40704494D01*
X77098815Y-40801185D01*
X77195506Y-40880537D01*
X77305820Y-40939502D01*
X77425518Y-40975812D01*
X77550000Y-40988072D01*
X77714250Y-40985000D01*
X77873000Y-40826250D01*
X77873000Y-40077000D01*
X78127000Y-40077000D01*
X78127000Y-40826250D01*
X78285750Y-40985000D01*
X78450000Y-40988072D01*
X78574482Y-40975812D01*
X78694180Y-40939502D01*
X78804494Y-40880537D01*
X78901185Y-40801185D01*
X78980537Y-40704494D01*
X79039502Y-40594180D01*
X79075812Y-40474482D01*
X79088072Y-40350000D01*
X79085000Y-40235750D01*
X78926250Y-40077000D01*
X78127000Y-40077000D01*
X77873000Y-40077000D01*
X77073750Y-40077000D01*
X76915000Y-40235750D01*
X76911928Y-40350000D01*
X75747627Y-40350000D01*
X75745000Y-39760750D01*
X75586250Y-39602000D01*
X74937000Y-39602000D01*
X74683000Y-39602000D01*
X74663000Y-39602000D01*
X74663000Y-39348000D01*
X74683000Y-39348000D01*
X74683000Y-38023750D01*
X74937000Y-38023750D01*
X74937000Y-39348000D01*
X75586250Y-39348000D01*
X75745000Y-39189250D01*
X75746751Y-38796292D01*
X75780820Y-38814502D01*
X75900518Y-38850812D01*
X76025000Y-38863072D01*
X76214250Y-38860000D01*
X76373000Y-38701250D01*
X76373000Y-37914500D01*
X75548750Y-37914500D01*
X75480583Y-37982667D01*
X75464494Y-37969463D01*
X75354180Y-37910498D01*
X75234482Y-37874188D01*
X75110000Y-37861928D01*
X75095750Y-37865000D01*
X74937000Y-38023750D01*
X74683000Y-38023750D01*
X74524250Y-37865000D01*
X74510000Y-37861928D01*
X74385518Y-37874188D01*
X74265820Y-37910498D01*
X74155506Y-37969463D01*
X74125936Y-37993730D01*
X73991582Y-37921916D01*
X73843745Y-37877071D01*
X73690000Y-37861928D01*
X73390000Y-37861928D01*
X73236255Y-37877071D01*
X73088418Y-37921916D01*
X72952171Y-37994742D01*
X72905000Y-38033454D01*
X72857829Y-37994742D01*
X72721582Y-37921916D01*
X72573745Y-37877071D01*
X72420000Y-37861928D01*
X72120000Y-37861928D01*
X71966255Y-37877071D01*
X71818418Y-37921916D01*
X71682171Y-37994742D01*
X71635000Y-38033454D01*
X71587829Y-37994742D01*
X71451582Y-37921916D01*
X71303745Y-37877071D01*
X71150000Y-37861928D01*
X70850000Y-37861928D01*
X70696255Y-37877071D01*
X70548418Y-37921916D01*
X70412171Y-37994742D01*
X70365000Y-38033454D01*
X70317829Y-37994742D01*
X70181582Y-37921916D01*
X70033745Y-37877071D01*
X69880000Y-37861928D01*
X69580000Y-37861928D01*
X69426255Y-37877071D01*
X69278418Y-37921916D01*
X69142171Y-37994742D01*
X69095000Y-38033454D01*
X69047829Y-37994742D01*
X68911582Y-37921916D01*
X68763745Y-37877071D01*
X68610000Y-37861928D01*
X68310000Y-37861928D01*
X68156255Y-37877071D01*
X68008418Y-37921916D01*
X67872171Y-37994742D01*
X67825000Y-38033454D01*
X67777829Y-37994742D01*
X67641582Y-37921916D01*
X67493745Y-37877071D01*
X67340000Y-37861928D01*
X67040000Y-37861928D01*
X66886255Y-37877071D01*
X66738418Y-37921916D01*
X66602171Y-37994742D01*
X66482749Y-38092749D01*
X66384742Y-38212171D01*
X66311916Y-38348418D01*
X66267071Y-38496255D01*
X66251928Y-38650000D01*
X66251928Y-40300000D01*
X66267071Y-40453745D01*
X66282309Y-40503980D01*
X66196063Y-40590226D01*
X66082795Y-40759744D01*
X66004774Y-40948102D01*
X65965000Y-41148061D01*
X65965000Y-41351939D01*
X66004774Y-41551898D01*
X66082795Y-41740256D01*
X66196063Y-41909774D01*
X66340226Y-42053937D01*
X66509744Y-42167205D01*
X66698102Y-42245226D01*
X66898061Y-42285000D01*
X67101939Y-42285000D01*
X67301898Y-42245226D01*
X67490256Y-42167205D01*
X67659774Y-42053937D01*
X67750000Y-41963711D01*
X67840226Y-42053937D01*
X68009744Y-42167205D01*
X68198102Y-42245226D01*
X68398061Y-42285000D01*
X68601939Y-42285000D01*
X68801898Y-42245226D01*
X68864999Y-42219089D01*
X68865000Y-47092973D01*
X68860959Y-47134001D01*
X68877081Y-47297689D01*
X68924827Y-47455087D01*
X69002363Y-47600146D01*
X69002364Y-47600147D01*
X69106709Y-47727292D01*
X69138573Y-47753442D01*
X71725129Y-50340000D01*
X48273381Y-50340000D01*
X47660000Y-49726620D01*
X47660000Y-44987500D01*
X48086928Y-44987500D01*
X48090000Y-45139250D01*
X48248750Y-45298000D01*
X49073000Y-45298000D01*
X49073000Y-44511250D01*
X49327000Y-44511250D01*
X49327000Y-45298000D01*
X50151250Y-45298000D01*
X50310000Y-45139250D01*
X50313072Y-44987500D01*
X50300812Y-44863018D01*
X50264502Y-44743320D01*
X50205537Y-44633006D01*
X50126185Y-44536315D01*
X50029494Y-44456963D01*
X49919180Y-44397998D01*
X49799482Y-44361688D01*
X49675000Y-44349428D01*
X49485750Y-44352500D01*
X49327000Y-44511250D01*
X49073000Y-44511250D01*
X48914250Y-44352500D01*
X48725000Y-44349428D01*
X48600518Y-44361688D01*
X48480820Y-44397998D01*
X48370506Y-44456963D01*
X48273815Y-44536315D01*
X48194463Y-44633006D01*
X48135498Y-44743320D01*
X48099188Y-44863018D01*
X48086928Y-44987500D01*
X47660000Y-44987500D01*
X47660000Y-40350000D01*
X56911928Y-40350000D01*
X56924188Y-40474482D01*
X56960498Y-40594180D01*
X57019463Y-40704494D01*
X57098815Y-40801185D01*
X57195506Y-40880537D01*
X57305820Y-40939502D01*
X57425518Y-40975812D01*
X57550000Y-40988072D01*
X57714250Y-40985000D01*
X57873000Y-40826250D01*
X57873000Y-40077000D01*
X57073750Y-40077000D01*
X56915000Y-40235750D01*
X56911928Y-40350000D01*
X47660000Y-40350000D01*
X47660000Y-36779872D01*
X48765000Y-36779872D01*
X48765000Y-37220128D01*
X48850890Y-37651925D01*
X49019369Y-38058669D01*
X49263962Y-38424729D01*
X49575271Y-38736038D01*
X49941331Y-38980631D01*
X50348075Y-39149110D01*
X50779872Y-39235000D01*
X51220128Y-39235000D01*
X51651925Y-39149110D01*
X52058669Y-38980631D01*
X52424729Y-38736038D01*
X52736038Y-38424729D01*
X52980631Y-38058669D01*
X53149110Y-37651925D01*
X53235000Y-37220128D01*
X53235000Y-36779872D01*
X53149110Y-36348075D01*
X52980631Y-35941331D01*
X52736038Y-35575271D01*
X52424729Y-35263962D01*
X52058669Y-35019369D01*
X51651925Y-34850890D01*
X51220128Y-34765000D01*
X50779872Y-34765000D01*
X50348075Y-34850890D01*
X49941331Y-35019369D01*
X49575271Y-35263962D01*
X49263962Y-35575271D01*
X49019369Y-35941331D01*
X48850890Y-36348075D01*
X48765000Y-36779872D01*
X47660000Y-36779872D01*
X47660000Y-32032412D01*
X47663192Y-32000000D01*
X47660000Y-31967588D01*
X47660000Y-31967581D01*
X47650450Y-31870617D01*
X47612710Y-31746207D01*
X47551425Y-31631550D01*
X47527908Y-31602895D01*
X47489614Y-31556233D01*
X47489612Y-31556231D01*
X47468948Y-31531052D01*
X47443770Y-31510389D01*
X46660000Y-30726620D01*
X46660000Y-28869721D01*
X49365000Y-28869721D01*
X49365000Y-29290279D01*
X49447047Y-29702756D01*
X49607988Y-30091302D01*
X49841637Y-30440983D01*
X50139017Y-30738363D01*
X50488698Y-30972012D01*
X50877244Y-31132953D01*
X51289721Y-31215000D01*
X51710279Y-31215000D01*
X52122756Y-31132953D01*
X52511302Y-30972012D01*
X52860983Y-30738363D01*
X53158363Y-30440983D01*
X53362814Y-30135000D01*
X53771290Y-30135000D01*
X54102193Y-30465903D01*
X54134604Y-30505396D01*
X54206908Y-30564734D01*
X54292202Y-30634734D01*
X54348086Y-30664604D01*
X54472007Y-30730841D01*
X54667105Y-30790024D01*
X54819162Y-30805000D01*
X54819171Y-30805000D01*
X54869999Y-30810006D01*
X54920827Y-30805000D01*
X56393808Y-30805000D01*
X56425000Y-30808072D01*
X57425000Y-30808072D01*
X57549482Y-30795812D01*
X57669180Y-30759502D01*
X57779494Y-30700537D01*
X57876185Y-30621185D01*
X57955537Y-30524494D01*
X58014502Y-30414180D01*
X58050812Y-30294482D01*
X58063072Y-30170000D01*
X58063072Y-29370000D01*
X58050812Y-29245518D01*
X58014502Y-29125820D01*
X57955537Y-29015506D01*
X57876185Y-28918815D01*
X57779494Y-28839463D01*
X57669180Y-28780498D01*
X57549482Y-28744188D01*
X57425000Y-28731928D01*
X56425000Y-28731928D01*
X56393808Y-28735000D01*
X55298710Y-28735000D01*
X54967807Y-28404097D01*
X54935396Y-28364604D01*
X54777797Y-28235266D01*
X54597993Y-28139159D01*
X54402895Y-28079976D01*
X54250838Y-28065000D01*
X54250828Y-28065000D01*
X54200000Y-28059994D01*
X54149172Y-28065000D01*
X53389541Y-28065000D01*
X53158363Y-27719017D01*
X52860983Y-27421637D01*
X52511302Y-27187988D01*
X52122756Y-27027047D01*
X51710279Y-26945000D01*
X51289721Y-26945000D01*
X50877244Y-27027047D01*
X50488698Y-27187988D01*
X50139017Y-27421637D01*
X49841637Y-27719017D01*
X49607988Y-28068698D01*
X49447047Y-28457244D01*
X49365000Y-28869721D01*
X46660000Y-28869721D01*
X46660000Y-22500000D01*
X49361928Y-22500000D01*
X49361928Y-25500000D01*
X49374188Y-25624482D01*
X49410498Y-25744180D01*
X49469463Y-25854494D01*
X49548815Y-25951185D01*
X49645506Y-26030537D01*
X49755820Y-26089502D01*
X49875518Y-26125812D01*
X50000000Y-26138072D01*
X53000000Y-26138072D01*
X53124482Y-26125812D01*
X53244180Y-26089502D01*
X53354494Y-26030537D01*
X53451185Y-25951185D01*
X53463551Y-25936117D01*
X53479977Y-26102895D01*
X53539160Y-26297993D01*
X53635266Y-26477797D01*
X53723919Y-26585820D01*
X53764605Y-26635396D01*
X53804092Y-26667802D01*
X55062197Y-27925908D01*
X55094604Y-27965396D01*
X55134092Y-27997803D01*
X55252202Y-28094734D01*
X55335318Y-28139160D01*
X55432007Y-28190841D01*
X55627105Y-28250024D01*
X55779162Y-28265000D01*
X55779171Y-28265000D01*
X55829999Y-28270006D01*
X55880827Y-28265000D01*
X56393808Y-28265000D01*
X56425000Y-28268072D01*
X57425000Y-28268072D01*
X57549482Y-28255812D01*
X57669180Y-28219502D01*
X57779494Y-28160537D01*
X57876185Y-28081185D01*
X57955537Y-27984494D01*
X58014502Y-27874180D01*
X58050812Y-27754482D01*
X58063072Y-27630000D01*
X61936928Y-27630000D01*
X61949188Y-27754482D01*
X61985498Y-27874180D01*
X62044463Y-27984494D01*
X62123815Y-28081185D01*
X62220506Y-28160537D01*
X62330820Y-28219502D01*
X62450518Y-28255812D01*
X62575000Y-28268072D01*
X62789250Y-28265000D01*
X62948000Y-28106250D01*
X62948000Y-27357000D01*
X63202000Y-27357000D01*
X63202000Y-28106250D01*
X63360750Y-28265000D01*
X63575000Y-28268072D01*
X63699482Y-28255812D01*
X63819180Y-28219502D01*
X63929494Y-28160537D01*
X64026185Y-28081185D01*
X64105537Y-27984494D01*
X64164502Y-27874180D01*
X64200812Y-27754482D01*
X64213072Y-27630000D01*
X64210000Y-27515750D01*
X64051250Y-27357000D01*
X63202000Y-27357000D01*
X62948000Y-27357000D01*
X62098750Y-27357000D01*
X61940000Y-27515750D01*
X61936928Y-27630000D01*
X58063072Y-27630000D01*
X58063072Y-26830000D01*
X61936928Y-26830000D01*
X61940000Y-26944250D01*
X62098750Y-27103000D01*
X62948000Y-27103000D01*
X62948000Y-26353750D01*
X63202000Y-26353750D01*
X63202000Y-27103000D01*
X64051250Y-27103000D01*
X64210000Y-26944250D01*
X64213072Y-26830000D01*
X64200812Y-26705518D01*
X64164502Y-26585820D01*
X64105537Y-26475506D01*
X64026185Y-26378815D01*
X63929494Y-26299463D01*
X63819180Y-26240498D01*
X63699482Y-26204188D01*
X63575000Y-26191928D01*
X63360750Y-26195000D01*
X63202000Y-26353750D01*
X62948000Y-26353750D01*
X62789250Y-26195000D01*
X62575000Y-26191928D01*
X62450518Y-26204188D01*
X62330820Y-26240498D01*
X62220506Y-26299463D01*
X62123815Y-26378815D01*
X62044463Y-26475506D01*
X61985498Y-26585820D01*
X61949188Y-26705518D01*
X61936928Y-26830000D01*
X58063072Y-26830000D01*
X58050812Y-26705518D01*
X58014502Y-26585820D01*
X57955537Y-26475506D01*
X57876185Y-26378815D01*
X57779494Y-26299463D01*
X57669180Y-26240498D01*
X57549482Y-26204188D01*
X57425000Y-26191928D01*
X56425000Y-26191928D01*
X56393808Y-26195000D01*
X56258711Y-26195000D01*
X55535000Y-25471290D01*
X55535000Y-25050835D01*
X55540007Y-25000000D01*
X55532817Y-24927000D01*
X55520024Y-24797105D01*
X55474615Y-24647415D01*
X55460841Y-24602006D01*
X55433044Y-24550000D01*
X66561928Y-24550000D01*
X66565000Y-26014250D01*
X66723750Y-26173000D01*
X67873000Y-26173000D01*
X67873000Y-24073750D01*
X68127000Y-24073750D01*
X68127000Y-26173000D01*
X69276250Y-26173000D01*
X69435000Y-26014250D01*
X69438072Y-24550000D01*
X69425812Y-24425518D01*
X69389502Y-24305820D01*
X69330537Y-24195506D01*
X69251185Y-24098815D01*
X69154494Y-24019463D01*
X69044180Y-23960498D01*
X68924482Y-23924188D01*
X68800000Y-23911928D01*
X68285750Y-23915000D01*
X68127000Y-24073750D01*
X67873000Y-24073750D01*
X67714250Y-23915000D01*
X67200000Y-23911928D01*
X67075518Y-23924188D01*
X66955820Y-23960498D01*
X66845506Y-24019463D01*
X66748815Y-24098815D01*
X66669463Y-24195506D01*
X66610498Y-24305820D01*
X66574188Y-24425518D01*
X66561928Y-24550000D01*
X55433044Y-24550000D01*
X55364734Y-24422202D01*
X55267803Y-24304092D01*
X55235396Y-24264604D01*
X55195908Y-24232197D01*
X54267807Y-23304097D01*
X54235396Y-23264604D01*
X54077797Y-23135266D01*
X53897993Y-23039159D01*
X53702895Y-22979976D01*
X53638072Y-22973592D01*
X53638072Y-22500000D01*
X53625812Y-22375518D01*
X53589502Y-22255820D01*
X53530537Y-22145506D01*
X53451185Y-22048815D01*
X53354494Y-21969463D01*
X53244180Y-21910498D01*
X53124482Y-21874188D01*
X53000000Y-21861928D01*
X50000000Y-21861928D01*
X49875518Y-21874188D01*
X49755820Y-21910498D01*
X49645506Y-21969463D01*
X49548815Y-22048815D01*
X49469463Y-22145506D01*
X49410498Y-22255820D01*
X49374188Y-22375518D01*
X49361928Y-22500000D01*
X46660000Y-22500000D01*
X46660000Y-22273380D01*
X47273381Y-21660000D01*
X55350420Y-21660000D01*
X55350420Y-22702120D01*
G37*
G04 #@! TD.AperFunction*
X72915001Y-43208972D02*
X72910960Y-43250000D01*
X72927082Y-43413688D01*
X72974828Y-43571086D01*
X73052364Y-43716145D01*
X73052365Y-43716146D01*
X73156710Y-43843291D01*
X73188574Y-43869441D01*
X75165000Y-45845869D01*
X75165001Y-47958972D01*
X75160960Y-48000000D01*
X75177082Y-48163688D01*
X75224828Y-48321086D01*
X75302364Y-48466145D01*
X75302365Y-48466146D01*
X75406710Y-48593291D01*
X75438574Y-48619441D01*
X75984132Y-49165000D01*
X72911867Y-49165000D01*
X71230288Y-47483423D01*
X71303937Y-47409774D01*
X71417205Y-47240256D01*
X71495226Y-47051898D01*
X71524092Y-46906775D01*
X72061433Y-46369436D01*
X72093291Y-46343291D01*
X72119724Y-46311083D01*
X72161856Y-46259744D01*
X72197636Y-46216146D01*
X72275172Y-46071087D01*
X72322918Y-45913689D01*
X72335000Y-45791019D01*
X72335000Y-45791018D01*
X72339040Y-45750000D01*
X72335000Y-45708982D01*
X72335000Y-42595867D01*
X72811429Y-42119439D01*
X72843291Y-42093291D01*
X72915000Y-42005913D01*
X72915001Y-43208972D01*
X72915001Y-43208972D02*
X72915000Y-42005913D01*
G04 #@! TA.AperFunction,Conductor*
G36*
X72915001Y-43208972D02*
G01*
X72910960Y-43250000D01*
X72927082Y-43413688D01*
X72974828Y-43571086D01*
X73052364Y-43716145D01*
X73052365Y-43716146D01*
X73156710Y-43843291D01*
X73188574Y-43869441D01*
X75165000Y-45845869D01*
X75165001Y-47958972D01*
X75160960Y-48000000D01*
X75177082Y-48163688D01*
X75224828Y-48321086D01*
X75302364Y-48466145D01*
X75302365Y-48466146D01*
X75406710Y-48593291D01*
X75438574Y-48619441D01*
X75984132Y-49165000D01*
X72911867Y-49165000D01*
X71230288Y-47483423D01*
X71303937Y-47409774D01*
X71417205Y-47240256D01*
X71495226Y-47051898D01*
X71524092Y-46906775D01*
X72061433Y-46369436D01*
X72093291Y-46343291D01*
X72119724Y-46311083D01*
X72161856Y-46259744D01*
X72197636Y-46216146D01*
X72275172Y-46071087D01*
X72322918Y-45913689D01*
X72335000Y-45791019D01*
X72335000Y-45791018D01*
X72339040Y-45750000D01*
X72335000Y-45708982D01*
X72335000Y-42595867D01*
X72811429Y-42119439D01*
X72843291Y-42093291D01*
X72915000Y-42005913D01*
X72915001Y-43208972D01*
G37*
G04 #@! TD.AperFunction*
X90461928Y-41450000D02*
X90474188Y-41574482D01*
X90510498Y-41694180D01*
X90569463Y-41804494D01*
X90648815Y-41901185D01*
X90661905Y-41911928D01*
X90150000Y-41911928D01*
X90025518Y-41924188D01*
X89905820Y-41960498D01*
X89795506Y-42019463D01*
X89698815Y-42098815D01*
X89619463Y-42195506D01*
X89560498Y-42305820D01*
X89524188Y-42425518D01*
X89511928Y-42550000D01*
X89511928Y-43450000D01*
X89524188Y-43574482D01*
X89560498Y-43694180D01*
X89584937Y-43739902D01*
X89531329Y-43805225D01*
X89452150Y-43953358D01*
X89403392Y-44114092D01*
X89386928Y-44281250D01*
X89386928Y-44718750D01*
X89403392Y-44885908D01*
X89452150Y-45046642D01*
X89531329Y-45194775D01*
X89607426Y-45287500D01*
X89531329Y-45380225D01*
X89452150Y-45528358D01*
X89403392Y-45689092D01*
X89386928Y-45856250D01*
X89386928Y-46293750D01*
X89403392Y-46460908D01*
X89452150Y-46621642D01*
X89531329Y-46769775D01*
X89637885Y-46899615D01*
X89665000Y-46921868D01*
X89665000Y-47154131D01*
X87654133Y-49165000D01*
X83015867Y-49165000D01*
X83723767Y-48457100D01*
X83932401Y-48498600D01*
X84227599Y-48498600D01*
X84517125Y-48441010D01*
X84789853Y-48328042D01*
X85035302Y-48164039D01*
X85244039Y-47955302D01*
X85408042Y-47709853D01*
X85521010Y-47437125D01*
X85578600Y-47147599D01*
X85578600Y-46852401D01*
X85521010Y-46562875D01*
X85463812Y-46424788D01*
X85579690Y-46329690D01*
X85605845Y-46297820D01*
X87561433Y-44342234D01*
X87593291Y-44316089D01*
X87655526Y-44240256D01*
X87697636Y-44188944D01*
X87775172Y-44043885D01*
X87822918Y-43886487D01*
X87839040Y-43722798D01*
X87835000Y-43681780D01*
X87835000Y-40754630D01*
X87915858Y-40797850D01*
X88076592Y-40846608D01*
X88243750Y-40863072D01*
X88756250Y-40863072D01*
X88923408Y-40846608D01*
X89084142Y-40797850D01*
X89232275Y-40718671D01*
X89349461Y-40622500D01*
X90461928Y-40622500D01*
X90461928Y-41450000D01*
X90461928Y-41450000D02*
X90461928Y-40622500D01*
G04 #@! TA.AperFunction,Conductor*
G36*
X90461928Y-41450000D02*
G01*
X90474188Y-41574482D01*
X90510498Y-41694180D01*
X90569463Y-41804494D01*
X90648815Y-41901185D01*
X90661905Y-41911928D01*
X90150000Y-41911928D01*
X90025518Y-41924188D01*
X89905820Y-41960498D01*
X89795506Y-42019463D01*
X89698815Y-42098815D01*
X89619463Y-42195506D01*
X89560498Y-42305820D01*
X89524188Y-42425518D01*
X89511928Y-42550000D01*
X89511928Y-43450000D01*
X89524188Y-43574482D01*
X89560498Y-43694180D01*
X89584937Y-43739902D01*
X89531329Y-43805225D01*
X89452150Y-43953358D01*
X89403392Y-44114092D01*
X89386928Y-44281250D01*
X89386928Y-44718750D01*
X89403392Y-44885908D01*
X89452150Y-45046642D01*
X89531329Y-45194775D01*
X89607426Y-45287500D01*
X89531329Y-45380225D01*
X89452150Y-45528358D01*
X89403392Y-45689092D01*
X89386928Y-45856250D01*
X89386928Y-46293750D01*
X89403392Y-46460908D01*
X89452150Y-46621642D01*
X89531329Y-46769775D01*
X89637885Y-46899615D01*
X89665000Y-46921868D01*
X89665000Y-47154131D01*
X87654133Y-49165000D01*
X83015867Y-49165000D01*
X83723767Y-48457100D01*
X83932401Y-48498600D01*
X84227599Y-48498600D01*
X84517125Y-48441010D01*
X84789853Y-48328042D01*
X85035302Y-48164039D01*
X85244039Y-47955302D01*
X85408042Y-47709853D01*
X85521010Y-47437125D01*
X85578600Y-47147599D01*
X85578600Y-46852401D01*
X85521010Y-46562875D01*
X85463812Y-46424788D01*
X85579690Y-46329690D01*
X85605845Y-46297820D01*
X87561433Y-44342234D01*
X87593291Y-44316089D01*
X87655526Y-44240256D01*
X87697636Y-44188944D01*
X87775172Y-44043885D01*
X87822918Y-43886487D01*
X87839040Y-43722798D01*
X87835000Y-43681780D01*
X87835000Y-40754630D01*
X87915858Y-40797850D01*
X88076592Y-40846608D01*
X88243750Y-40863072D01*
X88756250Y-40863072D01*
X88923408Y-40846608D01*
X89084142Y-40797850D01*
X89232275Y-40718671D01*
X89349461Y-40622500D01*
X90461928Y-40622500D01*
X90461928Y-41450000D01*
G37*
G04 #@! TD.AperFunction*
X90465001Y-32127378D02*
X90355820Y-32160498D01*
X90245506Y-32219463D01*
X90148815Y-32298815D01*
X90069463Y-32395506D01*
X90010498Y-32505820D01*
X89974188Y-32625518D01*
X89961928Y-32750000D01*
X89961928Y-33165000D01*
X88741018Y-33165000D01*
X88700000Y-33160960D01*
X88658982Y-33165000D01*
X88658981Y-33165000D01*
X88536311Y-33177082D01*
X88378913Y-33224828D01*
X88233854Y-33302364D01*
X88106709Y-33406709D01*
X88080558Y-33438575D01*
X87938573Y-33580560D01*
X87906710Y-33606709D01*
X87848956Y-33677083D01*
X87802364Y-33733855D01*
X87724828Y-33878914D01*
X87677082Y-34036312D01*
X87665627Y-34152618D01*
X87637885Y-34175385D01*
X87531329Y-34305225D01*
X87452150Y-34453358D01*
X87403392Y-34614092D01*
X87386928Y-34781250D01*
X87386928Y-35218750D01*
X87403392Y-35385908D01*
X87452150Y-35546642D01*
X87531329Y-35694775D01*
X87607426Y-35787500D01*
X87531329Y-35880225D01*
X87452150Y-36028358D01*
X87403392Y-36189092D01*
X87386928Y-36356250D01*
X87386928Y-36793750D01*
X87403392Y-36960908D01*
X87452150Y-37121642D01*
X87531329Y-37269775D01*
X87633072Y-37393750D01*
X87531329Y-37517725D01*
X87452150Y-37665858D01*
X87403392Y-37826592D01*
X87386928Y-37993750D01*
X87386928Y-38431250D01*
X87403392Y-38598408D01*
X87452150Y-38759142D01*
X87531329Y-38907275D01*
X87607426Y-39000000D01*
X87531329Y-39092725D01*
X87452150Y-39240858D01*
X87403392Y-39401592D01*
X87386928Y-39568750D01*
X87386928Y-39706060D01*
X87019445Y-39338578D01*
X86993291Y-39306709D01*
X86866146Y-39202364D01*
X86721087Y-39124828D01*
X86563689Y-39077082D01*
X86441019Y-39065000D01*
X86441018Y-39065000D01*
X86400000Y-39060960D01*
X86358982Y-39065000D01*
X86338521Y-39065000D01*
X86350812Y-39024482D01*
X86363072Y-38900000D01*
X86360000Y-38748250D01*
X86201250Y-38589500D01*
X85377000Y-38589500D01*
X85377000Y-38609500D01*
X85123000Y-38609500D01*
X85123000Y-38589500D01*
X84298750Y-38589500D01*
X84140000Y-38748250D01*
X84136928Y-38900000D01*
X84149188Y-39024482D01*
X84185498Y-39144180D01*
X84244463Y-39254494D01*
X84299100Y-39321070D01*
X84281329Y-39342725D01*
X84202150Y-39490858D01*
X84153392Y-39651592D01*
X84136928Y-39818750D01*
X84136928Y-40256250D01*
X84153392Y-40423408D01*
X84202150Y-40584142D01*
X84281329Y-40732275D01*
X84387885Y-40862115D01*
X84517725Y-40968671D01*
X84665858Y-41047850D01*
X84826592Y-41096608D01*
X84993750Y-41113072D01*
X85506250Y-41113072D01*
X85673408Y-41096608D01*
X85834142Y-41047850D01*
X85982275Y-40968671D01*
X86112115Y-40862115D01*
X86143277Y-40824144D01*
X86165001Y-40845868D01*
X86165000Y-43376929D01*
X85510393Y-44031537D01*
X85436964Y-43824022D01*
X85286817Y-43571512D01*
X85090293Y-43353146D01*
X84854944Y-43177316D01*
X84589814Y-43050778D01*
X84439026Y-43005042D01*
X84207000Y-43126183D01*
X84207000Y-44333000D01*
X84227000Y-44333000D01*
X84227000Y-44587000D01*
X84207000Y-44587000D01*
X84207000Y-44607000D01*
X83953000Y-44607000D01*
X83953000Y-44587000D01*
X83933000Y-44587000D01*
X83933000Y-44333000D01*
X83953000Y-44333000D01*
X83953000Y-43126183D01*
X83720974Y-43005042D01*
X83570186Y-43050778D01*
X83305056Y-43177316D01*
X83069707Y-43353146D01*
X82873183Y-43571512D01*
X82814559Y-43670103D01*
X82704039Y-43504698D01*
X82495302Y-43295961D01*
X82335000Y-43188851D01*
X82335000Y-39445867D01*
X83561426Y-38219441D01*
X83593291Y-38193291D01*
X83697636Y-38066146D01*
X83719629Y-38025000D01*
X84136928Y-38025000D01*
X84140000Y-38176750D01*
X84298750Y-38335500D01*
X85123000Y-38335500D01*
X85123000Y-37548750D01*
X85377000Y-37548750D01*
X85377000Y-38335500D01*
X86201250Y-38335500D01*
X86360000Y-38176750D01*
X86363072Y-38025000D01*
X86350812Y-37900518D01*
X86314502Y-37780820D01*
X86255537Y-37670506D01*
X86176185Y-37573815D01*
X86079494Y-37494463D01*
X85969180Y-37435498D01*
X85849482Y-37399188D01*
X85725000Y-37386928D01*
X85535750Y-37390000D01*
X85377000Y-37548750D01*
X85123000Y-37548750D01*
X84964250Y-37390000D01*
X84775000Y-37386928D01*
X84650518Y-37399188D01*
X84530820Y-37435498D01*
X84420506Y-37494463D01*
X84323815Y-37573815D01*
X84244463Y-37670506D01*
X84185498Y-37780820D01*
X84149188Y-37900518D01*
X84136928Y-38025000D01*
X83719629Y-38025000D01*
X83775172Y-37921087D01*
X83800365Y-37838036D01*
X83924482Y-37825812D01*
X84044180Y-37789502D01*
X84154494Y-37730537D01*
X84251185Y-37651185D01*
X84330537Y-37554494D01*
X84389502Y-37444180D01*
X84425812Y-37324482D01*
X84438072Y-37200000D01*
X84438072Y-35700000D01*
X84425812Y-35575518D01*
X84389502Y-35455820D01*
X84330537Y-35345506D01*
X84251185Y-35248815D01*
X84154494Y-35169463D01*
X84061247Y-35119621D01*
X84561432Y-34619437D01*
X84593291Y-34593291D01*
X84619440Y-34561429D01*
X84669852Y-34500001D01*
X84697636Y-34466146D01*
X84718901Y-34426362D01*
X84724482Y-34425812D01*
X84844180Y-34389502D01*
X84954494Y-34330537D01*
X85051185Y-34251185D01*
X85130537Y-34154494D01*
X85189502Y-34044180D01*
X85225812Y-33924482D01*
X85238072Y-33800000D01*
X85238072Y-32600000D01*
X85225812Y-32475518D01*
X85189502Y-32355820D01*
X85130537Y-32245506D01*
X85051185Y-32148815D01*
X84954494Y-32069463D01*
X84844180Y-32010498D01*
X84724482Y-31974188D01*
X84600000Y-31961928D01*
X83400000Y-31961928D01*
X83275518Y-31974188D01*
X83155820Y-32010498D01*
X83045506Y-32069463D01*
X83000000Y-32106809D01*
X82954494Y-32069463D01*
X82844180Y-32010498D01*
X82835000Y-32007713D01*
X82835000Y-31935000D01*
X83649172Y-31935000D01*
X83700000Y-31940006D01*
X83750828Y-31935000D01*
X83750838Y-31935000D01*
X83902895Y-31920024D01*
X84097993Y-31860841D01*
X84277797Y-31764734D01*
X84435396Y-31635396D01*
X84467807Y-31595903D01*
X85561928Y-30501783D01*
X85561928Y-30700400D01*
X85578984Y-30873576D01*
X85629498Y-31040097D01*
X85711528Y-31193564D01*
X85821921Y-31328079D01*
X85956436Y-31438472D01*
X86109903Y-31520502D01*
X86276424Y-31571016D01*
X86449600Y-31588072D01*
X87550400Y-31588072D01*
X87723576Y-31571016D01*
X87890097Y-31520502D01*
X88043564Y-31438472D01*
X88178079Y-31328079D01*
X88288472Y-31193564D01*
X88370502Y-31040097D01*
X88421016Y-30873576D01*
X88438072Y-30700400D01*
X88438072Y-30235000D01*
X90465000Y-30235000D01*
X90465001Y-32127378D01*
X90465001Y-32127378D02*
X90465000Y-30235000D01*
G04 #@! TA.AperFunction,Conductor*
G36*
X90465001Y-32127378D02*
G01*
X90355820Y-32160498D01*
X90245506Y-32219463D01*
X90148815Y-32298815D01*
X90069463Y-32395506D01*
X90010498Y-32505820D01*
X89974188Y-32625518D01*
X89961928Y-32750000D01*
X89961928Y-33165000D01*
X88741018Y-33165000D01*
X88700000Y-33160960D01*
X88658982Y-33165000D01*
X88658981Y-33165000D01*
X88536311Y-33177082D01*
X88378913Y-33224828D01*
X88233854Y-33302364D01*
X88106709Y-33406709D01*
X88080558Y-33438575D01*
X87938573Y-33580560D01*
X87906710Y-33606709D01*
X87848956Y-33677083D01*
X87802364Y-33733855D01*
X87724828Y-33878914D01*
X87677082Y-34036312D01*
X87665627Y-34152618D01*
X87637885Y-34175385D01*
X87531329Y-34305225D01*
X87452150Y-34453358D01*
X87403392Y-34614092D01*
X87386928Y-34781250D01*
X87386928Y-35218750D01*
X87403392Y-35385908D01*
X87452150Y-35546642D01*
X87531329Y-35694775D01*
X87607426Y-35787500D01*
X87531329Y-35880225D01*
X87452150Y-36028358D01*
X87403392Y-36189092D01*
X87386928Y-36356250D01*
X87386928Y-36793750D01*
X87403392Y-36960908D01*
X87452150Y-37121642D01*
X87531329Y-37269775D01*
X87633072Y-37393750D01*
X87531329Y-37517725D01*
X87452150Y-37665858D01*
X87403392Y-37826592D01*
X87386928Y-37993750D01*
X87386928Y-38431250D01*
X87403392Y-38598408D01*
X87452150Y-38759142D01*
X87531329Y-38907275D01*
X87607426Y-39000000D01*
X87531329Y-39092725D01*
X87452150Y-39240858D01*
X87403392Y-39401592D01*
X87386928Y-39568750D01*
X87386928Y-39706060D01*
X87019445Y-39338578D01*
X86993291Y-39306709D01*
X86866146Y-39202364D01*
X86721087Y-39124828D01*
X86563689Y-39077082D01*
X86441019Y-39065000D01*
X86441018Y-39065000D01*
X86400000Y-39060960D01*
X86358982Y-39065000D01*
X86338521Y-39065000D01*
X86350812Y-39024482D01*
X86363072Y-38900000D01*
X86360000Y-38748250D01*
X86201250Y-38589500D01*
X85377000Y-38589500D01*
X85377000Y-38609500D01*
X85123000Y-38609500D01*
X85123000Y-38589500D01*
X84298750Y-38589500D01*
X84140000Y-38748250D01*
X84136928Y-38900000D01*
X84149188Y-39024482D01*
X84185498Y-39144180D01*
X84244463Y-39254494D01*
X84299100Y-39321070D01*
X84281329Y-39342725D01*
X84202150Y-39490858D01*
X84153392Y-39651592D01*
X84136928Y-39818750D01*
X84136928Y-40256250D01*
X84153392Y-40423408D01*
X84202150Y-40584142D01*
X84281329Y-40732275D01*
X84387885Y-40862115D01*
X84517725Y-40968671D01*
X84665858Y-41047850D01*
X84826592Y-41096608D01*
X84993750Y-41113072D01*
X85506250Y-41113072D01*
X85673408Y-41096608D01*
X85834142Y-41047850D01*
X85982275Y-40968671D01*
X86112115Y-40862115D01*
X86143277Y-40824144D01*
X86165001Y-40845868D01*
X86165000Y-43376929D01*
X85510393Y-44031537D01*
X85436964Y-43824022D01*
X85286817Y-43571512D01*
X85090293Y-43353146D01*
X84854944Y-43177316D01*
X84589814Y-43050778D01*
X84439026Y-43005042D01*
X84207000Y-43126183D01*
X84207000Y-44333000D01*
X84227000Y-44333000D01*
X84227000Y-44587000D01*
X84207000Y-44587000D01*
X84207000Y-44607000D01*
X83953000Y-44607000D01*
X83953000Y-44587000D01*
X83933000Y-44587000D01*
X83933000Y-44333000D01*
X83953000Y-44333000D01*
X83953000Y-43126183D01*
X83720974Y-43005042D01*
X83570186Y-43050778D01*
X83305056Y-43177316D01*
X83069707Y-43353146D01*
X82873183Y-43571512D01*
X82814559Y-43670103D01*
X82704039Y-43504698D01*
X82495302Y-43295961D01*
X82335000Y-43188851D01*
X82335000Y-39445867D01*
X83561426Y-38219441D01*
X83593291Y-38193291D01*
X83697636Y-38066146D01*
X83719629Y-38025000D01*
X84136928Y-38025000D01*
X84140000Y-38176750D01*
X84298750Y-38335500D01*
X85123000Y-38335500D01*
X85123000Y-37548750D01*
X85377000Y-37548750D01*
X85377000Y-38335500D01*
X86201250Y-38335500D01*
X86360000Y-38176750D01*
X86363072Y-38025000D01*
X86350812Y-37900518D01*
X86314502Y-37780820D01*
X86255537Y-37670506D01*
X86176185Y-37573815D01*
X86079494Y-37494463D01*
X85969180Y-37435498D01*
X85849482Y-37399188D01*
X85725000Y-37386928D01*
X85535750Y-37390000D01*
X85377000Y-37548750D01*
X85123000Y-37548750D01*
X84964250Y-37390000D01*
X84775000Y-37386928D01*
X84650518Y-37399188D01*
X84530820Y-37435498D01*
X84420506Y-37494463D01*
X84323815Y-37573815D01*
X84244463Y-37670506D01*
X84185498Y-37780820D01*
X84149188Y-37900518D01*
X84136928Y-38025000D01*
X83719629Y-38025000D01*
X83775172Y-37921087D01*
X83800365Y-37838036D01*
X83924482Y-37825812D01*
X84044180Y-37789502D01*
X84154494Y-37730537D01*
X84251185Y-37651185D01*
X84330537Y-37554494D01*
X84389502Y-37444180D01*
X84425812Y-37324482D01*
X84438072Y-37200000D01*
X84438072Y-35700000D01*
X84425812Y-35575518D01*
X84389502Y-35455820D01*
X84330537Y-35345506D01*
X84251185Y-35248815D01*
X84154494Y-35169463D01*
X84061247Y-35119621D01*
X84561432Y-34619437D01*
X84593291Y-34593291D01*
X84619440Y-34561429D01*
X84669852Y-34500001D01*
X84697636Y-34466146D01*
X84718901Y-34426362D01*
X84724482Y-34425812D01*
X84844180Y-34389502D01*
X84954494Y-34330537D01*
X85051185Y-34251185D01*
X85130537Y-34154494D01*
X85189502Y-34044180D01*
X85225812Y-33924482D01*
X85238072Y-33800000D01*
X85238072Y-32600000D01*
X85225812Y-32475518D01*
X85189502Y-32355820D01*
X85130537Y-32245506D01*
X85051185Y-32148815D01*
X84954494Y-32069463D01*
X84844180Y-32010498D01*
X84724482Y-31974188D01*
X84600000Y-31961928D01*
X83400000Y-31961928D01*
X83275518Y-31974188D01*
X83155820Y-32010498D01*
X83045506Y-32069463D01*
X83000000Y-32106809D01*
X82954494Y-32069463D01*
X82844180Y-32010498D01*
X82835000Y-32007713D01*
X82835000Y-31935000D01*
X83649172Y-31935000D01*
X83700000Y-31940006D01*
X83750828Y-31935000D01*
X83750838Y-31935000D01*
X83902895Y-31920024D01*
X84097993Y-31860841D01*
X84277797Y-31764734D01*
X84435396Y-31635396D01*
X84467807Y-31595903D01*
X85561928Y-30501783D01*
X85561928Y-30700400D01*
X85578984Y-30873576D01*
X85629498Y-31040097D01*
X85711528Y-31193564D01*
X85821921Y-31328079D01*
X85956436Y-31438472D01*
X86109903Y-31520502D01*
X86276424Y-31571016D01*
X86449600Y-31588072D01*
X87550400Y-31588072D01*
X87723576Y-31571016D01*
X87890097Y-31520502D01*
X88043564Y-31438472D01*
X88178079Y-31328079D01*
X88288472Y-31193564D01*
X88370502Y-31040097D01*
X88421016Y-30873576D01*
X88438072Y-30700400D01*
X88438072Y-30235000D01*
X90465000Y-30235000D01*
X90465001Y-32127378D01*
G37*
G04 #@! TD.AperFunction*
X65465000Y-32545868D02*
X65465000Y-32601939D01*
X65504774Y-32801898D01*
X65582795Y-32990256D01*
X65696063Y-33159774D01*
X65840226Y-33303937D01*
X66009744Y-33417205D01*
X66198102Y-33495226D01*
X66277745Y-33511068D01*
X66267071Y-33546255D01*
X66251928Y-33700000D01*
X66251928Y-33720096D01*
X66153913Y-33749828D01*
X66008854Y-33827364D01*
X65881709Y-33931709D01*
X65855554Y-33963579D01*
X65843226Y-33975907D01*
X65698102Y-34004774D01*
X65509744Y-34082795D01*
X65340226Y-34196063D01*
X65196063Y-34340226D01*
X65082795Y-34509744D01*
X65004774Y-34698102D01*
X64965000Y-34898061D01*
X64965000Y-35101939D01*
X65004774Y-35301898D01*
X65082795Y-35490256D01*
X65196063Y-35659774D01*
X65201289Y-35665000D01*
X64434625Y-35665000D01*
X64425812Y-35575518D01*
X64389502Y-35455820D01*
X64330537Y-35345506D01*
X64251185Y-35248815D01*
X64154494Y-35169463D01*
X64044180Y-35110498D01*
X63924482Y-35074188D01*
X63835000Y-35065375D01*
X63835000Y-34945868D01*
X64342796Y-34438072D01*
X64600000Y-34438072D01*
X64724482Y-34425812D01*
X64844180Y-34389502D01*
X64954494Y-34330537D01*
X65051185Y-34251185D01*
X65130537Y-34154494D01*
X65189502Y-34044180D01*
X65225812Y-33924482D01*
X65238072Y-33800000D01*
X65238072Y-32600000D01*
X65225812Y-32475518D01*
X65189502Y-32355820D01*
X65130537Y-32245506D01*
X65051185Y-32148815D01*
X64954494Y-32069463D01*
X64844180Y-32010498D01*
X64724482Y-31974188D01*
X64600000Y-31961928D01*
X63400000Y-31961928D01*
X63275518Y-31974188D01*
X63155820Y-32010498D01*
X63045506Y-32069463D01*
X63000000Y-32106809D01*
X62954494Y-32069463D01*
X62844180Y-32010498D01*
X62735000Y-31977379D01*
X62735000Y-31845867D01*
X62845868Y-31735000D01*
X64654133Y-31735000D01*
X65465000Y-32545868D01*
X65465000Y-32545868D02*
X64654133Y-31735000D01*
G04 #@! TA.AperFunction,Conductor*
G36*
X65465000Y-32545868D02*
G01*
X65465000Y-32601939D01*
X65504774Y-32801898D01*
X65582795Y-32990256D01*
X65696063Y-33159774D01*
X65840226Y-33303937D01*
X66009744Y-33417205D01*
X66198102Y-33495226D01*
X66277745Y-33511068D01*
X66267071Y-33546255D01*
X66251928Y-33700000D01*
X66251928Y-33720096D01*
X66153913Y-33749828D01*
X66008854Y-33827364D01*
X65881709Y-33931709D01*
X65855554Y-33963579D01*
X65843226Y-33975907D01*
X65698102Y-34004774D01*
X65509744Y-34082795D01*
X65340226Y-34196063D01*
X65196063Y-34340226D01*
X65082795Y-34509744D01*
X65004774Y-34698102D01*
X64965000Y-34898061D01*
X64965000Y-35101939D01*
X65004774Y-35301898D01*
X65082795Y-35490256D01*
X65196063Y-35659774D01*
X65201289Y-35665000D01*
X64434625Y-35665000D01*
X64425812Y-35575518D01*
X64389502Y-35455820D01*
X64330537Y-35345506D01*
X64251185Y-35248815D01*
X64154494Y-35169463D01*
X64044180Y-35110498D01*
X63924482Y-35074188D01*
X63835000Y-35065375D01*
X63835000Y-34945868D01*
X64342796Y-34438072D01*
X64600000Y-34438072D01*
X64724482Y-34425812D01*
X64844180Y-34389502D01*
X64954494Y-34330537D01*
X65051185Y-34251185D01*
X65130537Y-34154494D01*
X65189502Y-34044180D01*
X65225812Y-33924482D01*
X65238072Y-33800000D01*
X65238072Y-32600000D01*
X65225812Y-32475518D01*
X65189502Y-32355820D01*
X65130537Y-32245506D01*
X65051185Y-32148815D01*
X64954494Y-32069463D01*
X64844180Y-32010498D01*
X64724482Y-31974188D01*
X64600000Y-31961928D01*
X63400000Y-31961928D01*
X63275518Y-31974188D01*
X63155820Y-32010498D01*
X63045506Y-32069463D01*
X63000000Y-32106809D01*
X62954494Y-32069463D01*
X62844180Y-32010498D01*
X62735000Y-31977379D01*
X62735000Y-31845867D01*
X62845868Y-31735000D01*
X64654133Y-31735000D01*
X65465000Y-32545868D01*
G37*
G04 #@! TD.AperFunction*
G04 #@! TD*
M02*
