M48
; DRILL file {KiCad 6.0.9-8da3e8f707~116~ubuntu20.04.1} date Fri May  5 17:22:20 2023
; FORMAT={-:-/ absolute / metric / decimal}
; #@! TF.CreationDate,2023-05-05T17:22:20+00:00
; #@! TF.GenerationSoftware,Kicad,Pcbnew,6.0.9-8da3e8f707~116~ubuntu20.04.1
; #@! TF.FileFunction,MixedPlating,1,2
FMAT,2
METRIC
; #@! TA.AperFunction,Plated,PTH,ViaDrill
T1C0.400
; #@! TA.AperFunction,Plated,PTH,ComponentDrill
T2C1.000
; #@! TA.AperFunction,Plated,PTH,ComponentDrill
T3C1.016
; #@! TA.AperFunction,Plated,PTH,ComponentDrill
T4C1.520
; #@! TA.AperFunction,NonPlated,NPTH,ComponentDrill
T5C3.200
%
G90
G05
T1
X50.0Y-32.5
X50.0Y-42.5
X50.0Y-50.0
X52.5Y-32.5
X52.5Y-42.5
X52.5Y-45.0
X52.5Y-47.5
X52.5Y-50.0
X55.0Y-32.5
X55.0Y-35.0
X55.0Y-37.5
X55.0Y-40.0
X55.0Y-42.5
X55.0Y-50.0
X56.75Y-35.0
X57.5Y-25.0
X57.5Y-50.0
X60.0Y-25.0
X60.0Y-27.5
X60.0Y-30.0
X60.0Y-50.0
X62.0Y-42.25
X62.5Y-25.0
X62.5Y-50.0
X63.0Y-38.25
X63.5Y-41.0
X64.25Y-45.75
X64.5Y-38.75
X64.5Y-40.0
X65.0Y-25.0
X65.0Y-27.5
X65.0Y-37.5
X65.0Y-45.0
X65.0Y-50.0
X65.5Y-33.0
X66.0Y-35.0
X66.5Y-32.5
X67.0Y-41.25
X67.5Y-37.5
X67.5Y-45.0
X67.5Y-50.0
X68.5Y-41.25
X69.25Y-36.5
X70.0Y-25.0
X70.0Y-27.5
X70.0Y-50.0
X70.5Y-36.75
X70.5Y-46.75
X70.7Y-43.75
X72.25Y-36.5
X72.5Y-25.0
X72.5Y-47.5
X72.75Y-42.5
X73.25Y-45.0
X73.5Y-36.75
X75.0Y-22.5
X75.0Y-25.0
X75.0Y-27.5
X75.0Y-42.25
X75.0Y-47.0
X76.5Y-34.5
X76.95Y-32.8
X77.0Y-31.0
X77.0Y-45.0
X77.0Y-47.0
X77.5Y-22.5
X77.5Y-25.0
X77.5Y-27.5
X77.5Y-30.0
X77.75Y-42.25
X78.0Y-31.0
X79.0Y-37.0
X80.0Y-22.5
X80.0Y-25.0
X80.0Y-27.5
X82.5Y-22.5
X82.5Y-25.0
X82.5Y-42.5
X83.0Y-35.0
X85.0Y-22.5
X85.0Y-25.0
X85.0Y-27.5
X85.0Y-42.5
X85.25Y-31.5
X86.0Y-37.0
X87.0Y-34.0
X87.0Y-38.75
X87.5Y-32.5
X88.0Y-44.0
X88.0Y-46.0
X88.25Y-41.25
X88.25Y-47.75
X90.0Y-22.5
X90.0Y-25.0
X90.0Y-27.5
X90.0Y-30.75
X90.0Y-50.0
X92.5Y-22.5
X92.5Y-30.0
X95.0Y-30.0
X95.0Y-35.0
X95.0Y-37.5
X95.0Y-42.5
T2
X95.5Y-32.38
X95.5Y-40.0
X103.12Y-32.38
X103.12Y-40.0
X108.2Y-32.38
X108.2Y-40.0
X113.28Y-32.38
X113.28Y-40.0
T3
X56.0Y-44.46
X56.0Y-47.0
X58.54Y-44.46
X58.54Y-47.0
X61.08Y-44.46
X61.08Y-47.0
X79.0Y-44.46
X79.0Y-47.0
X81.54Y-44.46
X81.54Y-47.0
X84.08Y-44.46
X84.08Y-47.0
T4
X51.5Y-24.0
X51.5Y-29.08
X101.6Y-25.4
X101.6Y-46.609
X106.68Y-25.4
X106.68Y-46.609
X111.76Y-25.4
X111.76Y-46.609
T5
X51.0Y-37.0
X95.0Y-25.5
X95.0Y-47.5
T0
M30
